G04 ================== begin FILE IDENTIFICATION RECORD ==================*
G04 Layout Name:  F:/JZM/Track Systems/main pcb/du_main_proto.brd*
G04 Film Name:    BOTLAY*
G04 File Format:  Gerber RS274X*
G04 File Origin:  Cadence Allegro 16.3-p003*
G04 Origin Date:  Thu Nov 11 20:12:00 2010*
G04 *
G04 Layer:  BOARD GEOMETRY/FILM_FORMAT*
G04 Layer:  BOARD GEOMETRY/OUTLINE*
G04 Layer:  ETCH/BOTTOM*
G04 Layer:  PIN/BOTTOM*
G04 Layer:  VIA CLASS/BOTTOM*
G04 *
G04 Offset:    (0.00 0.00)*
G04 Mirror:    No*
G04 Mode:      Positive*
G04 Rotation:  0*
G04 FullContactRelief:  No*
G04 UndefLineWidth:     0.00*
G04 ================== end FILE IDENTIFICATION RECORD ====================*
%FSLAX55Y55*MOIN*%
%IR0*IPPOS*OFA0.00000B0.00000*MIA0B0*SFA1.00000B1.00000*%
%ADD33R,.1X.05*%
%ADD46R,.08X.22*%
%ADD19R,.05X.145*%
%ADD58R,.087X.11*%
%ADD40C,.022*%
%ADD14C,.04*%
%ADD11O,.106X.067*%
%ADD41C,.016*%
%ADD17C,.018*%
%ADD59R,.146X.067*%
%ADD54C,.064*%
%ADD51C,.055*%
%ADD25R,.142X.088*%
%ADD55C,.065*%
%ADD24C,.056*%
%AMMACRO27*
21,1,.098,.118,0.0,0.0,45.*%
%ADD27MACRO27*%
%ADD15R,.138X.087*%
%ADD23R,.056X.056*%
%ADD39R,.1X.21*%
%ADD57R,.11X.11*%
%ADD56R,.103X.11*%
%ADD52R,.03X.012*%
%ADD45R,.012X.02*%
%ADD53R,.05X.012*%
%ADD20R,.02X.025*%
%ADD38O,.012X.063*%
%ADD34R,.025X.02*%
%ADD21R,.05X.04*%
%ADD18R,.034X.012*%
%ADD44R,.018X.02*%
%ADD37R,.055X.03*%
%ADD48R,.025X.08*%
%ADD43R,.05X.055*%
%ADD35C,.124*%
%ADD16O,.065X.043*%
%ADD47R,.075X.05*%
%ADD42R,.047X.06*%
%ADD50R,.047X.026*%
%ADD49R,.025X.075*%
%ADD32R,.097X.031*%
%ADD13O,.075X.047*%
%ADD10C,.236*%
%ADD28O,.067X.047*%
%ADD29O,.047X.067*%
%ADD12O,.095X.047*%
%ADD31R,.098X.055*%
%ADD22R,.048X.088*%
%ADD30R,.098X.049*%
%ADD36R,.079X.079*%
%ADD26R,.079X.079*%
%ADD60C,.01*%
%ADD61C,.02*%
%ADD62C,.012*%
%ADD63C,.015*%
%ADD64C,.001*%
%ADD65C,.005*%
%ADD66C,.008*%
%ADD68C,.03204*%
%ADD69R,.12232X.12232*%
%ADD67R,.07204X.07204*%
G75*
%LPD*%
G75*
G36*
G01X-398000Y-41500D02*
X-394000Y-37500D01*
X-388000D01*
X-387500Y-38000D01*
Y-45500D01*
X-388000Y-46000D01*
X-398500D01*
X-400500Y-44000D01*
Y-41500D01*
X-398000D01*
G37*
G36*
G01X-406500Y-39500D02*
Y-31000D01*
X-397000D01*
Y-39000D01*
X-398500Y-40500D01*
X-405500D01*
X-406500Y-39500D01*
G37*
G36*
G01X-402500Y-28500D02*
X-405000Y-26000D01*
Y-15000D01*
X-403000Y-13000D01*
X-360000D01*
X-355500Y-17500D01*
Y-26000D01*
X-358000Y-28500D01*
X-372500D01*
X-378500Y-34500D01*
Y-45500D01*
X-379000Y-46000D01*
X-383000D01*
X-383500Y-45500D01*
Y-34500D01*
X-389500Y-28500D01*
X-402500D01*
G37*
G36*
G01X-278000Y-86000D02*
X-391000D01*
X-392000Y-85000D01*
Y-72500D01*
X-389500Y-70000D01*
X-362000D01*
X-355000Y-63000D01*
X-323000D01*
X-309000Y-77000D01*
X-292500D01*
X-290500Y-79000D01*
X-277500D01*
X-276500Y-80000D01*
Y-84500D01*
X-278000Y-86000D01*
G37*
G36*
G01X-375000Y-37000D02*
X-368500Y-30500D01*
X-357500D01*
X-356000Y-32000D01*
Y-60500D01*
X-361500Y-66000D01*
X-375000D01*
Y-37000D01*
G37*
G36*
G01X-277500Y-60500D02*
X-279500Y-58500D01*
X-318500D01*
X-329000Y-48000D01*
Y-42000D01*
X-323500Y-36500D01*
X-277500D01*
X-276000Y-38000D01*
Y-42500D01*
X-271500Y-47000D01*
Y-60500D01*
X-277500D01*
G37*
G36*
G01X-308500Y-75000D02*
X-310500Y-73000D01*
Y-64500D01*
X-306500Y-60500D01*
X-279500D01*
X-277500Y-62500D01*
X-269500D01*
X-268500Y-61500D01*
Y-29500D01*
X-267500Y-28500D01*
X-250500D01*
X-250000Y-29000D01*
Y-55000D01*
X-250500Y-55500D01*
X-257000D01*
X-258500Y-57000D01*
Y-77000D01*
X-259500Y-78000D01*
Y-81500D01*
X-267500D01*
Y-78000D01*
X-268500Y-77000D01*
Y-67500D01*
X-269500Y-66500D01*
X-277000D01*
X-278500Y-65000D01*
X-285000D01*
X-287500Y-67500D01*
Y-75500D01*
X-288000Y-76000D01*
X-291000D01*
X-292000Y-75000D01*
X-308500D01*
G37*
G36*
G01X-255500Y-65500D02*
Y-62500D01*
X-247500D01*
X-246000Y-61000D01*
Y-57000D01*
X-247500Y-55500D01*
X-249000D01*
Y-34952D01*
X-248998D01*
Y-31498D01*
X-245500Y-28000D01*
X-229000D01*
X-228500Y-28500D01*
Y-60000D01*
X-234000Y-65500D01*
X-255500D01*
G37*
G36*
G01X-226500Y-28500D02*
X-233500Y-21500D01*
Y-14000D01*
X-233000Y-13500D01*
X-203000D01*
X-199500Y-17000D01*
Y-37500D01*
X-200000Y-38000D01*
X-224500D01*
X-226500Y-36000D01*
Y-28500D01*
G37*
G36*
G01X-195500Y-53000D02*
X-197000Y-54500D01*
X-199893D01*
G03X-199969Y-54434I-1908J-2120D01*
G02X-199973Y-53824I257J307D01*
G03X-203627I-1827J2124D01*
G02X-203631Y-54434I-261J-303D01*
G03X-203707Y-54500I1832J-2186D01*
G01X-206000D01*
X-208000Y-52500D01*
Y-41500D01*
X-206000Y-39500D01*
X-197500D01*
X-195500Y-41500D01*
Y-53000D01*
G37*
G36*
G01X-40200Y89561D02*
G02X-40800I-300J265D01*
G03X-42341Y86935I-1200J-1061D01*
G02X-42042Y86435I-86J-391D01*
G03X-42096Y85862I1542J-434D01*
G01X-42089Y85778D01*
X-42255Y85583D01*
X-42323Y85569D01*
G03X-40800Y82939I323J-1569D01*
G02X-40200I300J-265D01*
G03X-37720Y83037I1200J1061D01*
G02X-37000Y82797I320J-240D01*
G01Y68028D01*
X-37122Y67976D01*
G03Y65024I622J-1476D01*
G01X-37000Y64972D01*
Y48000D01*
X-40500Y44500D01*
X-46748D01*
G03X-49252I-1252J-1000D01*
G01X-89500D01*
X-98000Y53000D01*
Y86500D01*
X-87000Y97500D01*
X-46500D01*
X-39586Y90586D01*
G02X-39695Y89943I-283J-283D01*
G03X-40200Y89561I695J-1443D01*
G37*
G36*
G01X-86305Y200459D02*
Y189829D01*
X-96935D01*
Y200459D01*
X-86305D01*
G37*
%LPC*%
G75*
G54D68*
X-91000Y60500D03*
X-86000Y91500D03*
X-82000D03*
X-71500Y53000D03*
X-76500Y69000D03*
X-69000Y64500D03*
X-65000Y71000D03*
X-54650Y70350D03*
X-60500Y77000D03*
X-39500Y55500D03*
G54D69*
X-51500Y55000D03*
X-88000Y72000D03*
G54D67*
X-385500Y-75500D03*
X-228500Y-18000D03*
%LPD*%
G75*
G36*
G01X-82685Y66685D02*
X-93315D01*
Y77315D01*
X-82685D01*
Y66685D01*
G37*
G36*
G01X-46185Y60315D02*
Y49685D01*
X-56815D01*
Y60315D01*
X-46185D01*
G37*
G54D10*
X-457000Y182500D03*
X-452000Y0D03*
X0D03*
X5000Y182500D03*
G54D20*
X-399500Y-42850D03*
Y-39150D03*
X-307500Y-77850D03*
Y-74150D03*
X-281000Y-71650D03*
Y-75350D03*
Y-67350D03*
Y-63650D03*
X-272500Y-4350D03*
Y-650D03*
X-247000Y-4350D03*
Y-650D03*
X-231500Y-4350D03*
Y-650D03*
X-225500Y64350D03*
Y60650D03*
X-215500Y-4350D03*
Y-650D03*
X-216500Y102650D03*
Y106350D03*
X-206500Y64350D03*
Y60650D03*
X-211500Y102650D03*
Y106350D03*
X-202000Y-40850D03*
Y-37150D03*
X-196500Y-4350D03*
Y-650D03*
X-190500Y-4350D03*
Y-650D03*
X-157312Y-1742D03*
Y-5442D03*
X-147312Y-1742D03*
Y-5442D03*
X-137312Y-1742D03*
Y-5442D03*
X-132312Y-1742D03*
Y-5442D03*
X-132500Y49650D03*
Y53350D03*
G54D11*
X-453282Y-64869D03*
Y-36129D03*
G54D30*
X-340528Y55117D03*
Y65400D03*
Y75176D03*
Y85018D03*
Y94861D03*
Y104703D03*
Y114546D03*
Y124093D03*
Y130786D03*
G54D12*
X-456670Y36298D03*
G54D21*
X-399500Y-33200D03*
Y-24800D03*
X-362000Y-32700D03*
Y-24300D03*
G54D22*
X-390000Y-41700D03*
X-381000D03*
X-372000D03*
G54D31*
X-340528Y142794D03*
G54D13*
X-457654Y143699D03*
G54D40*
X-265500Y-74000D03*
X-263500Y-70500D03*
X-267500D03*
X-265500Y-67500D03*
X-263500Y-64500D03*
X-267500D03*
X-265500Y-61000D03*
X-267000Y-57500D03*
X-263500D03*
X-261500Y-74000D03*
X-260000Y-70500D03*
X-261500Y-67500D03*
X-260000Y-64500D03*
X-261500Y-61000D03*
X-260000Y-57500D03*
X-95163Y191601D03*
Y195144D03*
Y198687D03*
X-88000Y72000D03*
Y68457D03*
X-91543Y72000D03*
Y68457D03*
X-91500Y75500D03*
X-88000Y75543D03*
X-91620Y191601D03*
X-88077D03*
X-91620Y195144D03*
X-88077D03*
Y198687D03*
X-91620D03*
X-84457Y68457D03*
Y72000D03*
Y75543D03*
X-55043Y51457D03*
Y58543D03*
Y55000D03*
X-47957Y51457D03*
X-51500D03*
Y58543D03*
Y55000D03*
X-48000D03*
Y58500D03*
G54D32*
X-340528Y136494D03*
G54D50*
X-153035Y167500D03*
Y172500D03*
Y177500D03*
Y182500D03*
X-124965Y172500D03*
Y167500D03*
Y182500D03*
Y177500D03*
G54D23*
X-385500Y-75500D03*
X-322292Y172300D03*
X-228500Y-18000D03*
X-213500Y194500D03*
X-177000Y79000D03*
X-174000Y194500D03*
X-138000Y62500D03*
G54D41*
X-268689Y122942D03*
Y116643D03*
Y119793D03*
X-265539Y122942D03*
Y116643D03*
Y119793D03*
X-268689Y129242D03*
Y132391D03*
Y126092D03*
X-265539D03*
Y129242D03*
Y132391D03*
X-268689Y135541D03*
Y138690D03*
X-265539Y135541D03*
Y138690D03*
X-268689Y148139D03*
Y141840D03*
Y144990D03*
X-265539Y141840D03*
Y144990D03*
Y148139D03*
X-268689Y151289D03*
Y154438D03*
Y157588D03*
X-265539Y151289D03*
Y154438D03*
Y157588D03*
X-268689Y160738D03*
Y163887D03*
X-265539Y160738D03*
Y163887D03*
Y167037D03*
X-268689D03*
X-256090Y122942D03*
X-259240D03*
X-262390D03*
X-256090Y116643D03*
Y119793D03*
X-259240Y116643D03*
Y119793D03*
X-262390Y116643D03*
Y119793D03*
X-256090Y126092D03*
X-259240D03*
Y129242D03*
Y132391D03*
X-262390Y126092D03*
Y129242D03*
Y132391D03*
X-259240Y135541D03*
Y138690D03*
X-262390Y135541D03*
Y138690D03*
X-259240Y141840D03*
Y144990D03*
Y148139D03*
X-262390Y141840D03*
Y144990D03*
Y148139D03*
X-256090Y157588D03*
X-259240Y151289D03*
Y154438D03*
Y157588D03*
X-262390Y151289D03*
Y154438D03*
Y157588D03*
X-256090Y160738D03*
Y163887D03*
X-259240Y160738D03*
Y163887D03*
X-262390Y160738D03*
Y163887D03*
Y167037D03*
X-259240D03*
X-256090D03*
X-249791Y122942D03*
X-252941D03*
X-249791Y116643D03*
Y119793D03*
X-252941Y116643D03*
Y119793D03*
X-249791Y126092D03*
X-252941D03*
X-249791Y157588D03*
X-252941D03*
X-249791Y160738D03*
Y163887D03*
X-252941Y160738D03*
Y163887D03*
X-249791Y167037D03*
X-252941D03*
X-240342Y122942D03*
X-243492D03*
X-246642D03*
X-240342Y116643D03*
Y119793D03*
X-243492Y116643D03*
Y119793D03*
X-246642Y116643D03*
Y119793D03*
X-240342Y126092D03*
X-243492D03*
X-246642D03*
Y138690D03*
X-240342D03*
X-243492D03*
X-246642Y144990D03*
Y141840D03*
X-243492D03*
X-240342D03*
Y144990D03*
X-243492D03*
X-240342Y157588D03*
X-243492D03*
X-246642D03*
X-240342Y160738D03*
Y163887D03*
X-243492Y160738D03*
Y163887D03*
X-246642Y160738D03*
Y163887D03*
X-240342Y167037D03*
X-243492D03*
X-246642D03*
X-230894Y122942D03*
X-234043D03*
X-237193D03*
X-230894Y116643D03*
Y119793D03*
X-234043Y116643D03*
Y119793D03*
X-237193Y116643D03*
Y119793D03*
X-230894Y126092D03*
X-234043D03*
X-237193D03*
X-230894Y157588D03*
X-234043D03*
X-237193D03*
X-230894Y160738D03*
Y163887D03*
X-234043Y160738D03*
Y163887D03*
X-237193Y160738D03*
Y163887D03*
X-230894Y167037D03*
X-234043D03*
X-237193D03*
X-224594Y122942D03*
X-227744D03*
X-224594Y116643D03*
Y119793D03*
X-227744Y116643D03*
Y119793D03*
X-224594Y126092D03*
Y129242D03*
Y132391D03*
X-227744Y126092D03*
Y129242D03*
Y132391D03*
X-224594Y135541D03*
Y138690D03*
X-227744Y135541D03*
Y138690D03*
X-224594Y141840D03*
Y144990D03*
Y148139D03*
X-227744Y141840D03*
Y144990D03*
Y148139D03*
X-224594Y151289D03*
Y154438D03*
Y157588D03*
X-227744Y151289D03*
Y154438D03*
Y157588D03*
X-224594Y160738D03*
Y163887D03*
X-227744Y160738D03*
Y163887D03*
X-224594Y167037D03*
X-227744D03*
X-218295Y122942D03*
X-221445D03*
X-218295Y116643D03*
Y119793D03*
X-221445Y116643D03*
Y119793D03*
X-218295Y126092D03*
Y129242D03*
Y132391D03*
X-221445Y126092D03*
Y129242D03*
Y132391D03*
X-218295Y135541D03*
Y138690D03*
X-221445Y135541D03*
Y138690D03*
X-218295Y141840D03*
Y144990D03*
Y148139D03*
X-221445Y141840D03*
Y144990D03*
Y148139D03*
X-218295Y154438D03*
Y157588D03*
X-221445Y151289D03*
Y154438D03*
Y157588D03*
X-218295Y151289D03*
Y160738D03*
Y163887D03*
X-221445Y160738D03*
Y163887D03*
Y167037D03*
X-218295D03*
G54D14*
X-450000Y-80000D03*
X-430000Y200000D03*
X-201800Y-76306D03*
Y-71385D03*
Y-61542D03*
Y-66464D03*
Y-51700D03*
Y-56621D03*
X-20000Y200000D03*
X-10000Y-80000D03*
G54D60*
G01X-432317Y-50499D02*
X-423886D01*
X-423854Y-50531D01*
G01Y-52500D02*
X-427500D01*
G01X-425233Y-40267D02*
X-422121D01*
X-420120Y-42268D01*
Y-44090D01*
X-420846Y-44816D01*
Y-53065D01*
X-422250Y-54469D01*
X-423854D01*
G01Y-50531D02*
X-423046Y-49723D01*
Y-43904D01*
X-422321Y-43179D01*
G01X-418146Y-52500D02*
X-414500D01*
G01X-327971Y-19529D02*
X-326913Y-18471D01*
Y-17113D01*
X-320500Y-10700D01*
X-182088D01*
X-172800Y-1412D01*
Y52800D01*
X-184500Y64500D01*
Y81612D01*
X-190588Y87700D01*
X-204588D01*
X-212900Y96012D01*
Y98500D01*
G01X-330883Y-16617D02*
X-329822Y-15556D01*
X-328469Y-15557D01*
X-321412Y-8500D01*
X-183000D01*
X-175000Y-500D01*
Y51888D01*
X-186700Y63588D01*
Y80700D01*
X-191500Y85500D01*
X-205500D01*
X-215100Y95100D01*
Y98500D01*
G01X-281000Y-75350D02*
X-284800D01*
X-285150Y-75000D01*
G01X-281000Y-71650D02*
Y-67350D01*
G01X-274400Y-69000D02*
X-276500D01*
X-278150Y-67350D01*
X-281000D01*
G01X-274400Y-74000D02*
Y-80250D01*
X-274150Y-80500D01*
G01X-269850D02*
X-274150D01*
G01X-271000Y-38500D02*
X-273650D01*
G01X-272500Y2500D02*
Y7457D01*
X-272445Y7512D01*
G01X-272500Y-4350D02*
X-269500D01*
G01X-272500Y-650D02*
Y2500D01*
G01X-262390Y138690D02*
X-262402D01*
X-263980Y137112D01*
G01X-262390Y151289D02*
X-262397D01*
X-263980Y152872D01*
G01X-257150Y-80500D02*
X-256000Y-79350D01*
Y-76000D01*
X-254000Y-74000D01*
X-252600D01*
G01Y-59000D02*
X-248000D01*
G01X-247000Y-4350D02*
X-250500D01*
G01X-227744Y122942D02*
X-226156Y121354D01*
G01X-224594Y122942D02*
Y122916D01*
X-226156Y121354D01*
G01X-224594Y126092D02*
Y122942D01*
G01X-227744Y126092D02*
X-226944Y125292D01*
Y123742D01*
X-227744Y122942D01*
G01X-90750Y117600D02*
X-93584D01*
G01X-90750Y134140D02*
X-93592D01*
G01X-90750Y143590D02*
X-93598D01*
G01X-90750Y155400D02*
X-93608D01*
G01X-90750Y153040D02*
X-95000D01*
G01X-90750Y162480D02*
X-93620D01*
G01X-73330Y111700D02*
X-77028D01*
G01X-73330Y125870D02*
X-68766D01*
G01X-73330Y135320D02*
X-69560D01*
G01X-73330Y132960D02*
X-77012D01*
G01X-73330Y144770D02*
X-69566D01*
G01X-73330Y154220D02*
X-76996D01*
G01X-73330Y151850D02*
X-69578D01*
G01X-73330Y166030D02*
X-76986D01*
G54D42*
X-252850Y-48500D03*
Y-40000D03*
X-241150Y-48500D03*
Y-40000D03*
G54D15*
X-444780Y143699D03*
G54D24*
X-385500Y-65500D03*
X-322292Y182300D03*
X-238500Y-18000D03*
X-223500Y194500D03*
X-177000Y69000D03*
X-164000Y194500D03*
X-158000Y62500D03*
X-148000D03*
G54D51*
X-101000Y125000D03*
G54D33*
X-297500Y-79500D03*
Y-67500D03*
G54D61*
G01X-201800Y-51700D02*
Y-48698D01*
G01X-204802Y-51700D02*
X-201800D01*
G01D02*
X-198798D01*
G54D16*
X-439207Y-53649D03*
Y-47350D03*
X-432317Y-56798D03*
Y-50499D03*
Y-44200D03*
G54D43*
X-252200Y-31500D03*
X-240800D03*
G54D34*
X-288850Y-75000D03*
X-285150D03*
X-274150Y-80500D03*
X-277850D03*
X-273650Y-38500D03*
X-277350D03*
X-266150Y-80500D03*
X-269850D03*
X-257150D03*
X-260850D03*
X-247650Y-54500D03*
X-251350D03*
G54D52*
X-90750Y115240D03*
Y112880D03*
Y110520D03*
Y108150D03*
Y122330D03*
Y119960D03*
Y117600D03*
Y131780D03*
Y129410D03*
Y127050D03*
Y124690D03*
Y141220D03*
Y138860D03*
Y136500D03*
Y134140D03*
Y148310D03*
Y145950D03*
Y143590D03*
Y157760D03*
Y155400D03*
Y153040D03*
Y150670D03*
Y164850D03*
Y162480D03*
Y160120D03*
G54D25*
X-381000Y-17300D03*
G54D62*
G01X-137700Y119200D02*
X-174700D01*
G01X-73330Y118780D02*
X-67720D01*
X-64500Y122000D01*
G54D26*
X-371000Y-77300D03*
Y-61700D03*
G54D35*
X-268527Y212040D03*
X-183409D03*
G54D44*
X-227248Y225575D03*
Y222425D03*
X-220752Y225575D03*
Y222425D03*
G54D53*
X-73330Y106970D03*
Y114060D03*
Y111700D03*
Y109330D03*
Y123510D03*
Y121150D03*
Y118780D03*
Y116420D03*
Y130590D03*
Y128230D03*
Y125870D03*
Y140040D03*
Y137680D03*
Y135320D03*
Y132960D03*
Y149490D03*
Y147130D03*
Y144770D03*
Y142410D03*
Y156580D03*
Y154220D03*
Y151850D03*
Y166030D03*
Y163670D03*
Y161300D03*
Y158940D03*
G54D17*
X-431250Y71922D03*
Y100650D03*
Y107400D03*
X-427500Y-52500D03*
X-425233Y-40267D03*
X-425924Y-10924D03*
Y25424D03*
X-430200Y87200D03*
X-424000Y119500D03*
X-427250Y120250D03*
X-427500Y129500D03*
X-416000Y-68500D03*
X-414500Y-52500D03*
X-416500Y-58500D03*
X-422321Y-43179D03*
X-415924Y-10924D03*
Y25424D03*
X-422350Y87850D03*
X-419500Y112500D03*
X-417500Y149000D03*
X-410500Y-36500D03*
X-405924Y-10924D03*
X-411326Y17326D03*
X-405924Y25424D03*
X-414000Y114000D03*
X-399650Y-73350D03*
X-404000Y-68500D03*
X-399650Y-63650D03*
X-403000Y-62000D03*
X-403500Y-39500D03*
X-405500Y-38000D03*
X-403500Y-36500D03*
X-405500Y-35000D03*
X-403500Y-33500D03*
X-405500Y-32000D03*
X-391000Y-81500D03*
Y-79000D03*
Y-76500D03*
Y-74000D03*
X-390350Y-55350D03*
X-395924Y-10924D03*
X-391150Y17150D03*
X-394000Y30500D03*
X-395924Y25424D03*
X-394000Y43500D03*
X-381000Y-26000D03*
X-386000D03*
X-383500Y-28000D03*
X-386000Y-30000D03*
X-381000D03*
X-383500Y-32000D03*
X-381000Y-33500D03*
X-385924Y-10924D03*
X-380850Y17150D03*
X-388000Y30500D03*
X-386000Y27000D03*
X-376000Y-26000D03*
X-378500Y-28000D03*
X-376000Y-30000D03*
X-378500Y-32000D03*
X-375924Y-10924D03*
Y25424D03*
X-365924Y-10924D03*
X-360000Y-56000D03*
Y-53000D03*
X-357500Y-51500D03*
Y-54500D03*
Y-57500D03*
X-360000Y-50000D03*
X-357500Y-48500D03*
X-355924Y-10924D03*
Y25424D03*
X-354874Y52760D03*
X-347383Y55117D03*
X-354874Y60640D03*
X-347500Y63000D03*
X-354874Y79126D03*
X-347500Y76500D03*
X-347954Y114546D03*
X-355000Y122000D03*
X-347294Y142794D03*
X-345924Y-10924D03*
X-342500Y80500D03*
Y99500D03*
Y119500D03*
X-341500Y147000D03*
X-335924Y-10924D03*
X-330883Y-16617D03*
X-333518Y85018D03*
X-333000Y94500D03*
X-334000Y104703D03*
X-334093Y124093D03*
X-334214Y130786D03*
X-338000Y150500D03*
X-331000Y153000D03*
X-333324Y162328D03*
X-327971Y-19529D03*
X-329384Y23384D03*
X-324442Y31942D03*
X-330172Y111896D03*
X-324284Y123716D03*
X-324192Y130808D03*
X-329644Y157860D03*
X-327808Y156024D03*
X-324000Y151000D03*
X-329644Y166796D03*
X-316992Y22852D03*
X-317564Y28368D03*
X-320992Y38508D03*
X-316492Y38992D03*
X-315000Y102000D03*
X-320716Y126868D03*
X-315200Y144992D03*
X-315988Y169420D03*
X-314412Y171784D03*
X-317564D03*
X-315988Y174148D03*
X-314412Y176512D03*
X-317564D03*
X-307000Y-3500D03*
X-310058Y9942D03*
X-307242Y30758D03*
X-312492Y38492D03*
X-309340Y97400D03*
X-305940Y95700D03*
X-312740Y100000D03*
X-311040Y94000D03*
X-306806Y141566D03*
Y135536D03*
X-309684Y138688D03*
X-311520Y149460D03*
X-312836Y174148D03*
Y169420D03*
X-305000Y-500D03*
X-299742Y30758D03*
X-299440Y141840D03*
Y139476D03*
Y146568D03*
Y144204D03*
X-297864Y182816D03*
Y187544D03*
Y192272D03*
X-296288Y11000D03*
X-288500Y72000D03*
X-290250Y76500D03*
X-288500Y87500D03*
X-294500Y90500D03*
X-292500Y92300D03*
X-293500Y102500D03*
X-294712Y149288D03*
Y166288D03*
X-293320Y169680D03*
X-294712Y182816D03*
X-296288Y185180D03*
X-294712Y187544D03*
Y192272D03*
X-296288Y189908D03*
X-282500Y22000D03*
X-284500Y24000D03*
X-280500Y20000D03*
X-286200Y26500D03*
X-288000Y44000D03*
X-286500Y74500D03*
X-284000Y81000D03*
X-281316Y152872D03*
X-272500Y2500D03*
X-272445Y12445D03*
X-276949Y15449D03*
X-278700Y17500D03*
X-275000Y29000D03*
X-273000Y31500D03*
X-275000Y51488D03*
X-272445Y56500D03*
X-272500Y67000D03*
X-272200Y70000D03*
X-274000Y137000D03*
X-275800Y155340D03*
X-279740Y155236D03*
X-271860Y181240D03*
X-274224Y183604D03*
X-275800Y181240D03*
X-278164Y183604D03*
X-271000Y-38500D03*
X-269500Y-4350D03*
X-269295Y12608D03*
X-266146D03*
Y45500D03*
X-269295D03*
Y59500D03*
X-266146D03*
X-268000Y81500D03*
X-270500Y85000D03*
X-267132Y124504D03*
X-263980D03*
Y121352D03*
Y130808D03*
Y127656D03*
Y133960D03*
Y137112D03*
Y146568D03*
Y143416D03*
Y156024D03*
Y152872D03*
Y162328D03*
Y159176D03*
X-267132Y162328D03*
X-270500Y169000D03*
X-270284Y183604D03*
X-262996Y12608D03*
X-256697D03*
X-259846D03*
X-256697Y45500D03*
X-259846D03*
X-262996D03*
X-262953Y59500D03*
X-256697D03*
X-259846D03*
X-255097Y72500D03*
X-257671Y121354D03*
Y124504D03*
X-260828Y121352D03*
Y124504D03*
Y130810D03*
Y127656D03*
X-256500Y134500D03*
X-260828Y133960D03*
Y137112D03*
Y143416D03*
X-257500Y146500D03*
X-260828Y146568D03*
Y156024D03*
Y152872D03*
X-257676Y159176D03*
X-260828Y162328D03*
X-257676D03*
X-260828Y159176D03*
X-257640Y170500D03*
X-246644Y-70920D03*
Y-67768D03*
X-248000Y-59000D03*
X-250500Y-4350D03*
X-247432Y2364D03*
X-247248Y12424D03*
X-250398Y12608D03*
X-253547D03*
X-250398Y45500D03*
X-253547D03*
X-247248D03*
Y59500D03*
X-250398D03*
X-253547D03*
X-246644Y108744D03*
X-246642Y112686D03*
X-254522Y124504D03*
Y121354D03*
X-248220Y124504D03*
X-251372Y121352D03*
X-248220D03*
X-251372Y124504D03*
X-248220Y129232D03*
Y137112D03*
Y143416D03*
X-246500Y148372D03*
X-248220Y146568D03*
X-253144Y154356D03*
X-254524Y162328D03*
Y159176D03*
X-251372D03*
X-248220Y162328D03*
Y159176D03*
X-251372Y162328D03*
X-248220Y173360D03*
Y175724D03*
Y178088D03*
X-249500Y233100D03*
X-253527Y229973D03*
X-245856Y-29944D03*
X-240949Y12429D03*
X-244098Y12426D03*
X-238500Y40000D03*
X-240949Y43500D03*
Y59500D03*
X-244098D03*
X-243500Y72000D03*
X-241500Y67000D03*
X-245698Y75198D03*
X-240340Y108744D03*
X-243492Y112684D03*
X-240342Y112686D03*
X-243492Y108744D03*
X-245068Y124504D03*
X-238764Y121352D03*
X-245068D03*
X-238764Y124504D03*
X-245500Y128000D03*
X-241500D03*
X-238500D03*
X-238764Y137112D03*
X-241916D03*
Y146568D03*
X-245068Y143416D03*
X-241916D03*
X-243500Y148499D03*
X-245068Y146568D03*
X-244244Y154722D03*
X-238764Y162328D03*
X-245068Y159176D03*
X-241916Y162328D03*
X-238764Y159176D03*
X-245856Y178088D03*
X-243492D03*
Y180452D03*
X-241128D03*
X-238000Y188500D03*
X-242500Y210500D03*
X-241716Y229716D03*
X-230000Y-51000D03*
Y-48500D03*
Y-46000D03*
Y-43500D03*
Y-41000D03*
Y-38500D03*
X-234500Y-4350D03*
X-231500Y2500D03*
Y12500D03*
X-237799Y12431D03*
X-234500Y33500D03*
X-237000Y35500D03*
X-233000Y37000D03*
X-231500Y46492D03*
X-234650Y46150D03*
X-231500Y57352D03*
X-237799Y57347D03*
X-231500Y67500D03*
X-230350Y92150D03*
X-231500Y98500D03*
X-237193Y114193D03*
X-230894Y114106D03*
X-234036Y112684D03*
Y108744D03*
X-235612Y121352D03*
X-232460D03*
Y124504D03*
X-235612D03*
Y118200D03*
X-231500Y133000D03*
X-237384Y141616D03*
X-233444Y141556D03*
X-230500Y141500D03*
X-233444Y151444D03*
X-237384Y151384D03*
X-235612Y162328D03*
X-232460D03*
Y159176D03*
X-235612D03*
X-230894Y185500D03*
X-234043Y187544D03*
X-235612Y192272D03*
X-230884Y188332D03*
X-234000Y220500D03*
X-229750Y233100D03*
X-228000Y-4350D03*
X-225201Y2701D03*
Y12799D03*
X-222051Y15449D03*
X-228500Y26500D03*
X-225201Y46659D03*
X-222051Y46051D03*
X-228350Y46150D03*
X-225500Y57656D03*
Y67500D03*
X-228350Y80000D03*
X-222000Y83000D03*
X-223500Y99000D03*
X-227744Y107744D03*
X-224594Y108094D03*
X-221500Y112000D03*
X-226156Y121354D03*
X-229308Y124504D03*
X-223004Y118200D03*
X-229308Y121352D03*
X-223004Y130808D03*
X-226156D03*
X-223004Y133960D03*
Y140264D03*
X-226156D03*
Y137112D03*
X-223004D03*
X-226156Y133960D03*
Y149720D03*
X-223004D03*
Y146568D03*
Y143416D03*
X-226156Y146568D03*
Y156024D03*
X-223004D03*
Y152872D03*
X-226156D03*
X-223004Y162328D03*
X-226156Y159176D03*
X-223004D03*
X-226156Y165480D03*
X-229308Y159176D03*
X-226156Y162328D03*
X-229308D03*
Y182028D03*
X-227744Y184392D03*
X-228520Y216500D03*
X-226500Y215050D03*
X-223000Y219500D03*
X-224984Y229984D03*
X-227248Y232398D03*
X-218500Y-4350D03*
X-215752Y2752D03*
Y12752D03*
X-215000Y15500D03*
X-218902Y17402D03*
X-217302Y36000D03*
X-215752Y46652D03*
X-220500Y42000D03*
X-218902Y46098D03*
X-216000Y56824D03*
Y67500D03*
X-213500Y80400D03*
X-215500Y83000D03*
X-216700Y124504D03*
X-215919Y132391D03*
X-219852Y127656D03*
X-215914Y138690D03*
X-213500Y133960D03*
X-214336Y141840D03*
X-215914Y144990D03*
X-219852Y143416D03*
X-215639Y148139D03*
X-215789Y151289D03*
X-213562Y160738D03*
X-219064Y176512D03*
X-221428D03*
X-216452Y216503D03*
X-214157Y229657D03*
X-218094Y229594D03*
X-209500Y-4350D03*
X-206303Y2697D03*
Y12803D03*
X-209500Y22000D03*
X-212500Y24000D03*
X-205500Y30500D03*
X-211000Y32050D03*
X-207500Y40000D03*
X-206303Y46645D03*
X-209453Y46547D03*
X-204704Y44000D03*
X-206303Y56736D03*
X-212602Y56898D03*
X-206500Y67500D03*
X-205150Y105650D03*
X-209000Y102650D03*
X-211500Y112500D03*
X-211972Y120564D03*
X-205450Y162000D03*
Y194450D03*
X-210220Y229720D03*
X-199500Y-4350D03*
X-196854Y2500D03*
Y12354D03*
X-203500Y20000D03*
X-200004Y27000D03*
X-201554Y39000D03*
X-202500Y36000D03*
X-196854Y46638D03*
X-203154Y46654D03*
X-196500Y42000D03*
X-196854Y56590D03*
X-200004Y56496D03*
X-197500Y67500D03*
X-199350Y116350D03*
X-202000Y116500D03*
Y120500D03*
X-203000Y130000D03*
X-199400Y127930D03*
X-203000Y134500D03*
Y146500D03*
Y142500D03*
Y155638D03*
X-200350Y161150D03*
X-196000Y161000D03*
X-202346Y232346D03*
X-198409Y232409D03*
X-193500Y-4350D03*
X-187544Y-5516D03*
X-190555Y2555D03*
Y12445D03*
X-193705Y25000D03*
X-190555Y46555D03*
X-193705Y46295D03*
X-190555Y56595D03*
X-190500Y67500D03*
X-191900Y73305D03*
X-193730Y124230D03*
X-189120Y141052D03*
X-189908Y138714D03*
X-188332Y144204D03*
X-187500Y161000D03*
X-189903Y175903D03*
X-181500Y-50960D03*
X-185000Y-3152D03*
X-183058Y-1576D03*
X-186994Y4728D03*
X-181000Y788D03*
Y102500D03*
X-180500Y109000D03*
X-184392Y136324D03*
X-186120Y146000D03*
X-182750Y151500D03*
X-182500Y161000D03*
X-185500Y172000D03*
X-182500Y171500D03*
X-173850Y-49154D03*
X-174500Y-41000D03*
X-178876Y2364D03*
X-179045Y4728D03*
X-177500Y108500D03*
X-174700Y119200D03*
X-171150Y131350D03*
X-175500Y146500D03*
X-165500Y-78000D03*
Y-72500D03*
X-167868Y19700D03*
X-167000Y99000D03*
X-168800Y94700D03*
X-163904Y93772D03*
X-166700Y111200D03*
X-170000Y179500D03*
X-154250Y-69750D03*
X-161750Y-63000D03*
X-160678Y-5442D03*
X-159964Y93772D03*
X-156000Y106000D03*
X-155300Y110800D03*
X-159750Y126750D03*
X-159250Y135250D03*
X-155000Y134500D03*
X-156000Y149500D03*
Y159500D03*
X-157710Y172500D03*
X-159000Y182450D03*
X-157500Y192500D03*
X-148332Y-67332D03*
X-153800Y94800D03*
X-147000Y159500D03*
X-150000D03*
X-153000D03*
X-147500Y172500D03*
Y182500D03*
X-148304Y197696D03*
X-148745Y202450D03*
X-140190Y-5442D03*
X-137312Y26992D03*
X-137700Y119200D03*
X-142650Y126650D03*
X-139500Y141000D03*
X-144000Y159500D03*
X-142500Y167500D03*
X-137500Y172500D03*
X-142500Y177500D03*
X-137500Y182500D03*
X-132500Y56620D03*
X-131500Y123500D03*
X-129000Y126000D03*
X-137000Y147000D03*
X-132650Y148650D03*
X-136500Y159050D03*
X-132500Y167500D03*
Y177500D03*
X-131000Y202000D03*
X-128450Y49650D03*
X-125500Y90500D03*
X-128650Y111000D03*
Y120500D03*
X-126000Y126000D03*
X-124000Y135500D03*
X-122675Y141916D03*
X-120597Y142903D03*
X-128500Y150000D03*
X-123550Y156950D03*
X-122000Y160500D03*
X-128000Y162000D03*
X-124965Y190000D03*
X-117050Y24000D03*
X-115500Y28500D03*
X-114000Y31500D03*
X-118600Y26500D03*
X-112500Y140000D03*
X-116127Y148873D03*
X-114500Y150500D03*
X-119500Y159500D03*
X-115500Y172500D03*
X-118000Y175500D03*
X-114500Y178450D03*
Y182350D03*
X-112872Y199128D03*
X-112684Y208032D03*
X-120000Y204550D03*
X-104150Y72650D03*
X-108000Y72500D03*
Y81000D03*
X-111380Y116120D03*
X-107550Y141550D03*
X-110500Y138346D03*
X-110650Y145500D03*
X-104445Y154555D03*
X-109100Y152050D03*
X-104000Y159000D03*
X-105000Y162000D03*
X-107500Y171000D03*
X-109000Y191500D03*
X-109695Y204500D03*
X-111000Y223500D03*
X-96136Y115048D03*
X-103403Y152097D03*
X-99950Y164000D03*
X-101500Y166500D03*
X-99850Y174150D03*
X-96494Y181994D03*
X-97500Y184500D03*
X-91000Y60500D03*
X-88000D03*
X-94364Y112880D03*
X-93584Y117600D03*
X-94220Y131780D03*
X-93592Y134140D03*
X-93860Y138860D03*
X-93598Y143590D03*
X-93608Y155400D03*
X-95000Y153040D03*
X-93620Y162480D03*
X-89620Y175120D03*
X-93000Y206500D03*
Y209000D03*
X-89620Y215380D03*
X-86000Y91500D03*
X-82000D03*
X-81500Y139000D03*
X-80000Y150500D03*
X-81977Y147130D03*
X-79000Y159000D03*
X-79620Y185620D03*
X-86000Y184500D03*
X-83746Y201754D03*
X-83500Y206500D03*
X-85620Y215380D03*
X-71500Y53000D03*
X-76500Y69000D03*
X-76000Y72000D03*
X-77028Y111700D03*
X-78252Y115288D03*
X-77012Y132960D03*
X-77500Y140000D03*
X-76996Y154220D03*
X-76986Y166030D03*
X-73620Y180120D03*
X-77944Y183944D03*
X-73620Y188880D03*
X-70000Y198000D03*
X-77350Y195500D03*
X-75500Y200500D03*
X-70000Y203000D03*
X-69000Y64500D03*
X-65000Y71000D03*
Y103500D03*
X-68556Y116624D03*
Y113472D03*
X-64500Y122000D03*
X-68766Y125870D03*
X-64500Y126000D03*
X-69560Y135320D03*
X-69566Y144770D03*
X-69578Y151850D03*
X-61650Y160500D03*
X-68170Y163670D03*
X-65847Y170347D03*
X-62750Y171250D03*
X-66000Y173000D03*
X-69556Y183944D03*
X-68844Y192344D03*
X-63450Y196000D03*
X-64000Y200500D03*
Y209050D03*
X-63500Y205500D03*
X-62497Y213548D03*
X-69000Y212550D03*
X-66000Y220050D03*
X-57000Y34500D03*
X-61000D03*
X-54500Y37500D03*
Y41350D03*
X-54650Y70350D03*
X-58350Y70850D03*
X-60500Y77000D03*
X-53500Y96500D03*
X-56500D03*
X-57332Y116668D03*
X-57364Y110364D03*
X-58500Y170500D03*
X-60000Y173500D03*
X-56500Y175000D03*
X-54442Y176029D03*
X-56849Y203350D03*
X-60500Y205500D03*
X-58500Y217500D03*
X-61000D03*
X-56500Y215000D03*
X-53500Y211000D03*
X-49500Y27650D03*
X-52000Y34500D03*
X-48000Y43500D03*
X-47500Y96500D03*
X-50500D03*
Y103500D03*
X-45350Y102350D03*
X-52500Y122000D03*
X-49350Y158000D03*
X-50500Y175000D03*
X-52500Y178500D03*
X-48000Y201500D03*
X-46500Y207500D03*
X-50000Y209450D03*
X-36500Y26500D03*
X-37000Y37000D03*
X-39500Y55500D03*
X-38350Y50650D03*
X-36500Y66500D03*
X-39000Y84000D03*
X-42000D03*
X-40500Y86000D03*
X-39000Y88500D03*
X-42000D03*
X-38500Y105500D03*
X-42500Y106000D03*
X-42000Y122000D03*
Y126000D03*
X-38150Y166850D03*
X-41000Y160000D03*
X-38150Y163150D03*
X-33500Y47000D03*
X-31500Y53000D03*
Y59000D03*
X-34500Y68000D03*
X-20500Y18000D03*
Y47000D03*
X-12000Y43500D03*
X-17336Y48969D03*
X-12000Y95000D03*
Y108500D03*
X900Y17900D03*
X1300Y102300D03*
X2500Y128500D03*
X8000Y26000D03*
G54D63*
G01X-432317Y-56798D02*
X-420615Y-68500D01*
X-416000D01*
G01X-425924Y-1842D02*
Y-10924D01*
G01Y15658D02*
Y25424D01*
G01X-415924Y-1842D02*
Y-10924D01*
G01X-405924Y-1842D02*
Y-10924D01*
G01X-395924Y-1842D02*
Y-10924D01*
G01X-385500Y-79302D02*
Y-75500D01*
G01D02*
Y-71698D01*
G01X-389302Y-75500D02*
X-385500D01*
G01D02*
X-381698D01*
G01X-385924Y-1842D02*
Y-10924D01*
G01X-375924Y-1842D02*
Y-10924D01*
G01X-365924Y-1842D02*
Y-10924D01*
G01X-355924Y-1842D02*
Y-10924D01*
G01X-340528Y114546D02*
X-347954D01*
G01X-345924Y-1842D02*
Y-10924D01*
G01X-340528Y85018D02*
X-333518D01*
G01X-340528Y94861D02*
X-340167Y94500D01*
X-333000D01*
G01X-340528Y142794D02*
X-347294D01*
G01X-335924Y-1842D02*
Y-10924D01*
G01X-281316Y152872D02*
X-279733Y151289D01*
X-274224D01*
G01X-272445Y51488D02*
X-275000D01*
G01X-279740Y155236D02*
X-277793Y153289D01*
X-273395D01*
X-272978Y152872D01*
X-270284D01*
G01X-252600Y-69000D02*
X-250928D01*
G01X-246644Y-67768D02*
X-249008D01*
X-250240Y-69000D01*
X-250928D01*
G01X-246644Y-70920D02*
X-249008D01*
X-250928Y-69000D01*
G01X-232302Y-18000D02*
X-228500D01*
G01X-231500Y-4350D02*
X-234500D01*
G01X-231500Y-650D02*
Y2500D01*
G01Y51488D02*
Y46492D01*
G01X-228500Y-21802D02*
Y-18000D01*
G01D02*
Y-14198D01*
G01Y-18000D02*
X-224698D01*
G01X-225201Y51488D02*
Y57357D01*
X-225500Y57656D01*
G01Y64350D02*
Y67500D01*
G01Y60650D02*
Y57656D01*
G01X-221445Y144990D02*
Y144975D01*
X-223004Y143416D01*
G01X-215500Y-4350D02*
X-218500D01*
G01X-215500Y-650D02*
Y2500D01*
X-215752Y2752D01*
G01Y51488D02*
Y46652D01*
G01X-206303Y51488D02*
Y56736D01*
G01X-206500Y60650D02*
Y56933D01*
X-206303Y56736D01*
G01X-206500Y64350D02*
Y67500D01*
G01X-196500Y-4350D02*
X-199500D01*
G01X-196500Y-650D02*
Y2146D01*
X-196854Y2500D01*
G01Y51488D02*
Y46638D01*
G01X-190500Y-4350D02*
X-193500D01*
G01X-190500Y-650D02*
Y2500D01*
X-190555Y2555D01*
G01Y51488D02*
Y46555D01*
G01X-157312Y-5442D02*
X-160678D01*
G01X-153035Y172500D02*
X-157710D01*
G01X-153035Y177500D02*
X-142500D01*
G01X-137312Y-5442D02*
X-140190D01*
G01X-137312Y33658D02*
Y26992D01*
G01Y33658D02*
Y41908D01*
G01X-132312Y33658D02*
Y41908D01*
G01X-132500Y49650D02*
Y42096D01*
X-132312Y41908D01*
G01X-132500Y53350D02*
Y56620D01*
G01Y49650D02*
X-128450D01*
G01X-73330Y163670D02*
X-79670D01*
X-80850Y164850D01*
X-90750D01*
G01X-73330Y163670D02*
X-68170D01*
G01X8000Y17900D02*
X900D01*
G01X12500Y128500D02*
X2500D01*
G01X8000Y17900D02*
Y26000D01*
G54D36*
X-280300Y-47500D03*
X-264700D03*
X-232800Y-32000D03*
X-217200D03*
G54D18*
X-423854Y-54469D03*
Y-52500D03*
Y-50531D03*
X-418146Y-54469D03*
Y-52500D03*
Y-50531D03*
G54D45*
X-224984Y225575D03*
Y222425D03*
X-223016Y225575D03*
Y222425D03*
G54D27*
X-349628Y-73128D03*
X-321372Y-44872D03*
G54D54*
X-46000Y-42600D03*
X-21000Y-62400D03*
G54D64*
G01X-448519Y-89000D02*
G02X-460955Y-77766I0J12500D01*
G02X-473689Y192383I2474700J252024D01*
G02X-465245Y204116I12499J-91D01*
G02X-439500Y212421I239253J-697613D01*
G02X-412500Y220029I213486J-705925D01*
G02X-333500Y236123I186501J-713531D01*
G01Y227928D01*
X-298500D01*
Y240428D01*
G02X-153500I72500J-733927D01*
G01Y227928D01*
X-118500D01*
Y236123D01*
G02X-39500Y220029I-107501J-729623D01*
G01X-12500Y212421D01*
G02X13245Y204116I-213508J-705918D01*
G02X21689Y192383I-4055J-11824D01*
G02X13842Y-24000I-2487434J-18128D01*
G01X7842D01*
G03X4842Y-27000I0J-3000D01*
G01Y-76000D01*
G03X7842Y-79000I3000J0D01*
G01X8767D01*
G02X-3481Y-89000I-12248J2501D01*
G01X-448519D01*
G01D02*
G02X-460955Y-77766I0J12500D01*
G02X-473689Y192383I2474692J252024D01*
G02X-465245Y204116I12499J-91D01*
G02X-439500Y212421I239246J-697593D01*
G02X-412500Y220029I213482J-705911D01*
G02X-333500Y236123I186501J-713533D01*
G01Y227928D01*
X-298500D01*
Y240428D01*
G02X-153500I72500J-733926D01*
G01Y227928D01*
X-118500D01*
Y236123D01*
G02X-39500Y220029I-107501J-729627D01*
G01X-12500Y212421D01*
G02X13245Y204116I-213501J-705898D01*
G02X21689Y192383I-4055J-11824D01*
G02X13842Y-24000I-2487393J-18130D01*
G01X7842D01*
G03X4842Y-27000I0J-3000D01*
G01Y-76000D01*
G03X7842Y-79000I3000J0D01*
G01X8767D01*
G02X-3481Y-89000I-12248J2501D01*
G01X-448519D01*
G01X-336968Y-119718D02*
Y-179718D01*
X-11968D01*
Y-119718D01*
X-336968D01*
G01D02*
Y-179718D01*
X-11968D01*
Y-119718D01*
X-336968D01*
G01Y-164718D02*
X-11968D01*
G01X-336968D02*
X-11968D01*
G01X-336968Y-149718D02*
X-11968D01*
G01X-336968D02*
X-11968D01*
G01X-336968Y-134718D02*
X-11968D01*
G01X-336968D02*
X-11968D01*
G01X-164468Y-179718D02*
Y-164718D01*
G01Y-179718D02*
Y-164718D01*
G01X-124468Y-179718D02*
Y-164718D01*
G01Y-179718D02*
Y-164718D01*
G54D28*
X-349583Y70274D03*
Y100392D03*
G54D37*
X-274400Y-74000D03*
Y-69000D03*
Y-64000D03*
Y-59000D03*
X-252600Y-74000D03*
Y-69000D03*
Y-59000D03*
Y-64000D03*
G54D55*
X-24000Y32500D03*
X3600D03*
G54D19*
X-425924Y-1842D03*
Y15658D03*
X-415924Y-1842D03*
Y15658D03*
X-405924Y-1842D03*
Y15658D03*
X-395924Y-1842D03*
Y15658D03*
X-385924Y-1842D03*
Y15658D03*
X-375924Y-1842D03*
Y15658D03*
X-365924Y-1842D03*
Y15658D03*
X-355924Y-1842D03*
Y15658D03*
X-345924Y-1842D03*
Y15658D03*
X-335924Y-1842D03*
Y15658D03*
G54D46*
X-197000Y103000D03*
Y141000D03*
G54D65*
G01X-416500Y-58500D02*
Y-55469D01*
X-417500Y-54469D01*
X-418146D01*
G01X-415924Y15658D02*
Y25424D01*
G01X-405924Y15658D02*
Y25424D01*
G01X-395924Y15658D02*
Y25424D01*
G01X-386000Y27000D02*
Y15734D01*
X-385924Y15658D01*
G01X-388000Y30500D02*
X-368000D01*
X-365924Y28424D01*
Y15658D01*
G01X-375924D02*
Y25424D01*
G01X-355924Y15658D02*
Y25424D01*
G01X-340528Y55117D02*
X-347383D01*
G01X-340528Y65400D02*
X-345100D01*
X-347500Y63000D01*
G01Y76500D02*
X-341852D01*
X-340528Y75176D01*
G01X-334000Y104703D02*
X-340528D01*
G01Y124093D02*
X-334093D01*
G01X-340528Y130786D02*
X-334214D01*
G01X-320716Y126868D02*
Y133960D01*
X-323250Y136494D01*
X-340528D01*
G01X-333968Y-169718D02*
Y-165718D01*
X-332768D01*
X-332368Y-165918D01*
X-332068Y-166385D01*
X-331968Y-166918D01*
X-332068Y-167451D01*
X-332318Y-167851D01*
X-332768Y-168051D01*
X-333968D01*
G01X-330568Y-169851D02*
X-328768Y-165718D01*
G01X-327518Y-169718D02*
Y-165718D01*
X-325218Y-169718D01*
Y-165718D01*
G01X-323068Y-169851D02*
X-323168Y-169785D01*
Y-169651D01*
X-323068Y-169585D01*
X-322968Y-169651D01*
Y-169785D01*
X-323068Y-169851D01*
G01Y-168051D02*
X-323168Y-167985D01*
Y-167851D01*
X-323068Y-167785D01*
X-322968Y-167851D01*
Y-167985D01*
X-323068Y-168051D01*
G01X-333968Y-169718D02*
Y-165718D01*
X-332768D01*
X-332368Y-165918D01*
X-332068Y-166385D01*
X-331968Y-166918D01*
X-332068Y-167451D01*
X-332318Y-167851D01*
X-332768Y-168051D01*
X-333968D01*
G01X-330568Y-169851D02*
X-328768Y-165718D01*
G01X-327518Y-169718D02*
Y-165718D01*
X-325218Y-169718D01*
Y-165718D01*
G01X-323068Y-169851D02*
X-323168Y-169785D01*
Y-169651D01*
X-323068Y-169585D01*
X-322968Y-169651D01*
Y-169785D01*
X-323068Y-169851D01*
G01Y-168051D02*
X-323168Y-167985D01*
Y-167851D01*
X-323068Y-167785D01*
X-322968Y-167851D01*
Y-167985D01*
X-323068Y-168051D01*
G01X-333968Y-150718D02*
Y-154718D01*
X-331968D01*
G01X-330918D02*
X-329668Y-150718D01*
X-328418Y-154718D01*
G01X-328868Y-153318D02*
X-330468D01*
G01X-326368Y-154718D02*
Y-152918D01*
X-327368Y-150718D01*
G01X-325368D02*
X-326368Y-152918D01*
G01X-322068Y-154718D02*
X-324068D01*
Y-150718D01*
X-322068D01*
G01X-322868Y-152651D02*
X-324068D01*
G01X-320768Y-154718D02*
Y-150718D01*
X-319518D01*
X-319118Y-150918D01*
X-318868Y-151185D01*
X-318768Y-151718D01*
X-318868Y-152251D01*
X-319168Y-152585D01*
X-319518Y-152785D01*
X-320768D01*
G01X-319518D02*
X-318768Y-154718D01*
G01X-316468Y-154851D02*
X-316568Y-154785D01*
Y-154651D01*
X-316468Y-154585D01*
X-316368Y-154651D01*
Y-154785D01*
X-316468Y-154851D01*
G01Y-153051D02*
X-316568Y-152985D01*
Y-152851D01*
X-316468Y-152785D01*
X-316368Y-152851D01*
Y-152985D01*
X-316468Y-153051D01*
G01X-333968Y-150718D02*
Y-154718D01*
X-331968D01*
G01X-330918D02*
X-329668Y-150718D01*
X-328418Y-154718D01*
G01X-328868Y-153318D02*
X-330468D01*
G01X-326368Y-154718D02*
Y-152918D01*
X-327368Y-150718D01*
G01X-325368D02*
X-326368Y-152918D01*
G01X-322068Y-154718D02*
X-324068D01*
Y-150718D01*
X-322068D01*
G01X-322868Y-152651D02*
X-324068D01*
G01X-320768Y-154718D02*
Y-150718D01*
X-319518D01*
X-319118Y-150918D01*
X-318868Y-151185D01*
X-318768Y-151718D01*
X-318868Y-152251D01*
X-319168Y-152585D01*
X-319518Y-152785D01*
X-320768D01*
G01X-319518D02*
X-318768Y-154718D01*
G01X-316468Y-154851D02*
X-316568Y-154785D01*
Y-154651D01*
X-316468Y-154585D01*
X-316368Y-154651D01*
Y-154785D01*
X-316468Y-154851D01*
G01Y-153051D02*
X-316568Y-152985D01*
Y-152851D01*
X-316468Y-152785D01*
X-316368Y-152851D01*
Y-152985D01*
X-316468Y-153051D01*
G01X-334068Y-139718D02*
Y-135718D01*
X-333068D01*
X-332668Y-135918D01*
X-332368Y-136185D01*
X-332118Y-136585D01*
X-331918Y-137051D01*
X-331868Y-137718D01*
X-331918Y-138385D01*
X-332118Y-138851D01*
X-332368Y-139251D01*
X-332668Y-139518D01*
X-333068Y-139718D01*
X-334068D01*
G01X-330668D02*
Y-135718D01*
X-329418D01*
X-329018Y-135918D01*
X-328768Y-136185D01*
X-328668Y-136718D01*
X-328768Y-137251D01*
X-329068Y-137585D01*
X-329418Y-137785D01*
X-330668D01*
G01X-329418D02*
X-328668Y-139718D01*
G01X-327618D02*
X-326368Y-135718D01*
X-325118Y-139718D01*
G01X-325568Y-138318D02*
X-327168D01*
G01X-324568Y-135718D02*
X-323868Y-139718D01*
X-323068Y-135718D01*
X-322268Y-139718D01*
X-321568Y-135718D01*
G01X-320918Y-139718D02*
Y-135718D01*
X-318618Y-139718D01*
Y-135718D01*
G01X-312768Y-137585D02*
X-312568Y-137385D01*
X-312418Y-137051D01*
X-312318Y-136585D01*
X-312418Y-136185D01*
X-312618Y-135918D01*
X-312968Y-135718D01*
X-314318D01*
Y-139718D01*
X-312668D01*
X-312318Y-139451D01*
X-312118Y-139051D01*
X-312018Y-138585D01*
X-312118Y-138118D01*
X-312418Y-137718D01*
X-312768Y-137585D01*
X-314318D01*
G01X-309868Y-139718D02*
Y-137918D01*
X-310868Y-135718D01*
G01X-308868D02*
X-309868Y-137918D01*
G01X-306568Y-139851D02*
X-306668Y-139785D01*
Y-139651D01*
X-306568Y-139585D01*
X-306468Y-139651D01*
Y-139785D01*
X-306568Y-139851D01*
G01Y-138051D02*
X-306668Y-137985D01*
Y-137851D01*
X-306568Y-137785D01*
X-306468Y-137851D01*
Y-137985D01*
X-306568Y-138051D01*
G01X-334068Y-139718D02*
Y-135718D01*
X-333068D01*
X-332668Y-135918D01*
X-332368Y-136185D01*
X-332118Y-136585D01*
X-331918Y-137051D01*
X-331868Y-137718D01*
X-331918Y-138385D01*
X-332118Y-138851D01*
X-332368Y-139251D01*
X-332668Y-139518D01*
X-333068Y-139718D01*
X-334068D01*
G01X-330668D02*
Y-135718D01*
X-329418D01*
X-329018Y-135918D01*
X-328768Y-136185D01*
X-328668Y-136718D01*
X-328768Y-137251D01*
X-329068Y-137585D01*
X-329418Y-137785D01*
X-330668D01*
G01X-329418D02*
X-328668Y-139718D01*
G01X-327618D02*
X-326368Y-135718D01*
X-325118Y-139718D01*
G01X-325568Y-138318D02*
X-327168D01*
G01X-324568Y-135718D02*
X-323868Y-139718D01*
X-323068Y-135718D01*
X-322268Y-139718D01*
X-321568Y-135718D01*
G01X-320918Y-139718D02*
Y-135718D01*
X-318618Y-139718D01*
Y-135718D01*
G01X-312768Y-137585D02*
X-312568Y-137385D01*
X-312418Y-137051D01*
X-312318Y-136585D01*
X-312418Y-136185D01*
X-312618Y-135918D01*
X-312968Y-135718D01*
X-314318D01*
Y-139718D01*
X-312668D01*
X-312318Y-139451D01*
X-312118Y-139051D01*
X-312018Y-138585D01*
X-312118Y-138118D01*
X-312418Y-137718D01*
X-312768Y-137585D01*
X-314318D01*
G01X-309868Y-139718D02*
Y-137918D01*
X-310868Y-135718D01*
G01X-308868D02*
X-309868Y-137918D01*
G01X-306568Y-139851D02*
X-306668Y-139785D01*
Y-139651D01*
X-306568Y-139585D01*
X-306468Y-139651D01*
Y-139785D01*
X-306568Y-139851D01*
G01Y-138051D02*
X-306668Y-137985D01*
Y-137851D01*
X-306568Y-137785D01*
X-306468Y-137851D01*
Y-137985D01*
X-306568Y-138051D01*
G01X-333968Y-124718D02*
Y-120718D01*
X-332768D01*
X-332368Y-120918D01*
X-332068Y-121385D01*
X-331968Y-121918D01*
X-332068Y-122451D01*
X-332318Y-122851D01*
X-332768Y-123051D01*
X-333968D01*
G01X-330668Y-124718D02*
Y-120718D01*
X-329418D01*
X-329018Y-120918D01*
X-328768Y-121185D01*
X-328668Y-121718D01*
X-328768Y-122251D01*
X-329068Y-122585D01*
X-329418Y-122785D01*
X-330668D01*
G01X-329418D02*
X-328668Y-124718D01*
G01X-326368D02*
X-326768Y-124651D01*
X-327118Y-124385D01*
X-327418Y-123985D01*
X-327618Y-123518D01*
X-327718Y-122985D01*
Y-122451D01*
X-327618Y-121918D01*
X-327418Y-121451D01*
X-327118Y-121051D01*
X-326768Y-120785D01*
X-326368Y-120718D01*
X-325968Y-120785D01*
X-325618Y-121051D01*
X-325318Y-121451D01*
X-325118Y-121918D01*
X-325018Y-122451D01*
Y-122985D01*
X-325118Y-123518D01*
X-325318Y-123985D01*
X-325618Y-124385D01*
X-325968Y-124651D01*
X-326368Y-124718D01*
G01X-324068Y-123918D02*
X-323818Y-124318D01*
X-323518Y-124585D01*
X-323168Y-124718D01*
X-322768Y-124585D01*
X-322468Y-124318D01*
X-322168Y-123918D01*
X-322068Y-123385D01*
Y-120718D01*
G01X-318768Y-124718D02*
X-320768D01*
Y-120718D01*
X-318768D01*
G01X-319568Y-122651D02*
X-320768D01*
G01X-315368Y-121051D02*
X-315668Y-120851D01*
X-316018Y-120718D01*
X-316418D01*
X-316868Y-120918D01*
X-317218Y-121251D01*
X-317468Y-121651D01*
X-317668Y-122318D01*
X-317718Y-122918D01*
X-317618Y-123518D01*
X-317468Y-123918D01*
X-317168Y-124318D01*
X-316818Y-124585D01*
X-316468Y-124718D01*
X-316118D01*
X-315768Y-124585D01*
X-315468Y-124385D01*
X-315218Y-124118D01*
G01X-313168Y-120718D02*
Y-124718D01*
G01X-314318Y-120718D02*
X-312018D01*
G01X-309868Y-124851D02*
X-309968Y-124785D01*
Y-124651D01*
X-309868Y-124585D01*
X-309768Y-124651D01*
Y-124785D01*
X-309868Y-124851D01*
G01Y-123051D02*
X-309968Y-122985D01*
Y-122851D01*
X-309868Y-122785D01*
X-309768Y-122851D01*
Y-122985D01*
X-309868Y-123051D01*
G01X-333968Y-124718D02*
Y-120718D01*
X-332768D01*
X-332368Y-120918D01*
X-332068Y-121385D01*
X-331968Y-121918D01*
X-332068Y-122451D01*
X-332318Y-122851D01*
X-332768Y-123051D01*
X-333968D01*
G01X-330668Y-124718D02*
Y-120718D01*
X-329418D01*
X-329018Y-120918D01*
X-328768Y-121185D01*
X-328668Y-121718D01*
X-328768Y-122251D01*
X-329068Y-122585D01*
X-329418Y-122785D01*
X-330668D01*
G01X-329418D02*
X-328668Y-124718D01*
G01X-326368D02*
X-326768Y-124651D01*
X-327118Y-124385D01*
X-327418Y-123985D01*
X-327618Y-123518D01*
X-327718Y-122985D01*
Y-122451D01*
X-327618Y-121918D01*
X-327418Y-121451D01*
X-327118Y-121051D01*
X-326768Y-120785D01*
X-326368Y-120718D01*
X-325968Y-120785D01*
X-325618Y-121051D01*
X-325318Y-121451D01*
X-325118Y-121918D01*
X-325018Y-122451D01*
Y-122985D01*
X-325118Y-123518D01*
X-325318Y-123985D01*
X-325618Y-124385D01*
X-325968Y-124651D01*
X-326368Y-124718D01*
G01X-324068Y-123918D02*
X-323818Y-124318D01*
X-323518Y-124585D01*
X-323168Y-124718D01*
X-322768Y-124585D01*
X-322468Y-124318D01*
X-322168Y-123918D01*
X-322068Y-123385D01*
Y-120718D01*
G01X-318768Y-124718D02*
X-320768D01*
Y-120718D01*
X-318768D01*
G01X-319568Y-122651D02*
X-320768D01*
G01X-315368Y-121051D02*
X-315668Y-120851D01*
X-316018Y-120718D01*
X-316418D01*
X-316868Y-120918D01*
X-317218Y-121251D01*
X-317468Y-121651D01*
X-317668Y-122318D01*
X-317718Y-122918D01*
X-317618Y-123518D01*
X-317468Y-123918D01*
X-317168Y-124318D01*
X-316818Y-124585D01*
X-316468Y-124718D01*
X-316118D01*
X-315768Y-124585D01*
X-315468Y-124385D01*
X-315218Y-124118D01*
G01X-313168Y-120718D02*
Y-124718D01*
G01X-314318Y-120718D02*
X-312018D01*
G01X-309868Y-124851D02*
X-309968Y-124785D01*
Y-124651D01*
X-309868Y-124585D01*
X-309768Y-124651D01*
Y-124785D01*
X-309868Y-124851D01*
G01Y-123051D02*
X-309968Y-122985D01*
Y-122851D01*
X-309868Y-122785D01*
X-309768Y-122851D01*
Y-122985D01*
X-309868Y-123051D01*
G01X-323628Y-177218D02*
X-319708Y-169718D01*
G01X-323628D02*
X-319708Y-177218D01*
G01X-316128D02*
X-312208Y-169718D01*
G01X-316128D02*
X-312208Y-177218D01*
G01X-307881Y-174718D02*
X-305455D01*
G01X-301128Y-177218D02*
X-297208Y-169718D01*
G01X-301128D02*
X-297208Y-177218D01*
G01X-293628D02*
X-289708Y-169718D01*
G01X-293628D02*
X-289708Y-177218D01*
G01X-286128D02*
X-282208Y-169718D01*
G01X-286128D02*
X-282208Y-177218D01*
G01X-278628D02*
X-274708Y-169718D01*
G01X-278628D02*
X-274708Y-177218D01*
G01X-323628D02*
X-319708Y-169718D01*
G01X-323628D02*
X-319708Y-177218D01*
G01X-316128D02*
X-312208Y-169718D01*
G01X-316128D02*
X-312208Y-177218D01*
G01X-307881Y-174718D02*
X-305455D01*
G01X-301128Y-177218D02*
X-297208Y-169718D01*
G01X-301128D02*
X-297208Y-177218D01*
G01X-293628D02*
X-289708Y-169718D01*
G01X-293628D02*
X-289708Y-177218D01*
G01X-286128D02*
X-282208Y-169718D01*
G01X-286128D02*
X-282208Y-177218D01*
G01X-278628D02*
X-274708Y-169718D01*
G01X-278628D02*
X-274708Y-177218D01*
G01X-212900Y98500D02*
Y98625D01*
X-213500Y99225D01*
Y104350D01*
X-211500Y106350D01*
G01X-215100Y98500D02*
Y98625D01*
X-214500Y99225D01*
Y104350D01*
X-216500Y106350D01*
G01X-265539Y157588D02*
X-265544D01*
X-267132Y159176D01*
X-270767D01*
X-271481Y159890D01*
X-297912D01*
X-319140Y138662D01*
Y127537D01*
X-319166Y127511D01*
Y123500D01*
X-321000Y121666D01*
Y114000D01*
X-328384Y106616D01*
Y27585D01*
X-323892Y23093D01*
Y19885D01*
X-307000Y2993D01*
Y-3500D01*
G01X-330172Y111896D02*
Y105592D01*
X-329384Y104804D01*
Y23384D01*
G01X-268689Y157588D02*
X-270594D01*
X-271896Y158890D01*
X-297497D01*
X-318140Y138247D01*
Y127122D01*
X-318166Y127096D01*
Y123085D01*
X-320000Y121251D01*
Y113585D01*
X-327384Y106201D01*
Y28000D01*
X-322892Y23508D01*
Y20300D01*
X-306000Y3408D01*
Y500D01*
X-305000Y-500D01*
G01X-265539Y154438D02*
X-266334D01*
X-267920Y156024D01*
X-270445D01*
X-272311Y157890D01*
X-297082D01*
X-317140Y137832D01*
Y126707D01*
X-317166Y126681D01*
Y122670D01*
X-319000Y120836D01*
Y113170D01*
X-326384Y105786D01*
Y51180D01*
X-318042Y42838D01*
Y28846D01*
X-317564Y28368D01*
G01X-296288Y11000D02*
X-314412Y29124D01*
Y39248D01*
X-317042Y41878D01*
Y43253D01*
X-325384Y51595D01*
Y105371D01*
X-318000Y112755D01*
Y120421D01*
X-316166Y122255D01*
Y126266D01*
X-316140Y126292D01*
Y137417D01*
X-296667Y156890D01*
X-272726D01*
X-270274Y154438D01*
X-268689D01*
G01X-315000Y102000D02*
Y121016D01*
X-314466Y121550D01*
Y125561D01*
X-314440Y125587D01*
Y136712D01*
X-300314Y150838D01*
X-284500D01*
X-283251Y149589D01*
X-268088D01*
X-266638Y148139D01*
X-265539D01*
G01Y141840D02*
Y142039D01*
X-267000Y143500D01*
X-285785D01*
X-307640Y121645D01*
Y70140D01*
X-293500Y56000D01*
Y38156D01*
X-286852Y31500D01*
X-286200Y30848D01*
Y26500D01*
G01X-309340Y97400D02*
Y122350D01*
X-286700Y144990D01*
X-268689D01*
G01X-311040Y94000D02*
Y123055D01*
X-287595Y146500D01*
X-266500D01*
X-265539Y145539D01*
Y144990D01*
G01X-312740Y100000D02*
Y123760D01*
X-288361Y148139D01*
X-268689D01*
G01X-299421Y-156968D02*
X-299048Y-156593D01*
X-298768Y-155968D01*
X-298581Y-155093D01*
X-298768Y-154343D01*
X-299141Y-153843D01*
X-299795Y-153468D01*
X-302315D01*
Y-160968D01*
X-299235D01*
X-298581Y-160468D01*
X-298208Y-159718D01*
X-298021Y-158843D01*
X-298208Y-157968D01*
X-298768Y-157218D01*
X-299421Y-156968D01*
X-302315D01*
G01X-292668Y-160968D02*
X-293415Y-160843D01*
X-294068Y-160343D01*
X-294628Y-159593D01*
X-295001Y-158718D01*
X-295188Y-157718D01*
Y-156718D01*
X-295001Y-155718D01*
X-294628Y-154843D01*
X-294068Y-154093D01*
X-293415Y-153593D01*
X-292668Y-153468D01*
X-291921Y-153593D01*
X-291268Y-154093D01*
X-290708Y-154843D01*
X-290335Y-155718D01*
X-290148Y-156718D01*
Y-157718D01*
X-290335Y-158718D01*
X-290708Y-159593D01*
X-291268Y-160343D01*
X-291921Y-160843D01*
X-292668Y-160968D01*
G01X-285168Y-153468D02*
Y-160968D01*
G01X-287315Y-153468D02*
X-283021D01*
G01X-277668D02*
Y-160968D01*
G01X-279815Y-153468D02*
X-275521D01*
G01X-270168Y-160968D02*
X-270915Y-160843D01*
X-271568Y-160343D01*
X-272128Y-159593D01*
X-272501Y-158718D01*
X-272688Y-157718D01*
Y-156718D01*
X-272501Y-155718D01*
X-272128Y-154843D01*
X-271568Y-154093D01*
X-270915Y-153593D01*
X-270168Y-153468D01*
X-269421Y-153593D01*
X-268768Y-154093D01*
X-268208Y-154843D01*
X-267835Y-155718D01*
X-267648Y-156718D01*
Y-157718D01*
X-267835Y-158718D01*
X-268208Y-159593D01*
X-268768Y-160343D01*
X-269421Y-160843D01*
X-270168Y-160968D01*
G01X-265095D02*
Y-153468D01*
X-262668Y-159718D01*
X-260241Y-153468D01*
Y-160968D01*
G01X-249535Y-153468D02*
Y-160968D01*
X-245801D01*
G01X-242501D02*
X-240168Y-153468D01*
X-237835Y-160968D01*
G01X-238675Y-158343D02*
X-241661D01*
G01X-232668Y-160968D02*
Y-157593D01*
X-234535Y-153468D01*
G01X-230801D02*
X-232668Y-157593D01*
G01X-223301Y-160968D02*
X-227035D01*
Y-153468D01*
X-223301D01*
G01X-224795Y-157093D02*
X-227035D01*
G01X-219535Y-160968D02*
Y-153468D01*
X-217201D01*
X-216455Y-153843D01*
X-215988Y-154343D01*
X-215801Y-155343D01*
X-215988Y-156343D01*
X-216548Y-156968D01*
X-217201Y-157343D01*
X-219535D01*
G01X-217201D02*
X-215801Y-160968D01*
G01X-211381Y-158468D02*
X-208955D01*
G01X-203881D02*
X-201455D01*
G01X-196381D02*
X-193955D01*
G01X-188881D02*
X-186455D01*
G01X-181381D02*
X-178955D01*
G01X-173881D02*
X-171455D01*
G01X-166381D02*
X-163955D01*
G01X-158881D02*
X-156455D01*
G01X-149421Y-156968D02*
X-149048Y-156593D01*
X-148768Y-155968D01*
X-148581Y-155093D01*
X-148768Y-154343D01*
X-149141Y-153843D01*
X-149795Y-153468D01*
X-152315D01*
Y-160968D01*
X-149235D01*
X-148581Y-160468D01*
X-148208Y-159718D01*
X-148021Y-158843D01*
X-148208Y-157968D01*
X-148768Y-157218D01*
X-149421Y-156968D01*
X-152315D01*
G01X-142668Y-160968D02*
X-143415Y-160843D01*
X-144068Y-160343D01*
X-144628Y-159593D01*
X-145001Y-158718D01*
X-145188Y-157718D01*
Y-156718D01*
X-145001Y-155718D01*
X-144628Y-154843D01*
X-144068Y-154093D01*
X-143415Y-153593D01*
X-142668Y-153468D01*
X-141921Y-153593D01*
X-141268Y-154093D01*
X-140708Y-154843D01*
X-140335Y-155718D01*
X-140148Y-156718D01*
Y-157718D01*
X-140335Y-158718D01*
X-140708Y-159593D01*
X-141268Y-160343D01*
X-141921Y-160843D01*
X-142668Y-160968D01*
G01X-135168Y-153468D02*
Y-160968D01*
G01X-137315Y-153468D02*
X-133021D01*
G01X-129535D02*
Y-160968D01*
X-125801D01*
G01X-122501D02*
X-120168Y-153468D01*
X-117835Y-160968D01*
G01X-118675Y-158343D02*
X-121661D01*
G01X-112668Y-160968D02*
Y-157593D01*
X-114535Y-153468D01*
G01X-110801D02*
X-112668Y-157593D01*
G01X-105168Y-161218D02*
X-105355Y-161093D01*
Y-160843D01*
X-105168Y-160718D01*
X-104981Y-160843D01*
Y-161093D01*
X-105168Y-161218D01*
G01X-100001Y-160968D02*
X-97668Y-153468D01*
X-95335Y-160968D01*
G01X-96175Y-158343D02*
X-99161D01*
G01X-92035Y-160968D02*
Y-153468D01*
X-89701D01*
X-88955Y-153843D01*
X-88488Y-154343D01*
X-88301Y-155343D01*
X-88488Y-156343D01*
X-89048Y-156968D01*
X-89701Y-157343D01*
X-92035D01*
G01X-89701D02*
X-88301Y-160968D01*
G01X-82668Y-153468D02*
Y-160968D01*
G01X-84815Y-153468D02*
X-80521D01*
G01X-303535Y-145718D02*
X-303068Y-146468D01*
X-302508Y-146968D01*
X-301855Y-147218D01*
X-301108Y-146968D01*
X-300548Y-146468D01*
X-299988Y-145718D01*
X-299801Y-144718D01*
Y-139718D01*
G01X-295941D02*
X-292395D01*
X-295941Y-147218D01*
X-292395D01*
G01X-289095D02*
Y-139718D01*
X-286668Y-145968D01*
X-284241Y-139718D01*
Y-147218D01*
G01X-269615Y-140343D02*
X-270175Y-139968D01*
X-270828Y-139718D01*
X-271575D01*
X-272415Y-140093D01*
X-273068Y-140718D01*
X-273535Y-141468D01*
X-273908Y-142718D01*
X-274001Y-143843D01*
X-273815Y-144968D01*
X-273535Y-145718D01*
X-272975Y-146468D01*
X-272321Y-146968D01*
X-271668Y-147218D01*
X-271015D01*
X-270361Y-146968D01*
X-269801Y-146593D01*
X-269335Y-146093D01*
G01X-264168Y-147218D02*
X-264915Y-147093D01*
X-265568Y-146593D01*
X-266128Y-145843D01*
X-266501Y-144968D01*
X-266688Y-143968D01*
Y-142968D01*
X-266501Y-141968D01*
X-266128Y-141093D01*
X-265568Y-140343D01*
X-264915Y-139843D01*
X-264168Y-139718D01*
X-263421Y-139843D01*
X-262768Y-140343D01*
X-262208Y-141093D01*
X-261835Y-141968D01*
X-261648Y-142968D01*
Y-143968D01*
X-261835Y-144968D01*
X-262208Y-145843D01*
X-262768Y-146593D01*
X-263421Y-147093D01*
X-264168Y-147218D01*
G01X-258815D02*
Y-139718D01*
X-254521Y-147218D01*
Y-139718D01*
G01X-251128Y-146218D02*
X-250381Y-146843D01*
X-249541Y-147218D01*
X-248795D01*
X-248048Y-146843D01*
X-247488Y-146218D01*
X-247208Y-145343D01*
X-247395Y-144468D01*
X-247861Y-143718D01*
X-248701Y-143218D01*
X-249821Y-142968D01*
X-250475Y-142468D01*
X-250755Y-141593D01*
X-250568Y-140718D01*
X-250101Y-140093D01*
X-249448Y-139718D01*
X-248795D01*
X-248141Y-139968D01*
X-247581Y-140593D01*
G01X-243721Y-139718D02*
Y-145093D01*
X-243348Y-146218D01*
X-242601Y-146968D01*
X-241668Y-147218D01*
X-240735Y-146968D01*
X-239988Y-146218D01*
X-239615Y-145093D01*
Y-139718D01*
G01X-236035D02*
Y-147218D01*
X-232301D01*
G01X-226668Y-139718D02*
Y-147218D01*
G01X-228815Y-139718D02*
X-224521D01*
G01X-220288D02*
X-218048D01*
G01X-219168D02*
Y-147218D01*
G01X-220288D02*
X-218048D01*
G01X-213815D02*
Y-139718D01*
X-209521Y-147218D01*
Y-139718D01*
G01X-203608Y-143468D02*
X-201741D01*
Y-145718D01*
X-202301Y-146468D01*
X-202955Y-146968D01*
X-203888Y-147218D01*
X-204821Y-146968D01*
X-205475Y-146468D01*
X-206035Y-145718D01*
X-206408Y-144843D01*
X-206595Y-143843D01*
Y-142968D01*
X-206408Y-142218D01*
X-206035Y-141343D01*
X-205475Y-140593D01*
X-204915Y-140093D01*
X-204168Y-139718D01*
X-203515D01*
X-202768Y-139968D01*
X-202208Y-140468D01*
G01X-198348Y-147468D02*
X-194988Y-139718D01*
G01X-191501Y-147218D02*
X-189168Y-139718D01*
X-186835Y-147218D01*
G01X-187675Y-144593D02*
X-190661D01*
G01X-181668Y-147218D02*
Y-139718D01*
G01X-174168Y-147218D02*
Y-139718D01*
G01X-168068Y-143843D02*
X-165081D01*
X-165361Y-142968D01*
X-165828Y-142468D01*
X-166481Y-142218D01*
X-167135Y-142343D01*
X-167695Y-142718D01*
X-168068Y-143593D01*
X-168255Y-144343D01*
Y-145093D01*
X-168068Y-145843D01*
X-167601Y-146593D01*
X-167041Y-147093D01*
X-166388Y-147218D01*
X-165735Y-146968D01*
X-165081Y-146218D01*
G01X-160755Y-147218D02*
Y-142218D01*
G01Y-143468D02*
X-160381Y-142843D01*
X-159821Y-142343D01*
X-159075Y-142218D01*
X-158421Y-142343D01*
X-157861Y-142843D01*
X-157581Y-143718D01*
Y-147218D01*
G01X-146221D02*
Y-139718D01*
G01X-142675D02*
X-146221Y-144343D01*
G01X-142115Y-147218D02*
X-144635Y-142218D01*
G01X-138068Y-143843D02*
X-135081D01*
X-135361Y-142968D01*
X-135828Y-142468D01*
X-136481Y-142218D01*
X-137135Y-142343D01*
X-137695Y-142718D01*
X-138068Y-143593D01*
X-138255Y-144343D01*
Y-145093D01*
X-138068Y-145843D01*
X-137601Y-146593D01*
X-137041Y-147093D01*
X-136388Y-147218D01*
X-135735Y-146968D01*
X-135081Y-146218D01*
G01X-130475Y-147218D02*
Y-142218D01*
G01Y-143218D02*
X-130008Y-142718D01*
X-129541Y-142343D01*
X-128888Y-142218D01*
X-128421Y-142343D01*
X-127861Y-142718D01*
G01X-123068Y-146343D02*
X-122601Y-146843D01*
X-121948Y-147218D01*
X-121388D01*
X-120828Y-146968D01*
X-120455Y-146593D01*
X-120268Y-146093D01*
X-120361Y-145343D01*
X-120735Y-144968D01*
X-122415Y-144218D01*
X-122788Y-143343D01*
X-122601Y-142718D01*
X-122228Y-142343D01*
X-121668Y-142218D01*
X-121108Y-142343D01*
X-120548Y-142718D01*
G01X-115568Y-143843D02*
X-112581D01*
X-112861Y-142968D01*
X-113328Y-142468D01*
X-113981Y-142218D01*
X-114635Y-142343D01*
X-115195Y-142718D01*
X-115568Y-143593D01*
X-115755Y-144343D01*
Y-145093D01*
X-115568Y-145843D01*
X-115101Y-146593D01*
X-114541Y-147093D01*
X-113888Y-147218D01*
X-113235Y-146968D01*
X-112581Y-146218D01*
G01X-108628Y-149468D02*
X-108068Y-149718D01*
X-107321Y-149468D01*
X-106855Y-148968D01*
X-106481Y-148343D01*
X-105921Y-146343D01*
X-104708Y-142218D01*
G01X-107695D02*
X-105921Y-146343D01*
G01X-303535Y-145718D02*
X-303068Y-146468D01*
X-302508Y-146968D01*
X-301855Y-147218D01*
X-301108Y-146968D01*
X-300548Y-146468D01*
X-299988Y-145718D01*
X-299801Y-144718D01*
Y-139718D01*
G01X-295941D02*
X-292395D01*
X-295941Y-147218D01*
X-292395D01*
G01X-289095D02*
Y-139718D01*
X-286668Y-145968D01*
X-284241Y-139718D01*
Y-147218D01*
G01X-269615Y-140343D02*
X-270175Y-139968D01*
X-270828Y-139718D01*
X-271575D01*
X-272415Y-140093D01*
X-273068Y-140718D01*
X-273535Y-141468D01*
X-273908Y-142718D01*
X-274001Y-143843D01*
X-273815Y-144968D01*
X-273535Y-145718D01*
X-272975Y-146468D01*
X-272321Y-146968D01*
X-271668Y-147218D01*
X-271015D01*
X-270361Y-146968D01*
X-269801Y-146593D01*
X-269335Y-146093D01*
G01X-264168Y-147218D02*
X-264915Y-147093D01*
X-265568Y-146593D01*
X-266128Y-145843D01*
X-266501Y-144968D01*
X-266688Y-143968D01*
Y-142968D01*
X-266501Y-141968D01*
X-266128Y-141093D01*
X-265568Y-140343D01*
X-264915Y-139843D01*
X-264168Y-139718D01*
X-263421Y-139843D01*
X-262768Y-140343D01*
X-262208Y-141093D01*
X-261835Y-141968D01*
X-261648Y-142968D01*
Y-143968D01*
X-261835Y-144968D01*
X-262208Y-145843D01*
X-262768Y-146593D01*
X-263421Y-147093D01*
X-264168Y-147218D01*
G01X-258815D02*
Y-139718D01*
X-254521Y-147218D01*
Y-139718D01*
G01X-251128Y-146218D02*
X-250381Y-146843D01*
X-249541Y-147218D01*
X-248795D01*
X-248048Y-146843D01*
X-247488Y-146218D01*
X-247208Y-145343D01*
X-247395Y-144468D01*
X-247861Y-143718D01*
X-248701Y-143218D01*
X-249821Y-142968D01*
X-250475Y-142468D01*
X-250755Y-141593D01*
X-250568Y-140718D01*
X-250101Y-140093D01*
X-249448Y-139718D01*
X-248795D01*
X-248141Y-139968D01*
X-247581Y-140593D01*
G01X-243721Y-139718D02*
Y-145093D01*
X-243348Y-146218D01*
X-242601Y-146968D01*
X-241668Y-147218D01*
X-240735Y-146968D01*
X-239988Y-146218D01*
X-239615Y-145093D01*
Y-139718D01*
G01X-236035D02*
Y-147218D01*
X-232301D01*
G01X-226668Y-139718D02*
Y-147218D01*
G01X-228815Y-139718D02*
X-224521D01*
G01X-220288D02*
X-218048D01*
G01X-219168D02*
Y-147218D01*
G01X-220288D02*
X-218048D01*
G01X-213815D02*
Y-139718D01*
X-209521Y-147218D01*
Y-139718D01*
G01X-203608Y-143468D02*
X-201741D01*
Y-145718D01*
X-202301Y-146468D01*
X-202955Y-146968D01*
X-203888Y-147218D01*
X-204821Y-146968D01*
X-205475Y-146468D01*
X-206035Y-145718D01*
X-206408Y-144843D01*
X-206595Y-143843D01*
Y-142968D01*
X-206408Y-142218D01*
X-206035Y-141343D01*
X-205475Y-140593D01*
X-204915Y-140093D01*
X-204168Y-139718D01*
X-203515D01*
X-202768Y-139968D01*
X-202208Y-140468D01*
G01X-198348Y-147468D02*
X-194988Y-139718D01*
G01X-191501Y-147218D02*
X-189168Y-139718D01*
X-186835Y-147218D01*
G01X-187675Y-144593D02*
X-190661D01*
G01X-181668Y-147218D02*
Y-139718D01*
G01X-174168Y-147218D02*
Y-139718D01*
G01X-168068Y-143843D02*
X-165081D01*
X-165361Y-142968D01*
X-165828Y-142468D01*
X-166481Y-142218D01*
X-167135Y-142343D01*
X-167695Y-142718D01*
X-168068Y-143593D01*
X-168255Y-144343D01*
Y-145093D01*
X-168068Y-145843D01*
X-167601Y-146593D01*
X-167041Y-147093D01*
X-166388Y-147218D01*
X-165735Y-146968D01*
X-165081Y-146218D01*
G01X-160755Y-147218D02*
Y-142218D01*
G01Y-143468D02*
X-160381Y-142843D01*
X-159821Y-142343D01*
X-159075Y-142218D01*
X-158421Y-142343D01*
X-157861Y-142843D01*
X-157581Y-143718D01*
Y-147218D01*
G01X-146221D02*
Y-139718D01*
G01X-142675D02*
X-146221Y-144343D01*
G01X-142115Y-147218D02*
X-144635Y-142218D01*
G01X-138068Y-143843D02*
X-135081D01*
X-135361Y-142968D01*
X-135828Y-142468D01*
X-136481Y-142218D01*
X-137135Y-142343D01*
X-137695Y-142718D01*
X-138068Y-143593D01*
X-138255Y-144343D01*
Y-145093D01*
X-138068Y-145843D01*
X-137601Y-146593D01*
X-137041Y-147093D01*
X-136388Y-147218D01*
X-135735Y-146968D01*
X-135081Y-146218D01*
G01X-130475Y-147218D02*
Y-142218D01*
G01Y-143218D02*
X-130008Y-142718D01*
X-129541Y-142343D01*
X-128888Y-142218D01*
X-128421Y-142343D01*
X-127861Y-142718D01*
G01X-123068Y-146343D02*
X-122601Y-146843D01*
X-121948Y-147218D01*
X-121388D01*
X-120828Y-146968D01*
X-120455Y-146593D01*
X-120268Y-146093D01*
X-120361Y-145343D01*
X-120735Y-144968D01*
X-122415Y-144218D01*
X-122788Y-143343D01*
X-122601Y-142718D01*
X-122228Y-142343D01*
X-121668Y-142218D01*
X-121108Y-142343D01*
X-120548Y-142718D01*
G01X-115568Y-143843D02*
X-112581D01*
X-112861Y-142968D01*
X-113328Y-142468D01*
X-113981Y-142218D01*
X-114635Y-142343D01*
X-115195Y-142718D01*
X-115568Y-143593D01*
X-115755Y-144343D01*
Y-145093D01*
X-115568Y-145843D01*
X-115101Y-146593D01*
X-114541Y-147093D01*
X-113888Y-147218D01*
X-113235Y-146968D01*
X-112581Y-146218D01*
G01X-108628Y-149468D02*
X-108068Y-149718D01*
X-107321Y-149468D01*
X-106855Y-148968D01*
X-106481Y-148343D01*
X-105921Y-146343D01*
X-104708Y-142218D01*
G01X-107695D02*
X-105921Y-146343D01*
G01X-301668Y-124718D02*
Y-132218D01*
G01X-303815Y-124718D02*
X-299521D01*
G01X-296035Y-132218D02*
Y-124718D01*
X-293701D01*
X-292955Y-125093D01*
X-292488Y-125593D01*
X-292301Y-126593D01*
X-292488Y-127593D01*
X-293048Y-128218D01*
X-293701Y-128593D01*
X-296035D01*
G01X-293701D02*
X-292301Y-132218D01*
G01X-289001D02*
X-286668Y-124718D01*
X-284335Y-132218D01*
G01X-285175Y-129593D02*
X-288161D01*
G01X-277115Y-125343D02*
X-277675Y-124968D01*
X-278328Y-124718D01*
X-279075D01*
X-279915Y-125093D01*
X-280568Y-125718D01*
X-281035Y-126468D01*
X-281408Y-127718D01*
X-281501Y-128843D01*
X-281315Y-129968D01*
X-281035Y-130718D01*
X-280475Y-131468D01*
X-279821Y-131968D01*
X-279168Y-132218D01*
X-278515D01*
X-277861Y-131968D01*
X-277301Y-131593D01*
X-276835Y-131093D01*
G01X-273721Y-132218D02*
Y-124718D01*
G01X-270175D02*
X-273721Y-129343D01*
G01X-269615Y-132218D02*
X-272135Y-127218D01*
G01X-258628Y-131218D02*
X-257881Y-131843D01*
X-257041Y-132218D01*
X-256295D01*
X-255548Y-131843D01*
X-254988Y-131218D01*
X-254708Y-130343D01*
X-254895Y-129468D01*
X-255361Y-128718D01*
X-256201Y-128218D01*
X-257321Y-127968D01*
X-257975Y-127468D01*
X-258255Y-126593D01*
X-258068Y-125718D01*
X-257601Y-125093D01*
X-256948Y-124718D01*
X-256295D01*
X-255641Y-124968D01*
X-255081Y-125593D01*
G01X-249168Y-132218D02*
Y-128843D01*
X-251035Y-124718D01*
G01X-247301D02*
X-249168Y-128843D01*
G01X-243628Y-131218D02*
X-242881Y-131843D01*
X-242041Y-132218D01*
X-241295D01*
X-240548Y-131843D01*
X-239988Y-131218D01*
X-239708Y-130343D01*
X-239895Y-129468D01*
X-240361Y-128718D01*
X-241201Y-128218D01*
X-242321Y-127968D01*
X-242975Y-127468D01*
X-243255Y-126593D01*
X-243068Y-125718D01*
X-242601Y-125093D01*
X-241948Y-124718D01*
X-241295D01*
X-240641Y-124968D01*
X-240081Y-125593D01*
G01X-234168Y-124718D02*
Y-132218D01*
G01X-236315Y-124718D02*
X-232021D01*
G01X-224801Y-132218D02*
X-228535D01*
Y-124718D01*
X-224801D01*
G01X-226295Y-128343D02*
X-228535D01*
G01X-221595Y-132218D02*
Y-124718D01*
X-219168Y-130968D01*
X-216741Y-124718D01*
Y-132218D01*
G01X-213628Y-131218D02*
X-212881Y-131843D01*
X-212041Y-132218D01*
X-211295D01*
X-210548Y-131843D01*
X-209988Y-131218D01*
X-209708Y-130343D01*
X-209895Y-129468D01*
X-210361Y-128718D01*
X-211201Y-128218D01*
X-212321Y-127968D01*
X-212975Y-127468D01*
X-213255Y-126593D01*
X-213068Y-125718D01*
X-212601Y-125093D01*
X-211948Y-124718D01*
X-211295D01*
X-210641Y-124968D01*
X-210081Y-125593D01*
G01X-198721Y-132218D02*
Y-124718D01*
X-196855D01*
X-196108Y-125093D01*
X-195548Y-125593D01*
X-195081Y-126343D01*
X-194708Y-127218D01*
X-194615Y-128468D01*
X-194708Y-129718D01*
X-195081Y-130593D01*
X-195548Y-131343D01*
X-196108Y-131843D01*
X-196855Y-132218D01*
X-198721D01*
G01X-191221Y-124718D02*
Y-130093D01*
X-190848Y-131218D01*
X-190101Y-131968D01*
X-189168Y-132218D01*
X-188235Y-131968D01*
X-187488Y-131218D01*
X-187115Y-130093D01*
Y-124718D01*
G01X-182788D02*
X-180548D01*
G01X-181668D02*
Y-132218D01*
G01X-182788D02*
X-180548D01*
G01X-175288Y-124718D02*
X-173048D01*
G01X-174168D02*
Y-132218D01*
G01X-175288D02*
X-173048D01*
G01X-158421Y-128218D02*
X-158048Y-127843D01*
X-157768Y-127218D01*
X-157581Y-126343D01*
X-157768Y-125593D01*
X-158141Y-125093D01*
X-158795Y-124718D01*
X-161315D01*
Y-132218D01*
X-158235D01*
X-157581Y-131718D01*
X-157208Y-130968D01*
X-157021Y-130093D01*
X-157208Y-129218D01*
X-157768Y-128468D01*
X-158421Y-128218D01*
X-161315D01*
G01X-151668Y-132218D02*
X-152415Y-132093D01*
X-153068Y-131593D01*
X-153628Y-130843D01*
X-154001Y-129968D01*
X-154188Y-128968D01*
Y-127968D01*
X-154001Y-126968D01*
X-153628Y-126093D01*
X-153068Y-125343D01*
X-152415Y-124843D01*
X-151668Y-124718D01*
X-150921Y-124843D01*
X-150268Y-125343D01*
X-149708Y-126093D01*
X-149335Y-126968D01*
X-149148Y-127968D01*
Y-128968D01*
X-149335Y-129968D01*
X-149708Y-130843D01*
X-150268Y-131593D01*
X-150921Y-132093D01*
X-151668Y-132218D01*
G01X-146501D02*
X-144168Y-124718D01*
X-141835Y-132218D01*
G01X-142675Y-129593D02*
X-145661D01*
G01X-138535Y-132218D02*
Y-124718D01*
X-136201D01*
X-135455Y-125093D01*
X-134988Y-125593D01*
X-134801Y-126593D01*
X-134988Y-127593D01*
X-135548Y-128218D01*
X-136201Y-128593D01*
X-138535D01*
G01X-136201D02*
X-134801Y-132218D01*
G01X-131221D02*
Y-124718D01*
X-129355D01*
X-128608Y-125093D01*
X-128048Y-125593D01*
X-127581Y-126343D01*
X-127208Y-127218D01*
X-127115Y-128468D01*
X-127208Y-129718D01*
X-127581Y-130593D01*
X-128048Y-131343D01*
X-128608Y-131843D01*
X-129355Y-132218D01*
X-131221D01*
G01X-301668Y-124718D02*
Y-132218D01*
G01X-303815Y-124718D02*
X-299521D01*
G01X-296035Y-132218D02*
Y-124718D01*
X-293701D01*
X-292955Y-125093D01*
X-292488Y-125593D01*
X-292301Y-126593D01*
X-292488Y-127593D01*
X-293048Y-128218D01*
X-293701Y-128593D01*
X-296035D01*
G01X-293701D02*
X-292301Y-132218D01*
G01X-289001D02*
X-286668Y-124718D01*
X-284335Y-132218D01*
G01X-285175Y-129593D02*
X-288161D01*
G01X-277115Y-125343D02*
X-277675Y-124968D01*
X-278328Y-124718D01*
X-279075D01*
X-279915Y-125093D01*
X-280568Y-125718D01*
X-281035Y-126468D01*
X-281408Y-127718D01*
X-281501Y-128843D01*
X-281315Y-129968D01*
X-281035Y-130718D01*
X-280475Y-131468D01*
X-279821Y-131968D01*
X-279168Y-132218D01*
X-278515D01*
X-277861Y-131968D01*
X-277301Y-131593D01*
X-276835Y-131093D01*
G01X-273721Y-132218D02*
Y-124718D01*
G01X-270175D02*
X-273721Y-129343D01*
G01X-269615Y-132218D02*
X-272135Y-127218D01*
G01X-258628Y-131218D02*
X-257881Y-131843D01*
X-257041Y-132218D01*
X-256295D01*
X-255548Y-131843D01*
X-254988Y-131218D01*
X-254708Y-130343D01*
X-254895Y-129468D01*
X-255361Y-128718D01*
X-256201Y-128218D01*
X-257321Y-127968D01*
X-257975Y-127468D01*
X-258255Y-126593D01*
X-258068Y-125718D01*
X-257601Y-125093D01*
X-256948Y-124718D01*
X-256295D01*
X-255641Y-124968D01*
X-255081Y-125593D01*
G01X-249168Y-132218D02*
Y-128843D01*
X-251035Y-124718D01*
G01X-247301D02*
X-249168Y-128843D01*
G01X-243628Y-131218D02*
X-242881Y-131843D01*
X-242041Y-132218D01*
X-241295D01*
X-240548Y-131843D01*
X-239988Y-131218D01*
X-239708Y-130343D01*
X-239895Y-129468D01*
X-240361Y-128718D01*
X-241201Y-128218D01*
X-242321Y-127968D01*
X-242975Y-127468D01*
X-243255Y-126593D01*
X-243068Y-125718D01*
X-242601Y-125093D01*
X-241948Y-124718D01*
X-241295D01*
X-240641Y-124968D01*
X-240081Y-125593D01*
G01X-234168Y-124718D02*
Y-132218D01*
G01X-236315Y-124718D02*
X-232021D01*
G01X-224801Y-132218D02*
X-228535D01*
Y-124718D01*
X-224801D01*
G01X-226295Y-128343D02*
X-228535D01*
G01X-221595Y-132218D02*
Y-124718D01*
X-219168Y-130968D01*
X-216741Y-124718D01*
Y-132218D01*
G01X-213628Y-131218D02*
X-212881Y-131843D01*
X-212041Y-132218D01*
X-211295D01*
X-210548Y-131843D01*
X-209988Y-131218D01*
X-209708Y-130343D01*
X-209895Y-129468D01*
X-210361Y-128718D01*
X-211201Y-128218D01*
X-212321Y-127968D01*
X-212975Y-127468D01*
X-213255Y-126593D01*
X-213068Y-125718D01*
X-212601Y-125093D01*
X-211948Y-124718D01*
X-211295D01*
X-210641Y-124968D01*
X-210081Y-125593D01*
G01X-198721Y-132218D02*
Y-124718D01*
X-196855D01*
X-196108Y-125093D01*
X-195548Y-125593D01*
X-195081Y-126343D01*
X-194708Y-127218D01*
X-194615Y-128468D01*
X-194708Y-129718D01*
X-195081Y-130593D01*
X-195548Y-131343D01*
X-196108Y-131843D01*
X-196855Y-132218D01*
X-198721D01*
G01X-191221Y-124718D02*
Y-130093D01*
X-190848Y-131218D01*
X-190101Y-131968D01*
X-189168Y-132218D01*
X-188235Y-131968D01*
X-187488Y-131218D01*
X-187115Y-130093D01*
Y-124718D01*
G01X-182788D02*
X-180548D01*
G01X-181668D02*
Y-132218D01*
G01X-182788D02*
X-180548D01*
G01X-175288Y-124718D02*
X-173048D01*
G01X-174168D02*
Y-132218D01*
G01X-175288D02*
X-173048D01*
G01X-158421Y-128218D02*
X-158048Y-127843D01*
X-157768Y-127218D01*
X-157581Y-126343D01*
X-157768Y-125593D01*
X-158141Y-125093D01*
X-158795Y-124718D01*
X-161315D01*
Y-132218D01*
X-158235D01*
X-157581Y-131718D01*
X-157208Y-130968D01*
X-157021Y-130093D01*
X-157208Y-129218D01*
X-157768Y-128468D01*
X-158421Y-128218D01*
X-161315D01*
G01X-151668Y-132218D02*
X-152415Y-132093D01*
X-153068Y-131593D01*
X-153628Y-130843D01*
X-154001Y-129968D01*
X-154188Y-128968D01*
Y-127968D01*
X-154001Y-126968D01*
X-153628Y-126093D01*
X-153068Y-125343D01*
X-152415Y-124843D01*
X-151668Y-124718D01*
X-150921Y-124843D01*
X-150268Y-125343D01*
X-149708Y-126093D01*
X-149335Y-126968D01*
X-149148Y-127968D01*
Y-128968D01*
X-149335Y-129968D01*
X-149708Y-130843D01*
X-150268Y-131593D01*
X-150921Y-132093D01*
X-151668Y-132218D01*
G01X-146501D02*
X-144168Y-124718D01*
X-141835Y-132218D01*
G01X-142675Y-129593D02*
X-145661D01*
G01X-138535Y-132218D02*
Y-124718D01*
X-136201D01*
X-135455Y-125093D01*
X-134988Y-125593D01*
X-134801Y-126593D01*
X-134988Y-127593D01*
X-135548Y-128218D01*
X-136201Y-128593D01*
X-138535D01*
G01X-136201D02*
X-134801Y-132218D01*
G01X-131221D02*
Y-124718D01*
X-129355D01*
X-128608Y-125093D01*
X-128048Y-125593D01*
X-127581Y-126343D01*
X-127208Y-127218D01*
X-127115Y-128468D01*
X-127208Y-129718D01*
X-127581Y-130593D01*
X-128048Y-131343D01*
X-128608Y-131843D01*
X-129355Y-132218D01*
X-131221D01*
G01X-284500Y24000D02*
Y31869D01*
X-291800Y39169D01*
Y56705D01*
X-304240Y69145D01*
Y120235D01*
X-283975Y140500D01*
X-269500D01*
X-269140Y140140D01*
X-268088D01*
X-266638Y138690D01*
X-265539D01*
G01X-268689Y135541D02*
X-272959D01*
X-273500Y135000D01*
X-282500D01*
X-298500Y119000D01*
Y72095D01*
X-286200Y59795D01*
Y37700D01*
X-282500Y34000D01*
Y22000D01*
G01X-288000Y44000D02*
Y57000D01*
X-301000Y70000D01*
Y120000D01*
X-282310Y138690D01*
X-268689D01*
G01X-305940Y95700D02*
Y120940D01*
X-285040Y141840D01*
X-268689D01*
G01X-265539Y135541D02*
X-266284D01*
X-267984Y133841D01*
X-281254D01*
X-296800Y118295D01*
Y72800D01*
X-284500Y60500D01*
Y38500D01*
X-280500Y34500D01*
Y20000D01*
G01X-290250Y76500D02*
Y82250D01*
X-286500Y86000D01*
Y89500D01*
X-288780Y91780D01*
Y120319D01*
X-278407Y130692D01*
X-267983D01*
X-266284Y132391D01*
X-265539D01*
G01X-288500Y87500D02*
Y89000D01*
X-290480Y90980D01*
Y121024D01*
X-279113Y132391D01*
X-268689D01*
G01Y126092D02*
X-274908D01*
X-283680Y117320D01*
Y94085D01*
X-281100Y91505D01*
Y79400D01*
X-282500Y78000D01*
Y39500D01*
X-279000Y36000D01*
X-251898D01*
X-250398Y37500D01*
Y45500D01*
G01X-268689Y129242D02*
X-277452D01*
X-287080Y119614D01*
Y92580D01*
X-285500Y91000D01*
Y90905D01*
X-284500Y89905D01*
Y85595D01*
X-288500Y81595D01*
Y72000D01*
G01X-265539Y129242D02*
X-266989Y127792D01*
X-276208D01*
X-285380Y118620D01*
Y93380D01*
X-282800Y90800D01*
Y84890D01*
X-286500Y81190D01*
Y74500D01*
G01X-259846Y45500D02*
Y43386D01*
X-259553Y43093D01*
X-255793D01*
X-255500Y42800D01*
Y42386D01*
X-255793Y42093D01*
X-259553D01*
X-259846Y41800D01*
Y40154D01*
X-262000Y38000D01*
X-277000D01*
X-280800Y41800D01*
Y77295D01*
X-279400Y78695D01*
Y90800D01*
X-279399Y90801D01*
Y92209D01*
X-281980Y94790D01*
Y116020D01*
X-275058Y122942D01*
X-268689D01*
G01X-274224Y151289D02*
X-268689D01*
G01X-265539Y122942D02*
X-265558D01*
X-267008Y121492D01*
X-269290D01*
X-269298Y121500D01*
X-273500D01*
X-280280Y114720D01*
Y95780D01*
X-277500Y93000D01*
Y77700D01*
X-278700Y76500D01*
Y46200D01*
X-277039Y44539D01*
Y44125D01*
X-278125Y43039D01*
Y42625D01*
X-277831Y42331D01*
X-277417D01*
X-276331Y43417D01*
X-275917D01*
X-275623Y43123D01*
Y42709D01*
X-276709Y41623D01*
Y41209D01*
X-276415Y40915D01*
X-276001D01*
X-274915Y42001D01*
X-274500Y42000D01*
X-273082D01*
X-272789Y41707D01*
Y39993D01*
X-272496Y39700D01*
X-272082D01*
X-271789Y39993D01*
Y41707D01*
X-271496Y42000D01*
X-271082D01*
X-270789Y41707D01*
Y39993D01*
X-270496Y39700D01*
X-270082D01*
X-269789Y39993D01*
Y41707D01*
X-269496Y42000D01*
X-269082D01*
X-268789Y41707D01*
Y39993D01*
X-268496Y39700D01*
X-268082D01*
X-267789Y39993D01*
Y41707D01*
X-267496Y42000D01*
X-267082D01*
X-266789Y41707D01*
Y39993D01*
X-266496Y39700D01*
X-266082D01*
X-265789Y39993D01*
Y41707D01*
X-265496Y42000D01*
X-264496D01*
X-262996Y43500D01*
Y45500D01*
G01X-269295D02*
X-273000D01*
X-273415Y45501D01*
X-274298Y44618D01*
X-274712D01*
X-275006Y44912D01*
Y45326D01*
X-274123Y46209D01*
Y46623D01*
X-274417Y46917D01*
X-274831D01*
X-275714Y46034D01*
X-276128D01*
X-276422Y46328D01*
Y46742D01*
X-275539Y47625D01*
Y48039D01*
X-277000Y49500D01*
Y54824D01*
X-276707Y55117D01*
X-274793D01*
X-274500Y55410D01*
Y55824D01*
X-274793Y56117D01*
X-276707D01*
X-277000Y56410D01*
Y56824D01*
X-276707Y57117D01*
X-274793D01*
X-274500Y57410D01*
Y57824D01*
X-274793Y58117D01*
X-276707D01*
X-277000Y58410D01*
Y58824D01*
X-276707Y59117D01*
X-274793D01*
X-274500Y59410D01*
Y59824D01*
X-274793Y60117D01*
X-276707D01*
X-277000Y60410D01*
Y75795D01*
X-275800Y76995D01*
Y78552D01*
X-275507Y78845D01*
X-274793D01*
X-274500Y79138D01*
Y79552D01*
X-274793Y79845D01*
X-275507D01*
X-275800Y80138D01*
Y80552D01*
X-275507Y80845D01*
X-274793D01*
X-274500Y81138D01*
Y81552D01*
X-274793Y81845D01*
X-275507D01*
X-275800Y82138D01*
Y82552D01*
X-275507Y82845D01*
X-274793D01*
X-274500Y83138D01*
Y83552D01*
X-274793Y83845D01*
X-275507D01*
X-275800Y84138D01*
Y84552D01*
X-275507Y84845D01*
X-274793D01*
X-274500Y85138D01*
Y85552D01*
X-274793Y85845D01*
X-275507D01*
X-275800Y86138D01*
Y86552D01*
X-275507Y86845D01*
X-274793D01*
X-274500Y87138D01*
Y87552D01*
X-274793Y87845D01*
X-275507D01*
X-275800Y88138D01*
Y88552D01*
X-275507Y88845D01*
X-274793D01*
X-274500Y89138D01*
Y89552D01*
X-274793Y89845D01*
X-275507D01*
X-275800Y90138D01*
Y90552D01*
X-275507Y90845D01*
X-274793D01*
X-274500Y91138D01*
Y91552D01*
X-274793Y91845D01*
X-275507D01*
X-275800Y92138D01*
Y93705D01*
X-276000Y93905D01*
Y94000D01*
X-278580Y96580D01*
Y98833D01*
X-278287Y99126D01*
X-277493D01*
X-277200Y99419D01*
Y99833D01*
X-277493Y100126D01*
X-278287D01*
X-278580Y100419D01*
Y100833D01*
X-278287Y101126D01*
X-277493D01*
X-277200Y101419D01*
Y101833D01*
X-277493Y102126D01*
X-278287D01*
X-278580Y102419D01*
Y102833D01*
X-278287Y103126D01*
X-277493D01*
X-277200Y103419D01*
Y103833D01*
X-277493Y104126D01*
X-278287D01*
X-278580Y104419D01*
Y104833D01*
X-278287Y105126D01*
X-277493D01*
X-277200Y105419D01*
Y105833D01*
X-277493Y106126D01*
X-278287D01*
X-278580Y106419D01*
Y106833D01*
X-278287Y107126D01*
X-277493D01*
X-277200Y107419D01*
Y107833D01*
X-277493Y108126D01*
X-278287D01*
X-278580Y108419D01*
Y108833D01*
X-278287Y109126D01*
X-277493D01*
X-277200Y109419D01*
Y109833D01*
X-277493Y110126D01*
X-278287D01*
X-278580Y110419D01*
Y113420D01*
X-272207Y119793D01*
X-268689D01*
G01X-265539D02*
X-266284D01*
X-267984Y118093D01*
X-270907D01*
X-275500Y113500D01*
Y111168D01*
X-275207Y110875D01*
X-273993D01*
X-273700Y110582D01*
Y110168D01*
X-273993Y109875D01*
X-275207D01*
X-275500Y109582D01*
Y109168D01*
X-275207Y108875D01*
X-273993D01*
X-273700Y108582D01*
Y108168D01*
X-273993Y107875D01*
X-275207D01*
X-275500Y107582D01*
Y107168D01*
X-275207Y106875D01*
X-273993D01*
X-273700Y106582D01*
Y106168D01*
X-273993Y105875D01*
X-275207D01*
X-275500Y105582D01*
Y105168D01*
X-275207Y104875D01*
X-273993D01*
X-273700Y104582D01*
Y104168D01*
X-273993Y103875D01*
X-275207D01*
X-275500Y103582D01*
Y103168D01*
X-275207Y102875D01*
X-273993D01*
X-273700Y102582D01*
Y102168D01*
X-273993Y101875D01*
X-275207D01*
X-275500Y101582D01*
Y101168D01*
X-275207Y100875D01*
X-273993D01*
X-273700Y100582D01*
Y100168D01*
X-273993Y99875D01*
X-275207D01*
X-275500Y99582D01*
Y97000D01*
X-272500Y94000D01*
Y81019D01*
X-272207Y80726D01*
X-269793D01*
X-269500Y80433D01*
Y80019D01*
X-269793Y79726D01*
X-272207D01*
X-272500Y79433D01*
Y79019D01*
X-272207Y78726D01*
X-269793D01*
X-269500Y78433D01*
Y78019D01*
X-269793Y77726D01*
X-272207D01*
X-272500Y77433D01*
Y76000D01*
X-274050Y74450D01*
Y72787D01*
X-274343Y72494D01*
X-275007D01*
X-275300Y72201D01*
Y71787D01*
X-275007Y71494D01*
X-274343D01*
X-274050Y71201D01*
Y70787D01*
X-274343Y70494D01*
X-275007D01*
X-275300Y70201D01*
Y69787D01*
X-275007Y69494D01*
X-274343D01*
X-274050Y69201D01*
Y68787D01*
X-274343Y68494D01*
X-275007D01*
X-275300Y68201D01*
Y67787D01*
X-275007Y67494D01*
X-274343D01*
X-274050Y67201D01*
Y66787D01*
X-274343Y66494D01*
X-275007D01*
X-275300Y66201D01*
Y65787D01*
X-275007Y65494D01*
X-274343D01*
X-274050Y65201D01*
Y64787D01*
X-274343Y64494D01*
X-275007D01*
X-275300Y64201D01*
Y63787D01*
X-275293Y63780D01*
Y63293D01*
X-273332Y61332D01*
X-272918D01*
X-269332Y64918D01*
X-268918D01*
X-268624Y64624D01*
Y64210D01*
X-272210Y60624D01*
Y60210D01*
X-271500Y59500D01*
X-269295D01*
G01X-270284Y152872D02*
X-267132D01*
X-265549Y151289D01*
X-265539D01*
G01X-234000Y220500D02*
X-237500D01*
X-245000Y213000D01*
Y203500D01*
X-269089Y179411D01*
Y174019D01*
X-273050Y170058D01*
Y165135D01*
X-268689Y160774D01*
Y160738D01*
G01X-269295Y7512D02*
Y12608D01*
G01X-266146D02*
Y7512D01*
G01Y51488D02*
Y45500D01*
G01X-269295Y51488D02*
Y45500D01*
G01X-266146Y51488D02*
Y55354D01*
X-265000Y56500D01*
X-257504D01*
X-255147Y58857D01*
Y61080D01*
X-254854Y61373D01*
X-250793D01*
X-250500Y61666D01*
Y62080D01*
X-250793Y62373D01*
X-254854D01*
X-255147Y62666D01*
Y63080D01*
X-254854Y63373D01*
X-250793D01*
X-250500Y63666D01*
Y64080D01*
X-250793Y64373D01*
X-254854D01*
X-255147Y64666D01*
Y65080D01*
X-254854Y65373D01*
X-250793D01*
X-250500Y65666D01*
Y66080D01*
X-250793Y66373D01*
X-254854D01*
X-255147Y66666D01*
Y67080D01*
X-254854Y67373D01*
X-250793D01*
X-250500Y67666D01*
Y68080D01*
X-250793Y68373D01*
X-254854D01*
X-255147Y68666D01*
Y69080D01*
X-254854Y69373D01*
X-250793D01*
X-250500Y69666D01*
Y70080D01*
X-250793Y70373D01*
X-254854D01*
X-255147Y70666D01*
Y72450D01*
X-255097Y72500D01*
G01X-268689Y116643D02*
X-272000Y113332D01*
Y110847D01*
X-271707Y110554D01*
X-270793D01*
X-270500Y110261D01*
Y109847D01*
X-270793Y109554D01*
X-271707D01*
X-272000Y109261D01*
Y108847D01*
X-271707Y108554D01*
X-270793D01*
X-270500Y108261D01*
Y107847D01*
X-270793Y107554D01*
X-271707D01*
X-272000Y107261D01*
Y106847D01*
X-271707Y106554D01*
X-270793D01*
X-270500Y106261D01*
Y105847D01*
X-270793Y105554D01*
X-271707D01*
X-272000Y105261D01*
Y104847D01*
X-271707Y104554D01*
X-270793D01*
X-270500Y104261D01*
Y103847D01*
X-270793Y103554D01*
X-271707D01*
X-272000Y103261D01*
Y102847D01*
X-271707Y102554D01*
X-270793D01*
X-270500Y102261D01*
Y101847D01*
X-270793Y101554D01*
X-271707D01*
X-272000Y101261D01*
Y100847D01*
X-271707Y100554D01*
X-270793D01*
X-270500Y100261D01*
Y99847D01*
X-270793Y99554D01*
X-271707D01*
X-272000Y99261D01*
Y96510D01*
X-270800Y95307D01*
Y87800D01*
X-269927Y86927D01*
X-269513D01*
X-268927Y87513D01*
X-268513D01*
X-268219Y87219D01*
Y86805D01*
X-268805Y86219D01*
Y85805D01*
X-268511Y85511D01*
X-268097D01*
X-267511Y86097D01*
X-267097D01*
X-266803Y85803D01*
Y85389D01*
X-267389Y84803D01*
Y84389D01*
X-266000Y83000D01*
Y79522D01*
X-266293Y79229D01*
X-267507D01*
X-267800Y78936D01*
Y78522D01*
X-267507Y78229D01*
X-266293D01*
X-266000Y77936D01*
Y77522D01*
X-266293Y77229D01*
X-267507D01*
X-267800Y76936D01*
Y76522D01*
X-267507Y76229D01*
X-266293D01*
X-266000Y75936D01*
Y74204D01*
X-266293Y73911D01*
X-270207D01*
X-270500Y73618D01*
Y73204D01*
X-270207Y72911D01*
X-266293D01*
X-266000Y72618D01*
Y72204D01*
X-266293Y71911D01*
X-270207D01*
X-270500Y71618D01*
Y71204D01*
X-270207Y70911D01*
X-266293D01*
X-266000Y70618D01*
Y70204D01*
X-266293Y69911D01*
X-270207D01*
X-270500Y69618D01*
Y69204D01*
X-270207Y68911D01*
X-266293D01*
X-266000Y68618D01*
Y68204D01*
X-266293Y67911D01*
X-270207D01*
X-270500Y67618D01*
Y67204D01*
X-270207Y66911D01*
X-266293D01*
X-266000Y66618D01*
Y59646D01*
X-266146Y59500D01*
G01X-262953D02*
Y61775D01*
X-263246Y62068D01*
X-264007D01*
X-264300Y62361D01*
Y62775D01*
X-264007Y63068D01*
X-263246D01*
X-262953Y63361D01*
Y63775D01*
X-263246Y64068D01*
X-264007D01*
X-264300Y64361D01*
Y64775D01*
X-264007Y65068D01*
X-263246D01*
X-262953Y65361D01*
Y65775D01*
X-263246Y66068D01*
X-264007D01*
X-264300Y66361D01*
Y66775D01*
X-264007Y67068D01*
X-263246D01*
X-262953Y67361D01*
Y67775D01*
X-263246Y68068D01*
X-264007D01*
X-264300Y68361D01*
Y68775D01*
X-264007Y69068D01*
X-263246D01*
X-262953Y69361D01*
Y69775D01*
X-263246Y70068D01*
X-264007D01*
X-264300Y70361D01*
Y70775D01*
X-264007Y71068D01*
X-263246D01*
X-262953Y71361D01*
Y71775D01*
X-263246Y72068D01*
X-264007D01*
X-264300Y72361D01*
Y72775D01*
X-264007Y73068D01*
X-263246D01*
X-262953Y73361D01*
Y73775D01*
X-263246Y74068D01*
X-264007D01*
X-264300Y74361D01*
Y74775D01*
X-264007Y75068D01*
X-263246D01*
X-262953Y75361D01*
Y75775D01*
X-263246Y76068D01*
X-264007D01*
X-264300Y76361D01*
Y76775D01*
X-264007Y77068D01*
X-263246D01*
X-262953Y77361D01*
Y77775D01*
X-263246Y78068D01*
X-264007D01*
X-264300Y78361D01*
Y78775D01*
X-264007Y79068D01*
X-263246D01*
X-262953Y79361D01*
Y79775D01*
X-263246Y80068D01*
X-264007D01*
X-264300Y80361D01*
Y80775D01*
X-264007Y81068D01*
X-263246D01*
X-262953Y81361D01*
Y81775D01*
X-263246Y82068D01*
X-264007D01*
X-264300Y82361D01*
Y82775D01*
X-264007Y83068D01*
X-263246D01*
X-262953Y83361D01*
Y83775D01*
X-263246Y84068D01*
X-264007D01*
X-264300Y84361D01*
Y84775D01*
X-264007Y85068D01*
X-263246D01*
X-262953Y85361D01*
Y85775D01*
X-263246Y86068D01*
X-264007D01*
X-264300Y86361D01*
Y86775D01*
X-264007Y87068D01*
X-263246D01*
X-262953Y87361D01*
Y87775D01*
X-263246Y88068D01*
X-264007D01*
X-264300Y88361D01*
Y88775D01*
X-264007Y89068D01*
X-263246D01*
X-262953Y89361D01*
Y90448D01*
X-263662Y91159D01*
X-264075Y91160D01*
X-266264Y88975D01*
X-266678D01*
X-266972Y89269D01*
X-266971Y89682D01*
X-264782Y91868D01*
Y92281D01*
X-265076Y92575D01*
X-265489Y92576D01*
X-267678Y90391D01*
X-268092D01*
X-268386Y90685D01*
X-268385Y91098D01*
X-266196Y93283D01*
Y93697D01*
X-268700Y96206D01*
Y98160D01*
X-268407Y98453D01*
X-268093D01*
X-267800Y98746D01*
Y99160D01*
X-268093Y99453D01*
X-268407D01*
X-268700Y99746D01*
Y100160D01*
X-268407Y100453D01*
X-268093D01*
X-267800Y100746D01*
Y101160D01*
X-268093Y101453D01*
X-268407D01*
X-268700Y101746D01*
Y102160D01*
X-268407Y102453D01*
X-268093D01*
X-267800Y102746D01*
Y103160D01*
X-268093Y103453D01*
X-268407D01*
X-268700Y103746D01*
Y104160D01*
X-268407Y104453D01*
X-268093D01*
X-267800Y104746D01*
Y105160D01*
X-268093Y105453D01*
X-268407D01*
X-268700Y105746D01*
Y106160D01*
X-268407Y106453D01*
X-268093D01*
X-267800Y106746D01*
Y107160D01*
X-268093Y107453D01*
X-268407D01*
X-268700Y107746D01*
Y109100D01*
X-267733Y110067D01*
Y110481D01*
X-270169Y112917D01*
Y113331D01*
X-269875Y113625D01*
X-269461D01*
X-267025Y111189D01*
X-266611D01*
X-265539Y112261D01*
Y116643D01*
G01X-234650Y7512D02*
Y26350D01*
X-229950Y31050D01*
Y63140D01*
X-245414Y78604D01*
X-245828D01*
X-248259Y76173D01*
X-248673D01*
X-248967Y76467D01*
Y76881D01*
X-246536Y79312D01*
Y79726D01*
X-246830Y80020D01*
X-247244D01*
X-249675Y77589D01*
X-250089D01*
X-250383Y77883D01*
Y78297D01*
X-247952Y80728D01*
Y81142D01*
X-248246Y81436D01*
X-248660D01*
X-251091Y79005D01*
X-251505D01*
X-251799Y79299D01*
Y79713D01*
X-249368Y82144D01*
Y82558D01*
X-249662Y82852D01*
X-250076D01*
X-252507Y80421D01*
X-252921D01*
X-253215Y80715D01*
Y81129D01*
X-250784Y83560D01*
Y83974D01*
X-251078Y84268D01*
X-251492D01*
X-253923Y81837D01*
X-254337D01*
X-254631Y82131D01*
Y82545D01*
X-252200Y84976D01*
Y85390D01*
X-264400Y97590D01*
Y109410D01*
X-262390Y111420D01*
Y116643D01*
G01X-259846Y59500D02*
Y62699D01*
X-259553Y62992D01*
X-257793D01*
X-257500Y63285D01*
Y63699D01*
X-257793Y63992D01*
X-259553D01*
X-259846Y64285D01*
Y64699D01*
X-259553Y64992D01*
X-257793D01*
X-257500Y65285D01*
Y65699D01*
X-257793Y65992D01*
X-259553D01*
X-259846Y66285D01*
Y66699D01*
X-259553Y66992D01*
X-257793D01*
X-257500Y67285D01*
Y67699D01*
X-257793Y67992D01*
X-259553D01*
X-259846Y68285D01*
Y68699D01*
X-259553Y68992D01*
X-257793D01*
X-257500Y69285D01*
Y69699D01*
X-257793Y69992D01*
X-259553D01*
X-259846Y70285D01*
Y70699D01*
X-259553Y70992D01*
X-257793D01*
X-257500Y71285D01*
Y71699D01*
X-257793Y71992D01*
X-259553D01*
X-259846Y72285D01*
Y72699D01*
X-259553Y72992D01*
X-257793D01*
X-257500Y73285D01*
Y73699D01*
X-257793Y73992D01*
X-259553D01*
X-259846Y74285D01*
Y74699D01*
X-259553Y74992D01*
X-257793D01*
X-257500Y75285D01*
Y75699D01*
X-257793Y75992D01*
X-259553D01*
X-259846Y76285D01*
Y76699D01*
X-259553Y76992D01*
X-257793D01*
X-257500Y77285D01*
Y77699D01*
X-257793Y77992D01*
X-259553D01*
X-259846Y78285D01*
Y78699D01*
X-259553Y78992D01*
X-257793D01*
X-257500Y79285D01*
Y79699D01*
X-257793Y79992D01*
X-259553D01*
X-259846Y80285D01*
Y80699D01*
X-259553Y80992D01*
X-257793D01*
X-257500Y81285D01*
Y81699D01*
X-257793Y81992D01*
X-259553D01*
X-259846Y82285D01*
Y82699D01*
X-259553Y82992D01*
X-257793D01*
X-257500Y83285D01*
Y83699D01*
X-257793Y83992D01*
X-259553D01*
X-259846Y84285D01*
Y84699D01*
X-259553Y84992D01*
X-257793D01*
X-257500Y85285D01*
Y85699D01*
X-257793Y85992D01*
X-259553D01*
X-259846Y86285D01*
Y86699D01*
X-259553Y86992D01*
X-257793D01*
X-257500Y87285D01*
Y87699D01*
X-257793Y87992D01*
X-259553D01*
X-259846Y88285D01*
Y90343D01*
X-266000Y96509D01*
Y96785D01*
X-266100Y96885D01*
Y110115D01*
X-264090Y112125D01*
Y116041D01*
X-264089Y116042D01*
Y117244D01*
X-264090Y117245D01*
Y117348D01*
X-264000Y117438D01*
Y117500D01*
X-262390Y119110D01*
Y119793D01*
G01X-267132Y124504D02*
X-267127D01*
X-265539Y126092D01*
G01X-242500Y210500D02*
Y204065D01*
X-268089Y178476D01*
Y173604D01*
X-272050Y169643D01*
Y165550D01*
X-270387Y163887D01*
X-268689D01*
G01X-216452Y216503D02*
X-216497D01*
X-219500Y213500D01*
X-231650D01*
X-267089Y178061D01*
Y165437D01*
X-265539Y163887D01*
G01X-267132Y162328D02*
X-267129D01*
X-265539Y160738D01*
G01Y167037D02*
Y178196D01*
X-231235Y212500D01*
X-217129D01*
X-199629Y230000D01*
X-159915D01*
X-151523Y221608D01*
X-98297D01*
X-95905Y224000D01*
X-81085D01*
X-77135Y220050D01*
X-66000D01*
G01X-262996Y7512D02*
Y12608D01*
G01X-256697Y7512D02*
Y12608D01*
G01X-259846Y7512D02*
Y12608D01*
G01X-256697Y45500D02*
Y51488D01*
G01X-259846D02*
Y45500D01*
G01X-262996Y51488D02*
Y45500D01*
G01X-217302Y36000D02*
Y55500D01*
X-217652Y55850D01*
Y68652D01*
X-223000Y74000D01*
X-236000D01*
X-261000Y99000D01*
Y108000D01*
X-259240Y109760D01*
Y116643D01*
G01X-220500Y42000D02*
Y68500D01*
X-224000Y72000D01*
X-236405D01*
X-262700Y98295D01*
Y108705D01*
X-260940Y110465D01*
Y117560D01*
X-259240Y119260D01*
Y119793D01*
G01X-215000Y15500D02*
Y22989D01*
X-215293Y23282D01*
X-218207D01*
X-218500Y23575D01*
Y23989D01*
X-218207Y24282D01*
X-215293D01*
X-215000Y24575D01*
Y24989D01*
X-215293Y25282D01*
X-218207D01*
X-218500Y25575D01*
Y25989D01*
X-218207Y26282D01*
X-215293D01*
X-215000Y26575D01*
Y26989D01*
X-215293Y27282D01*
X-218207D01*
X-218500Y27575D01*
Y27989D01*
X-218207Y28282D01*
X-215293D01*
X-215000Y28575D01*
Y33500D01*
X-214152Y34348D01*
Y69152D01*
X-221000Y76000D01*
X-235406D01*
X-259200Y99795D01*
Y107300D01*
X-257790Y108710D01*
Y117348D01*
X-256090Y119048D01*
Y119793D01*
G01X-211000Y32050D02*
Y45901D01*
X-211003Y45904D01*
Y47190D01*
X-211000Y47193D01*
Y68500D01*
X-220500Y78000D01*
X-235000D01*
X-257500Y100500D01*
Y106500D01*
X-256090Y107910D01*
Y116643D01*
G01Y122942D02*
Y122935D01*
X-257671Y121354D01*
G01X-259240Y122942D02*
Y122940D01*
X-260828Y121352D01*
G01X-262390Y122942D02*
X-263980Y121352D01*
G01X-259240Y132391D02*
X-259247D01*
X-260828Y130810D01*
G01X-262390Y126092D02*
X-262392D01*
X-263980Y124504D01*
G01X-259240Y129242D02*
X-259242D01*
X-260828Y127656D01*
G01X-256090Y126092D02*
Y126085D01*
X-257671Y124504D01*
G01X-262390Y132391D02*
X-262397D01*
X-263980Y130808D01*
G01X-259240Y126092D02*
X-260828Y124504D01*
G01X-262390Y129242D02*
X-262394D01*
X-263980Y127656D01*
G01X-262390Y135541D02*
X-262399D01*
X-263980Y133960D01*
G01X-259240Y135541D02*
X-259247D01*
X-260828Y133960D01*
G01X-259240Y138690D02*
X-259250D01*
X-260828Y137112D01*
G01X-262390Y144990D02*
X-262402D01*
X-263980Y146568D01*
G01X-259240Y141840D02*
X-259252D01*
X-260828Y143416D01*
G01X-257500Y146500D02*
X-257601D01*
X-259240Y148139D01*
G01X-262390Y141840D02*
X-262404D01*
X-263980Y143416D01*
G01X-259240Y144990D02*
X-259250D01*
X-260828Y146568D01*
G01X-263980Y159176D02*
X-263978D01*
X-262390Y157588D01*
G01X-259240Y154438D02*
X-259242D01*
X-260828Y156024D01*
G01Y159176D02*
X-259240Y157588D01*
G01X-262390Y154438D02*
X-262394D01*
X-263980Y156024D01*
G01X-259240Y151289D02*
X-259245D01*
X-260828Y152872D01*
G01X-262390Y160738D02*
X-263980Y162328D01*
G01X-58500Y217500D02*
X-60500Y219500D01*
X-63830D01*
X-64830Y218500D01*
X-77000D01*
X-81500Y223000D01*
X-95490D01*
X-97882Y220608D01*
X-151938D01*
X-160330Y229000D01*
X-199214D01*
X-216714Y211500D01*
X-230820D01*
X-264000Y178320D01*
Y167691D01*
X-263989Y167680D01*
Y165489D01*
X-262390Y163890D01*
Y163887D01*
G01X-256090Y157588D02*
X-257676Y159174D01*
Y159176D01*
G01X-259240Y160738D02*
X-260828Y162326D01*
Y162328D01*
G01X-256090Y160738D02*
Y160742D01*
X-257676Y162328D01*
G01X-259240Y163887D02*
X-260790Y165437D01*
Y178700D01*
X-229990Y209500D01*
X-215884D01*
X-198384Y227000D01*
X-161160D01*
X-152768Y218608D01*
X-97052D01*
X-94660Y221000D01*
X-82670D01*
X-78170Y216500D01*
X-66500D01*
X-65098Y215098D01*
X-57000D01*
X-56902Y215000D01*
X-56500D01*
G01X-257640Y170500D02*
Y165437D01*
X-256090Y163887D01*
G01X-262390Y167037D02*
Y178515D01*
X-230405Y210500D01*
X-216299D01*
X-198799Y228000D01*
X-160745D01*
X-152353Y219608D01*
X-97467D01*
X-95075Y222000D01*
X-82255D01*
X-77755Y217500D01*
X-61000D01*
G01X-259240Y167037D02*
Y178835D01*
X-229575Y208500D01*
X-215469D01*
X-197969Y226000D01*
X-161575D01*
X-153183Y217608D01*
X-96637D01*
X-94245Y220000D01*
X-83085D01*
X-78585Y215500D01*
X-67085D01*
X-65133Y213548D01*
X-62497D01*
G01X-256090Y167037D02*
Y180570D01*
X-229160Y207500D01*
X-215054D01*
X-197554Y225000D01*
X-161990D01*
X-153598Y216608D01*
X-96222D01*
X-93830Y219000D01*
X-83500D01*
X-79000Y214500D01*
X-67500D01*
X-65000Y212000D01*
X-62585D01*
X-62583Y211998D01*
X-60998D01*
X-60000Y211000D01*
X-53500D01*
G01X-250398Y7512D02*
Y12608D01*
G01X-253547Y7512D02*
Y12608D01*
G01X-250398Y45500D02*
Y51488D01*
G01X-253547Y45500D02*
Y51488D01*
G01X-252941Y119793D02*
Y118694D01*
X-254391Y117244D01*
Y117109D01*
X-254500Y117000D01*
Y107000D01*
X-255000Y106500D01*
Y100500D01*
X-253324Y98824D01*
X-252910D01*
X-251574Y100160D01*
X-251160D01*
X-250866Y99866D01*
Y99452D01*
X-252202Y98116D01*
Y97702D01*
X-251908Y97408D01*
X-251494D01*
X-250158Y98744D01*
X-249744D01*
X-249450Y98450D01*
Y98036D01*
X-250786Y96700D01*
Y96286D01*
X-250492Y95992D01*
X-250078D01*
X-248742Y97328D01*
X-248328D01*
X-248034Y97034D01*
Y96620D01*
X-249370Y95284D01*
Y94870D01*
X-249076Y94576D01*
X-248662D01*
X-247326Y95912D01*
X-246912D01*
X-246618Y95618D01*
Y95204D01*
X-247954Y93868D01*
Y93454D01*
X-247660Y93160D01*
X-247246D01*
X-245910Y94496D01*
X-245496D01*
X-245202Y94202D01*
Y93788D01*
X-246538Y92452D01*
Y92038D01*
X-246244Y91744D01*
X-245830D01*
X-244494Y93080D01*
X-244080D01*
X-243786Y92786D01*
Y92372D01*
X-245122Y91036D01*
Y90622D01*
X-244828Y90328D01*
X-244414D01*
X-243078Y91664D01*
X-242664D01*
X-242370Y91370D01*
Y90956D01*
X-243706Y89620D01*
Y89206D01*
X-243412Y88912D01*
X-242998D01*
X-241662Y90248D01*
X-241248D01*
X-240954Y89954D01*
Y89540D01*
X-242290Y88204D01*
Y87790D01*
X-241996Y87496D01*
X-241582D01*
X-240246Y88832D01*
X-239832D01*
X-239538Y88538D01*
Y88124D01*
X-240874Y86788D01*
Y86374D01*
X-240580Y86080D01*
X-240166D01*
X-238830Y87416D01*
X-238416D01*
X-238122Y87122D01*
Y86708D01*
X-239458Y85372D01*
Y84958D01*
X-239164Y84664D01*
X-238750D01*
X-237414Y86000D01*
X-237000D01*
X-236706Y85706D01*
Y85292D01*
X-238042Y83956D01*
Y83542D01*
X-237748Y83248D01*
X-237334D01*
X-235998Y84584D01*
X-235584D01*
X-235290Y84290D01*
Y83876D01*
X-236626Y82540D01*
Y82126D01*
X-236332Y81832D01*
X-235918D01*
X-234582Y83168D01*
X-234168D01*
X-233874Y82874D01*
Y82460D01*
X-235210Y81124D01*
Y80710D01*
X-234500Y80000D01*
X-228350D01*
G01X-213500Y80400D02*
X-216500D01*
X-222900Y86800D01*
X-231800D01*
X-251491Y106491D01*
Y117348D01*
X-249791Y119048D01*
Y119793D01*
G01X-215500Y83000D02*
Y82905D01*
X-221095Y88500D01*
X-230000D01*
X-249791Y108291D01*
Y116643D01*
G01X-252941D02*
Y104441D01*
X-233500Y85000D01*
X-230586D01*
X-230293Y84707D01*
Y82793D01*
X-230000Y82500D01*
X-229586D01*
X-229293Y82793D01*
Y84707D01*
X-229000Y85000D01*
X-228586D01*
X-228293Y84707D01*
Y82793D01*
X-228000Y82500D01*
X-227586D01*
X-227293Y82793D01*
Y84707D01*
X-227000Y85000D01*
X-226586D01*
X-226293Y84707D01*
Y82793D01*
X-226000Y82500D01*
X-225586D01*
X-225293Y82793D01*
Y84707D01*
X-225000Y85000D01*
X-224000D01*
X-222000Y83000D01*
G01X-246644Y108744D02*
X-248220Y110320D01*
Y118200D01*
X-246642Y119778D01*
Y119793D01*
G01X-252941Y122942D02*
Y122935D01*
X-254522Y121354D01*
G01X-249791Y122942D02*
Y122933D01*
X-251372Y121352D01*
G01X-246642Y122942D02*
Y122930D01*
X-248220Y121352D01*
G01X-252941Y126092D02*
Y126085D01*
X-254522Y124504D01*
G01X-246642Y126092D02*
Y126082D01*
X-248220Y124504D01*
G01Y129232D02*
X-246644Y130808D01*
X-229310D01*
X-227744Y129242D01*
G01X-249791Y126092D02*
Y126085D01*
X-251372Y124504D01*
G01X-248220Y146568D02*
X-246642Y144990D01*
G01X-252941Y157588D02*
Y157593D01*
X-254524Y159176D01*
G01X-249791Y157588D02*
Y157595D01*
X-251372Y159176D01*
G01X-252941Y160738D02*
Y160745D01*
X-254524Y162328D01*
G01X-69000Y212550D02*
X-78635D01*
X-84085Y218000D01*
X-93415D01*
X-95807Y215608D01*
X-154013D01*
X-162405Y224000D01*
X-197139D01*
X-214639Y206500D01*
X-228745D01*
X-254500Y180745D01*
Y165446D01*
X-252941Y163887D01*
G01X-249791D02*
X-251391Y165487D01*
Y181024D01*
X-227915Y204500D01*
X-213809D01*
X-196309Y222000D01*
X-163235D01*
X-154843Y213608D01*
X-82778D01*
X-78220Y209050D01*
X-64000D01*
G01X-246642Y160738D02*
Y160750D01*
X-248220Y162328D01*
G01X-246642Y157588D02*
Y157598D01*
X-248220Y159176D01*
G01X-249791Y160738D02*
Y160747D01*
X-251372Y162328D01*
G01X-248220Y173360D02*
X-248194Y173500D01*
Y165439D01*
X-246642Y163887D01*
G01X-50000Y209450D02*
X-61450D01*
X-63000Y211000D01*
X-78500D01*
X-84500Y217000D01*
X-93000D01*
X-95392Y214608D01*
X-154428D01*
X-162820Y223000D01*
X-196724D01*
X-214224Y205500D01*
X-228330D01*
X-252941Y180889D01*
Y167037D01*
G01X-46500Y207500D02*
X-78085D01*
X-83193Y212608D01*
X-155258D01*
X-163650Y221000D01*
X-195894D01*
X-213394Y203500D01*
X-227500D01*
X-249791Y181209D01*
Y167037D01*
G01X-248220Y175724D02*
X-246644Y174148D01*
Y167039D01*
X-246642Y167037D01*
G01X-248220Y178088D02*
X-245644Y175512D01*
Y169189D01*
X-243492Y167037D01*
G01X-249500Y233100D02*
X-233093D01*
X-231193Y235000D01*
X-223000D01*
X-220752Y232752D01*
Y225575D01*
G01X-247432Y2364D02*
Y-218D01*
X-247000Y-650D01*
G01X-240949Y7512D02*
Y12429D01*
G01X-247248Y7512D02*
Y12424D01*
G01X-244098Y7512D02*
Y12426D01*
G01X-240949Y51488D02*
Y43500D01*
G01X-247248Y51488D02*
Y45500D01*
G01X-243500Y72000D02*
Y63000D01*
X-242500Y62000D01*
Y55998D01*
X-244098Y54400D01*
Y51488D01*
G01X-247248D02*
Y54252D01*
X-245698Y55802D01*
Y75198D01*
G01X-241500Y67000D02*
X-238987Y64487D01*
X-238573D01*
X-237737Y65323D01*
X-237323D01*
X-237029Y65029D01*
Y64615D01*
X-237865Y63779D01*
Y63365D01*
X-237571Y63071D01*
X-237157D01*
X-236321Y63907D01*
X-235907D01*
X-235613Y63613D01*
Y63199D01*
X-236449Y62363D01*
Y61949D01*
X-236155Y61655D01*
X-235741D01*
X-234905Y62491D01*
X-234491D01*
X-234197Y62197D01*
Y61783D01*
X-235033Y60947D01*
Y60533D01*
X-233050Y58550D01*
Y56709D01*
X-233000Y56659D01*
Y47592D01*
X-234442Y46150D01*
X-234650D01*
G01X-240340Y108744D02*
X-238764Y110320D01*
Y118200D01*
X-240342Y119778D01*
Y119793D01*
G01X-243492Y116643D02*
Y112684D01*
G01X-240342Y116643D02*
Y112686D01*
G01X-243492Y108744D02*
X-245068Y110320D01*
Y118200D01*
X-243492Y119776D01*
Y119793D01*
G01X-246642Y116643D02*
Y112686D01*
G01X-240342Y122942D02*
Y122930D01*
X-238764Y121352D01*
G01X-243492Y122942D02*
Y122928D01*
X-245068Y121352D01*
G01X-243492Y126092D02*
Y126080D01*
X-245068Y124504D01*
G01X-238764D02*
Y124514D01*
X-240342Y126092D01*
G01X-241916Y146568D02*
Y146564D01*
X-240342Y144990D01*
G01X-245068Y146568D02*
Y146566D01*
X-243492Y144990D01*
G01X-245068Y159176D02*
Y159164D01*
X-243492Y157588D01*
G01X-240342D02*
Y157598D01*
X-238764Y159176D01*
G01X-240342Y160738D02*
Y160750D01*
X-238764Y162328D01*
G01X-245856Y178088D02*
X-244644Y176876D01*
Y171360D01*
X-241942Y168658D01*
Y165437D01*
X-243492Y163887D01*
G01Y160738D02*
Y160752D01*
X-241916Y162328D01*
G01X-243492Y180452D02*
X-241942Y178902D01*
Y171810D01*
X-238790Y168658D01*
Y165439D01*
X-240342Y163887D01*
G01X-243492Y178088D02*
Y171784D01*
X-240340Y168632D01*
Y167039D01*
X-240342Y167037D01*
G01X-241128Y180452D02*
Y179503D01*
X-240942Y179317D01*
Y172386D01*
X-237188Y168632D01*
Y167042D01*
X-237193Y167037D01*
G01X-237799Y7512D02*
Y12431D01*
G01X-233000Y37000D02*
Y41500D01*
X-237799Y46299D01*
Y51488D01*
G01X-234036Y112684D02*
Y116636D01*
X-234043Y116643D01*
G01Y119793D02*
X-232486Y118236D01*
Y110294D01*
X-234036Y108744D01*
G01X-235612Y121352D02*
Y121361D01*
X-237193Y122942D01*
G01X-232460Y121352D02*
Y121359D01*
X-234043Y122942D01*
G01X-204704Y44000D02*
Y54796D01*
X-203500Y56000D01*
Y74496D01*
X-220304Y91300D01*
X-221800D01*
X-229308Y98808D01*
Y118200D01*
X-230894Y119786D01*
Y119793D01*
G01X-229308Y121352D02*
Y121356D01*
X-230894Y122942D01*
G01Y126092D02*
Y126090D01*
X-229308Y124504D01*
G01X-232460D02*
Y124509D01*
X-234043Y126092D01*
G01X-235612Y124504D02*
Y124511D01*
X-237193Y126092D01*
G01X-234043Y157588D02*
Y157593D01*
X-232460Y159176D01*
G01X-237193Y157588D02*
Y157595D01*
X-235612Y159176D01*
G01X-237193Y160738D02*
Y160747D01*
X-235612Y162328D01*
G01X-238000Y188500D02*
Y171784D01*
X-235612Y169396D01*
Y165388D01*
X-237113Y163887D01*
X-237193D01*
G01X-234043Y160738D02*
Y160745D01*
X-232460Y162328D01*
G01X-230884Y188332D02*
X-232444Y186772D01*
Y165496D01*
X-234043Y163897D01*
Y163887D01*
G01X-229308Y182028D02*
Y180253D01*
X-229318Y180243D01*
Y178957D01*
X-229308Y178947D01*
Y165480D01*
X-230894Y163894D01*
Y163887D01*
G01Y157588D02*
Y157590D01*
X-229308Y159176D01*
G01X-230894Y160738D02*
Y160742D01*
X-229308Y162328D01*
G01X-230894Y167037D02*
Y185500D01*
G01X-234043Y167037D02*
Y187544D01*
G01X-48000Y201500D02*
X-60000D01*
X-61000Y202500D01*
X-65915D01*
X-68915Y205500D01*
X-79000D01*
X-84108Y210608D01*
X-155477D01*
X-164585Y201500D01*
X-226670D01*
X-232000Y196170D01*
Y192500D01*
X-236000Y188500D01*
X-238000D01*
G01X-56849Y203350D02*
X-56850D01*
X-57000Y203500D01*
X-65500D01*
X-68500Y206500D01*
X-78500D01*
X-83608Y211608D01*
X-155892D01*
X-165000Y202500D01*
X-227085D01*
X-235612Y193973D01*
Y192272D01*
G01X-228500Y26500D02*
Y7662D01*
X-228350Y7512D01*
G01Y51488D02*
Y46150D01*
G01X-201554Y39000D02*
Y68968D01*
X-201261Y69261D01*
X-198293D01*
X-198000Y69554D01*
Y69968D01*
X-198293Y70261D01*
X-201261D01*
X-201554Y70554D01*
Y70968D01*
X-201261Y71261D01*
X-198293D01*
X-198000Y71554D01*
Y71968D01*
X-198293Y72261D01*
X-201261D01*
X-201554Y72554D01*
Y72968D01*
X-201261Y73261D01*
X-198293D01*
X-198000Y73554D01*
Y73968D01*
X-198293Y74261D01*
X-201261D01*
X-201554Y74554D01*
Y75054D01*
X-219500Y93000D01*
X-221000D01*
X-226144Y98144D01*
Y118188D01*
X-227744Y119788D01*
Y119793D01*
G01Y116643D02*
Y107744D01*
G01X-224594Y116643D02*
Y108094D01*
G01Y132391D02*
X-224587D01*
X-223004Y130808D01*
G01X-219852Y127656D02*
X-222216D01*
X-223802Y129242D01*
X-224594D01*
G01X-227744Y132391D02*
X-227739D01*
X-226156Y130808D01*
G01X-224594Y141840D02*
X-224580D01*
X-223004Y140264D01*
G01X-227744Y141840D02*
X-227732D01*
X-226156Y140264D01*
G01X-227744Y138690D02*
X-227734D01*
X-226156Y137112D01*
G01X-224594Y138690D02*
X-224582D01*
X-223004Y137112D01*
G01X-227744Y135541D02*
X-227737D01*
X-226156Y133960D01*
G01X-224594Y148139D02*
X-224585D01*
X-223004Y149720D01*
G01X-224594Y144990D02*
X-224582D01*
X-223004Y146568D01*
G01X-227744Y144990D02*
X-227734D01*
X-226156Y146568D01*
G01X-227744Y154438D02*
X-227742D01*
X-226156Y156024D01*
G01X-227744Y157588D02*
X-226156Y159176D01*
G01X-224594Y157588D02*
X-224592D01*
X-223004Y159176D01*
G01X-224594Y154438D02*
X-224590D01*
X-223004Y156024D01*
G01X-224594Y151289D02*
X-224587D01*
X-223004Y152872D01*
G01X-227744Y151289D02*
X-227739D01*
X-226156Y152872D01*
G01X-224594Y160738D02*
X-223004Y162328D01*
G01X-227744Y163887D02*
Y163892D01*
X-226156Y165480D01*
G01X-119500Y159500D02*
X-120500Y158500D01*
X-130670D01*
X-135670Y163500D01*
X-164925D01*
X-174712Y173288D01*
X-180925Y179500D01*
X-181089Y179664D01*
X-222216D01*
X-223594Y178286D01*
Y173162D01*
X-223004Y172572D01*
Y165480D01*
X-224594Y163890D01*
Y163887D01*
G01X-227744Y160738D02*
Y160740D01*
X-226156Y162328D01*
G01X-227744Y167037D02*
Y184392D01*
G01X-122000Y160500D02*
X-127307D01*
X-127357Y160450D01*
X-131205D01*
X-135255Y164500D01*
X-164508D01*
X-178475Y178467D01*
X-180217Y180208D01*
X-180674Y180664D01*
X-222631D01*
X-224594Y178701D01*
Y167037D01*
G01X-224984Y216516D02*
X-226450Y215050D01*
X-226500D01*
G01X-227248Y222425D02*
Y217772D01*
X-228520Y216500D01*
G01X-223000Y219500D02*
Y220484D01*
X-223016Y220500D01*
Y222425D01*
G01X-224984Y216516D02*
X-219984D01*
X-216544Y219956D01*
Y232456D01*
X-211500Y237500D01*
X-166000D01*
X-152000Y223500D01*
X-111000D01*
G01X-224984Y222425D02*
Y216516D01*
G01X-229750Y233100D02*
X-228850Y234000D01*
X-224500D01*
X-223016Y232516D01*
Y225575D01*
G01X-224984D02*
Y229984D01*
G01X-227248Y225575D02*
Y232398D01*
G01X-218902Y7512D02*
Y17402D01*
G01X-222051Y7512D02*
Y15449D01*
G01Y51488D02*
Y46051D01*
G01X-218902Y51488D02*
Y46098D01*
G01X-216500Y102650D02*
X-219000Y105150D01*
Y110000D01*
X-218295Y110705D01*
Y116643D01*
G01X-216500Y106350D02*
X-215000Y107850D01*
Y116585D01*
X-216658Y118243D01*
X-219895D01*
X-221445Y119793D01*
G01X-221500Y112000D02*
Y116588D01*
X-221445Y116643D01*
G01X-211500Y106350D02*
X-214000Y108850D01*
Y117000D01*
X-216243Y119243D01*
X-217745D01*
X-218295Y119793D01*
G01X-211500Y112500D02*
Y117000D01*
X-215892Y121392D01*
X-219895D01*
X-221445Y122942D01*
G01X-218295D02*
X-214350D01*
X-211972Y120564D01*
G01X-187500Y161000D02*
X-189000Y159500D01*
X-194085D01*
X-200635Y152950D01*
X-206135D01*
X-210972Y148113D01*
Y132596D01*
X-212760Y130808D01*
X-219862D01*
X-221445Y132391D01*
G01X-199350Y116350D02*
X-199500Y116500D01*
Y123500D01*
X-203000Y127000D01*
X-217000D01*
X-217908Y126092D01*
X-218295D01*
G01X-216700Y124504D02*
X-219857D01*
X-221445Y126092D01*
G01X-199400Y127930D02*
X-199470Y128000D01*
X-217000D01*
X-218242Y129242D01*
X-218295D01*
G01X-213500Y133960D02*
X-219852D01*
X-221433Y135541D01*
X-221445D01*
G01X-218295D02*
X-215459D01*
X-211972Y139028D01*
Y148528D01*
X-206550Y153950D01*
X-201050D01*
X-196000Y159000D01*
Y161000D01*
G01X-218295Y144990D02*
X-215914D01*
G01X-205450Y162000D02*
X-205500Y161950D01*
Y158085D01*
X-213896Y149689D01*
X-218938D01*
X-220488Y148139D01*
X-221445D01*
G01Y141840D02*
X-221428D01*
X-219852Y143416D01*
G01X-218295Y141840D02*
X-214336D01*
G01X-218295Y148139D02*
X-215639D01*
G01X-185500Y172000D02*
X-186500Y171000D01*
X-203755D01*
X-208000Y166755D01*
Y158585D01*
X-213697Y152888D01*
X-218889D01*
X-220488Y151289D01*
X-221445D01*
G01X-128500Y150000D02*
X-129500Y151000D01*
X-145000D01*
X-148500Y154500D01*
X-164500D01*
X-179950Y169950D01*
X-203390D01*
X-207000Y166340D01*
Y158000D01*
X-213711Y151289D01*
X-215789D01*
G01X-218295D02*
X-215789D01*
G01X-116127Y148873D02*
X-116254Y149000D01*
X-119000D01*
X-119500Y149500D01*
X-123000D01*
X-125500Y152000D01*
X-144585D01*
X-148085Y155500D01*
X-164000D01*
X-182292Y173792D01*
X-186293D01*
X-188085Y172000D01*
X-204170D01*
X-209000Y167170D01*
Y159000D01*
X-213562Y154438D01*
X-218295D01*
G01X-114500Y150500D02*
X-122500D01*
X-125000Y153000D01*
X-144170D01*
X-147670Y156500D01*
X-163585D01*
X-181877Y174792D01*
X-186708D01*
X-188500Y173000D01*
X-204585D01*
X-210000Y167585D01*
Y159500D01*
X-213500Y156000D01*
X-219500D01*
X-221062Y154438D01*
X-221445D01*
G01X-109100Y152050D02*
X-122635D01*
X-124585Y154000D01*
X-143755D01*
X-147255Y157500D01*
X-163170D01*
X-182170Y176500D01*
X-187113D01*
X-189260Y174353D01*
X-204647D01*
X-211000Y168000D01*
Y159915D01*
X-211727Y159188D01*
X-219845D01*
X-221445Y157588D01*
G01X-219064Y176512D02*
X-219852Y175724D01*
Y166268D01*
X-221445Y164675D01*
Y163887D01*
G01X-218295Y160738D02*
X-213562D01*
G01X-189903Y175903D02*
X-189952Y175854D01*
X-190048D01*
X-190694Y176500D01*
X-210500D01*
X-215500Y171500D01*
Y164000D01*
X-217163Y162337D01*
X-219843D01*
X-221442Y160738D01*
X-221445D01*
G01X-105000Y162000D02*
X-111500D01*
X-118500Y155000D01*
X-130000D01*
X-136500Y161500D01*
X-165755D01*
X-181755Y177500D01*
X-211500D01*
X-216500Y172500D01*
Y165682D01*
X-218295Y163887D01*
G01X-221445Y167037D02*
Y176495D01*
X-221428Y176512D01*
G01X-123550Y156950D02*
X-124100Y157500D01*
X-131085D01*
X-136085Y162500D01*
X-165340D01*
X-181340Y178500D01*
X-213000D01*
X-218295Y173205D01*
Y167037D01*
G01X-209500Y22000D02*
Y7559D01*
X-209453Y7512D01*
G01X-212602D02*
X-212450Y7664D01*
Y23950D01*
X-212500Y24000D01*
G01X-209453Y51488D02*
Y46547D01*
G01X-212602Y51488D02*
Y56898D01*
G01X-211500Y102650D02*
X-209000D01*
G01X-120000Y204550D02*
X-120050D01*
X-120500Y205000D01*
X-134000D01*
X-138500Y200500D01*
X-208000D01*
X-213500Y195000D01*
Y194500D01*
G01X-201800Y-71385D02*
X-205000Y-74585D01*
Y-78000D01*
X-203500Y-79500D01*
X-199500D01*
X-195500Y-75500D01*
Y-71500D01*
X-177000Y-53000D01*
Y-24500D01*
X-162312Y-9812D01*
Y4908D01*
G01X-201800Y-76306D02*
X-198306D01*
X-196500Y-74500D01*
Y-71085D01*
X-178000Y-52585D01*
Y-24085D01*
X-167312Y-13397D01*
Y4908D01*
G01X-200004Y7512D02*
Y27000D01*
G01X-203154Y7512D02*
Y19654D01*
X-203500Y20000D01*
G01X-203154Y51488D02*
Y46654D01*
G01X-200004Y51488D02*
Y56496D01*
G01X-199350Y116350D02*
Y105350D01*
X-197000Y103000D01*
G01X-199400Y127930D02*
Y138600D01*
X-197000Y141000D01*
G01X-198300Y165200D02*
X-196000Y162900D01*
Y161000D01*
G01X-174000Y194500D02*
X-205400D01*
X-205450Y194450D01*
G01X-193705Y7512D02*
Y25000D01*
G01Y51488D02*
Y46295D01*
G01X-155000Y134500D02*
Y142000D01*
X-164500Y151500D01*
X-182750D01*
G01X-185700Y165200D02*
X-187500Y163400D01*
Y161000D01*
G01X-161750Y-63000D02*
Y-53750D01*
X-174500Y-41000D01*
G01X-112684Y208032D02*
X-117716Y203000D01*
X-122050D01*
X-123050Y204000D01*
X-133500D01*
X-138000Y199500D01*
X-168496D01*
X-173496Y194500D01*
X-174000D01*
G01X-167312Y13158D02*
Y4908D01*
G01Y33658D02*
Y26260D01*
X-160052Y19000D01*
X-129903D01*
X-124903Y24000D01*
X-117050D01*
G01X-167312Y33658D02*
Y41908D01*
G01X-166700Y111200D02*
X-159200D01*
X-156500Y108500D01*
X-129502D01*
X-126999Y106000D01*
X-84500D01*
X-81170Y109330D01*
X-73330D01*
G01X-170000Y179500D02*
X-160000D01*
X-155500Y175000D01*
X-134000D01*
X-126500Y167500D01*
X-124965D01*
G01X-131000Y202000D02*
X-138500Y194500D01*
X-164000D01*
G01X-161468Y-169718D02*
Y-165718D01*
X-160218D01*
X-159818Y-165918D01*
X-159568Y-166185D01*
X-159468Y-166718D01*
X-159568Y-167251D01*
X-159868Y-167585D01*
X-160218Y-167785D01*
X-161468D01*
G01X-160218D02*
X-159468Y-169718D01*
G01X-156168D02*
X-158168D01*
Y-165718D01*
X-156168D01*
G01X-156968Y-167651D02*
X-158168D01*
G01X-155118Y-165718D02*
X-153868Y-169718D01*
X-152618Y-165718D01*
G01X-150568Y-169851D02*
X-150668Y-169785D01*
Y-169651D01*
X-150568Y-169585D01*
X-150468Y-169651D01*
Y-169785D01*
X-150568Y-169851D01*
G01Y-168051D02*
X-150668Y-167985D01*
Y-167851D01*
X-150568Y-167785D01*
X-150468Y-167851D01*
Y-167985D01*
X-150568Y-168051D01*
G01X-161468Y-169718D02*
Y-165718D01*
X-160218D01*
X-159818Y-165918D01*
X-159568Y-166185D01*
X-159468Y-166718D01*
X-159568Y-167251D01*
X-159868Y-167585D01*
X-160218Y-167785D01*
X-161468D01*
G01X-160218D02*
X-159468Y-169718D01*
G01X-156168D02*
X-158168D01*
Y-165718D01*
X-156168D01*
G01X-156968Y-167651D02*
X-158168D01*
G01X-155118Y-165718D02*
X-153868Y-169718D01*
X-152618Y-165718D01*
G01X-150568Y-169851D02*
X-150668Y-169785D01*
Y-169651D01*
X-150568Y-169585D01*
X-150468Y-169651D01*
Y-169785D01*
X-150568Y-169851D01*
G01Y-168051D02*
X-150668Y-167985D01*
Y-167851D01*
X-150568Y-167785D01*
X-150468Y-167851D01*
Y-167985D01*
X-150568Y-168051D01*
G01X-162312Y13158D02*
Y4908D01*
G01X-157312D02*
Y13158D01*
G01Y-1742D02*
Y4908D01*
G01X-118600Y26500D02*
X-125500D01*
X-131000Y21000D01*
X-156000D01*
X-162312Y27312D01*
Y33658D01*
G01X-115500Y28500D02*
X-126500D01*
X-132000Y23000D01*
X-151000D01*
X-157312Y29312D01*
Y33658D01*
G01D02*
Y41908D01*
G01X-162312Y33658D02*
Y41908D01*
G01X-158000Y62500D02*
X-152000Y56500D01*
Y55000D01*
X-147312Y50312D01*
Y41908D01*
G01X-12000Y95000D02*
X-31000D01*
X-36000Y100000D01*
X-71000D01*
X-75000Y104000D01*
X-127500D01*
X-129500Y106000D01*
X-156000D01*
G01X-153035Y182500D02*
X-158950D01*
X-159000Y182450D01*
G01X-153035Y182500D02*
Y188035D01*
X-157500Y192500D01*
G01D02*
X-138500D01*
X-131872Y199128D01*
X-112872D01*
G01X-149668Y-177968D02*
Y-170468D01*
X-150788Y-171968D01*
G01Y-177968D02*
X-148548D01*
G01X-144035D02*
Y-170468D01*
X-141701D01*
X-140955Y-170843D01*
X-140488Y-171343D01*
X-140301Y-172343D01*
X-140488Y-173343D01*
X-141048Y-173968D01*
X-141701Y-174343D01*
X-144035D01*
G01X-141701D02*
X-140301Y-177968D01*
G01X-134668Y-170468D02*
X-135415Y-170718D01*
X-135975Y-171343D01*
X-136348Y-172093D01*
X-136628Y-173093D01*
X-136721Y-174218D01*
X-136628Y-175343D01*
X-136348Y-176343D01*
X-135975Y-177093D01*
X-135415Y-177718D01*
X-134668Y-177968D01*
X-133921Y-177718D01*
X-133361Y-177093D01*
X-132988Y-176343D01*
X-132708Y-175343D01*
X-132615Y-174218D01*
X-132708Y-173093D01*
X-132988Y-172093D01*
X-133361Y-171343D01*
X-133921Y-170718D01*
X-134668Y-170468D01*
G01X-149668Y-177968D02*
Y-170468D01*
X-150788Y-171968D01*
G01Y-177968D02*
X-148548D01*
G01X-144035D02*
Y-170468D01*
X-141701D01*
X-140955Y-170843D01*
X-140488Y-171343D01*
X-140301Y-172343D01*
X-140488Y-173343D01*
X-141048Y-173968D01*
X-141701Y-174343D01*
X-144035D01*
G01X-141701D02*
X-140301Y-177968D01*
G01X-134668Y-170468D02*
X-135415Y-170718D01*
X-135975Y-171343D01*
X-136348Y-172093D01*
X-136628Y-173093D01*
X-136721Y-174218D01*
X-136628Y-175343D01*
X-136348Y-176343D01*
X-135975Y-177093D01*
X-135415Y-177718D01*
X-134668Y-177968D01*
X-133921Y-177718D01*
X-133361Y-177093D01*
X-132988Y-176343D01*
X-132708Y-175343D01*
X-132615Y-174218D01*
X-132708Y-173093D01*
X-132988Y-172093D01*
X-133361Y-171343D01*
X-133921Y-170718D01*
X-134668Y-170468D01*
G01X-152312Y4908D02*
Y-3940D01*
X-150810Y-5442D01*
X-147312D01*
G01Y4908D02*
Y13158D01*
G01Y-1742D02*
Y4908D01*
G01X-152312Y13158D02*
Y4908D01*
G01X-114000Y31500D02*
X-126500D01*
X-133000Y25000D01*
X-149685D01*
X-152312Y27627D01*
Y33658D01*
G01Y41908D02*
Y33658D01*
G01X-147312D02*
Y41908D01*
G01X-132312Y-5442D02*
X-135538Y-8668D01*
X-140264D01*
X-142312Y-6620D01*
Y4908D01*
G01Y13158D02*
Y4908D01*
G01Y33658D02*
Y41908D01*
G01D02*
Y58188D01*
X-138000Y62500D01*
G01X-132312Y4908D02*
Y-1742D01*
G01Y13158D02*
Y4908D01*
G01X-137312D02*
Y-1742D01*
G01Y13158D02*
Y4908D01*
G01X-121568Y-169718D02*
Y-165718D01*
X-120568D01*
X-120168Y-165918D01*
X-119868Y-166185D01*
X-119618Y-166585D01*
X-119418Y-167051D01*
X-119368Y-167718D01*
X-119418Y-168385D01*
X-119618Y-168851D01*
X-119868Y-169251D01*
X-120168Y-169518D01*
X-120568Y-169718D01*
X-121568D01*
G01X-118418D02*
X-117168Y-165718D01*
X-115918Y-169718D01*
G01X-116368Y-168318D02*
X-117968D01*
G01X-113868Y-165718D02*
Y-169718D01*
G01X-115018Y-165718D02*
X-112718D01*
G01X-109568Y-169718D02*
X-111568D01*
Y-165718D01*
X-109568D01*
G01X-110368Y-167651D02*
X-111568D01*
G01X-107268Y-169851D02*
X-107368Y-169785D01*
Y-169651D01*
X-107268Y-169585D01*
X-107168Y-169651D01*
Y-169785D01*
X-107268Y-169851D01*
G01Y-168051D02*
X-107368Y-167985D01*
Y-167851D01*
X-107268Y-167785D01*
X-107168Y-167851D01*
Y-167985D01*
X-107268Y-168051D01*
G01X-121568Y-169718D02*
Y-165718D01*
X-120568D01*
X-120168Y-165918D01*
X-119868Y-166185D01*
X-119618Y-166585D01*
X-119418Y-167051D01*
X-119368Y-167718D01*
X-119418Y-168385D01*
X-119618Y-168851D01*
X-119868Y-169251D01*
X-120168Y-169518D01*
X-120568Y-169718D01*
X-121568D01*
G01X-118418D02*
X-117168Y-165718D01*
X-115918Y-169718D01*
G01X-116368Y-168318D02*
X-117968D01*
G01X-113868Y-165718D02*
Y-169718D01*
G01X-115018Y-165718D02*
X-112718D01*
G01X-109568Y-169718D02*
X-111568D01*
Y-165718D01*
X-109568D01*
G01X-110368Y-167651D02*
X-111568D01*
G01X-107268Y-169851D02*
X-107368Y-169785D01*
Y-169651D01*
X-107268Y-169585D01*
X-107168Y-169651D01*
Y-169785D01*
X-107268Y-169851D01*
G01Y-168051D02*
X-107368Y-167985D01*
Y-167851D01*
X-107268Y-167785D01*
X-107168Y-167851D01*
Y-167985D01*
X-107268Y-168051D01*
G01X-128650Y111000D02*
X-125800Y108150D01*
X-90750D01*
G01X-128650Y120500D02*
Y115650D01*
X-123520Y110520D01*
X-90750D01*
G01X-124965Y167500D02*
Y165135D01*
X-128000Y162100D01*
Y162000D01*
G01X-118000Y175500D02*
Y174500D01*
X-120000Y172500D01*
X-124965D01*
G01Y182500D02*
Y190000D01*
G01X-115500Y172500D02*
Y176500D01*
X-116500Y177500D01*
X-124965D01*
G01X-104445Y154555D02*
X-105000Y154000D01*
Y138500D01*
X-96000Y129500D01*
X-90840D01*
X-90750Y129410D01*
G01X-104000Y159000D02*
X-106000Y157000D01*
Y137500D01*
X-95550Y127050D01*
X-90750D01*
G01X-109695Y204500D02*
Y192195D01*
X-109000Y191500D01*
G01X-90750Y119960D02*
X-95960D01*
X-101000Y125000D01*
G01X-103403Y152097D02*
Y141903D01*
X-98000Y136500D01*
X-90750D01*
G01X-99950Y164000D02*
Y148450D01*
X-97450Y145950D01*
X-90750D01*
G01X-101500Y166500D02*
Y144500D01*
X-98220Y141220D01*
X-90750D01*
G01X-66000Y173000D02*
X-69420Y169580D01*
X-94250D01*
X-97500Y166330D01*
Y152000D01*
X-93810Y148310D01*
X-90750D01*
G01X-65847Y170347D02*
Y170153D01*
X-67420Y168580D01*
X-93835D01*
X-96500Y165915D01*
Y159260D01*
X-95000Y157760D01*
X-90750D01*
G01X-85718Y-177218D02*
Y-169718D01*
X-86838Y-171218D01*
G01Y-177218D02*
X-84598D01*
G01X-78218D02*
Y-169718D01*
X-79338Y-171218D01*
G01Y-177218D02*
X-77098D01*
G01X-72398Y-177468D02*
X-69038Y-169718D01*
G01X-63218Y-177218D02*
Y-169718D01*
X-64338Y-171218D01*
G01Y-177218D02*
X-62098D01*
G01X-55718Y-169718D02*
X-56465Y-169968D01*
X-57025Y-170593D01*
X-57398Y-171343D01*
X-57678Y-172343D01*
X-57771Y-173468D01*
X-57678Y-174593D01*
X-57398Y-175593D01*
X-57025Y-176343D01*
X-56465Y-176968D01*
X-55718Y-177218D01*
X-54971Y-176968D01*
X-54411Y-176343D01*
X-54038Y-175593D01*
X-53758Y-174593D01*
X-53665Y-173468D01*
X-53758Y-172343D01*
X-54038Y-171343D01*
X-54411Y-170593D01*
X-54971Y-169968D01*
X-55718Y-169718D01*
G01X-49898Y-177468D02*
X-46538Y-169718D01*
G01X-40718Y-177218D02*
Y-169718D01*
X-41838Y-171218D01*
G01Y-177218D02*
X-39598D01*
G01X-33218Y-169718D02*
X-33965Y-169968D01*
X-34525Y-170593D01*
X-34898Y-171343D01*
X-35178Y-172343D01*
X-35271Y-173468D01*
X-35178Y-174593D01*
X-34898Y-175593D01*
X-34525Y-176343D01*
X-33965Y-176968D01*
X-33218Y-177218D01*
X-32471Y-176968D01*
X-31911Y-176343D01*
X-31538Y-175593D01*
X-31258Y-174593D01*
X-31165Y-173468D01*
X-31258Y-172343D01*
X-31538Y-171343D01*
X-31911Y-170593D01*
X-32471Y-169968D01*
X-33218Y-169718D01*
G01X-85718Y-177218D02*
Y-169718D01*
X-86838Y-171218D01*
G01Y-177218D02*
X-84598D01*
G01X-78218D02*
Y-169718D01*
X-79338Y-171218D01*
G01Y-177218D02*
X-77098D01*
G01X-72398Y-177468D02*
X-69038Y-169718D01*
G01X-63218Y-177218D02*
Y-169718D01*
X-64338Y-171218D01*
G01Y-177218D02*
X-62098D01*
G01X-55718Y-169718D02*
X-56465Y-169968D01*
X-57025Y-170593D01*
X-57398Y-171343D01*
X-57678Y-172343D01*
X-57771Y-173468D01*
X-57678Y-174593D01*
X-57398Y-175593D01*
X-57025Y-176343D01*
X-56465Y-176968D01*
X-55718Y-177218D01*
X-54971Y-176968D01*
X-54411Y-176343D01*
X-54038Y-175593D01*
X-53758Y-174593D01*
X-53665Y-173468D01*
X-53758Y-172343D01*
X-54038Y-171343D01*
X-54411Y-170593D01*
X-54971Y-169968D01*
X-55718Y-169718D01*
G01X-49898Y-177468D02*
X-46538Y-169718D01*
G01X-40718Y-177218D02*
Y-169718D01*
X-41838Y-171218D01*
G01Y-177218D02*
X-39598D01*
G01X-33218Y-169718D02*
X-33965Y-169968D01*
X-34525Y-170593D01*
X-34898Y-171343D01*
X-35178Y-172343D01*
X-35271Y-173468D01*
X-35178Y-174593D01*
X-34898Y-175593D01*
X-34525Y-176343D01*
X-33965Y-176968D01*
X-33218Y-177218D01*
X-32471Y-176968D01*
X-31911Y-176343D01*
X-31538Y-175593D01*
X-31258Y-174593D01*
X-31165Y-173468D01*
X-31258Y-172343D01*
X-31538Y-171343D01*
X-31911Y-170593D01*
X-32471Y-169968D01*
X-33218Y-169718D01*
G01X-90750Y112880D02*
X-94364D01*
G01X-78252Y115288D02*
X-90702D01*
X-90750Y115240D01*
G01X-96136Y115048D02*
X-90942D01*
X-90750Y115240D01*
G01Y131780D02*
X-94220D01*
G01X-90750Y138860D02*
X-93860D01*
G01X-80000Y150500D02*
X-90580D01*
X-90750Y150670D01*
G01X-62750Y171250D02*
X-66420Y167580D01*
X-93420D01*
X-95500Y165500D01*
Y161500D01*
X-94120Y160120D01*
X-90750D01*
G01X-73330Y128230D02*
X-77730D01*
X-81500Y132000D01*
Y139000D01*
G01X-73330Y147130D02*
X-81977D01*
G01X-73330Y106970D02*
X-68470D01*
X-65000Y103500D01*
G01X-73330Y114060D02*
X-69144D01*
X-68556Y113472D01*
G01X-73330Y121150D02*
X-69350D01*
X-64500Y126000D01*
G01X-68556Y116624D02*
X-73126D01*
X-73330Y116420D01*
G01X-50500Y175000D02*
Y172500D01*
X-53500Y169500D01*
Y142500D01*
X-65410Y130590D01*
X-73330D01*
G01X-77500Y140000D02*
X-73370D01*
X-73330Y140040D01*
G01X-52500Y178500D02*
Y172000D01*
X-54500Y170000D01*
Y145500D01*
X-62320Y137680D01*
X-73330D01*
G01X-54442Y176029D02*
X-54500Y175971D01*
Y174500D01*
X-55500Y173500D01*
Y166755D01*
X-57000Y165255D01*
Y159585D01*
X-65000Y151585D01*
Y145000D01*
X-67590Y142410D01*
X-73330D01*
G01X-58500Y170500D02*
Y166585D01*
X-68505Y156580D01*
X-73330D01*
G01X-56500Y175000D02*
Y167170D01*
X-58000Y165670D01*
Y160000D01*
X-68510Y149490D01*
X-73330D01*
G01X-79000Y159000D02*
X-73390D01*
X-73330Y158940D01*
G01X-60000Y173500D02*
X-60500Y173000D01*
Y166000D01*
X-65200Y161300D01*
X-73330D01*
G01X-37000Y37000D02*
X-43350D01*
X-44850Y35500D01*
G01X-20500Y18000D02*
X-28600D01*
X-28700Y17900D01*
G01X-17336Y48969D02*
X-1369D01*
X500Y47100D01*
G01X1300Y102300D02*
X9500D01*
X12500Y105300D01*
G54D29*
X-350961Y136613D03*
X-342300Y42912D03*
G54D47*
X-198300Y165200D03*
Y186800D03*
X-185700Y165200D03*
Y186800D03*
G54D38*
X-272445Y7512D03*
Y51488D03*
X-269295Y7512D03*
X-266146D03*
Y51488D03*
X-269295D03*
X-262996Y7512D03*
X-259846D03*
X-256697D03*
Y51488D03*
X-259846D03*
X-262996D03*
X-253547Y7512D03*
X-250398D03*
X-247248D03*
Y51488D03*
X-250398D03*
X-253547D03*
X-244098Y7512D03*
X-240949D03*
Y51488D03*
X-244098D03*
X-237799Y7512D03*
X-234650D03*
X-231500D03*
Y51488D03*
X-234650D03*
X-237799D03*
X-228350Y7512D03*
X-225201D03*
X-222051D03*
Y51488D03*
X-225201D03*
X-228350D03*
X-218902Y7512D03*
X-215752D03*
Y51488D03*
X-218902D03*
X-212602Y7512D03*
X-209453D03*
X-206303D03*
Y51488D03*
X-209453D03*
X-212602D03*
X-203154Y7512D03*
X-200004D03*
X-196854D03*
Y51488D03*
X-200004D03*
X-203154D03*
X-190555Y7512D03*
X-193705D03*
X-190555Y51488D03*
X-193705D03*
G54D56*
X-44850Y35500D03*
G54D66*
G01X-423854Y-54469D02*
X-429031D01*
X-429852Y-53648D01*
X-434722D01*
X-434723Y-53649D01*
X-439207D01*
G01X-268689Y167037D02*
Y167189D01*
X-270500Y169000D01*
G01X-246642Y138690D02*
X-248220Y137112D01*
G01X-246642Y141840D02*
X-246644D01*
X-248220Y143416D01*
G01X-240342Y138690D02*
X-238764Y137112D01*
G01X-243492Y138690D02*
Y138688D01*
X-241916Y137112D01*
G01X-243492Y141840D02*
X-245068Y143416D01*
G01X-240342Y141840D02*
Y141842D01*
X-241916Y143416D01*
G01X-231500Y7512D02*
Y2500D01*
G01X-237193Y116643D02*
Y114193D01*
G01X-230894Y116643D02*
Y114106D01*
G01X-237193Y119793D02*
Y119781D01*
X-235612Y118200D01*
G01X-225201Y7512D02*
Y12799D01*
G01X-224594Y119793D02*
Y119790D01*
X-223004Y118200D01*
G01X-224594Y135541D02*
X-224585D01*
X-223004Y133960D01*
G01X-227744Y148139D02*
X-227737D01*
X-226156Y149720D01*
G01X-215752Y7512D02*
Y2752D01*
G01X-218295Y132391D02*
X-215919D01*
G01X-221445Y138690D02*
X-218295D01*
G01D02*
X-215914D01*
G01X-206303Y7512D02*
Y12803D01*
G01X-196854Y7512D02*
Y2500D01*
G01X-190555Y7512D02*
Y2555D01*
G54D48*
X-167312Y4908D03*
Y41908D03*
X-157312Y4908D03*
X-162312D03*
Y41908D03*
X-157312D03*
X-147312Y4908D03*
X-152312D03*
Y41908D03*
X-147312D03*
X-137312Y4908D03*
X-142312D03*
Y41908D03*
X-137312D03*
X-132312Y4908D03*
Y41908D03*
G54D57*
X-28700Y17900D03*
G54D39*
X-263500Y-66500D03*
G54D49*
X-167312Y13158D03*
Y33658D03*
X-157312Y13158D03*
X-162312D03*
Y33658D03*
X-157312D03*
X-147312Y13158D03*
X-152312D03*
Y33658D03*
X-147312D03*
X-137312Y13158D03*
X-142312D03*
Y33658D03*
X-137312D03*
X-132312Y13158D03*
Y33658D03*
G54D58*
X8000Y17900D03*
X500Y47100D03*
G54D59*
X12500Y105300D03*
Y128500D03*
M02*
