G04 ================== begin FILE IDENTIFICATION RECORD ==================*
G04 Layout Name:  F:/JZM/Track Systems/main pcb/du_main_proto.brd*
G04 Film Name:    BOTPASTE*
G04 File Format:  Gerber RS274X*
G04 File Origin:  Cadence Allegro 16.3-p003*
G04 Origin Date:  Thu Nov 11 20:12:00 2010*
G04 *
G04 Layer:  BOARD GEOMETRY/FILM_FORMAT*
G04 Layer:  BOARD GEOMETRY/SOLDERMASK_TOP*
G04 Layer:  BOARD GEOMETRY/OUTLINE*
G04 Layer:  PACKAGE GEOMETRY/PASTEMASK_BOTTOM*
G04 Layer:  PIN/PASTEMASK_BOTTOM*
G04 *
G04 Offset:    (0.00 0.00)*
G04 Mirror:    No*
G04 Mode:      Positive*
G04 Rotation:  0*
G04 FullContactRelief:  No*
G04 UndefLineWidth:     0.00*
G04 ================== end FILE IDENTIFICATION RECORD ====================*
%FSLAX55Y55*MOIN*%
%IR0*IPPOS*OFA0.00000B0.00000*MIA0B0*SFA1.00000B1.00000*%
%ADD22R,.1X.05*%
%ADD32R,.08X.22*%
%ADD12R,.05X.145*%
%ADD41R,.087X.11*%
%ADD26C,.016*%
%ADD31C,.018*%
%ADD42R,.146X.067*%
%ADD16R,.142X.088*%
%AMMACRO18*
21,1,.098,.118,0.0,0.0,45.*%
%ADD18MACRO18*%
%ADD10R,.138X.087*%
%ADD17R,.079X.079*%
%ADD40R,.11X.11*%
%ADD39R,.103X.11*%
%ADD25R,.1X.15*%
%ADD37R,.03X.012*%
%ADD30R,.012X.02*%
%ADD38R,.05X.012*%
%ADD13R,.02X.025*%
%ADD24O,.012X.063*%
%ADD23R,.025X.02*%
%ADD14R,.05X.04*%
%ADD11R,.034X.012*%
%ADD29R,.018X.02*%
%ADD34R,.025X.08*%
%ADD28R,.05X.055*%
%ADD33R,.075X.05*%
%ADD27R,.047X.06*%
%ADD36R,.047X.026*%
%ADD35R,.025X.075*%
%ADD21R,.097X.031*%
%ADD20R,.098X.055*%
%ADD15R,.048X.088*%
%ADD19R,.098X.049*%
%ADD43C,.001*%
%ADD44C,.005*%
G75*
%LPD*%
G75*
G54D10*
X-444780Y143699D03*
G54D20*
X-340528Y142794D03*
G54D11*
X-423854Y-54469D03*
Y-52500D03*
Y-50531D03*
X-418146Y-54469D03*
Y-52500D03*
Y-50531D03*
G54D21*
X-340528Y136494D03*
G54D30*
X-224984Y225575D03*
Y222425D03*
X-223016Y225575D03*
Y222425D03*
G54D12*
X-425924Y-1842D03*
Y15658D03*
X-415924Y-1842D03*
Y15658D03*
X-405924Y-1842D03*
Y15658D03*
X-395924Y-1842D03*
Y15658D03*
X-385924Y-1842D03*
Y15658D03*
X-375924Y-1842D03*
Y15658D03*
X-365924Y-1842D03*
Y15658D03*
X-355924Y-1842D03*
Y15658D03*
X-345924Y-1842D03*
Y15658D03*
X-335924Y-1842D03*
Y15658D03*
G54D13*
X-399500Y-42850D03*
Y-39150D03*
X-307500Y-77850D03*
Y-74150D03*
X-281000Y-71650D03*
Y-75350D03*
Y-67350D03*
Y-63650D03*
X-272500Y-4350D03*
Y-650D03*
X-247000Y-4350D03*
Y-650D03*
X-231500Y-4350D03*
Y-650D03*
X-225500Y64350D03*
Y60650D03*
X-215500Y-4350D03*
Y-650D03*
X-216500Y102650D03*
Y106350D03*
X-206500Y64350D03*
Y60650D03*
X-211500Y102650D03*
Y106350D03*
X-202000Y-40850D03*
Y-37150D03*
X-196500Y-4350D03*
Y-650D03*
X-190500Y-4350D03*
Y-650D03*
X-157312Y-1742D03*
Y-5442D03*
X-147312Y-1742D03*
Y-5442D03*
X-137312Y-1742D03*
Y-5442D03*
X-132312Y-1742D03*
Y-5442D03*
X-132500Y49650D03*
Y53350D03*
G54D40*
X-28700Y17900D03*
G54D31*
X-219064Y176512D03*
X-221428D03*
G54D22*
X-297500Y-79500D03*
Y-67500D03*
G54D14*
X-399500Y-33200D03*
Y-24800D03*
X-362000Y-32700D03*
Y-24300D03*
G54D23*
X-288850Y-75000D03*
X-285150D03*
X-274150Y-80500D03*
X-277850D03*
X-273650Y-38500D03*
X-277350D03*
X-266150Y-80500D03*
X-269850D03*
X-257150D03*
X-260850D03*
X-247650Y-54500D03*
X-251350D03*
G54D41*
X8000Y17900D03*
X500Y47100D03*
G54D32*
X-197000Y103000D03*
Y141000D03*
G54D15*
X-390000Y-41700D03*
X-381000D03*
X-372000D03*
G54D33*
X-198300Y165200D03*
Y186800D03*
X-185700Y165200D03*
Y186800D03*
G54D24*
X-272445Y7512D03*
Y51488D03*
X-269295Y7512D03*
X-266146D03*
Y51488D03*
X-269295D03*
X-262996Y7512D03*
X-259846D03*
X-256697D03*
Y51488D03*
X-259846D03*
X-262996D03*
X-253547Y7512D03*
X-250398D03*
X-247248D03*
Y51488D03*
X-250398D03*
X-253547D03*
X-244098Y7512D03*
X-240949D03*
Y51488D03*
X-244098D03*
X-237799Y7512D03*
X-234650D03*
X-231500D03*
Y51488D03*
X-234650D03*
X-237799D03*
X-228350Y7512D03*
X-225201D03*
X-222051D03*
Y51488D03*
X-225201D03*
X-228350D03*
X-218902Y7512D03*
X-215752D03*
Y51488D03*
X-218902D03*
X-212602Y7512D03*
X-209453D03*
X-206303D03*
Y51488D03*
X-209453D03*
X-212602D03*
X-203154Y7512D03*
X-200004D03*
X-196854D03*
Y51488D03*
X-200004D03*
X-203154D03*
X-190555Y7512D03*
X-193705D03*
X-190555Y51488D03*
X-193705D03*
G54D42*
X12500Y105300D03*
Y128500D03*
G54D43*
G01X-448519Y-89000D02*
G02X-460955Y-77766I0J12500D01*
G02X-473689Y192383I2474700J252024D01*
G02X-465245Y204116I12499J-91D01*
G02X-439500Y212421I239253J-697613D01*
G02X-412500Y220029I213486J-705925D01*
G02X-333500Y236123I186501J-713531D01*
G01Y227928D01*
X-298500D01*
Y240428D01*
G02X-153500I72500J-733927D01*
G01Y227928D01*
X-118500D01*
Y236123D01*
G02X-39500Y220029I-107501J-729623D01*
G01X-12500Y212421D01*
G02X13245Y204116I-213508J-705918D01*
G02X21689Y192383I-4055J-11824D01*
G02X13842Y-24000I-2487434J-18128D01*
G01X7842D01*
G03X4842Y-27000I0J-3000D01*
G01Y-76000D01*
G03X7842Y-79000I3000J0D01*
G01X8767D01*
G02X-3481Y-89000I-12248J2501D01*
G01X-448519D01*
G01D02*
G02X-460955Y-77766I0J12500D01*
G02X-473689Y192383I2474692J252024D01*
G02X-465245Y204116I12499J-91D01*
G02X-439500Y212421I239246J-697593D01*
G02X-412500Y220029I213482J-705911D01*
G02X-333500Y236123I186501J-713533D01*
G01Y227928D01*
X-298500D01*
Y240428D01*
G02X-153500I72500J-733926D01*
G01Y227928D01*
X-118500D01*
Y236123D01*
G02X-39500Y220029I-107501J-729627D01*
G01X-12500Y212421D01*
G02X13245Y204116I-213501J-705898D01*
G02X21689Y192383I-4055J-11824D01*
G02X13842Y-24000I-2487393J-18130D01*
G01X7842D01*
G03X4842Y-27000I0J-3000D01*
G01Y-76000D01*
G03X7842Y-79000I3000J0D01*
G01X8767D01*
G02X-3481Y-89000I-12248J2501D01*
G01X-448519D01*
G01X-336968Y-119718D02*
Y-179718D01*
X-11968D01*
Y-119718D01*
X-336968D01*
G01D02*
Y-179718D01*
X-11968D01*
Y-119718D01*
X-336968D01*
G01Y-164718D02*
X-11968D01*
G01X-336968D02*
X-11968D01*
G01X-336968Y-149718D02*
X-11968D01*
G01X-336968D02*
X-11968D01*
G01X-336968Y-134718D02*
X-11968D01*
G01X-336968D02*
X-11968D01*
G01X-164468Y-179718D02*
Y-164718D01*
G01Y-179718D02*
Y-164718D01*
G01X-124468Y-179718D02*
Y-164718D01*
G01Y-179718D02*
Y-164718D01*
G54D34*
X-167312Y4908D03*
Y41908D03*
X-157312Y4908D03*
X-162312D03*
Y41908D03*
X-157312D03*
X-147312Y4908D03*
X-152312D03*
Y41908D03*
X-147312D03*
X-137312Y4908D03*
X-142312D03*
Y41908D03*
X-137312D03*
X-132312Y4908D03*
Y41908D03*
G54D25*
X-263500Y-66500D03*
G54D16*
X-381000Y-17300D03*
G54D44*
G01X-333968Y-169718D02*
Y-165718D01*
X-332768D01*
X-332368Y-165918D01*
X-332068Y-166385D01*
X-331968Y-166918D01*
X-332068Y-167451D01*
X-332318Y-167851D01*
X-332768Y-168051D01*
X-333968D01*
G01X-330568Y-169851D02*
X-328768Y-165718D01*
G01X-327518Y-169718D02*
Y-165718D01*
X-325218Y-169718D01*
Y-165718D01*
G01X-323068Y-169851D02*
X-323168Y-169785D01*
Y-169651D01*
X-323068Y-169585D01*
X-322968Y-169651D01*
Y-169785D01*
X-323068Y-169851D01*
G01Y-168051D02*
X-323168Y-167985D01*
Y-167851D01*
X-323068Y-167785D01*
X-322968Y-167851D01*
Y-167985D01*
X-323068Y-168051D01*
G01X-333968Y-169718D02*
Y-165718D01*
X-332768D01*
X-332368Y-165918D01*
X-332068Y-166385D01*
X-331968Y-166918D01*
X-332068Y-167451D01*
X-332318Y-167851D01*
X-332768Y-168051D01*
X-333968D01*
G01X-330568Y-169851D02*
X-328768Y-165718D01*
G01X-327518Y-169718D02*
Y-165718D01*
X-325218Y-169718D01*
Y-165718D01*
G01X-323068Y-169851D02*
X-323168Y-169785D01*
Y-169651D01*
X-323068Y-169585D01*
X-322968Y-169651D01*
Y-169785D01*
X-323068Y-169851D01*
G01Y-168051D02*
X-323168Y-167985D01*
Y-167851D01*
X-323068Y-167785D01*
X-322968Y-167851D01*
Y-167985D01*
X-323068Y-168051D01*
G01X-333968Y-150718D02*
Y-154718D01*
X-331968D01*
G01X-330918D02*
X-329668Y-150718D01*
X-328418Y-154718D01*
G01X-328868Y-153318D02*
X-330468D01*
G01X-326368Y-154718D02*
Y-152918D01*
X-327368Y-150718D01*
G01X-325368D02*
X-326368Y-152918D01*
G01X-322068Y-154718D02*
X-324068D01*
Y-150718D01*
X-322068D01*
G01X-322868Y-152651D02*
X-324068D01*
G01X-320768Y-154718D02*
Y-150718D01*
X-319518D01*
X-319118Y-150918D01*
X-318868Y-151185D01*
X-318768Y-151718D01*
X-318868Y-152251D01*
X-319168Y-152585D01*
X-319518Y-152785D01*
X-320768D01*
G01X-319518D02*
X-318768Y-154718D01*
G01X-316468Y-154851D02*
X-316568Y-154785D01*
Y-154651D01*
X-316468Y-154585D01*
X-316368Y-154651D01*
Y-154785D01*
X-316468Y-154851D01*
G01Y-153051D02*
X-316568Y-152985D01*
Y-152851D01*
X-316468Y-152785D01*
X-316368Y-152851D01*
Y-152985D01*
X-316468Y-153051D01*
G01X-333968Y-150718D02*
Y-154718D01*
X-331968D01*
G01X-330918D02*
X-329668Y-150718D01*
X-328418Y-154718D01*
G01X-328868Y-153318D02*
X-330468D01*
G01X-326368Y-154718D02*
Y-152918D01*
X-327368Y-150718D01*
G01X-325368D02*
X-326368Y-152918D01*
G01X-322068Y-154718D02*
X-324068D01*
Y-150718D01*
X-322068D01*
G01X-322868Y-152651D02*
X-324068D01*
G01X-320768Y-154718D02*
Y-150718D01*
X-319518D01*
X-319118Y-150918D01*
X-318868Y-151185D01*
X-318768Y-151718D01*
X-318868Y-152251D01*
X-319168Y-152585D01*
X-319518Y-152785D01*
X-320768D01*
G01X-319518D02*
X-318768Y-154718D01*
G01X-316468Y-154851D02*
X-316568Y-154785D01*
Y-154651D01*
X-316468Y-154585D01*
X-316368Y-154651D01*
Y-154785D01*
X-316468Y-154851D01*
G01Y-153051D02*
X-316568Y-152985D01*
Y-152851D01*
X-316468Y-152785D01*
X-316368Y-152851D01*
Y-152985D01*
X-316468Y-153051D01*
G01X-334068Y-139718D02*
Y-135718D01*
X-333068D01*
X-332668Y-135918D01*
X-332368Y-136185D01*
X-332118Y-136585D01*
X-331918Y-137051D01*
X-331868Y-137718D01*
X-331918Y-138385D01*
X-332118Y-138851D01*
X-332368Y-139251D01*
X-332668Y-139518D01*
X-333068Y-139718D01*
X-334068D01*
G01X-330668D02*
Y-135718D01*
X-329418D01*
X-329018Y-135918D01*
X-328768Y-136185D01*
X-328668Y-136718D01*
X-328768Y-137251D01*
X-329068Y-137585D01*
X-329418Y-137785D01*
X-330668D01*
G01X-329418D02*
X-328668Y-139718D01*
G01X-327618D02*
X-326368Y-135718D01*
X-325118Y-139718D01*
G01X-325568Y-138318D02*
X-327168D01*
G01X-324568Y-135718D02*
X-323868Y-139718D01*
X-323068Y-135718D01*
X-322268Y-139718D01*
X-321568Y-135718D01*
G01X-320918Y-139718D02*
Y-135718D01*
X-318618Y-139718D01*
Y-135718D01*
G01X-312768Y-137585D02*
X-312568Y-137385D01*
X-312418Y-137051D01*
X-312318Y-136585D01*
X-312418Y-136185D01*
X-312618Y-135918D01*
X-312968Y-135718D01*
X-314318D01*
Y-139718D01*
X-312668D01*
X-312318Y-139451D01*
X-312118Y-139051D01*
X-312018Y-138585D01*
X-312118Y-138118D01*
X-312418Y-137718D01*
X-312768Y-137585D01*
X-314318D01*
G01X-309868Y-139718D02*
Y-137918D01*
X-310868Y-135718D01*
G01X-308868D02*
X-309868Y-137918D01*
G01X-306568Y-139851D02*
X-306668Y-139785D01*
Y-139651D01*
X-306568Y-139585D01*
X-306468Y-139651D01*
Y-139785D01*
X-306568Y-139851D01*
G01Y-138051D02*
X-306668Y-137985D01*
Y-137851D01*
X-306568Y-137785D01*
X-306468Y-137851D01*
Y-137985D01*
X-306568Y-138051D01*
G01X-334068Y-139718D02*
Y-135718D01*
X-333068D01*
X-332668Y-135918D01*
X-332368Y-136185D01*
X-332118Y-136585D01*
X-331918Y-137051D01*
X-331868Y-137718D01*
X-331918Y-138385D01*
X-332118Y-138851D01*
X-332368Y-139251D01*
X-332668Y-139518D01*
X-333068Y-139718D01*
X-334068D01*
G01X-330668D02*
Y-135718D01*
X-329418D01*
X-329018Y-135918D01*
X-328768Y-136185D01*
X-328668Y-136718D01*
X-328768Y-137251D01*
X-329068Y-137585D01*
X-329418Y-137785D01*
X-330668D01*
G01X-329418D02*
X-328668Y-139718D01*
G01X-327618D02*
X-326368Y-135718D01*
X-325118Y-139718D01*
G01X-325568Y-138318D02*
X-327168D01*
G01X-324568Y-135718D02*
X-323868Y-139718D01*
X-323068Y-135718D01*
X-322268Y-139718D01*
X-321568Y-135718D01*
G01X-320918Y-139718D02*
Y-135718D01*
X-318618Y-139718D01*
Y-135718D01*
G01X-312768Y-137585D02*
X-312568Y-137385D01*
X-312418Y-137051D01*
X-312318Y-136585D01*
X-312418Y-136185D01*
X-312618Y-135918D01*
X-312968Y-135718D01*
X-314318D01*
Y-139718D01*
X-312668D01*
X-312318Y-139451D01*
X-312118Y-139051D01*
X-312018Y-138585D01*
X-312118Y-138118D01*
X-312418Y-137718D01*
X-312768Y-137585D01*
X-314318D01*
G01X-309868Y-139718D02*
Y-137918D01*
X-310868Y-135718D01*
G01X-308868D02*
X-309868Y-137918D01*
G01X-306568Y-139851D02*
X-306668Y-139785D01*
Y-139651D01*
X-306568Y-139585D01*
X-306468Y-139651D01*
Y-139785D01*
X-306568Y-139851D01*
G01Y-138051D02*
X-306668Y-137985D01*
Y-137851D01*
X-306568Y-137785D01*
X-306468Y-137851D01*
Y-137985D01*
X-306568Y-138051D01*
G01X-333968Y-124718D02*
Y-120718D01*
X-332768D01*
X-332368Y-120918D01*
X-332068Y-121385D01*
X-331968Y-121918D01*
X-332068Y-122451D01*
X-332318Y-122851D01*
X-332768Y-123051D01*
X-333968D01*
G01X-330668Y-124718D02*
Y-120718D01*
X-329418D01*
X-329018Y-120918D01*
X-328768Y-121185D01*
X-328668Y-121718D01*
X-328768Y-122251D01*
X-329068Y-122585D01*
X-329418Y-122785D01*
X-330668D01*
G01X-329418D02*
X-328668Y-124718D01*
G01X-326368D02*
X-326768Y-124651D01*
X-327118Y-124385D01*
X-327418Y-123985D01*
X-327618Y-123518D01*
X-327718Y-122985D01*
Y-122451D01*
X-327618Y-121918D01*
X-327418Y-121451D01*
X-327118Y-121051D01*
X-326768Y-120785D01*
X-326368Y-120718D01*
X-325968Y-120785D01*
X-325618Y-121051D01*
X-325318Y-121451D01*
X-325118Y-121918D01*
X-325018Y-122451D01*
Y-122985D01*
X-325118Y-123518D01*
X-325318Y-123985D01*
X-325618Y-124385D01*
X-325968Y-124651D01*
X-326368Y-124718D01*
G01X-324068Y-123918D02*
X-323818Y-124318D01*
X-323518Y-124585D01*
X-323168Y-124718D01*
X-322768Y-124585D01*
X-322468Y-124318D01*
X-322168Y-123918D01*
X-322068Y-123385D01*
Y-120718D01*
G01X-318768Y-124718D02*
X-320768D01*
Y-120718D01*
X-318768D01*
G01X-319568Y-122651D02*
X-320768D01*
G01X-315368Y-121051D02*
X-315668Y-120851D01*
X-316018Y-120718D01*
X-316418D01*
X-316868Y-120918D01*
X-317218Y-121251D01*
X-317468Y-121651D01*
X-317668Y-122318D01*
X-317718Y-122918D01*
X-317618Y-123518D01*
X-317468Y-123918D01*
X-317168Y-124318D01*
X-316818Y-124585D01*
X-316468Y-124718D01*
X-316118D01*
X-315768Y-124585D01*
X-315468Y-124385D01*
X-315218Y-124118D01*
G01X-313168Y-120718D02*
Y-124718D01*
G01X-314318Y-120718D02*
X-312018D01*
G01X-309868Y-124851D02*
X-309968Y-124785D01*
Y-124651D01*
X-309868Y-124585D01*
X-309768Y-124651D01*
Y-124785D01*
X-309868Y-124851D01*
G01Y-123051D02*
X-309968Y-122985D01*
Y-122851D01*
X-309868Y-122785D01*
X-309768Y-122851D01*
Y-122985D01*
X-309868Y-123051D01*
G01X-333968Y-124718D02*
Y-120718D01*
X-332768D01*
X-332368Y-120918D01*
X-332068Y-121385D01*
X-331968Y-121918D01*
X-332068Y-122451D01*
X-332318Y-122851D01*
X-332768Y-123051D01*
X-333968D01*
G01X-330668Y-124718D02*
Y-120718D01*
X-329418D01*
X-329018Y-120918D01*
X-328768Y-121185D01*
X-328668Y-121718D01*
X-328768Y-122251D01*
X-329068Y-122585D01*
X-329418Y-122785D01*
X-330668D01*
G01X-329418D02*
X-328668Y-124718D01*
G01X-326368D02*
X-326768Y-124651D01*
X-327118Y-124385D01*
X-327418Y-123985D01*
X-327618Y-123518D01*
X-327718Y-122985D01*
Y-122451D01*
X-327618Y-121918D01*
X-327418Y-121451D01*
X-327118Y-121051D01*
X-326768Y-120785D01*
X-326368Y-120718D01*
X-325968Y-120785D01*
X-325618Y-121051D01*
X-325318Y-121451D01*
X-325118Y-121918D01*
X-325018Y-122451D01*
Y-122985D01*
X-325118Y-123518D01*
X-325318Y-123985D01*
X-325618Y-124385D01*
X-325968Y-124651D01*
X-326368Y-124718D01*
G01X-324068Y-123918D02*
X-323818Y-124318D01*
X-323518Y-124585D01*
X-323168Y-124718D01*
X-322768Y-124585D01*
X-322468Y-124318D01*
X-322168Y-123918D01*
X-322068Y-123385D01*
Y-120718D01*
G01X-318768Y-124718D02*
X-320768D01*
Y-120718D01*
X-318768D01*
G01X-319568Y-122651D02*
X-320768D01*
G01X-315368Y-121051D02*
X-315668Y-120851D01*
X-316018Y-120718D01*
X-316418D01*
X-316868Y-120918D01*
X-317218Y-121251D01*
X-317468Y-121651D01*
X-317668Y-122318D01*
X-317718Y-122918D01*
X-317618Y-123518D01*
X-317468Y-123918D01*
X-317168Y-124318D01*
X-316818Y-124585D01*
X-316468Y-124718D01*
X-316118D01*
X-315768Y-124585D01*
X-315468Y-124385D01*
X-315218Y-124118D01*
G01X-313168Y-120718D02*
Y-124718D01*
G01X-314318Y-120718D02*
X-312018D01*
G01X-309868Y-124851D02*
X-309968Y-124785D01*
Y-124651D01*
X-309868Y-124585D01*
X-309768Y-124651D01*
Y-124785D01*
X-309868Y-124851D01*
G01Y-123051D02*
X-309968Y-122985D01*
Y-122851D01*
X-309868Y-122785D01*
X-309768Y-122851D01*
Y-122985D01*
X-309868Y-123051D01*
G01X-323628Y-177218D02*
X-319708Y-169718D01*
G01X-323628D02*
X-319708Y-177218D01*
G01X-316128D02*
X-312208Y-169718D01*
G01X-316128D02*
X-312208Y-177218D01*
G01X-307881Y-174718D02*
X-305455D01*
G01X-301128Y-177218D02*
X-297208Y-169718D01*
G01X-301128D02*
X-297208Y-177218D01*
G01X-293628D02*
X-289708Y-169718D01*
G01X-293628D02*
X-289708Y-177218D01*
G01X-286128D02*
X-282208Y-169718D01*
G01X-286128D02*
X-282208Y-177218D01*
G01X-278628D02*
X-274708Y-169718D01*
G01X-278628D02*
X-274708Y-177218D01*
G01X-323628D02*
X-319708Y-169718D01*
G01X-323628D02*
X-319708Y-177218D01*
G01X-316128D02*
X-312208Y-169718D01*
G01X-316128D02*
X-312208Y-177218D01*
G01X-307881Y-174718D02*
X-305455D01*
G01X-301128Y-177218D02*
X-297208Y-169718D01*
G01X-301128D02*
X-297208Y-177218D01*
G01X-293628D02*
X-289708Y-169718D01*
G01X-293628D02*
X-289708Y-177218D01*
G01X-286128D02*
X-282208Y-169718D01*
G01X-286128D02*
X-282208Y-177218D01*
G01X-278628D02*
X-274708Y-169718D01*
G01X-278628D02*
X-274708Y-177218D01*
G01X-298421Y-156968D02*
X-298048Y-156593D01*
X-297768Y-155968D01*
X-297581Y-155093D01*
X-297768Y-154343D01*
X-298141Y-153843D01*
X-298795Y-153468D01*
X-301315D01*
Y-160968D01*
X-298235D01*
X-297581Y-160468D01*
X-297208Y-159718D01*
X-297021Y-158843D01*
X-297208Y-157968D01*
X-297768Y-157218D01*
X-298421Y-156968D01*
X-301315D01*
G01X-291668Y-160968D02*
X-292415Y-160843D01*
X-293068Y-160343D01*
X-293628Y-159593D01*
X-294001Y-158718D01*
X-294188Y-157718D01*
Y-156718D01*
X-294001Y-155718D01*
X-293628Y-154843D01*
X-293068Y-154093D01*
X-292415Y-153593D01*
X-291668Y-153468D01*
X-290921Y-153593D01*
X-290268Y-154093D01*
X-289708Y-154843D01*
X-289335Y-155718D01*
X-289148Y-156718D01*
Y-157718D01*
X-289335Y-158718D01*
X-289708Y-159593D01*
X-290268Y-160343D01*
X-290921Y-160843D01*
X-291668Y-160968D01*
G01X-284168Y-153468D02*
Y-160968D01*
G01X-286315Y-153468D02*
X-282021D01*
G01X-276668D02*
Y-160968D01*
G01X-278815Y-153468D02*
X-274521D01*
G01X-269168Y-160968D02*
X-269915Y-160843D01*
X-270568Y-160343D01*
X-271128Y-159593D01*
X-271501Y-158718D01*
X-271688Y-157718D01*
Y-156718D01*
X-271501Y-155718D01*
X-271128Y-154843D01*
X-270568Y-154093D01*
X-269915Y-153593D01*
X-269168Y-153468D01*
X-268421Y-153593D01*
X-267768Y-154093D01*
X-267208Y-154843D01*
X-266835Y-155718D01*
X-266648Y-156718D01*
Y-157718D01*
X-266835Y-158718D01*
X-267208Y-159593D01*
X-267768Y-160343D01*
X-268421Y-160843D01*
X-269168Y-160968D01*
G01X-264095D02*
Y-153468D01*
X-261668Y-159718D01*
X-259241Y-153468D01*
Y-160968D01*
G01X-248535D02*
Y-153468D01*
X-246295D01*
X-245548Y-153843D01*
X-244988Y-154718D01*
X-244801Y-155718D01*
X-244988Y-156718D01*
X-245455Y-157468D01*
X-246295Y-157843D01*
X-248535D01*
G01X-241501Y-160968D02*
X-239168Y-153468D01*
X-236835Y-160968D01*
G01X-237675Y-158343D02*
X-240661D01*
G01X-233628Y-159968D02*
X-232881Y-160593D01*
X-232041Y-160968D01*
X-231295D01*
X-230548Y-160593D01*
X-229988Y-159968D01*
X-229708Y-159093D01*
X-229895Y-158218D01*
X-230361Y-157468D01*
X-231201Y-156968D01*
X-232321Y-156718D01*
X-232975Y-156218D01*
X-233255Y-155343D01*
X-233068Y-154468D01*
X-232601Y-153843D01*
X-231948Y-153468D01*
X-231295D01*
X-230641Y-153718D01*
X-230081Y-154343D01*
G01X-224168Y-153468D02*
Y-160968D01*
G01X-226315Y-153468D02*
X-222021D01*
G01X-214801Y-160968D02*
X-218535D01*
Y-153468D01*
X-214801D01*
G01X-216295Y-157093D02*
X-218535D01*
G01X-211595Y-160968D02*
Y-153468D01*
X-209168Y-159718D01*
X-206741Y-153468D01*
Y-160968D01*
G01X-204001D02*
X-201668Y-153468D01*
X-199335Y-160968D01*
G01X-200175Y-158343D02*
X-203161D01*
G01X-196128Y-159968D02*
X-195381Y-160593D01*
X-194541Y-160968D01*
X-193795D01*
X-193048Y-160593D01*
X-192488Y-159968D01*
X-192208Y-159093D01*
X-192395Y-158218D01*
X-192861Y-157468D01*
X-193701Y-156968D01*
X-194821Y-156718D01*
X-195475Y-156218D01*
X-195755Y-155343D01*
X-195568Y-154468D01*
X-195101Y-153843D01*
X-194448Y-153468D01*
X-193795D01*
X-193141Y-153718D01*
X-192581Y-154343D01*
G01X-188721Y-160968D02*
Y-153468D01*
G01X-185175D02*
X-188721Y-158093D01*
G01X-184615Y-160968D02*
X-187135Y-155968D01*
G01X-180381Y-158468D02*
X-177955D01*
G01X-172881D02*
X-170455D01*
G01X-165381D02*
X-162955D01*
G01X-157881D02*
X-155455D01*
G01X-150381D02*
X-147955D01*
G01X-140921Y-156968D02*
X-140548Y-156593D01*
X-140268Y-155968D01*
X-140081Y-155093D01*
X-140268Y-154343D01*
X-140641Y-153843D01*
X-141295Y-153468D01*
X-143815D01*
Y-160968D01*
X-140735D01*
X-140081Y-160468D01*
X-139708Y-159718D01*
X-139521Y-158843D01*
X-139708Y-157968D01*
X-140268Y-157218D01*
X-140921Y-156968D01*
X-143815D01*
G01X-134168Y-160968D02*
X-134915Y-160843D01*
X-135568Y-160343D01*
X-136128Y-159593D01*
X-136501Y-158718D01*
X-136688Y-157718D01*
Y-156718D01*
X-136501Y-155718D01*
X-136128Y-154843D01*
X-135568Y-154093D01*
X-134915Y-153593D01*
X-134168Y-153468D01*
X-133421Y-153593D01*
X-132768Y-154093D01*
X-132208Y-154843D01*
X-131835Y-155718D01*
X-131648Y-156718D01*
Y-157718D01*
X-131835Y-158718D01*
X-132208Y-159593D01*
X-132768Y-160343D01*
X-133421Y-160843D01*
X-134168Y-160968D01*
G01X-126668Y-153468D02*
Y-160968D01*
G01X-128815Y-153468D02*
X-124521D01*
G01X-121035Y-160968D02*
Y-153468D01*
X-118795D01*
X-118048Y-153843D01*
X-117488Y-154718D01*
X-117301Y-155718D01*
X-117488Y-156718D01*
X-117955Y-157468D01*
X-118795Y-157843D01*
X-121035D01*
G01X-114001Y-160968D02*
X-111668Y-153468D01*
X-109335Y-160968D01*
G01X-110175Y-158343D02*
X-113161D01*
G01X-106128Y-159968D02*
X-105381Y-160593D01*
X-104541Y-160968D01*
X-103795D01*
X-103048Y-160593D01*
X-102488Y-159968D01*
X-102208Y-159093D01*
X-102395Y-158218D01*
X-102861Y-157468D01*
X-103701Y-156968D01*
X-104821Y-156718D01*
X-105475Y-156218D01*
X-105755Y-155343D01*
X-105568Y-154468D01*
X-105101Y-153843D01*
X-104448Y-153468D01*
X-103795D01*
X-103141Y-153718D01*
X-102581Y-154343D01*
G01X-96668Y-153468D02*
Y-160968D01*
G01X-98815Y-153468D02*
X-94521D01*
G01X-87301Y-160968D02*
X-91035D01*
Y-153468D01*
X-87301D01*
G01X-88795Y-157093D02*
X-91035D01*
G01X-81668Y-161218D02*
X-81855Y-161093D01*
Y-160843D01*
X-81668Y-160718D01*
X-81481Y-160843D01*
Y-161093D01*
X-81668Y-161218D01*
G01X-76501Y-160968D02*
X-74168Y-153468D01*
X-71835Y-160968D01*
G01X-72675Y-158343D02*
X-75661D01*
G01X-68535Y-160968D02*
Y-153468D01*
X-66201D01*
X-65455Y-153843D01*
X-64988Y-154343D01*
X-64801Y-155343D01*
X-64988Y-156343D01*
X-65548Y-156968D01*
X-66201Y-157343D01*
X-68535D01*
G01X-66201D02*
X-64801Y-160968D01*
G01X-59168Y-153468D02*
Y-160968D01*
G01X-61315Y-153468D02*
X-57021D01*
G01X-303535Y-145718D02*
X-303068Y-146468D01*
X-302508Y-146968D01*
X-301855Y-147218D01*
X-301108Y-146968D01*
X-300548Y-146468D01*
X-299988Y-145718D01*
X-299801Y-144718D01*
Y-139718D01*
G01X-295941D02*
X-292395D01*
X-295941Y-147218D01*
X-292395D01*
G01X-289095D02*
Y-139718D01*
X-286668Y-145968D01*
X-284241Y-139718D01*
Y-147218D01*
G01X-269615Y-140343D02*
X-270175Y-139968D01*
X-270828Y-139718D01*
X-271575D01*
X-272415Y-140093D01*
X-273068Y-140718D01*
X-273535Y-141468D01*
X-273908Y-142718D01*
X-274001Y-143843D01*
X-273815Y-144968D01*
X-273535Y-145718D01*
X-272975Y-146468D01*
X-272321Y-146968D01*
X-271668Y-147218D01*
X-271015D01*
X-270361Y-146968D01*
X-269801Y-146593D01*
X-269335Y-146093D01*
G01X-264168Y-147218D02*
X-264915Y-147093D01*
X-265568Y-146593D01*
X-266128Y-145843D01*
X-266501Y-144968D01*
X-266688Y-143968D01*
Y-142968D01*
X-266501Y-141968D01*
X-266128Y-141093D01*
X-265568Y-140343D01*
X-264915Y-139843D01*
X-264168Y-139718D01*
X-263421Y-139843D01*
X-262768Y-140343D01*
X-262208Y-141093D01*
X-261835Y-141968D01*
X-261648Y-142968D01*
Y-143968D01*
X-261835Y-144968D01*
X-262208Y-145843D01*
X-262768Y-146593D01*
X-263421Y-147093D01*
X-264168Y-147218D01*
G01X-258815D02*
Y-139718D01*
X-254521Y-147218D01*
Y-139718D01*
G01X-251128Y-146218D02*
X-250381Y-146843D01*
X-249541Y-147218D01*
X-248795D01*
X-248048Y-146843D01*
X-247488Y-146218D01*
X-247208Y-145343D01*
X-247395Y-144468D01*
X-247861Y-143718D01*
X-248701Y-143218D01*
X-249821Y-142968D01*
X-250475Y-142468D01*
X-250755Y-141593D01*
X-250568Y-140718D01*
X-250101Y-140093D01*
X-249448Y-139718D01*
X-248795D01*
X-248141Y-139968D01*
X-247581Y-140593D01*
G01X-243721Y-139718D02*
Y-145093D01*
X-243348Y-146218D01*
X-242601Y-146968D01*
X-241668Y-147218D01*
X-240735Y-146968D01*
X-239988Y-146218D01*
X-239615Y-145093D01*
Y-139718D01*
G01X-236035D02*
Y-147218D01*
X-232301D01*
G01X-226668Y-139718D02*
Y-147218D01*
G01X-228815Y-139718D02*
X-224521D01*
G01X-220288D02*
X-218048D01*
G01X-219168D02*
Y-147218D01*
G01X-220288D02*
X-218048D01*
G01X-213815D02*
Y-139718D01*
X-209521Y-147218D01*
Y-139718D01*
G01X-203608Y-143468D02*
X-201741D01*
Y-145718D01*
X-202301Y-146468D01*
X-202955Y-146968D01*
X-203888Y-147218D01*
X-204821Y-146968D01*
X-205475Y-146468D01*
X-206035Y-145718D01*
X-206408Y-144843D01*
X-206595Y-143843D01*
Y-142968D01*
X-206408Y-142218D01*
X-206035Y-141343D01*
X-205475Y-140593D01*
X-204915Y-140093D01*
X-204168Y-139718D01*
X-203515D01*
X-202768Y-139968D01*
X-202208Y-140468D01*
G01X-198348Y-147468D02*
X-194988Y-139718D01*
G01X-191501Y-147218D02*
X-189168Y-139718D01*
X-186835Y-147218D01*
G01X-187675Y-144593D02*
X-190661D01*
G01X-181668Y-147218D02*
Y-139718D01*
G01X-174168Y-147218D02*
Y-139718D01*
G01X-168068Y-143843D02*
X-165081D01*
X-165361Y-142968D01*
X-165828Y-142468D01*
X-166481Y-142218D01*
X-167135Y-142343D01*
X-167695Y-142718D01*
X-168068Y-143593D01*
X-168255Y-144343D01*
Y-145093D01*
X-168068Y-145843D01*
X-167601Y-146593D01*
X-167041Y-147093D01*
X-166388Y-147218D01*
X-165735Y-146968D01*
X-165081Y-146218D01*
G01X-160755Y-147218D02*
Y-142218D01*
G01Y-143468D02*
X-160381Y-142843D01*
X-159821Y-142343D01*
X-159075Y-142218D01*
X-158421Y-142343D01*
X-157861Y-142843D01*
X-157581Y-143718D01*
Y-147218D01*
G01X-146221D02*
Y-139718D01*
G01X-142675D02*
X-146221Y-144343D01*
G01X-142115Y-147218D02*
X-144635Y-142218D01*
G01X-138068Y-143843D02*
X-135081D01*
X-135361Y-142968D01*
X-135828Y-142468D01*
X-136481Y-142218D01*
X-137135Y-142343D01*
X-137695Y-142718D01*
X-138068Y-143593D01*
X-138255Y-144343D01*
Y-145093D01*
X-138068Y-145843D01*
X-137601Y-146593D01*
X-137041Y-147093D01*
X-136388Y-147218D01*
X-135735Y-146968D01*
X-135081Y-146218D01*
G01X-130475Y-147218D02*
Y-142218D01*
G01Y-143218D02*
X-130008Y-142718D01*
X-129541Y-142343D01*
X-128888Y-142218D01*
X-128421Y-142343D01*
X-127861Y-142718D01*
G01X-123068Y-146343D02*
X-122601Y-146843D01*
X-121948Y-147218D01*
X-121388D01*
X-120828Y-146968D01*
X-120455Y-146593D01*
X-120268Y-146093D01*
X-120361Y-145343D01*
X-120735Y-144968D01*
X-122415Y-144218D01*
X-122788Y-143343D01*
X-122601Y-142718D01*
X-122228Y-142343D01*
X-121668Y-142218D01*
X-121108Y-142343D01*
X-120548Y-142718D01*
G01X-115568Y-143843D02*
X-112581D01*
X-112861Y-142968D01*
X-113328Y-142468D01*
X-113981Y-142218D01*
X-114635Y-142343D01*
X-115195Y-142718D01*
X-115568Y-143593D01*
X-115755Y-144343D01*
Y-145093D01*
X-115568Y-145843D01*
X-115101Y-146593D01*
X-114541Y-147093D01*
X-113888Y-147218D01*
X-113235Y-146968D01*
X-112581Y-146218D01*
G01X-108628Y-149468D02*
X-108068Y-149718D01*
X-107321Y-149468D01*
X-106855Y-148968D01*
X-106481Y-148343D01*
X-105921Y-146343D01*
X-104708Y-142218D01*
G01X-107695D02*
X-105921Y-146343D01*
G01X-303535Y-145718D02*
X-303068Y-146468D01*
X-302508Y-146968D01*
X-301855Y-147218D01*
X-301108Y-146968D01*
X-300548Y-146468D01*
X-299988Y-145718D01*
X-299801Y-144718D01*
Y-139718D01*
G01X-295941D02*
X-292395D01*
X-295941Y-147218D01*
X-292395D01*
G01X-289095D02*
Y-139718D01*
X-286668Y-145968D01*
X-284241Y-139718D01*
Y-147218D01*
G01X-269615Y-140343D02*
X-270175Y-139968D01*
X-270828Y-139718D01*
X-271575D01*
X-272415Y-140093D01*
X-273068Y-140718D01*
X-273535Y-141468D01*
X-273908Y-142718D01*
X-274001Y-143843D01*
X-273815Y-144968D01*
X-273535Y-145718D01*
X-272975Y-146468D01*
X-272321Y-146968D01*
X-271668Y-147218D01*
X-271015D01*
X-270361Y-146968D01*
X-269801Y-146593D01*
X-269335Y-146093D01*
G01X-264168Y-147218D02*
X-264915Y-147093D01*
X-265568Y-146593D01*
X-266128Y-145843D01*
X-266501Y-144968D01*
X-266688Y-143968D01*
Y-142968D01*
X-266501Y-141968D01*
X-266128Y-141093D01*
X-265568Y-140343D01*
X-264915Y-139843D01*
X-264168Y-139718D01*
X-263421Y-139843D01*
X-262768Y-140343D01*
X-262208Y-141093D01*
X-261835Y-141968D01*
X-261648Y-142968D01*
Y-143968D01*
X-261835Y-144968D01*
X-262208Y-145843D01*
X-262768Y-146593D01*
X-263421Y-147093D01*
X-264168Y-147218D01*
G01X-258815D02*
Y-139718D01*
X-254521Y-147218D01*
Y-139718D01*
G01X-251128Y-146218D02*
X-250381Y-146843D01*
X-249541Y-147218D01*
X-248795D01*
X-248048Y-146843D01*
X-247488Y-146218D01*
X-247208Y-145343D01*
X-247395Y-144468D01*
X-247861Y-143718D01*
X-248701Y-143218D01*
X-249821Y-142968D01*
X-250475Y-142468D01*
X-250755Y-141593D01*
X-250568Y-140718D01*
X-250101Y-140093D01*
X-249448Y-139718D01*
X-248795D01*
X-248141Y-139968D01*
X-247581Y-140593D01*
G01X-243721Y-139718D02*
Y-145093D01*
X-243348Y-146218D01*
X-242601Y-146968D01*
X-241668Y-147218D01*
X-240735Y-146968D01*
X-239988Y-146218D01*
X-239615Y-145093D01*
Y-139718D01*
G01X-236035D02*
Y-147218D01*
X-232301D01*
G01X-226668Y-139718D02*
Y-147218D01*
G01X-228815Y-139718D02*
X-224521D01*
G01X-220288D02*
X-218048D01*
G01X-219168D02*
Y-147218D01*
G01X-220288D02*
X-218048D01*
G01X-213815D02*
Y-139718D01*
X-209521Y-147218D01*
Y-139718D01*
G01X-203608Y-143468D02*
X-201741D01*
Y-145718D01*
X-202301Y-146468D01*
X-202955Y-146968D01*
X-203888Y-147218D01*
X-204821Y-146968D01*
X-205475Y-146468D01*
X-206035Y-145718D01*
X-206408Y-144843D01*
X-206595Y-143843D01*
Y-142968D01*
X-206408Y-142218D01*
X-206035Y-141343D01*
X-205475Y-140593D01*
X-204915Y-140093D01*
X-204168Y-139718D01*
X-203515D01*
X-202768Y-139968D01*
X-202208Y-140468D01*
G01X-198348Y-147468D02*
X-194988Y-139718D01*
G01X-191501Y-147218D02*
X-189168Y-139718D01*
X-186835Y-147218D01*
G01X-187675Y-144593D02*
X-190661D01*
G01X-181668Y-147218D02*
Y-139718D01*
G01X-174168Y-147218D02*
Y-139718D01*
G01X-168068Y-143843D02*
X-165081D01*
X-165361Y-142968D01*
X-165828Y-142468D01*
X-166481Y-142218D01*
X-167135Y-142343D01*
X-167695Y-142718D01*
X-168068Y-143593D01*
X-168255Y-144343D01*
Y-145093D01*
X-168068Y-145843D01*
X-167601Y-146593D01*
X-167041Y-147093D01*
X-166388Y-147218D01*
X-165735Y-146968D01*
X-165081Y-146218D01*
G01X-160755Y-147218D02*
Y-142218D01*
G01Y-143468D02*
X-160381Y-142843D01*
X-159821Y-142343D01*
X-159075Y-142218D01*
X-158421Y-142343D01*
X-157861Y-142843D01*
X-157581Y-143718D01*
Y-147218D01*
G01X-146221D02*
Y-139718D01*
G01X-142675D02*
X-146221Y-144343D01*
G01X-142115Y-147218D02*
X-144635Y-142218D01*
G01X-138068Y-143843D02*
X-135081D01*
X-135361Y-142968D01*
X-135828Y-142468D01*
X-136481Y-142218D01*
X-137135Y-142343D01*
X-137695Y-142718D01*
X-138068Y-143593D01*
X-138255Y-144343D01*
Y-145093D01*
X-138068Y-145843D01*
X-137601Y-146593D01*
X-137041Y-147093D01*
X-136388Y-147218D01*
X-135735Y-146968D01*
X-135081Y-146218D01*
G01X-130475Y-147218D02*
Y-142218D01*
G01Y-143218D02*
X-130008Y-142718D01*
X-129541Y-142343D01*
X-128888Y-142218D01*
X-128421Y-142343D01*
X-127861Y-142718D01*
G01X-123068Y-146343D02*
X-122601Y-146843D01*
X-121948Y-147218D01*
X-121388D01*
X-120828Y-146968D01*
X-120455Y-146593D01*
X-120268Y-146093D01*
X-120361Y-145343D01*
X-120735Y-144968D01*
X-122415Y-144218D01*
X-122788Y-143343D01*
X-122601Y-142718D01*
X-122228Y-142343D01*
X-121668Y-142218D01*
X-121108Y-142343D01*
X-120548Y-142718D01*
G01X-115568Y-143843D02*
X-112581D01*
X-112861Y-142968D01*
X-113328Y-142468D01*
X-113981Y-142218D01*
X-114635Y-142343D01*
X-115195Y-142718D01*
X-115568Y-143593D01*
X-115755Y-144343D01*
Y-145093D01*
X-115568Y-145843D01*
X-115101Y-146593D01*
X-114541Y-147093D01*
X-113888Y-147218D01*
X-113235Y-146968D01*
X-112581Y-146218D01*
G01X-108628Y-149468D02*
X-108068Y-149718D01*
X-107321Y-149468D01*
X-106855Y-148968D01*
X-106481Y-148343D01*
X-105921Y-146343D01*
X-104708Y-142218D01*
G01X-107695D02*
X-105921Y-146343D01*
G01X-301668Y-124718D02*
Y-132218D01*
G01X-303815Y-124718D02*
X-299521D01*
G01X-296035Y-132218D02*
Y-124718D01*
X-293701D01*
X-292955Y-125093D01*
X-292488Y-125593D01*
X-292301Y-126593D01*
X-292488Y-127593D01*
X-293048Y-128218D01*
X-293701Y-128593D01*
X-296035D01*
G01X-293701D02*
X-292301Y-132218D01*
G01X-289001D02*
X-286668Y-124718D01*
X-284335Y-132218D01*
G01X-285175Y-129593D02*
X-288161D01*
G01X-277115Y-125343D02*
X-277675Y-124968D01*
X-278328Y-124718D01*
X-279075D01*
X-279915Y-125093D01*
X-280568Y-125718D01*
X-281035Y-126468D01*
X-281408Y-127718D01*
X-281501Y-128843D01*
X-281315Y-129968D01*
X-281035Y-130718D01*
X-280475Y-131468D01*
X-279821Y-131968D01*
X-279168Y-132218D01*
X-278515D01*
X-277861Y-131968D01*
X-277301Y-131593D01*
X-276835Y-131093D01*
G01X-273721Y-132218D02*
Y-124718D01*
G01X-270175D02*
X-273721Y-129343D01*
G01X-269615Y-132218D02*
X-272135Y-127218D01*
G01X-258628Y-131218D02*
X-257881Y-131843D01*
X-257041Y-132218D01*
X-256295D01*
X-255548Y-131843D01*
X-254988Y-131218D01*
X-254708Y-130343D01*
X-254895Y-129468D01*
X-255361Y-128718D01*
X-256201Y-128218D01*
X-257321Y-127968D01*
X-257975Y-127468D01*
X-258255Y-126593D01*
X-258068Y-125718D01*
X-257601Y-125093D01*
X-256948Y-124718D01*
X-256295D01*
X-255641Y-124968D01*
X-255081Y-125593D01*
G01X-249168Y-132218D02*
Y-128843D01*
X-251035Y-124718D01*
G01X-247301D02*
X-249168Y-128843D01*
G01X-243628Y-131218D02*
X-242881Y-131843D01*
X-242041Y-132218D01*
X-241295D01*
X-240548Y-131843D01*
X-239988Y-131218D01*
X-239708Y-130343D01*
X-239895Y-129468D01*
X-240361Y-128718D01*
X-241201Y-128218D01*
X-242321Y-127968D01*
X-242975Y-127468D01*
X-243255Y-126593D01*
X-243068Y-125718D01*
X-242601Y-125093D01*
X-241948Y-124718D01*
X-241295D01*
X-240641Y-124968D01*
X-240081Y-125593D01*
G01X-234168Y-124718D02*
Y-132218D01*
G01X-236315Y-124718D02*
X-232021D01*
G01X-224801Y-132218D02*
X-228535D01*
Y-124718D01*
X-224801D01*
G01X-226295Y-128343D02*
X-228535D01*
G01X-221595Y-132218D02*
Y-124718D01*
X-219168Y-130968D01*
X-216741Y-124718D01*
Y-132218D01*
G01X-213628Y-131218D02*
X-212881Y-131843D01*
X-212041Y-132218D01*
X-211295D01*
X-210548Y-131843D01*
X-209988Y-131218D01*
X-209708Y-130343D01*
X-209895Y-129468D01*
X-210361Y-128718D01*
X-211201Y-128218D01*
X-212321Y-127968D01*
X-212975Y-127468D01*
X-213255Y-126593D01*
X-213068Y-125718D01*
X-212601Y-125093D01*
X-211948Y-124718D01*
X-211295D01*
X-210641Y-124968D01*
X-210081Y-125593D01*
G01X-198721Y-132218D02*
Y-124718D01*
X-196855D01*
X-196108Y-125093D01*
X-195548Y-125593D01*
X-195081Y-126343D01*
X-194708Y-127218D01*
X-194615Y-128468D01*
X-194708Y-129718D01*
X-195081Y-130593D01*
X-195548Y-131343D01*
X-196108Y-131843D01*
X-196855Y-132218D01*
X-198721D01*
G01X-191221Y-124718D02*
Y-130093D01*
X-190848Y-131218D01*
X-190101Y-131968D01*
X-189168Y-132218D01*
X-188235Y-131968D01*
X-187488Y-131218D01*
X-187115Y-130093D01*
Y-124718D01*
G01X-182788D02*
X-180548D01*
G01X-181668D02*
Y-132218D01*
G01X-182788D02*
X-180548D01*
G01X-175288Y-124718D02*
X-173048D01*
G01X-174168D02*
Y-132218D01*
G01X-175288D02*
X-173048D01*
G01X-158421Y-128218D02*
X-158048Y-127843D01*
X-157768Y-127218D01*
X-157581Y-126343D01*
X-157768Y-125593D01*
X-158141Y-125093D01*
X-158795Y-124718D01*
X-161315D01*
Y-132218D01*
X-158235D01*
X-157581Y-131718D01*
X-157208Y-130968D01*
X-157021Y-130093D01*
X-157208Y-129218D01*
X-157768Y-128468D01*
X-158421Y-128218D01*
X-161315D01*
G01X-151668Y-132218D02*
X-152415Y-132093D01*
X-153068Y-131593D01*
X-153628Y-130843D01*
X-154001Y-129968D01*
X-154188Y-128968D01*
Y-127968D01*
X-154001Y-126968D01*
X-153628Y-126093D01*
X-153068Y-125343D01*
X-152415Y-124843D01*
X-151668Y-124718D01*
X-150921Y-124843D01*
X-150268Y-125343D01*
X-149708Y-126093D01*
X-149335Y-126968D01*
X-149148Y-127968D01*
Y-128968D01*
X-149335Y-129968D01*
X-149708Y-130843D01*
X-150268Y-131593D01*
X-150921Y-132093D01*
X-151668Y-132218D01*
G01X-146501D02*
X-144168Y-124718D01*
X-141835Y-132218D01*
G01X-142675Y-129593D02*
X-145661D01*
G01X-138535Y-132218D02*
Y-124718D01*
X-136201D01*
X-135455Y-125093D01*
X-134988Y-125593D01*
X-134801Y-126593D01*
X-134988Y-127593D01*
X-135548Y-128218D01*
X-136201Y-128593D01*
X-138535D01*
G01X-136201D02*
X-134801Y-132218D01*
G01X-131221D02*
Y-124718D01*
X-129355D01*
X-128608Y-125093D01*
X-128048Y-125593D01*
X-127581Y-126343D01*
X-127208Y-127218D01*
X-127115Y-128468D01*
X-127208Y-129718D01*
X-127581Y-130593D01*
X-128048Y-131343D01*
X-128608Y-131843D01*
X-129355Y-132218D01*
X-131221D01*
G01X-301668Y-124718D02*
Y-132218D01*
G01X-303815Y-124718D02*
X-299521D01*
G01X-296035Y-132218D02*
Y-124718D01*
X-293701D01*
X-292955Y-125093D01*
X-292488Y-125593D01*
X-292301Y-126593D01*
X-292488Y-127593D01*
X-293048Y-128218D01*
X-293701Y-128593D01*
X-296035D01*
G01X-293701D02*
X-292301Y-132218D01*
G01X-289001D02*
X-286668Y-124718D01*
X-284335Y-132218D01*
G01X-285175Y-129593D02*
X-288161D01*
G01X-277115Y-125343D02*
X-277675Y-124968D01*
X-278328Y-124718D01*
X-279075D01*
X-279915Y-125093D01*
X-280568Y-125718D01*
X-281035Y-126468D01*
X-281408Y-127718D01*
X-281501Y-128843D01*
X-281315Y-129968D01*
X-281035Y-130718D01*
X-280475Y-131468D01*
X-279821Y-131968D01*
X-279168Y-132218D01*
X-278515D01*
X-277861Y-131968D01*
X-277301Y-131593D01*
X-276835Y-131093D01*
G01X-273721Y-132218D02*
Y-124718D01*
G01X-270175D02*
X-273721Y-129343D01*
G01X-269615Y-132218D02*
X-272135Y-127218D01*
G01X-258628Y-131218D02*
X-257881Y-131843D01*
X-257041Y-132218D01*
X-256295D01*
X-255548Y-131843D01*
X-254988Y-131218D01*
X-254708Y-130343D01*
X-254895Y-129468D01*
X-255361Y-128718D01*
X-256201Y-128218D01*
X-257321Y-127968D01*
X-257975Y-127468D01*
X-258255Y-126593D01*
X-258068Y-125718D01*
X-257601Y-125093D01*
X-256948Y-124718D01*
X-256295D01*
X-255641Y-124968D01*
X-255081Y-125593D01*
G01X-249168Y-132218D02*
Y-128843D01*
X-251035Y-124718D01*
G01X-247301D02*
X-249168Y-128843D01*
G01X-243628Y-131218D02*
X-242881Y-131843D01*
X-242041Y-132218D01*
X-241295D01*
X-240548Y-131843D01*
X-239988Y-131218D01*
X-239708Y-130343D01*
X-239895Y-129468D01*
X-240361Y-128718D01*
X-241201Y-128218D01*
X-242321Y-127968D01*
X-242975Y-127468D01*
X-243255Y-126593D01*
X-243068Y-125718D01*
X-242601Y-125093D01*
X-241948Y-124718D01*
X-241295D01*
X-240641Y-124968D01*
X-240081Y-125593D01*
G01X-234168Y-124718D02*
Y-132218D01*
G01X-236315Y-124718D02*
X-232021D01*
G01X-224801Y-132218D02*
X-228535D01*
Y-124718D01*
X-224801D01*
G01X-226295Y-128343D02*
X-228535D01*
G01X-221595Y-132218D02*
Y-124718D01*
X-219168Y-130968D01*
X-216741Y-124718D01*
Y-132218D01*
G01X-213628Y-131218D02*
X-212881Y-131843D01*
X-212041Y-132218D01*
X-211295D01*
X-210548Y-131843D01*
X-209988Y-131218D01*
X-209708Y-130343D01*
X-209895Y-129468D01*
X-210361Y-128718D01*
X-211201Y-128218D01*
X-212321Y-127968D01*
X-212975Y-127468D01*
X-213255Y-126593D01*
X-213068Y-125718D01*
X-212601Y-125093D01*
X-211948Y-124718D01*
X-211295D01*
X-210641Y-124968D01*
X-210081Y-125593D01*
G01X-198721Y-132218D02*
Y-124718D01*
X-196855D01*
X-196108Y-125093D01*
X-195548Y-125593D01*
X-195081Y-126343D01*
X-194708Y-127218D01*
X-194615Y-128468D01*
X-194708Y-129718D01*
X-195081Y-130593D01*
X-195548Y-131343D01*
X-196108Y-131843D01*
X-196855Y-132218D01*
X-198721D01*
G01X-191221Y-124718D02*
Y-130093D01*
X-190848Y-131218D01*
X-190101Y-131968D01*
X-189168Y-132218D01*
X-188235Y-131968D01*
X-187488Y-131218D01*
X-187115Y-130093D01*
Y-124718D01*
G01X-182788D02*
X-180548D01*
G01X-181668D02*
Y-132218D01*
G01X-182788D02*
X-180548D01*
G01X-175288Y-124718D02*
X-173048D01*
G01X-174168D02*
Y-132218D01*
G01X-175288D02*
X-173048D01*
G01X-158421Y-128218D02*
X-158048Y-127843D01*
X-157768Y-127218D01*
X-157581Y-126343D01*
X-157768Y-125593D01*
X-158141Y-125093D01*
X-158795Y-124718D01*
X-161315D01*
Y-132218D01*
X-158235D01*
X-157581Y-131718D01*
X-157208Y-130968D01*
X-157021Y-130093D01*
X-157208Y-129218D01*
X-157768Y-128468D01*
X-158421Y-128218D01*
X-161315D01*
G01X-151668Y-132218D02*
X-152415Y-132093D01*
X-153068Y-131593D01*
X-153628Y-130843D01*
X-154001Y-129968D01*
X-154188Y-128968D01*
Y-127968D01*
X-154001Y-126968D01*
X-153628Y-126093D01*
X-153068Y-125343D01*
X-152415Y-124843D01*
X-151668Y-124718D01*
X-150921Y-124843D01*
X-150268Y-125343D01*
X-149708Y-126093D01*
X-149335Y-126968D01*
X-149148Y-127968D01*
Y-128968D01*
X-149335Y-129968D01*
X-149708Y-130843D01*
X-150268Y-131593D01*
X-150921Y-132093D01*
X-151668Y-132218D01*
G01X-146501D02*
X-144168Y-124718D01*
X-141835Y-132218D01*
G01X-142675Y-129593D02*
X-145661D01*
G01X-138535Y-132218D02*
Y-124718D01*
X-136201D01*
X-135455Y-125093D01*
X-134988Y-125593D01*
X-134801Y-126593D01*
X-134988Y-127593D01*
X-135548Y-128218D01*
X-136201Y-128593D01*
X-138535D01*
G01X-136201D02*
X-134801Y-132218D01*
G01X-131221D02*
Y-124718D01*
X-129355D01*
X-128608Y-125093D01*
X-128048Y-125593D01*
X-127581Y-126343D01*
X-127208Y-127218D01*
X-127115Y-128468D01*
X-127208Y-129718D01*
X-127581Y-130593D01*
X-128048Y-131343D01*
X-128608Y-131843D01*
X-129355Y-132218D01*
X-131221D01*
G01X-161468Y-169718D02*
Y-165718D01*
X-160218D01*
X-159818Y-165918D01*
X-159568Y-166185D01*
X-159468Y-166718D01*
X-159568Y-167251D01*
X-159868Y-167585D01*
X-160218Y-167785D01*
X-161468D01*
G01X-160218D02*
X-159468Y-169718D01*
G01X-156168D02*
X-158168D01*
Y-165718D01*
X-156168D01*
G01X-156968Y-167651D02*
X-158168D01*
G01X-155118Y-165718D02*
X-153868Y-169718D01*
X-152618Y-165718D01*
G01X-150568Y-169851D02*
X-150668Y-169785D01*
Y-169651D01*
X-150568Y-169585D01*
X-150468Y-169651D01*
Y-169785D01*
X-150568Y-169851D01*
G01Y-168051D02*
X-150668Y-167985D01*
Y-167851D01*
X-150568Y-167785D01*
X-150468Y-167851D01*
Y-167985D01*
X-150568Y-168051D01*
G01X-161468Y-169718D02*
Y-165718D01*
X-160218D01*
X-159818Y-165918D01*
X-159568Y-166185D01*
X-159468Y-166718D01*
X-159568Y-167251D01*
X-159868Y-167585D01*
X-160218Y-167785D01*
X-161468D01*
G01X-160218D02*
X-159468Y-169718D01*
G01X-156168D02*
X-158168D01*
Y-165718D01*
X-156168D01*
G01X-156968Y-167651D02*
X-158168D01*
G01X-155118Y-165718D02*
X-153868Y-169718D01*
X-152618Y-165718D01*
G01X-150568Y-169851D02*
X-150668Y-169785D01*
Y-169651D01*
X-150568Y-169585D01*
X-150468Y-169651D01*
Y-169785D01*
X-150568Y-169851D01*
G01Y-168051D02*
X-150668Y-167985D01*
Y-167851D01*
X-150568Y-167785D01*
X-150468Y-167851D01*
Y-167985D01*
X-150568Y-168051D01*
G01X-149668Y-177968D02*
Y-170468D01*
X-150788Y-171968D01*
G01Y-177968D02*
X-148548D01*
G01X-144035D02*
Y-170468D01*
X-141701D01*
X-140955Y-170843D01*
X-140488Y-171343D01*
X-140301Y-172343D01*
X-140488Y-173343D01*
X-141048Y-173968D01*
X-141701Y-174343D01*
X-144035D01*
G01X-141701D02*
X-140301Y-177968D01*
G01X-134668Y-170468D02*
X-135415Y-170718D01*
X-135975Y-171343D01*
X-136348Y-172093D01*
X-136628Y-173093D01*
X-136721Y-174218D01*
X-136628Y-175343D01*
X-136348Y-176343D01*
X-135975Y-177093D01*
X-135415Y-177718D01*
X-134668Y-177968D01*
X-133921Y-177718D01*
X-133361Y-177093D01*
X-132988Y-176343D01*
X-132708Y-175343D01*
X-132615Y-174218D01*
X-132708Y-173093D01*
X-132988Y-172093D01*
X-133361Y-171343D01*
X-133921Y-170718D01*
X-134668Y-170468D01*
G01X-149668Y-177968D02*
Y-170468D01*
X-150788Y-171968D01*
G01Y-177968D02*
X-148548D01*
G01X-144035D02*
Y-170468D01*
X-141701D01*
X-140955Y-170843D01*
X-140488Y-171343D01*
X-140301Y-172343D01*
X-140488Y-173343D01*
X-141048Y-173968D01*
X-141701Y-174343D01*
X-144035D01*
G01X-141701D02*
X-140301Y-177968D01*
G01X-134668Y-170468D02*
X-135415Y-170718D01*
X-135975Y-171343D01*
X-136348Y-172093D01*
X-136628Y-173093D01*
X-136721Y-174218D01*
X-136628Y-175343D01*
X-136348Y-176343D01*
X-135975Y-177093D01*
X-135415Y-177718D01*
X-134668Y-177968D01*
X-133921Y-177718D01*
X-133361Y-177093D01*
X-132988Y-176343D01*
X-132708Y-175343D01*
X-132615Y-174218D01*
X-132708Y-173093D01*
X-132988Y-172093D01*
X-133361Y-171343D01*
X-133921Y-170718D01*
X-134668Y-170468D01*
G01X-121568Y-169718D02*
Y-165718D01*
X-120568D01*
X-120168Y-165918D01*
X-119868Y-166185D01*
X-119618Y-166585D01*
X-119418Y-167051D01*
X-119368Y-167718D01*
X-119418Y-168385D01*
X-119618Y-168851D01*
X-119868Y-169251D01*
X-120168Y-169518D01*
X-120568Y-169718D01*
X-121568D01*
G01X-118418D02*
X-117168Y-165718D01*
X-115918Y-169718D01*
G01X-116368Y-168318D02*
X-117968D01*
G01X-113868Y-165718D02*
Y-169718D01*
G01X-115018Y-165718D02*
X-112718D01*
G01X-109568Y-169718D02*
X-111568D01*
Y-165718D01*
X-109568D01*
G01X-110368Y-167651D02*
X-111568D01*
G01X-107268Y-169851D02*
X-107368Y-169785D01*
Y-169651D01*
X-107268Y-169585D01*
X-107168Y-169651D01*
Y-169785D01*
X-107268Y-169851D01*
G01Y-168051D02*
X-107368Y-167985D01*
Y-167851D01*
X-107268Y-167785D01*
X-107168Y-167851D01*
Y-167985D01*
X-107268Y-168051D01*
G01X-121568Y-169718D02*
Y-165718D01*
X-120568D01*
X-120168Y-165918D01*
X-119868Y-166185D01*
X-119618Y-166585D01*
X-119418Y-167051D01*
X-119368Y-167718D01*
X-119418Y-168385D01*
X-119618Y-168851D01*
X-119868Y-169251D01*
X-120168Y-169518D01*
X-120568Y-169718D01*
X-121568D01*
G01X-118418D02*
X-117168Y-165718D01*
X-115918Y-169718D01*
G01X-116368Y-168318D02*
X-117968D01*
G01X-113868Y-165718D02*
Y-169718D01*
G01X-115018Y-165718D02*
X-112718D01*
G01X-109568Y-169718D02*
X-111568D01*
Y-165718D01*
X-109568D01*
G01X-110368Y-167651D02*
X-111568D01*
G01X-107268Y-169851D02*
X-107368Y-169785D01*
Y-169651D01*
X-107268Y-169585D01*
X-107168Y-169651D01*
Y-169785D01*
X-107268Y-169851D01*
G01Y-168051D02*
X-107368Y-167985D01*
Y-167851D01*
X-107268Y-167785D01*
X-107168Y-167851D01*
Y-167985D01*
X-107268Y-168051D01*
G01X-85718Y-177218D02*
Y-169718D01*
X-86838Y-171218D01*
G01Y-177218D02*
X-84598D01*
G01X-78218D02*
Y-169718D01*
X-79338Y-171218D01*
G01Y-177218D02*
X-77098D01*
G01X-72398Y-177468D02*
X-69038Y-169718D01*
G01X-63218Y-177218D02*
Y-169718D01*
X-64338Y-171218D01*
G01Y-177218D02*
X-62098D01*
G01X-55718Y-169718D02*
X-56465Y-169968D01*
X-57025Y-170593D01*
X-57398Y-171343D01*
X-57678Y-172343D01*
X-57771Y-173468D01*
X-57678Y-174593D01*
X-57398Y-175593D01*
X-57025Y-176343D01*
X-56465Y-176968D01*
X-55718Y-177218D01*
X-54971Y-176968D01*
X-54411Y-176343D01*
X-54038Y-175593D01*
X-53758Y-174593D01*
X-53665Y-173468D01*
X-53758Y-172343D01*
X-54038Y-171343D01*
X-54411Y-170593D01*
X-54971Y-169968D01*
X-55718Y-169718D01*
G01X-49898Y-177468D02*
X-46538Y-169718D01*
G01X-40718Y-177218D02*
Y-169718D01*
X-41838Y-171218D01*
G01Y-177218D02*
X-39598D01*
G01X-33218Y-169718D02*
X-33965Y-169968D01*
X-34525Y-170593D01*
X-34898Y-171343D01*
X-35178Y-172343D01*
X-35271Y-173468D01*
X-35178Y-174593D01*
X-34898Y-175593D01*
X-34525Y-176343D01*
X-33965Y-176968D01*
X-33218Y-177218D01*
X-32471Y-176968D01*
X-31911Y-176343D01*
X-31538Y-175593D01*
X-31258Y-174593D01*
X-31165Y-173468D01*
X-31258Y-172343D01*
X-31538Y-171343D01*
X-31911Y-170593D01*
X-32471Y-169968D01*
X-33218Y-169718D01*
G01X-85718Y-177218D02*
Y-169718D01*
X-86838Y-171218D01*
G01Y-177218D02*
X-84598D01*
G01X-78218D02*
Y-169718D01*
X-79338Y-171218D01*
G01Y-177218D02*
X-77098D01*
G01X-72398Y-177468D02*
X-69038Y-169718D01*
G01X-63218Y-177218D02*
Y-169718D01*
X-64338Y-171218D01*
G01Y-177218D02*
X-62098D01*
G01X-55718Y-169718D02*
X-56465Y-169968D01*
X-57025Y-170593D01*
X-57398Y-171343D01*
X-57678Y-172343D01*
X-57771Y-173468D01*
X-57678Y-174593D01*
X-57398Y-175593D01*
X-57025Y-176343D01*
X-56465Y-176968D01*
X-55718Y-177218D01*
X-54971Y-176968D01*
X-54411Y-176343D01*
X-54038Y-175593D01*
X-53758Y-174593D01*
X-53665Y-173468D01*
X-53758Y-172343D01*
X-54038Y-171343D01*
X-54411Y-170593D01*
X-54971Y-169968D01*
X-55718Y-169718D01*
G01X-49898Y-177468D02*
X-46538Y-169718D01*
G01X-40718Y-177218D02*
Y-169718D01*
X-41838Y-171218D01*
G01Y-177218D02*
X-39598D01*
G01X-33218Y-169718D02*
X-33965Y-169968D01*
X-34525Y-170593D01*
X-34898Y-171343D01*
X-35178Y-172343D01*
X-35271Y-173468D01*
X-35178Y-174593D01*
X-34898Y-175593D01*
X-34525Y-176343D01*
X-33965Y-176968D01*
X-33218Y-177218D01*
X-32471Y-176968D01*
X-31911Y-176343D01*
X-31538Y-175593D01*
X-31258Y-174593D01*
X-31165Y-173468D01*
X-31258Y-172343D01*
X-31538Y-171343D01*
X-31911Y-170593D01*
X-32471Y-169968D01*
X-33218Y-169718D01*
G54D35*
X-167312Y13158D03*
Y33658D03*
X-157312Y13158D03*
X-162312D03*
Y33658D03*
X-157312D03*
X-147312Y13158D03*
X-152312D03*
Y33658D03*
X-147312D03*
X-137312Y13158D03*
X-142312D03*
Y33658D03*
X-137312D03*
X-132312Y13158D03*
Y33658D03*
G54D17*
X-371000Y-77300D03*
Y-61700D03*
X-280300Y-47500D03*
X-264700D03*
X-232800Y-32000D03*
X-217200D03*
G54D26*
X-268689Y122942D03*
Y116643D03*
Y119793D03*
X-265539Y122942D03*
Y116643D03*
Y119793D03*
X-268689Y129242D03*
Y132391D03*
Y126092D03*
X-265539D03*
Y129242D03*
Y132391D03*
X-268689Y135541D03*
Y138690D03*
X-265539Y135541D03*
Y138690D03*
X-268689Y148139D03*
Y141840D03*
Y144990D03*
X-265539Y141840D03*
Y144990D03*
Y148139D03*
X-268689Y151289D03*
Y154438D03*
Y157588D03*
X-265539Y151289D03*
Y154438D03*
Y157588D03*
X-268689Y160738D03*
Y163887D03*
X-265539Y160738D03*
Y163887D03*
Y167037D03*
X-268689D03*
X-256090Y122942D03*
X-259240D03*
X-262390D03*
X-256090Y116643D03*
Y119793D03*
X-259240Y116643D03*
Y119793D03*
X-262390Y116643D03*
Y119793D03*
X-256090Y126092D03*
X-259240D03*
Y129242D03*
Y132391D03*
X-262390Y126092D03*
Y129242D03*
Y132391D03*
X-259240Y135541D03*
Y138690D03*
X-262390Y135541D03*
Y138690D03*
X-259240Y141840D03*
Y144990D03*
Y148139D03*
X-262390Y141840D03*
Y144990D03*
Y148139D03*
X-256090Y157588D03*
X-259240Y151289D03*
Y154438D03*
Y157588D03*
X-262390Y151289D03*
Y154438D03*
Y157588D03*
X-256090Y160738D03*
Y163887D03*
X-259240Y160738D03*
Y163887D03*
X-262390Y160738D03*
Y163887D03*
Y167037D03*
X-259240D03*
X-256090D03*
X-249791Y122942D03*
X-252941D03*
X-249791Y116643D03*
Y119793D03*
X-252941Y116643D03*
Y119793D03*
X-249791Y126092D03*
X-252941D03*
X-249791Y157588D03*
X-252941D03*
X-249791Y160738D03*
Y163887D03*
X-252941Y160738D03*
Y163887D03*
X-249791Y167037D03*
X-252941D03*
X-240342Y122942D03*
X-243492D03*
X-246642D03*
X-240342Y116643D03*
Y119793D03*
X-243492Y116643D03*
Y119793D03*
X-246642Y116643D03*
Y119793D03*
X-240342Y126092D03*
X-243492D03*
X-246642D03*
Y138690D03*
X-240342D03*
X-243492D03*
X-246642Y144990D03*
Y141840D03*
X-243492D03*
X-240342D03*
Y144990D03*
X-243492D03*
X-240342Y157588D03*
X-243492D03*
X-246642D03*
X-240342Y160738D03*
Y163887D03*
X-243492Y160738D03*
Y163887D03*
X-246642Y160738D03*
Y163887D03*
X-240342Y167037D03*
X-243492D03*
X-246642D03*
X-230894Y122942D03*
X-234043D03*
X-237193D03*
X-230894Y116643D03*
Y119793D03*
X-234043Y116643D03*
Y119793D03*
X-237193Y116643D03*
Y119793D03*
X-230894Y126092D03*
X-234043D03*
X-237193D03*
X-230894Y157588D03*
X-234043D03*
X-237193D03*
X-230894Y160738D03*
Y163887D03*
X-234043Y160738D03*
Y163887D03*
X-237193Y160738D03*
Y163887D03*
X-230894Y167037D03*
X-234043D03*
X-237193D03*
X-224594Y122942D03*
X-227744D03*
X-224594Y116643D03*
Y119793D03*
X-227744Y116643D03*
Y119793D03*
X-224594Y126092D03*
Y129242D03*
Y132391D03*
X-227744Y126092D03*
Y129242D03*
Y132391D03*
X-224594Y135541D03*
Y138690D03*
X-227744Y135541D03*
Y138690D03*
X-224594Y141840D03*
Y144990D03*
Y148139D03*
X-227744Y141840D03*
Y144990D03*
Y148139D03*
X-224594Y151289D03*
Y154438D03*
Y157588D03*
X-227744Y151289D03*
Y154438D03*
Y157588D03*
X-224594Y160738D03*
Y163887D03*
X-227744Y160738D03*
Y163887D03*
X-224594Y167037D03*
X-227744D03*
X-218295Y122942D03*
X-221445D03*
X-218295Y116643D03*
Y119793D03*
X-221445Y116643D03*
Y119793D03*
X-218295Y126092D03*
Y129242D03*
Y132391D03*
X-221445Y126092D03*
Y129242D03*
Y132391D03*
X-218295Y135541D03*
Y138690D03*
X-221445Y135541D03*
Y138690D03*
X-218295Y141840D03*
Y144990D03*
Y148139D03*
X-221445Y141840D03*
Y144990D03*
Y148139D03*
X-218295Y154438D03*
Y157588D03*
X-221445Y151289D03*
Y154438D03*
Y157588D03*
X-218295Y151289D03*
Y160738D03*
Y163887D03*
X-221445Y160738D03*
Y163887D03*
Y167037D03*
X-218295D03*
G54D36*
X-153035Y167500D03*
Y172500D03*
Y177500D03*
Y182500D03*
X-124965Y172500D03*
Y167500D03*
Y182500D03*
Y177500D03*
G54D27*
X-252850Y-48500D03*
Y-40000D03*
X-241150Y-48500D03*
Y-40000D03*
G54D18*
X-349628Y-73128D03*
X-321372Y-44872D03*
G54D19*
X-340528Y55117D03*
Y65400D03*
Y75176D03*
Y85018D03*
Y94861D03*
Y104703D03*
Y114546D03*
Y124093D03*
Y130786D03*
G54D28*
X-252200Y-31500D03*
X-240800D03*
G54D37*
X-90750Y115240D03*
Y112880D03*
Y110520D03*
Y108150D03*
Y122330D03*
Y119960D03*
Y117600D03*
Y131780D03*
Y129410D03*
Y127050D03*
Y124690D03*
Y141220D03*
Y138860D03*
Y136500D03*
Y134140D03*
Y148310D03*
Y145950D03*
Y143590D03*
Y157760D03*
Y155400D03*
Y153040D03*
Y150670D03*
Y164850D03*
Y162480D03*
Y160120D03*
G54D29*
X-227248Y225575D03*
Y222425D03*
X-220752Y225575D03*
Y222425D03*
G54D38*
X-73330Y106970D03*
Y114060D03*
Y111700D03*
Y109330D03*
Y123510D03*
Y121150D03*
Y118780D03*
Y116420D03*
Y130590D03*
Y128230D03*
Y125870D03*
Y140040D03*
Y137680D03*
Y135320D03*
Y132960D03*
Y149490D03*
Y147130D03*
Y144770D03*
Y142410D03*
Y156580D03*
Y154220D03*
Y151850D03*
Y166030D03*
Y163670D03*
Y161300D03*
Y158940D03*
G54D39*
X-44850Y35500D03*
M02*
