G04 ================== begin FILE IDENTIFICATION RECORD ==================*
G04 Layout Name:  F:/JZM/Track Systems/main pcb/du_main_proto.brd*
G04 Film Name:    BOTSILK*
G04 File Format:  Gerber RS274X*
G04 File Origin:  Cadence Allegro 16.3-p003*
G04 Origin Date:  Thu Nov 11 20:12:00 2010*
G04 *
G04 Layer:  BOARD GEOMETRY/FILM_FORMAT*
G04 Layer:  BOARD GEOMETRY/SILKSCREEN_TOP*
G04 Layer:  BOARD GEOMETRY/OUTLINE*
G04 Layer:  PACKAGE GEOMETRY/SILKSCREEN_BOTTOM*
G04 Layer:  REF DES/SILKSCREEN_BOTTOM*
G04 *
G04 Offset:    (0.00 0.00)*
G04 Mirror:    No*
G04 Mode:      Positive*
G04 Rotation:  0*
G04 FullContactRelief:  No*
G04 UndefLineWidth:     0.00*
G04 ================== end FILE IDENTIFICATION RECORD ====================*
%FSLAX55Y55*MOIN*%
%IR0*IPPOS*OFA0.00000B0.00000*MIA0B0*SFA1.00000B1.00000*%
%ADD10C,.001*%
%ADD11C,.005*%
%ADD12C,.006*%
%ADD13C,.008*%
%ADD14C,.00787*%
G75*
%LPD*%
G75*
G36*
G01X-375500Y-59000D02*
Y-66200D01*
X-366500D01*
Y-59000D01*
X-365000D01*
Y-68900D01*
X-377000D01*
Y-59000D01*
X-375500D01*
G37*
G36*
G01X-283000Y-52000D02*
X-275800D01*
Y-43000D01*
X-283000D01*
Y-41500D01*
X-273100D01*
Y-53500D01*
X-283000D01*
Y-52000D01*
G37*
G36*
G01X-235500Y-36500D02*
X-228300D01*
Y-27500D01*
X-235500D01*
Y-26000D01*
X-225600D01*
Y-38000D01*
X-235500D01*
Y-36500D01*
G37*
G54D10*
G01X-448519Y-89000D02*
G02X-460955Y-77766I0J12500D01*
G02X-473689Y192383I2474700J252024D01*
G02X-465245Y204116I12499J-91D01*
G02X-439500Y212421I239253J-697613D01*
G02X-412500Y220029I213486J-705925D01*
G02X-333500Y236123I186501J-713531D01*
G01Y227928D01*
X-298500D01*
Y240428D01*
G02X-153500I72500J-733927D01*
G01Y227928D01*
X-118500D01*
Y236123D01*
G02X-39500Y220029I-107501J-729623D01*
G01X-12500Y212421D01*
G02X13245Y204116I-213508J-705918D01*
G02X21689Y192383I-4055J-11824D01*
G02X13842Y-24000I-2487434J-18128D01*
G01X7842D01*
G03X4842Y-27000I0J-3000D01*
G01Y-76000D01*
G03X7842Y-79000I3000J0D01*
G01X8767D01*
G02X-3481Y-89000I-12248J2501D01*
G01X-448519D01*
G01D02*
G02X-460955Y-77766I0J12500D01*
G02X-473689Y192383I2474692J252024D01*
G02X-465245Y204116I12499J-91D01*
G02X-439500Y212421I239246J-697593D01*
G02X-412500Y220029I213482J-705911D01*
G02X-333500Y236123I186501J-713533D01*
G01Y227928D01*
X-298500D01*
Y240428D01*
G02X-153500I72500J-733926D01*
G01Y227928D01*
X-118500D01*
Y236123D01*
G02X-39500Y220029I-107501J-729627D01*
G01X-12500Y212421D01*
G02X13245Y204116I-213501J-705898D01*
G02X21689Y192383I-4055J-11824D01*
G02X13842Y-24000I-2487393J-18130D01*
G01X7842D01*
G03X4842Y-27000I0J-3000D01*
G01Y-76000D01*
G03X7842Y-79000I3000J0D01*
G01X8767D01*
G02X-3481Y-89000I-12248J2501D01*
G01X-448519D01*
G01X-336968Y-119718D02*
Y-179718D01*
X-11968D01*
Y-119718D01*
X-336968D01*
G01D02*
Y-179718D01*
X-11968D01*
Y-119718D01*
X-336968D01*
G01Y-164718D02*
X-11968D01*
G01X-336968D02*
X-11968D01*
G01X-336968Y-149718D02*
X-11968D01*
G01X-336968D02*
X-11968D01*
G01X-336968Y-134718D02*
X-11968D01*
G01X-336968D02*
X-11968D01*
G01X-164468Y-179718D02*
Y-164718D01*
G01Y-179718D02*
Y-164718D01*
G01X-124468Y-179718D02*
Y-164718D01*
G01Y-179718D02*
Y-164718D01*
G54D11*
G01X-433900Y-59700D02*
X-436900D01*
Y-56700D01*
X-443400D01*
Y-44200D01*
X-436400D01*
Y-40700D01*
X-433900D01*
Y-37200D01*
X-432400D01*
Y-35200D01*
X-446900D01*
Y-40200D01*
X-459400D01*
Y-35200D01*
X-467900D01*
Y-65700D01*
X-459400D01*
Y-60700D01*
X-446900D01*
Y-65700D01*
X-432400D01*
Y-63700D01*
X-433900D01*
Y-59700D01*
X-427400D01*
Y-54700D01*
G01X-444250Y182500D02*
G03I-12750J0D01*
G01X-439250Y0D02*
G03I-12750J0D01*
G01X-341800Y36400D02*
Y38400D01*
X-345800D01*
Y47400D01*
X-341800D01*
Y49400D01*
X-346300D01*
Y66900D01*
X-353800D01*
Y73900D01*
X-346300D01*
Y96900D01*
X-353800D01*
Y103900D01*
X-346300D01*
Y146400D01*
X-436800D01*
Y138400D01*
X-453300D01*
Y140400D01*
X-459800D01*
Y39400D01*
X-451300D01*
Y36400D01*
X-341800D01*
G01X-435267Y-33000D02*
X-435400Y-33250D01*
X-435560Y-33417D01*
X-435747Y-33500D01*
X-435960Y-33417D01*
X-436120Y-33250D01*
X-436280Y-33000D01*
X-436333Y-32667D01*
Y-31000D01*
G01X-438000Y-33500D02*
Y-31000D01*
X-437680Y-31500D01*
G01Y-33500D02*
X-438320D01*
G01X-440520D02*
Y-31000D01*
X-439533Y-32792D01*
X-440867D01*
G01X-428000Y-62500D02*
Y-65000D01*
X-428320Y-64500D01*
G01Y-62500D02*
X-427680D01*
G01X-428587Y-38375D02*
X-428427Y-38167D01*
X-428240Y-38042D01*
X-428000Y-38000D01*
X-427760Y-38083D01*
X-427573Y-38250D01*
X-427440Y-38542D01*
X-427413Y-38875D01*
X-427467Y-39208D01*
X-427600Y-39417D01*
X-427787Y-39583D01*
X-427973Y-39625D01*
X-428160Y-39583D01*
X-428400Y-39417D01*
X-428320Y-40500D01*
X-427600D01*
G01X-417853Y-44780D02*
Y-46572D01*
X-417960Y-46947D01*
X-418173Y-47197D01*
X-418440Y-47280D01*
X-418707Y-47197D01*
X-418920Y-46947D01*
X-419027Y-46572D01*
Y-44780D01*
G01X-420640Y-47280D02*
Y-44780D01*
X-420320Y-45280D01*
G01Y-47280D02*
X-420960D01*
G01X-422840D02*
X-423027Y-47238D01*
X-423240Y-47113D01*
X-423373Y-46905D01*
X-423427Y-46613D01*
X-423373Y-46322D01*
X-423213Y-46072D01*
X-422973Y-45947D01*
X-422707D01*
X-422547Y-45863D01*
X-422413Y-45655D01*
X-422360Y-45363D01*
X-422440Y-45072D01*
X-422627Y-44863D01*
X-422840Y-44780D01*
X-423053Y-44863D01*
X-423240Y-45072D01*
X-423320Y-45363D01*
X-423267Y-45655D01*
X-423133Y-45863D01*
X-422973Y-45947D01*
X-422707D01*
X-422467Y-46072D01*
X-422307Y-46322D01*
X-422253Y-46613D01*
X-422307Y-46905D01*
X-422440Y-47113D01*
X-422653Y-47238D01*
X-422840Y-47280D01*
G01X-405104Y-28557D02*
X-404979Y-28717D01*
X-404896Y-28904D01*
Y-29117D01*
X-405021Y-29357D01*
X-405229Y-29544D01*
X-405479Y-29677D01*
X-405896Y-29784D01*
X-406271Y-29811D01*
X-406646Y-29757D01*
X-406896Y-29677D01*
X-407146Y-29517D01*
X-407313Y-29331D01*
X-407396Y-29144D01*
Y-28957D01*
X-407313Y-28771D01*
X-407188Y-28611D01*
X-407021Y-28477D01*
G01X-407396Y-26944D02*
X-404896D01*
X-405396Y-27264D01*
G01X-407396D02*
Y-26624D01*
G01X-406354Y-25251D02*
X-406063Y-25064D01*
X-405896Y-24904D01*
X-405813Y-24691D01*
X-405896Y-24504D01*
X-406063Y-24371D01*
X-406313Y-24264D01*
X-406604Y-24237D01*
X-406854Y-24264D01*
X-407104Y-24371D01*
X-407313Y-24531D01*
X-407396Y-24717D01*
X-407313Y-24931D01*
X-407063Y-25117D01*
X-406688Y-25224D01*
X-406271Y-25251D01*
X-405729Y-25197D01*
X-405438Y-25117D01*
X-405146Y-24984D01*
X-404938Y-24797D01*
X-404896Y-24611D01*
X-404979Y-24424D01*
X-405188Y-24291D01*
G01X-401092Y-48913D02*
X-398592D01*
Y-48247D01*
X-398717Y-48033D01*
X-398884Y-47900D01*
X-399217Y-47847D01*
X-399550Y-47900D01*
X-399759Y-48060D01*
X-399884Y-48247D01*
Y-48913D01*
G01Y-48247D02*
X-401092Y-47847D01*
G01X-400592Y-46767D02*
X-400884Y-46607D01*
X-401050Y-46393D01*
X-401092Y-46153D01*
X-401050Y-45940D01*
X-400842Y-45727D01*
X-400592Y-45593D01*
X-400342Y-45567D01*
X-400050Y-45620D01*
X-399842Y-45807D01*
X-399759Y-45993D01*
Y-46233D01*
G01Y-45993D02*
X-399634Y-45833D01*
X-399425Y-45700D01*
X-399175Y-45647D01*
X-398925Y-45700D01*
X-398717Y-45833D01*
X-398592Y-46073D01*
X-398634Y-46313D01*
X-398800Y-46553D01*
G01X-381300Y-71700D02*
X-389750D01*
Y-61250D01*
X-381300D01*
Y-79750D01*
X-389750D01*
Y-71700D01*
G01X-383699Y-58600D02*
X-383832Y-58850D01*
X-383992Y-59017D01*
X-384179Y-59100D01*
X-384392Y-59017D01*
X-384552Y-58850D01*
X-384712Y-58600D01*
X-384765Y-58267D01*
Y-56600D01*
G01X-386432Y-59100D02*
X-386619Y-59058D01*
X-386832Y-58933D01*
X-386965Y-58725D01*
X-387019Y-58433D01*
X-386965Y-58142D01*
X-386805Y-57892D01*
X-386565Y-57767D01*
X-386299D01*
X-386139Y-57683D01*
X-386005Y-57475D01*
X-385952Y-57183D01*
X-386032Y-56892D01*
X-386219Y-56683D01*
X-386432Y-56600D01*
X-386645Y-56683D01*
X-386832Y-56892D01*
X-386912Y-57183D01*
X-386859Y-57475D01*
X-386725Y-57683D01*
X-386565Y-57767D01*
X-386299D01*
X-386059Y-57892D01*
X-385899Y-58142D01*
X-385845Y-58433D01*
X-385899Y-58725D01*
X-386032Y-58933D01*
X-386245Y-59058D01*
X-386432Y-59100D01*
G01X-369461Y-55948D02*
Y-53448D01*
X-369995D01*
X-370208Y-53573D01*
X-370368Y-53740D01*
X-370501Y-53990D01*
X-370608Y-54281D01*
X-370635Y-54698D01*
X-370608Y-55115D01*
X-370501Y-55406D01*
X-370368Y-55656D01*
X-370208Y-55823D01*
X-369995Y-55948D01*
X-369461D01*
G01X-371661Y-55448D02*
X-371821Y-55740D01*
X-372035Y-55906D01*
X-372275Y-55948D01*
X-372488Y-55906D01*
X-372701Y-55698D01*
X-372835Y-55448D01*
X-372861Y-55198D01*
X-372808Y-54906D01*
X-372621Y-54698D01*
X-372435Y-54615D01*
X-372195D01*
G01X-372435D02*
X-372595Y-54490D01*
X-372728Y-54281D01*
X-372781Y-54031D01*
X-372728Y-53781D01*
X-372595Y-53573D01*
X-372355Y-53448D01*
X-372115Y-53490D01*
X-371875Y-53656D01*
G01X-366309Y-17988D02*
Y-19780D01*
X-366416Y-20155D01*
X-366629Y-20405D01*
X-366896Y-20488D01*
X-367163Y-20405D01*
X-367376Y-20155D01*
X-367483Y-19780D01*
Y-17988D01*
G01X-368589Y-18405D02*
X-368749Y-18155D01*
X-368936Y-18030D01*
X-369149Y-17988D01*
X-369416Y-18071D01*
X-369603Y-18280D01*
X-369656Y-18530D01*
X-369629Y-18780D01*
X-369523Y-18988D01*
X-368989Y-19405D01*
X-368749Y-19696D01*
X-368589Y-20113D01*
X-368536Y-20488D01*
X-369656D01*
G01X-353884Y-30133D02*
X-353759Y-30293D01*
X-353676Y-30480D01*
Y-30693D01*
X-353801Y-30933D01*
X-354009Y-31120D01*
X-354259Y-31253D01*
X-354676Y-31360D01*
X-355051Y-31387D01*
X-355426Y-31333D01*
X-355676Y-31253D01*
X-355926Y-31093D01*
X-356093Y-30907D01*
X-356176Y-30720D01*
Y-30533D01*
X-356093Y-30347D01*
X-355968Y-30187D01*
X-355801Y-30053D01*
G01X-356176Y-28520D02*
X-353676D01*
X-354176Y-28840D01*
G01X-356176D02*
Y-28200D01*
G01X-355801Y-26907D02*
X-356009Y-26747D01*
X-356134Y-26560D01*
X-356176Y-26320D01*
X-356093Y-26080D01*
X-355926Y-25893D01*
X-355634Y-25760D01*
X-355301Y-25733D01*
X-354968Y-25787D01*
X-354759Y-25920D01*
X-354593Y-26107D01*
X-354551Y-26293D01*
X-354593Y-26480D01*
X-354759Y-26720D01*
X-353676Y-26640D01*
Y-25920D01*
G01X-347927Y148644D02*
X-348060Y148394D01*
X-348220Y148227D01*
X-348407Y148144D01*
X-348620Y148227D01*
X-348780Y148394D01*
X-348940Y148644D01*
X-348993Y148977D01*
Y150644D01*
G01X-350660Y148144D02*
Y150644D01*
X-350340Y150144D01*
G01Y148144D02*
X-350980D01*
G01X-352860Y150644D02*
X-352647Y150561D01*
X-352487Y150352D01*
X-352380Y150102D01*
X-352300Y149769D01*
X-352273Y149394D01*
X-352300Y149019D01*
X-352380Y148686D01*
X-352487Y148436D01*
X-352647Y148227D01*
X-352860Y148144D01*
X-353073Y148227D01*
X-353233Y148436D01*
X-353340Y148686D01*
X-353420Y149019D01*
X-353447Y149394D01*
X-353420Y149769D01*
X-353340Y150102D01*
X-353233Y150352D01*
X-353073Y150561D01*
X-352860Y150644D01*
G01X-338783Y-34536D02*
Y-37036D01*
X-339849D01*
G01X-341516D02*
Y-34536D01*
X-341196Y-35036D01*
G01Y-37036D02*
X-341836D01*
G01X-335319Y25716D02*
X-335452Y25466D01*
X-335612Y25299D01*
X-335799Y25216D01*
X-336012Y25299D01*
X-336172Y25466D01*
X-336332Y25716D01*
X-336385Y26049D01*
Y27716D01*
G01X-338052Y25216D02*
Y27716D01*
X-337732Y27216D01*
G01Y25216D02*
X-338372D01*
G01X-339745Y27299D02*
X-339905Y27549D01*
X-340092Y27674D01*
X-340305Y27716D01*
X-340572Y27633D01*
X-340759Y27424D01*
X-340812Y27174D01*
X-340785Y26924D01*
X-340679Y26716D01*
X-340145Y26299D01*
X-339905Y26008D01*
X-339745Y25591D01*
X-339692Y25216D01*
X-340812D01*
G01X-333968Y-169718D02*
Y-165718D01*
X-332768D01*
X-332368Y-165918D01*
X-332068Y-166385D01*
X-331968Y-166918D01*
X-332068Y-167451D01*
X-332318Y-167851D01*
X-332768Y-168051D01*
X-333968D01*
G01X-330568Y-169851D02*
X-328768Y-165718D01*
G01X-327518Y-169718D02*
Y-165718D01*
X-325218Y-169718D01*
Y-165718D01*
G01X-323068Y-169851D02*
X-323168Y-169785D01*
Y-169651D01*
X-323068Y-169585D01*
X-322968Y-169651D01*
Y-169785D01*
X-323068Y-169851D01*
G01Y-168051D02*
X-323168Y-167985D01*
Y-167851D01*
X-323068Y-167785D01*
X-322968Y-167851D01*
Y-167985D01*
X-323068Y-168051D01*
G01X-333968Y-169718D02*
Y-165718D01*
X-332768D01*
X-332368Y-165918D01*
X-332068Y-166385D01*
X-331968Y-166918D01*
X-332068Y-167451D01*
X-332318Y-167851D01*
X-332768Y-168051D01*
X-333968D01*
G01X-330568Y-169851D02*
X-328768Y-165718D01*
G01X-327518Y-169718D02*
Y-165718D01*
X-325218Y-169718D01*
Y-165718D01*
G01X-323068Y-169851D02*
X-323168Y-169785D01*
Y-169651D01*
X-323068Y-169585D01*
X-322968Y-169651D01*
Y-169785D01*
X-323068Y-169851D01*
G01Y-168051D02*
X-323168Y-167985D01*
Y-167851D01*
X-323068Y-167785D01*
X-322968Y-167851D01*
Y-167985D01*
X-323068Y-168051D01*
G01X-333968Y-150718D02*
Y-154718D01*
X-331968D01*
G01X-330918D02*
X-329668Y-150718D01*
X-328418Y-154718D01*
G01X-328868Y-153318D02*
X-330468D01*
G01X-326368Y-154718D02*
Y-152918D01*
X-327368Y-150718D01*
G01X-325368D02*
X-326368Y-152918D01*
G01X-322068Y-154718D02*
X-324068D01*
Y-150718D01*
X-322068D01*
G01X-322868Y-152651D02*
X-324068D01*
G01X-320768Y-154718D02*
Y-150718D01*
X-319518D01*
X-319118Y-150918D01*
X-318868Y-151185D01*
X-318768Y-151718D01*
X-318868Y-152251D01*
X-319168Y-152585D01*
X-319518Y-152785D01*
X-320768D01*
G01X-319518D02*
X-318768Y-154718D01*
G01X-316468Y-154851D02*
X-316568Y-154785D01*
Y-154651D01*
X-316468Y-154585D01*
X-316368Y-154651D01*
Y-154785D01*
X-316468Y-154851D01*
G01Y-153051D02*
X-316568Y-152985D01*
Y-152851D01*
X-316468Y-152785D01*
X-316368Y-152851D01*
Y-152985D01*
X-316468Y-153051D01*
G01X-333968Y-150718D02*
Y-154718D01*
X-331968D01*
G01X-330918D02*
X-329668Y-150718D01*
X-328418Y-154718D01*
G01X-328868Y-153318D02*
X-330468D01*
G01X-326368Y-154718D02*
Y-152918D01*
X-327368Y-150718D01*
G01X-325368D02*
X-326368Y-152918D01*
G01X-322068Y-154718D02*
X-324068D01*
Y-150718D01*
X-322068D01*
G01X-322868Y-152651D02*
X-324068D01*
G01X-320768Y-154718D02*
Y-150718D01*
X-319518D01*
X-319118Y-150918D01*
X-318868Y-151185D01*
X-318768Y-151718D01*
X-318868Y-152251D01*
X-319168Y-152585D01*
X-319518Y-152785D01*
X-320768D01*
G01X-319518D02*
X-318768Y-154718D01*
G01X-316468Y-154851D02*
X-316568Y-154785D01*
Y-154651D01*
X-316468Y-154585D01*
X-316368Y-154651D01*
Y-154785D01*
X-316468Y-154851D01*
G01Y-153051D02*
X-316568Y-152985D01*
Y-152851D01*
X-316468Y-152785D01*
X-316368Y-152851D01*
Y-152985D01*
X-316468Y-153051D01*
G01X-334068Y-139718D02*
Y-135718D01*
X-333068D01*
X-332668Y-135918D01*
X-332368Y-136185D01*
X-332118Y-136585D01*
X-331918Y-137051D01*
X-331868Y-137718D01*
X-331918Y-138385D01*
X-332118Y-138851D01*
X-332368Y-139251D01*
X-332668Y-139518D01*
X-333068Y-139718D01*
X-334068D01*
G01X-330668D02*
Y-135718D01*
X-329418D01*
X-329018Y-135918D01*
X-328768Y-136185D01*
X-328668Y-136718D01*
X-328768Y-137251D01*
X-329068Y-137585D01*
X-329418Y-137785D01*
X-330668D01*
G01X-329418D02*
X-328668Y-139718D01*
G01X-327618D02*
X-326368Y-135718D01*
X-325118Y-139718D01*
G01X-325568Y-138318D02*
X-327168D01*
G01X-324568Y-135718D02*
X-323868Y-139718D01*
X-323068Y-135718D01*
X-322268Y-139718D01*
X-321568Y-135718D01*
G01X-320918Y-139718D02*
Y-135718D01*
X-318618Y-139718D01*
Y-135718D01*
G01X-312768Y-137585D02*
X-312568Y-137385D01*
X-312418Y-137051D01*
X-312318Y-136585D01*
X-312418Y-136185D01*
X-312618Y-135918D01*
X-312968Y-135718D01*
X-314318D01*
Y-139718D01*
X-312668D01*
X-312318Y-139451D01*
X-312118Y-139051D01*
X-312018Y-138585D01*
X-312118Y-138118D01*
X-312418Y-137718D01*
X-312768Y-137585D01*
X-314318D01*
G01X-309868Y-139718D02*
Y-137918D01*
X-310868Y-135718D01*
G01X-308868D02*
X-309868Y-137918D01*
G01X-306568Y-139851D02*
X-306668Y-139785D01*
Y-139651D01*
X-306568Y-139585D01*
X-306468Y-139651D01*
Y-139785D01*
X-306568Y-139851D01*
G01Y-138051D02*
X-306668Y-137985D01*
Y-137851D01*
X-306568Y-137785D01*
X-306468Y-137851D01*
Y-137985D01*
X-306568Y-138051D01*
G01X-334068Y-139718D02*
Y-135718D01*
X-333068D01*
X-332668Y-135918D01*
X-332368Y-136185D01*
X-332118Y-136585D01*
X-331918Y-137051D01*
X-331868Y-137718D01*
X-331918Y-138385D01*
X-332118Y-138851D01*
X-332368Y-139251D01*
X-332668Y-139518D01*
X-333068Y-139718D01*
X-334068D01*
G01X-330668D02*
Y-135718D01*
X-329418D01*
X-329018Y-135918D01*
X-328768Y-136185D01*
X-328668Y-136718D01*
X-328768Y-137251D01*
X-329068Y-137585D01*
X-329418Y-137785D01*
X-330668D01*
G01X-329418D02*
X-328668Y-139718D01*
G01X-327618D02*
X-326368Y-135718D01*
X-325118Y-139718D01*
G01X-325568Y-138318D02*
X-327168D01*
G01X-324568Y-135718D02*
X-323868Y-139718D01*
X-323068Y-135718D01*
X-322268Y-139718D01*
X-321568Y-135718D01*
G01X-320918Y-139718D02*
Y-135718D01*
X-318618Y-139718D01*
Y-135718D01*
G01X-312768Y-137585D02*
X-312568Y-137385D01*
X-312418Y-137051D01*
X-312318Y-136585D01*
X-312418Y-136185D01*
X-312618Y-135918D01*
X-312968Y-135718D01*
X-314318D01*
Y-139718D01*
X-312668D01*
X-312318Y-139451D01*
X-312118Y-139051D01*
X-312018Y-138585D01*
X-312118Y-138118D01*
X-312418Y-137718D01*
X-312768Y-137585D01*
X-314318D01*
G01X-309868Y-139718D02*
Y-137918D01*
X-310868Y-135718D01*
G01X-308868D02*
X-309868Y-137918D01*
G01X-306568Y-139851D02*
X-306668Y-139785D01*
Y-139651D01*
X-306568Y-139585D01*
X-306468Y-139651D01*
Y-139785D01*
X-306568Y-139851D01*
G01Y-138051D02*
X-306668Y-137985D01*
Y-137851D01*
X-306568Y-137785D01*
X-306468Y-137851D01*
Y-137985D01*
X-306568Y-138051D01*
G01X-333968Y-124718D02*
Y-120718D01*
X-332768D01*
X-332368Y-120918D01*
X-332068Y-121385D01*
X-331968Y-121918D01*
X-332068Y-122451D01*
X-332318Y-122851D01*
X-332768Y-123051D01*
X-333968D01*
G01X-330668Y-124718D02*
Y-120718D01*
X-329418D01*
X-329018Y-120918D01*
X-328768Y-121185D01*
X-328668Y-121718D01*
X-328768Y-122251D01*
X-329068Y-122585D01*
X-329418Y-122785D01*
X-330668D01*
G01X-329418D02*
X-328668Y-124718D01*
G01X-326368D02*
X-326768Y-124651D01*
X-327118Y-124385D01*
X-327418Y-123985D01*
X-327618Y-123518D01*
X-327718Y-122985D01*
Y-122451D01*
X-327618Y-121918D01*
X-327418Y-121451D01*
X-327118Y-121051D01*
X-326768Y-120785D01*
X-326368Y-120718D01*
X-325968Y-120785D01*
X-325618Y-121051D01*
X-325318Y-121451D01*
X-325118Y-121918D01*
X-325018Y-122451D01*
Y-122985D01*
X-325118Y-123518D01*
X-325318Y-123985D01*
X-325618Y-124385D01*
X-325968Y-124651D01*
X-326368Y-124718D01*
G01X-324068Y-123918D02*
X-323818Y-124318D01*
X-323518Y-124585D01*
X-323168Y-124718D01*
X-322768Y-124585D01*
X-322468Y-124318D01*
X-322168Y-123918D01*
X-322068Y-123385D01*
Y-120718D01*
G01X-318768Y-124718D02*
X-320768D01*
Y-120718D01*
X-318768D01*
G01X-319568Y-122651D02*
X-320768D01*
G01X-315368Y-121051D02*
X-315668Y-120851D01*
X-316018Y-120718D01*
X-316418D01*
X-316868Y-120918D01*
X-317218Y-121251D01*
X-317468Y-121651D01*
X-317668Y-122318D01*
X-317718Y-122918D01*
X-317618Y-123518D01*
X-317468Y-123918D01*
X-317168Y-124318D01*
X-316818Y-124585D01*
X-316468Y-124718D01*
X-316118D01*
X-315768Y-124585D01*
X-315468Y-124385D01*
X-315218Y-124118D01*
G01X-313168Y-120718D02*
Y-124718D01*
G01X-314318Y-120718D02*
X-312018D01*
G01X-309868Y-124851D02*
X-309968Y-124785D01*
Y-124651D01*
X-309868Y-124585D01*
X-309768Y-124651D01*
Y-124785D01*
X-309868Y-124851D01*
G01Y-123051D02*
X-309968Y-122985D01*
Y-122851D01*
X-309868Y-122785D01*
X-309768Y-122851D01*
Y-122985D01*
X-309868Y-123051D01*
G01X-333968Y-124718D02*
Y-120718D01*
X-332768D01*
X-332368Y-120918D01*
X-332068Y-121385D01*
X-331968Y-121918D01*
X-332068Y-122451D01*
X-332318Y-122851D01*
X-332768Y-123051D01*
X-333968D01*
G01X-330668Y-124718D02*
Y-120718D01*
X-329418D01*
X-329018Y-120918D01*
X-328768Y-121185D01*
X-328668Y-121718D01*
X-328768Y-122251D01*
X-329068Y-122585D01*
X-329418Y-122785D01*
X-330668D01*
G01X-329418D02*
X-328668Y-124718D01*
G01X-326368D02*
X-326768Y-124651D01*
X-327118Y-124385D01*
X-327418Y-123985D01*
X-327618Y-123518D01*
X-327718Y-122985D01*
Y-122451D01*
X-327618Y-121918D01*
X-327418Y-121451D01*
X-327118Y-121051D01*
X-326768Y-120785D01*
X-326368Y-120718D01*
X-325968Y-120785D01*
X-325618Y-121051D01*
X-325318Y-121451D01*
X-325118Y-121918D01*
X-325018Y-122451D01*
Y-122985D01*
X-325118Y-123518D01*
X-325318Y-123985D01*
X-325618Y-124385D01*
X-325968Y-124651D01*
X-326368Y-124718D01*
G01X-324068Y-123918D02*
X-323818Y-124318D01*
X-323518Y-124585D01*
X-323168Y-124718D01*
X-322768Y-124585D01*
X-322468Y-124318D01*
X-322168Y-123918D01*
X-322068Y-123385D01*
Y-120718D01*
G01X-318768Y-124718D02*
X-320768D01*
Y-120718D01*
X-318768D01*
G01X-319568Y-122651D02*
X-320768D01*
G01X-315368Y-121051D02*
X-315668Y-120851D01*
X-316018Y-120718D01*
X-316418D01*
X-316868Y-120918D01*
X-317218Y-121251D01*
X-317468Y-121651D01*
X-317668Y-122318D01*
X-317718Y-122918D01*
X-317618Y-123518D01*
X-317468Y-123918D01*
X-317168Y-124318D01*
X-316818Y-124585D01*
X-316468Y-124718D01*
X-316118D01*
X-315768Y-124585D01*
X-315468Y-124385D01*
X-315218Y-124118D01*
G01X-313168Y-120718D02*
Y-124718D01*
G01X-314318Y-120718D02*
X-312018D01*
G01X-309868Y-124851D02*
X-309968Y-124785D01*
Y-124651D01*
X-309868Y-124585D01*
X-309768Y-124651D01*
Y-124785D01*
X-309868Y-124851D01*
G01Y-123051D02*
X-309968Y-122985D01*
Y-122851D01*
X-309868Y-122785D01*
X-309768Y-122851D01*
Y-122985D01*
X-309868Y-123051D01*
G01X-333508Y54747D02*
X-333717Y54933D01*
X-333800Y55147D01*
X-333717Y55360D01*
X-333467Y55547D01*
X-333092Y55680D01*
X-332717Y55733D01*
X-332258D01*
X-331883Y55680D01*
X-331550Y55547D01*
X-331383Y55387D01*
X-331300Y55200D01*
X-331383Y54987D01*
X-331550Y54827D01*
X-331800Y54720D01*
X-332133Y54667D01*
X-332425Y54720D01*
X-332717Y54853D01*
X-332883Y55013D01*
X-332925Y55200D01*
X-332842Y55413D01*
X-332633Y55573D01*
X-332258Y55733D01*
G01X-333800Y65200D02*
X-331300D01*
X-331800Y64880D01*
G01X-333800D02*
Y65520D01*
G01X-334300Y135200D02*
X-331800D01*
X-332300Y134880D01*
G01X-334300D02*
Y135520D01*
G01X-331800Y137400D02*
X-331883Y137187D01*
X-332092Y137027D01*
X-332342Y136920D01*
X-332675Y136840D01*
X-333050Y136813D01*
X-333425Y136840D01*
X-333758Y136920D01*
X-334008Y137027D01*
X-334217Y137187D01*
X-334300Y137400D01*
X-334217Y137613D01*
X-334008Y137773D01*
X-333758Y137880D01*
X-333425Y137960D01*
X-333050Y137987D01*
X-332675Y137960D01*
X-332342Y137880D01*
X-332092Y137773D01*
X-331883Y137613D01*
X-331800Y137400D01*
G01X-334300Y141800D02*
X-331800D01*
X-332300Y141480D01*
G01X-334300D02*
Y142120D01*
G01Y144000D02*
X-331800D01*
X-332300Y143680D01*
G01X-334300D02*
Y144320D01*
G01X-323628Y-177218D02*
X-319708Y-169718D01*
G01X-323628D02*
X-319708Y-177218D01*
G01X-316128D02*
X-312208Y-169718D01*
G01X-316128D02*
X-312208Y-177218D01*
G01X-307881Y-174718D02*
X-305455D01*
G01X-301128Y-177218D02*
X-297208Y-169718D01*
G01X-301128D02*
X-297208Y-177218D01*
G01X-293628D02*
X-289708Y-169718D01*
G01X-293628D02*
X-289708Y-177218D01*
G01X-286128D02*
X-282208Y-169718D01*
G01X-286128D02*
X-282208Y-177218D01*
G01X-278628D02*
X-274708Y-169718D01*
G01X-278628D02*
X-274708Y-177218D01*
G01X-323628D02*
X-319708Y-169718D01*
G01X-323628D02*
X-319708Y-177218D01*
G01X-316128D02*
X-312208Y-169718D01*
G01X-316128D02*
X-312208Y-177218D01*
G01X-307881Y-174718D02*
X-305455D01*
G01X-301128Y-177218D02*
X-297208Y-169718D01*
G01X-301128D02*
X-297208Y-177218D01*
G01X-293628D02*
X-289708Y-169718D01*
G01X-293628D02*
X-289708Y-177218D01*
G01X-286128D02*
X-282208Y-169718D01*
G01X-286128D02*
X-282208Y-177218D01*
G01X-278628D02*
X-274708Y-169718D01*
G01X-278628D02*
X-274708Y-177218D01*
G01X-318092Y176100D02*
X-326542D01*
Y186550D01*
X-318092D01*
Y168050D01*
X-326542D01*
Y176100D01*
G01X-321447Y188832D02*
X-321580Y188582D01*
X-321740Y188415D01*
X-321927Y188332D01*
X-322140Y188415D01*
X-322300Y188582D01*
X-322460Y188832D01*
X-322513Y189165D01*
Y190832D01*
G01X-324127Y188332D02*
X-324180Y188874D01*
X-324260Y189332D01*
X-324367Y189749D01*
X-324500Y190207D01*
X-324713Y190832D01*
X-323647D01*
G01X-306604Y-69857D02*
X-306479Y-70017D01*
X-306396Y-70204D01*
Y-70417D01*
X-306521Y-70657D01*
X-306729Y-70844D01*
X-306979Y-70977D01*
X-307396Y-71084D01*
X-307771Y-71111D01*
X-308146Y-71057D01*
X-308396Y-70977D01*
X-308646Y-70817D01*
X-308813Y-70631D01*
X-308896Y-70444D01*
Y-70257D01*
X-308813Y-70071D01*
X-308688Y-69911D01*
X-308521Y-69777D01*
G01X-308896Y-68244D02*
X-308854Y-68057D01*
X-308729Y-67844D01*
X-308521Y-67711D01*
X-308229Y-67657D01*
X-307938Y-67711D01*
X-307688Y-67871D01*
X-307563Y-68111D01*
Y-68377D01*
X-307479Y-68537D01*
X-307271Y-68671D01*
X-306979Y-68724D01*
X-306688Y-68644D01*
X-306479Y-68457D01*
X-306396Y-68244D01*
X-306479Y-68031D01*
X-306688Y-67844D01*
X-306979Y-67764D01*
X-307271Y-67817D01*
X-307479Y-67951D01*
X-307563Y-68111D01*
Y-68377D01*
X-307688Y-68617D01*
X-307938Y-68777D01*
X-308229Y-68831D01*
X-308521Y-68777D01*
X-308729Y-68644D01*
X-308854Y-68431D01*
X-308896Y-68244D01*
G01X-301128Y-159968D02*
X-300381Y-160593D01*
X-299541Y-160968D01*
X-298795D01*
X-298048Y-160593D01*
X-297488Y-159968D01*
X-297208Y-159093D01*
X-297395Y-158218D01*
X-297861Y-157468D01*
X-298701Y-156968D01*
X-299821Y-156718D01*
X-300475Y-156218D01*
X-300755Y-155343D01*
X-300568Y-154468D01*
X-300101Y-153843D01*
X-299448Y-153468D01*
X-298795D01*
X-298141Y-153718D01*
X-297581Y-154343D01*
G01X-292788Y-153468D02*
X-290548D01*
G01X-291668D02*
Y-160968D01*
G01X-292788D02*
X-290548D01*
G01X-286035Y-153468D02*
Y-160968D01*
X-282301D01*
G01X-278721D02*
Y-153468D01*
G01X-275175D02*
X-278721Y-158093D01*
G01X-274615Y-160968D02*
X-277135Y-155968D01*
G01X-271128Y-159968D02*
X-270381Y-160593D01*
X-269541Y-160968D01*
X-268795D01*
X-268048Y-160593D01*
X-267488Y-159968D01*
X-267208Y-159093D01*
X-267395Y-158218D01*
X-267861Y-157468D01*
X-268701Y-156968D01*
X-269821Y-156718D01*
X-270475Y-156218D01*
X-270755Y-155343D01*
X-270568Y-154468D01*
X-270101Y-153843D01*
X-269448Y-153468D01*
X-268795D01*
X-268141Y-153718D01*
X-267581Y-154343D01*
G01X-259615Y-154093D02*
X-260175Y-153718D01*
X-260828Y-153468D01*
X-261575D01*
X-262415Y-153843D01*
X-263068Y-154468D01*
X-263535Y-155218D01*
X-263908Y-156468D01*
X-264001Y-157593D01*
X-263815Y-158718D01*
X-263535Y-159468D01*
X-262975Y-160218D01*
X-262321Y-160718D01*
X-261668Y-160968D01*
X-261015D01*
X-260361Y-160718D01*
X-259801Y-160343D01*
X-259335Y-159843D01*
G01X-256035Y-160968D02*
Y-153468D01*
X-253701D01*
X-252955Y-153843D01*
X-252488Y-154343D01*
X-252301Y-155343D01*
X-252488Y-156343D01*
X-253048Y-156968D01*
X-253701Y-157343D01*
X-256035D01*
G01X-253701D02*
X-252301Y-160968D01*
G01X-244801D02*
X-248535D01*
Y-153468D01*
X-244801D01*
G01X-246295Y-157093D02*
X-248535D01*
G01X-237301Y-160968D02*
X-241035D01*
Y-153468D01*
X-237301D01*
G01X-238795Y-157093D02*
X-241035D01*
G01X-233815Y-160968D02*
Y-153468D01*
X-229521Y-160968D01*
Y-153468D01*
G01X-215921Y-156968D02*
X-215548Y-156593D01*
X-215268Y-155968D01*
X-215081Y-155093D01*
X-215268Y-154343D01*
X-215641Y-153843D01*
X-216295Y-153468D01*
X-218815D01*
Y-160968D01*
X-215735D01*
X-215081Y-160468D01*
X-214708Y-159718D01*
X-214521Y-158843D01*
X-214708Y-157968D01*
X-215268Y-157218D01*
X-215921Y-156968D01*
X-218815D01*
G01X-209168Y-160968D02*
X-209915Y-160843D01*
X-210568Y-160343D01*
X-211128Y-159593D01*
X-211501Y-158718D01*
X-211688Y-157718D01*
Y-156718D01*
X-211501Y-155718D01*
X-211128Y-154843D01*
X-210568Y-154093D01*
X-209915Y-153593D01*
X-209168Y-153468D01*
X-208421Y-153593D01*
X-207768Y-154093D01*
X-207208Y-154843D01*
X-206835Y-155718D01*
X-206648Y-156718D01*
Y-157718D01*
X-206835Y-158718D01*
X-207208Y-159593D01*
X-207768Y-160343D01*
X-208421Y-160843D01*
X-209168Y-160968D01*
G01X-201668Y-153468D02*
Y-160968D01*
G01X-203815Y-153468D02*
X-199521D01*
G01X-194168D02*
Y-160968D01*
G01X-196315Y-153468D02*
X-192021D01*
G01X-186668Y-160968D02*
X-187415Y-160843D01*
X-188068Y-160343D01*
X-188628Y-159593D01*
X-189001Y-158718D01*
X-189188Y-157718D01*
Y-156718D01*
X-189001Y-155718D01*
X-188628Y-154843D01*
X-188068Y-154093D01*
X-187415Y-153593D01*
X-186668Y-153468D01*
X-185921Y-153593D01*
X-185268Y-154093D01*
X-184708Y-154843D01*
X-184335Y-155718D01*
X-184148Y-156718D01*
Y-157718D01*
X-184335Y-158718D01*
X-184708Y-159593D01*
X-185268Y-160343D01*
X-185921Y-160843D01*
X-186668Y-160968D01*
G01X-181595D02*
Y-153468D01*
X-179168Y-159718D01*
X-176741Y-153468D01*
Y-160968D01*
G01X-172881Y-158468D02*
X-170455D01*
G01X-165381D02*
X-162955D01*
G01X-157881D02*
X-155455D01*
G01X-150381D02*
X-147955D01*
G01X-142881D02*
X-140455D01*
G01X-133421Y-156968D02*
X-133048Y-156593D01*
X-132768Y-155968D01*
X-132581Y-155093D01*
X-132768Y-154343D01*
X-133141Y-153843D01*
X-133795Y-153468D01*
X-136315D01*
Y-160968D01*
X-133235D01*
X-132581Y-160468D01*
X-132208Y-159718D01*
X-132021Y-158843D01*
X-132208Y-157968D01*
X-132768Y-157218D01*
X-133421Y-156968D01*
X-136315D01*
G01X-126668Y-160968D02*
X-127415Y-160843D01*
X-128068Y-160343D01*
X-128628Y-159593D01*
X-129001Y-158718D01*
X-129188Y-157718D01*
Y-156718D01*
X-129001Y-155718D01*
X-128628Y-154843D01*
X-128068Y-154093D01*
X-127415Y-153593D01*
X-126668Y-153468D01*
X-125921Y-153593D01*
X-125268Y-154093D01*
X-124708Y-154843D01*
X-124335Y-155718D01*
X-124148Y-156718D01*
Y-157718D01*
X-124335Y-158718D01*
X-124708Y-159593D01*
X-125268Y-160343D01*
X-125921Y-160843D01*
X-126668Y-160968D01*
G01X-119168Y-153468D02*
Y-160968D01*
G01X-121315Y-153468D02*
X-117021D01*
G01X-113628Y-159968D02*
X-112881Y-160593D01*
X-112041Y-160968D01*
X-111295D01*
X-110548Y-160593D01*
X-109988Y-159968D01*
X-109708Y-159093D01*
X-109895Y-158218D01*
X-110361Y-157468D01*
X-111201Y-156968D01*
X-112321Y-156718D01*
X-112975Y-156218D01*
X-113255Y-155343D01*
X-113068Y-154468D01*
X-112601Y-153843D01*
X-111948Y-153468D01*
X-111295D01*
X-110641Y-153718D01*
X-110081Y-154343D01*
G01X-105288Y-153468D02*
X-103048D01*
G01X-104168D02*
Y-160968D01*
G01X-105288D02*
X-103048D01*
G01X-98535Y-153468D02*
Y-160968D01*
X-94801D01*
G01X-91221D02*
Y-153468D01*
G01X-87675D02*
X-91221Y-158093D01*
G01X-87115Y-160968D02*
X-89635Y-155968D01*
G01X-81668Y-161218D02*
X-81855Y-161093D01*
Y-160843D01*
X-81668Y-160718D01*
X-81481Y-160843D01*
Y-161093D01*
X-81668Y-161218D01*
G01X-76501Y-160968D02*
X-74168Y-153468D01*
X-71835Y-160968D01*
G01X-72675Y-158343D02*
X-75661D01*
G01X-68535Y-160968D02*
Y-153468D01*
X-66201D01*
X-65455Y-153843D01*
X-64988Y-154343D01*
X-64801Y-155343D01*
X-64988Y-156343D01*
X-65548Y-156968D01*
X-66201Y-157343D01*
X-68535D01*
G01X-66201D02*
X-64801Y-160968D01*
G01X-59168Y-153468D02*
Y-160968D01*
G01X-61315Y-153468D02*
X-57021D01*
G01X-303535Y-145718D02*
X-303068Y-146468D01*
X-302508Y-146968D01*
X-301855Y-147218D01*
X-301108Y-146968D01*
X-300548Y-146468D01*
X-299988Y-145718D01*
X-299801Y-144718D01*
Y-139718D01*
G01X-295941D02*
X-292395D01*
X-295941Y-147218D01*
X-292395D01*
G01X-289095D02*
Y-139718D01*
X-286668Y-145968D01*
X-284241Y-139718D01*
Y-147218D01*
G01X-269615Y-140343D02*
X-270175Y-139968D01*
X-270828Y-139718D01*
X-271575D01*
X-272415Y-140093D01*
X-273068Y-140718D01*
X-273535Y-141468D01*
X-273908Y-142718D01*
X-274001Y-143843D01*
X-273815Y-144968D01*
X-273535Y-145718D01*
X-272975Y-146468D01*
X-272321Y-146968D01*
X-271668Y-147218D01*
X-271015D01*
X-270361Y-146968D01*
X-269801Y-146593D01*
X-269335Y-146093D01*
G01X-264168Y-147218D02*
X-264915Y-147093D01*
X-265568Y-146593D01*
X-266128Y-145843D01*
X-266501Y-144968D01*
X-266688Y-143968D01*
Y-142968D01*
X-266501Y-141968D01*
X-266128Y-141093D01*
X-265568Y-140343D01*
X-264915Y-139843D01*
X-264168Y-139718D01*
X-263421Y-139843D01*
X-262768Y-140343D01*
X-262208Y-141093D01*
X-261835Y-141968D01*
X-261648Y-142968D01*
Y-143968D01*
X-261835Y-144968D01*
X-262208Y-145843D01*
X-262768Y-146593D01*
X-263421Y-147093D01*
X-264168Y-147218D01*
G01X-258815D02*
Y-139718D01*
X-254521Y-147218D01*
Y-139718D01*
G01X-251128Y-146218D02*
X-250381Y-146843D01*
X-249541Y-147218D01*
X-248795D01*
X-248048Y-146843D01*
X-247488Y-146218D01*
X-247208Y-145343D01*
X-247395Y-144468D01*
X-247861Y-143718D01*
X-248701Y-143218D01*
X-249821Y-142968D01*
X-250475Y-142468D01*
X-250755Y-141593D01*
X-250568Y-140718D01*
X-250101Y-140093D01*
X-249448Y-139718D01*
X-248795D01*
X-248141Y-139968D01*
X-247581Y-140593D01*
G01X-243721Y-139718D02*
Y-145093D01*
X-243348Y-146218D01*
X-242601Y-146968D01*
X-241668Y-147218D01*
X-240735Y-146968D01*
X-239988Y-146218D01*
X-239615Y-145093D01*
Y-139718D01*
G01X-236035D02*
Y-147218D01*
X-232301D01*
G01X-226668Y-139718D02*
Y-147218D01*
G01X-228815Y-139718D02*
X-224521D01*
G01X-220288D02*
X-218048D01*
G01X-219168D02*
Y-147218D01*
G01X-220288D02*
X-218048D01*
G01X-213815D02*
Y-139718D01*
X-209521Y-147218D01*
Y-139718D01*
G01X-203608Y-143468D02*
X-201741D01*
Y-145718D01*
X-202301Y-146468D01*
X-202955Y-146968D01*
X-203888Y-147218D01*
X-204821Y-146968D01*
X-205475Y-146468D01*
X-206035Y-145718D01*
X-206408Y-144843D01*
X-206595Y-143843D01*
Y-142968D01*
X-206408Y-142218D01*
X-206035Y-141343D01*
X-205475Y-140593D01*
X-204915Y-140093D01*
X-204168Y-139718D01*
X-203515D01*
X-202768Y-139968D01*
X-202208Y-140468D01*
G01X-198348Y-147468D02*
X-194988Y-139718D01*
G01X-191501Y-147218D02*
X-189168Y-139718D01*
X-186835Y-147218D01*
G01X-187675Y-144593D02*
X-190661D01*
G01X-181668Y-147218D02*
Y-139718D01*
G01X-174168Y-147218D02*
Y-139718D01*
G01X-168068Y-143843D02*
X-165081D01*
X-165361Y-142968D01*
X-165828Y-142468D01*
X-166481Y-142218D01*
X-167135Y-142343D01*
X-167695Y-142718D01*
X-168068Y-143593D01*
X-168255Y-144343D01*
Y-145093D01*
X-168068Y-145843D01*
X-167601Y-146593D01*
X-167041Y-147093D01*
X-166388Y-147218D01*
X-165735Y-146968D01*
X-165081Y-146218D01*
G01X-160755Y-147218D02*
Y-142218D01*
G01Y-143468D02*
X-160381Y-142843D01*
X-159821Y-142343D01*
X-159075Y-142218D01*
X-158421Y-142343D01*
X-157861Y-142843D01*
X-157581Y-143718D01*
Y-147218D01*
G01X-146221D02*
Y-139718D01*
G01X-142675D02*
X-146221Y-144343D01*
G01X-142115Y-147218D02*
X-144635Y-142218D01*
G01X-138068Y-143843D02*
X-135081D01*
X-135361Y-142968D01*
X-135828Y-142468D01*
X-136481Y-142218D01*
X-137135Y-142343D01*
X-137695Y-142718D01*
X-138068Y-143593D01*
X-138255Y-144343D01*
Y-145093D01*
X-138068Y-145843D01*
X-137601Y-146593D01*
X-137041Y-147093D01*
X-136388Y-147218D01*
X-135735Y-146968D01*
X-135081Y-146218D01*
G01X-130475Y-147218D02*
Y-142218D01*
G01Y-143218D02*
X-130008Y-142718D01*
X-129541Y-142343D01*
X-128888Y-142218D01*
X-128421Y-142343D01*
X-127861Y-142718D01*
G01X-123068Y-146343D02*
X-122601Y-146843D01*
X-121948Y-147218D01*
X-121388D01*
X-120828Y-146968D01*
X-120455Y-146593D01*
X-120268Y-146093D01*
X-120361Y-145343D01*
X-120735Y-144968D01*
X-122415Y-144218D01*
X-122788Y-143343D01*
X-122601Y-142718D01*
X-122228Y-142343D01*
X-121668Y-142218D01*
X-121108Y-142343D01*
X-120548Y-142718D01*
G01X-115568Y-143843D02*
X-112581D01*
X-112861Y-142968D01*
X-113328Y-142468D01*
X-113981Y-142218D01*
X-114635Y-142343D01*
X-115195Y-142718D01*
X-115568Y-143593D01*
X-115755Y-144343D01*
Y-145093D01*
X-115568Y-145843D01*
X-115101Y-146593D01*
X-114541Y-147093D01*
X-113888Y-147218D01*
X-113235Y-146968D01*
X-112581Y-146218D01*
G01X-108628Y-149468D02*
X-108068Y-149718D01*
X-107321Y-149468D01*
X-106855Y-148968D01*
X-106481Y-148343D01*
X-105921Y-146343D01*
X-104708Y-142218D01*
G01X-107695D02*
X-105921Y-146343D01*
G01X-303535Y-145718D02*
X-303068Y-146468D01*
X-302508Y-146968D01*
X-301855Y-147218D01*
X-301108Y-146968D01*
X-300548Y-146468D01*
X-299988Y-145718D01*
X-299801Y-144718D01*
Y-139718D01*
G01X-295941D02*
X-292395D01*
X-295941Y-147218D01*
X-292395D01*
G01X-289095D02*
Y-139718D01*
X-286668Y-145968D01*
X-284241Y-139718D01*
Y-147218D01*
G01X-269615Y-140343D02*
X-270175Y-139968D01*
X-270828Y-139718D01*
X-271575D01*
X-272415Y-140093D01*
X-273068Y-140718D01*
X-273535Y-141468D01*
X-273908Y-142718D01*
X-274001Y-143843D01*
X-273815Y-144968D01*
X-273535Y-145718D01*
X-272975Y-146468D01*
X-272321Y-146968D01*
X-271668Y-147218D01*
X-271015D01*
X-270361Y-146968D01*
X-269801Y-146593D01*
X-269335Y-146093D01*
G01X-264168Y-147218D02*
X-264915Y-147093D01*
X-265568Y-146593D01*
X-266128Y-145843D01*
X-266501Y-144968D01*
X-266688Y-143968D01*
Y-142968D01*
X-266501Y-141968D01*
X-266128Y-141093D01*
X-265568Y-140343D01*
X-264915Y-139843D01*
X-264168Y-139718D01*
X-263421Y-139843D01*
X-262768Y-140343D01*
X-262208Y-141093D01*
X-261835Y-141968D01*
X-261648Y-142968D01*
Y-143968D01*
X-261835Y-144968D01*
X-262208Y-145843D01*
X-262768Y-146593D01*
X-263421Y-147093D01*
X-264168Y-147218D01*
G01X-258815D02*
Y-139718D01*
X-254521Y-147218D01*
Y-139718D01*
G01X-251128Y-146218D02*
X-250381Y-146843D01*
X-249541Y-147218D01*
X-248795D01*
X-248048Y-146843D01*
X-247488Y-146218D01*
X-247208Y-145343D01*
X-247395Y-144468D01*
X-247861Y-143718D01*
X-248701Y-143218D01*
X-249821Y-142968D01*
X-250475Y-142468D01*
X-250755Y-141593D01*
X-250568Y-140718D01*
X-250101Y-140093D01*
X-249448Y-139718D01*
X-248795D01*
X-248141Y-139968D01*
X-247581Y-140593D01*
G01X-243721Y-139718D02*
Y-145093D01*
X-243348Y-146218D01*
X-242601Y-146968D01*
X-241668Y-147218D01*
X-240735Y-146968D01*
X-239988Y-146218D01*
X-239615Y-145093D01*
Y-139718D01*
G01X-236035D02*
Y-147218D01*
X-232301D01*
G01X-226668Y-139718D02*
Y-147218D01*
G01X-228815Y-139718D02*
X-224521D01*
G01X-220288D02*
X-218048D01*
G01X-219168D02*
Y-147218D01*
G01X-220288D02*
X-218048D01*
G01X-213815D02*
Y-139718D01*
X-209521Y-147218D01*
Y-139718D01*
G01X-203608Y-143468D02*
X-201741D01*
Y-145718D01*
X-202301Y-146468D01*
X-202955Y-146968D01*
X-203888Y-147218D01*
X-204821Y-146968D01*
X-205475Y-146468D01*
X-206035Y-145718D01*
X-206408Y-144843D01*
X-206595Y-143843D01*
Y-142968D01*
X-206408Y-142218D01*
X-206035Y-141343D01*
X-205475Y-140593D01*
X-204915Y-140093D01*
X-204168Y-139718D01*
X-203515D01*
X-202768Y-139968D01*
X-202208Y-140468D01*
G01X-198348Y-147468D02*
X-194988Y-139718D01*
G01X-191501Y-147218D02*
X-189168Y-139718D01*
X-186835Y-147218D01*
G01X-187675Y-144593D02*
X-190661D01*
G01X-181668Y-147218D02*
Y-139718D01*
G01X-174168Y-147218D02*
Y-139718D01*
G01X-168068Y-143843D02*
X-165081D01*
X-165361Y-142968D01*
X-165828Y-142468D01*
X-166481Y-142218D01*
X-167135Y-142343D01*
X-167695Y-142718D01*
X-168068Y-143593D01*
X-168255Y-144343D01*
Y-145093D01*
X-168068Y-145843D01*
X-167601Y-146593D01*
X-167041Y-147093D01*
X-166388Y-147218D01*
X-165735Y-146968D01*
X-165081Y-146218D01*
G01X-160755Y-147218D02*
Y-142218D01*
G01Y-143468D02*
X-160381Y-142843D01*
X-159821Y-142343D01*
X-159075Y-142218D01*
X-158421Y-142343D01*
X-157861Y-142843D01*
X-157581Y-143718D01*
Y-147218D01*
G01X-146221D02*
Y-139718D01*
G01X-142675D02*
X-146221Y-144343D01*
G01X-142115Y-147218D02*
X-144635Y-142218D01*
G01X-138068Y-143843D02*
X-135081D01*
X-135361Y-142968D01*
X-135828Y-142468D01*
X-136481Y-142218D01*
X-137135Y-142343D01*
X-137695Y-142718D01*
X-138068Y-143593D01*
X-138255Y-144343D01*
Y-145093D01*
X-138068Y-145843D01*
X-137601Y-146593D01*
X-137041Y-147093D01*
X-136388Y-147218D01*
X-135735Y-146968D01*
X-135081Y-146218D01*
G01X-130475Y-147218D02*
Y-142218D01*
G01Y-143218D02*
X-130008Y-142718D01*
X-129541Y-142343D01*
X-128888Y-142218D01*
X-128421Y-142343D01*
X-127861Y-142718D01*
G01X-123068Y-146343D02*
X-122601Y-146843D01*
X-121948Y-147218D01*
X-121388D01*
X-120828Y-146968D01*
X-120455Y-146593D01*
X-120268Y-146093D01*
X-120361Y-145343D01*
X-120735Y-144968D01*
X-122415Y-144218D01*
X-122788Y-143343D01*
X-122601Y-142718D01*
X-122228Y-142343D01*
X-121668Y-142218D01*
X-121108Y-142343D01*
X-120548Y-142718D01*
G01X-115568Y-143843D02*
X-112581D01*
X-112861Y-142968D01*
X-113328Y-142468D01*
X-113981Y-142218D01*
X-114635Y-142343D01*
X-115195Y-142718D01*
X-115568Y-143593D01*
X-115755Y-144343D01*
Y-145093D01*
X-115568Y-145843D01*
X-115101Y-146593D01*
X-114541Y-147093D01*
X-113888Y-147218D01*
X-113235Y-146968D01*
X-112581Y-146218D01*
G01X-108628Y-149468D02*
X-108068Y-149718D01*
X-107321Y-149468D01*
X-106855Y-148968D01*
X-106481Y-148343D01*
X-105921Y-146343D01*
X-104708Y-142218D01*
G01X-107695D02*
X-105921Y-146343D01*
G01X-301668Y-124718D02*
Y-132218D01*
G01X-303815Y-124718D02*
X-299521D01*
G01X-296035Y-132218D02*
Y-124718D01*
X-293701D01*
X-292955Y-125093D01*
X-292488Y-125593D01*
X-292301Y-126593D01*
X-292488Y-127593D01*
X-293048Y-128218D01*
X-293701Y-128593D01*
X-296035D01*
G01X-293701D02*
X-292301Y-132218D01*
G01X-289001D02*
X-286668Y-124718D01*
X-284335Y-132218D01*
G01X-285175Y-129593D02*
X-288161D01*
G01X-277115Y-125343D02*
X-277675Y-124968D01*
X-278328Y-124718D01*
X-279075D01*
X-279915Y-125093D01*
X-280568Y-125718D01*
X-281035Y-126468D01*
X-281408Y-127718D01*
X-281501Y-128843D01*
X-281315Y-129968D01*
X-281035Y-130718D01*
X-280475Y-131468D01*
X-279821Y-131968D01*
X-279168Y-132218D01*
X-278515D01*
X-277861Y-131968D01*
X-277301Y-131593D01*
X-276835Y-131093D01*
G01X-273721Y-132218D02*
Y-124718D01*
G01X-270175D02*
X-273721Y-129343D01*
G01X-269615Y-132218D02*
X-272135Y-127218D01*
G01X-258628Y-131218D02*
X-257881Y-131843D01*
X-257041Y-132218D01*
X-256295D01*
X-255548Y-131843D01*
X-254988Y-131218D01*
X-254708Y-130343D01*
X-254895Y-129468D01*
X-255361Y-128718D01*
X-256201Y-128218D01*
X-257321Y-127968D01*
X-257975Y-127468D01*
X-258255Y-126593D01*
X-258068Y-125718D01*
X-257601Y-125093D01*
X-256948Y-124718D01*
X-256295D01*
X-255641Y-124968D01*
X-255081Y-125593D01*
G01X-249168Y-132218D02*
Y-128843D01*
X-251035Y-124718D01*
G01X-247301D02*
X-249168Y-128843D01*
G01X-243628Y-131218D02*
X-242881Y-131843D01*
X-242041Y-132218D01*
X-241295D01*
X-240548Y-131843D01*
X-239988Y-131218D01*
X-239708Y-130343D01*
X-239895Y-129468D01*
X-240361Y-128718D01*
X-241201Y-128218D01*
X-242321Y-127968D01*
X-242975Y-127468D01*
X-243255Y-126593D01*
X-243068Y-125718D01*
X-242601Y-125093D01*
X-241948Y-124718D01*
X-241295D01*
X-240641Y-124968D01*
X-240081Y-125593D01*
G01X-234168Y-124718D02*
Y-132218D01*
G01X-236315Y-124718D02*
X-232021D01*
G01X-224801Y-132218D02*
X-228535D01*
Y-124718D01*
X-224801D01*
G01X-226295Y-128343D02*
X-228535D01*
G01X-221595Y-132218D02*
Y-124718D01*
X-219168Y-130968D01*
X-216741Y-124718D01*
Y-132218D01*
G01X-213628Y-131218D02*
X-212881Y-131843D01*
X-212041Y-132218D01*
X-211295D01*
X-210548Y-131843D01*
X-209988Y-131218D01*
X-209708Y-130343D01*
X-209895Y-129468D01*
X-210361Y-128718D01*
X-211201Y-128218D01*
X-212321Y-127968D01*
X-212975Y-127468D01*
X-213255Y-126593D01*
X-213068Y-125718D01*
X-212601Y-125093D01*
X-211948Y-124718D01*
X-211295D01*
X-210641Y-124968D01*
X-210081Y-125593D01*
G01X-198721Y-132218D02*
Y-124718D01*
X-196855D01*
X-196108Y-125093D01*
X-195548Y-125593D01*
X-195081Y-126343D01*
X-194708Y-127218D01*
X-194615Y-128468D01*
X-194708Y-129718D01*
X-195081Y-130593D01*
X-195548Y-131343D01*
X-196108Y-131843D01*
X-196855Y-132218D01*
X-198721D01*
G01X-191221Y-124718D02*
Y-130093D01*
X-190848Y-131218D01*
X-190101Y-131968D01*
X-189168Y-132218D01*
X-188235Y-131968D01*
X-187488Y-131218D01*
X-187115Y-130093D01*
Y-124718D01*
G01X-182788D02*
X-180548D01*
G01X-181668D02*
Y-132218D01*
G01X-182788D02*
X-180548D01*
G01X-175288Y-124718D02*
X-173048D01*
G01X-174168D02*
Y-132218D01*
G01X-175288D02*
X-173048D01*
G01X-158421Y-128218D02*
X-158048Y-127843D01*
X-157768Y-127218D01*
X-157581Y-126343D01*
X-157768Y-125593D01*
X-158141Y-125093D01*
X-158795Y-124718D01*
X-161315D01*
Y-132218D01*
X-158235D01*
X-157581Y-131718D01*
X-157208Y-130968D01*
X-157021Y-130093D01*
X-157208Y-129218D01*
X-157768Y-128468D01*
X-158421Y-128218D01*
X-161315D01*
G01X-151668Y-132218D02*
X-152415Y-132093D01*
X-153068Y-131593D01*
X-153628Y-130843D01*
X-154001Y-129968D01*
X-154188Y-128968D01*
Y-127968D01*
X-154001Y-126968D01*
X-153628Y-126093D01*
X-153068Y-125343D01*
X-152415Y-124843D01*
X-151668Y-124718D01*
X-150921Y-124843D01*
X-150268Y-125343D01*
X-149708Y-126093D01*
X-149335Y-126968D01*
X-149148Y-127968D01*
Y-128968D01*
X-149335Y-129968D01*
X-149708Y-130843D01*
X-150268Y-131593D01*
X-150921Y-132093D01*
X-151668Y-132218D01*
G01X-146501D02*
X-144168Y-124718D01*
X-141835Y-132218D01*
G01X-142675Y-129593D02*
X-145661D01*
G01X-138535Y-132218D02*
Y-124718D01*
X-136201D01*
X-135455Y-125093D01*
X-134988Y-125593D01*
X-134801Y-126593D01*
X-134988Y-127593D01*
X-135548Y-128218D01*
X-136201Y-128593D01*
X-138535D01*
G01X-136201D02*
X-134801Y-132218D01*
G01X-131221D02*
Y-124718D01*
X-129355D01*
X-128608Y-125093D01*
X-128048Y-125593D01*
X-127581Y-126343D01*
X-127208Y-127218D01*
X-127115Y-128468D01*
X-127208Y-129718D01*
X-127581Y-130593D01*
X-128048Y-131343D01*
X-128608Y-131843D01*
X-129355Y-132218D01*
X-131221D01*
G01X-301668Y-124718D02*
Y-132218D01*
G01X-303815Y-124718D02*
X-299521D01*
G01X-296035Y-132218D02*
Y-124718D01*
X-293701D01*
X-292955Y-125093D01*
X-292488Y-125593D01*
X-292301Y-126593D01*
X-292488Y-127593D01*
X-293048Y-128218D01*
X-293701Y-128593D01*
X-296035D01*
G01X-293701D02*
X-292301Y-132218D01*
G01X-289001D02*
X-286668Y-124718D01*
X-284335Y-132218D01*
G01X-285175Y-129593D02*
X-288161D01*
G01X-277115Y-125343D02*
X-277675Y-124968D01*
X-278328Y-124718D01*
X-279075D01*
X-279915Y-125093D01*
X-280568Y-125718D01*
X-281035Y-126468D01*
X-281408Y-127718D01*
X-281501Y-128843D01*
X-281315Y-129968D01*
X-281035Y-130718D01*
X-280475Y-131468D01*
X-279821Y-131968D01*
X-279168Y-132218D01*
X-278515D01*
X-277861Y-131968D01*
X-277301Y-131593D01*
X-276835Y-131093D01*
G01X-273721Y-132218D02*
Y-124718D01*
G01X-270175D02*
X-273721Y-129343D01*
G01X-269615Y-132218D02*
X-272135Y-127218D01*
G01X-258628Y-131218D02*
X-257881Y-131843D01*
X-257041Y-132218D01*
X-256295D01*
X-255548Y-131843D01*
X-254988Y-131218D01*
X-254708Y-130343D01*
X-254895Y-129468D01*
X-255361Y-128718D01*
X-256201Y-128218D01*
X-257321Y-127968D01*
X-257975Y-127468D01*
X-258255Y-126593D01*
X-258068Y-125718D01*
X-257601Y-125093D01*
X-256948Y-124718D01*
X-256295D01*
X-255641Y-124968D01*
X-255081Y-125593D01*
G01X-249168Y-132218D02*
Y-128843D01*
X-251035Y-124718D01*
G01X-247301D02*
X-249168Y-128843D01*
G01X-243628Y-131218D02*
X-242881Y-131843D01*
X-242041Y-132218D01*
X-241295D01*
X-240548Y-131843D01*
X-239988Y-131218D01*
X-239708Y-130343D01*
X-239895Y-129468D01*
X-240361Y-128718D01*
X-241201Y-128218D01*
X-242321Y-127968D01*
X-242975Y-127468D01*
X-243255Y-126593D01*
X-243068Y-125718D01*
X-242601Y-125093D01*
X-241948Y-124718D01*
X-241295D01*
X-240641Y-124968D01*
X-240081Y-125593D01*
G01X-234168Y-124718D02*
Y-132218D01*
G01X-236315Y-124718D02*
X-232021D01*
G01X-224801Y-132218D02*
X-228535D01*
Y-124718D01*
X-224801D01*
G01X-226295Y-128343D02*
X-228535D01*
G01X-221595Y-132218D02*
Y-124718D01*
X-219168Y-130968D01*
X-216741Y-124718D01*
Y-132218D01*
G01X-213628Y-131218D02*
X-212881Y-131843D01*
X-212041Y-132218D01*
X-211295D01*
X-210548Y-131843D01*
X-209988Y-131218D01*
X-209708Y-130343D01*
X-209895Y-129468D01*
X-210361Y-128718D01*
X-211201Y-128218D01*
X-212321Y-127968D01*
X-212975Y-127468D01*
X-213255Y-126593D01*
X-213068Y-125718D01*
X-212601Y-125093D01*
X-211948Y-124718D01*
X-211295D01*
X-210641Y-124968D01*
X-210081Y-125593D01*
G01X-198721Y-132218D02*
Y-124718D01*
X-196855D01*
X-196108Y-125093D01*
X-195548Y-125593D01*
X-195081Y-126343D01*
X-194708Y-127218D01*
X-194615Y-128468D01*
X-194708Y-129718D01*
X-195081Y-130593D01*
X-195548Y-131343D01*
X-196108Y-131843D01*
X-196855Y-132218D01*
X-198721D01*
G01X-191221Y-124718D02*
Y-130093D01*
X-190848Y-131218D01*
X-190101Y-131968D01*
X-189168Y-132218D01*
X-188235Y-131968D01*
X-187488Y-131218D01*
X-187115Y-130093D01*
Y-124718D01*
G01X-182788D02*
X-180548D01*
G01X-181668D02*
Y-132218D01*
G01X-182788D02*
X-180548D01*
G01X-175288Y-124718D02*
X-173048D01*
G01X-174168D02*
Y-132218D01*
G01X-175288D02*
X-173048D01*
G01X-158421Y-128218D02*
X-158048Y-127843D01*
X-157768Y-127218D01*
X-157581Y-126343D01*
X-157768Y-125593D01*
X-158141Y-125093D01*
X-158795Y-124718D01*
X-161315D01*
Y-132218D01*
X-158235D01*
X-157581Y-131718D01*
X-157208Y-130968D01*
X-157021Y-130093D01*
X-157208Y-129218D01*
X-157768Y-128468D01*
X-158421Y-128218D01*
X-161315D01*
G01X-151668Y-132218D02*
X-152415Y-132093D01*
X-153068Y-131593D01*
X-153628Y-130843D01*
X-154001Y-129968D01*
X-154188Y-128968D01*
Y-127968D01*
X-154001Y-126968D01*
X-153628Y-126093D01*
X-153068Y-125343D01*
X-152415Y-124843D01*
X-151668Y-124718D01*
X-150921Y-124843D01*
X-150268Y-125343D01*
X-149708Y-126093D01*
X-149335Y-126968D01*
X-149148Y-127968D01*
Y-128968D01*
X-149335Y-129968D01*
X-149708Y-130843D01*
X-150268Y-131593D01*
X-150921Y-132093D01*
X-151668Y-132218D01*
G01X-146501D02*
X-144168Y-124718D01*
X-141835Y-132218D01*
G01X-142675Y-129593D02*
X-145661D01*
G01X-138535Y-132218D02*
Y-124718D01*
X-136201D01*
X-135455Y-125093D01*
X-134988Y-125593D01*
X-134801Y-126593D01*
X-134988Y-127593D01*
X-135548Y-128218D01*
X-136201Y-128593D01*
X-138535D01*
G01X-136201D02*
X-134801Y-132218D01*
G01X-131221D02*
Y-124718D01*
X-129355D01*
X-128608Y-125093D01*
X-128048Y-125593D01*
X-127581Y-126343D01*
X-127208Y-127218D01*
X-127115Y-128468D01*
X-127208Y-129718D01*
X-127581Y-130593D01*
X-128048Y-131343D01*
X-128608Y-131843D01*
X-129355Y-132218D01*
X-131221D01*
G01X-287692Y-68281D02*
X-287567Y-68441D01*
X-287484Y-68628D01*
Y-68841D01*
X-287609Y-69081D01*
X-287817Y-69268D01*
X-288067Y-69401D01*
X-288484Y-69508D01*
X-288859Y-69535D01*
X-289234Y-69481D01*
X-289484Y-69401D01*
X-289734Y-69241D01*
X-289901Y-69055D01*
X-289984Y-68868D01*
Y-68681D01*
X-289901Y-68495D01*
X-289776Y-68335D01*
X-289609Y-68201D01*
G01X-289984Y-66721D02*
X-289442Y-66668D01*
X-288984Y-66588D01*
X-288567Y-66481D01*
X-288109Y-66348D01*
X-287484Y-66135D01*
Y-67201D01*
G01X-286721Y-53584D02*
Y-51084D01*
X-287255D01*
X-287468Y-51209D01*
X-287628Y-51376D01*
X-287761Y-51626D01*
X-287868Y-51917D01*
X-287895Y-52334D01*
X-287868Y-52751D01*
X-287761Y-53042D01*
X-287628Y-53292D01*
X-287468Y-53459D01*
X-287255Y-53584D01*
X-286721D01*
G01X-289828D02*
Y-51084D01*
X-288841Y-52876D01*
X-290175D01*
G01X-281388Y-82777D02*
X-281263Y-82937D01*
X-281180Y-83124D01*
Y-83337D01*
X-281305Y-83577D01*
X-281513Y-83764D01*
X-281763Y-83897D01*
X-282180Y-84004D01*
X-282555Y-84031D01*
X-282930Y-83977D01*
X-283180Y-83897D01*
X-283430Y-83737D01*
X-283597Y-83551D01*
X-283680Y-83364D01*
Y-83177D01*
X-283597Y-82991D01*
X-283472Y-82831D01*
X-283305Y-82697D01*
G01X-283680Y-81164D02*
X-281180D01*
X-281680Y-81484D01*
G01X-283680D02*
Y-80844D01*
G01Y-78964D02*
X-283638Y-78777D01*
X-283513Y-78564D01*
X-283305Y-78431D01*
X-283013Y-78377D01*
X-282722Y-78431D01*
X-282472Y-78591D01*
X-282347Y-78831D01*
Y-79097D01*
X-282263Y-79257D01*
X-282055Y-79391D01*
X-281763Y-79444D01*
X-281472Y-79364D01*
X-281263Y-79177D01*
X-281180Y-78964D01*
X-281263Y-78751D01*
X-281472Y-78564D01*
X-281763Y-78484D01*
X-282055Y-78537D01*
X-282263Y-78671D01*
X-282347Y-78831D01*
Y-79097D01*
X-282472Y-79337D01*
X-282722Y-79497D01*
X-283013Y-79551D01*
X-283305Y-79497D01*
X-283513Y-79364D01*
X-283638Y-79151D01*
X-283680Y-78964D01*
G01X-285199Y-79588D02*
Y-77088D01*
X-285865D01*
X-286079Y-77213D01*
X-286212Y-77380D01*
X-286265Y-77713D01*
X-286212Y-78046D01*
X-286052Y-78255D01*
X-285865Y-78380D01*
X-285199D01*
G01X-285865D02*
X-286265Y-79588D01*
G01X-287932D02*
X-288119Y-79546D01*
X-288332Y-79421D01*
X-288465Y-79213D01*
X-288519Y-78921D01*
X-288465Y-78630D01*
X-288305Y-78380D01*
X-288065Y-78255D01*
X-287799D01*
X-287639Y-78171D01*
X-287505Y-77963D01*
X-287452Y-77671D01*
X-287532Y-77380D01*
X-287719Y-77171D01*
X-287932Y-77088D01*
X-288145Y-77171D01*
X-288332Y-77380D01*
X-288412Y-77671D01*
X-288359Y-77963D01*
X-288225Y-78171D01*
X-288065Y-78255D01*
X-287799D01*
X-287559Y-78380D01*
X-287399Y-78630D01*
X-287345Y-78921D01*
X-287399Y-79213D01*
X-287532Y-79421D01*
X-287745Y-79546D01*
X-287932Y-79588D01*
G01X-280600Y-59137D02*
X-280475Y-59297D01*
X-280392Y-59484D01*
Y-59697D01*
X-280517Y-59937D01*
X-280725Y-60124D01*
X-280975Y-60257D01*
X-281392Y-60364D01*
X-281767Y-60391D01*
X-282142Y-60337D01*
X-282392Y-60257D01*
X-282642Y-60097D01*
X-282809Y-59911D01*
X-282892Y-59724D01*
Y-59537D01*
X-282809Y-59351D01*
X-282684Y-59191D01*
X-282517Y-59057D01*
G01X-282892Y-57524D02*
X-280392D01*
X-280892Y-57844D01*
G01X-282892D02*
Y-57204D01*
G01Y-55377D02*
X-282350Y-55324D01*
X-281892Y-55244D01*
X-281475Y-55137D01*
X-281017Y-55004D01*
X-280392Y-54791D01*
Y-55857D01*
G01X-274167Y-85892D02*
Y-83392D01*
X-274833D01*
X-275047Y-83517D01*
X-275180Y-83684D01*
X-275233Y-84017D01*
X-275180Y-84350D01*
X-275020Y-84559D01*
X-274833Y-84684D01*
X-274167D01*
G01X-274833D02*
X-275233Y-85892D01*
G01X-276900D02*
Y-83392D01*
X-276580Y-83892D01*
G01Y-85892D02*
X-277220D01*
G01X-275287Y-33956D02*
X-275127Y-33831D01*
X-274940Y-33748D01*
X-274727D01*
X-274487Y-33873D01*
X-274300Y-34081D01*
X-274167Y-34331D01*
X-274060Y-34748D01*
X-274033Y-35123D01*
X-274087Y-35498D01*
X-274167Y-35748D01*
X-274327Y-35998D01*
X-274513Y-36165D01*
X-274700Y-36248D01*
X-274887D01*
X-275073Y-36165D01*
X-275233Y-36040D01*
X-275367Y-35873D01*
G01X-276900Y-36248D02*
Y-33748D01*
X-276580Y-34248D01*
G01Y-36248D02*
X-277220D01*
G01X-271458Y-11205D02*
X-271333Y-11365D01*
X-271250Y-11552D01*
Y-11765D01*
X-271375Y-12005D01*
X-271583Y-12192D01*
X-271833Y-12325D01*
X-272250Y-12432D01*
X-272625Y-12459D01*
X-273000Y-12405D01*
X-273250Y-12325D01*
X-273500Y-12165D01*
X-273667Y-11979D01*
X-273750Y-11792D01*
Y-11605D01*
X-273667Y-11419D01*
X-273542Y-11259D01*
X-273375Y-11125D01*
G01X-273750Y-9272D02*
X-271250D01*
X-273042Y-10259D01*
Y-8925D01*
G01X-272708Y-7899D02*
X-272417Y-7712D01*
X-272250Y-7552D01*
X-272167Y-7339D01*
X-272250Y-7152D01*
X-272417Y-7019D01*
X-272667Y-6912D01*
X-272958Y-6885D01*
X-273208Y-6912D01*
X-273458Y-7019D01*
X-273667Y-7179D01*
X-273750Y-7365D01*
X-273667Y-7579D01*
X-273417Y-7765D01*
X-273042Y-7872D01*
X-272625Y-7899D01*
X-272083Y-7845D01*
X-271792Y-7765D01*
X-271500Y-7632D01*
X-271292Y-7445D01*
X-271250Y-7259D01*
X-271333Y-7072D01*
X-271542Y-6939D01*
G01X-188900Y10000D02*
Y11700D01*
X-274100D01*
Y10000D01*
X-274650D01*
Y49000D01*
X-274100D01*
Y47300D01*
X-188900D01*
Y49000D01*
X-188350D01*
Y10000D01*
X-188900D01*
Y3300D01*
X-192150D01*
Y9200D01*
G01X-276452Y28733D02*
X-278244D01*
X-278619Y28840D01*
X-278869Y29053D01*
X-278952Y29320D01*
X-278869Y29587D01*
X-278619Y29800D01*
X-278244Y29907D01*
X-276452D01*
G01X-278952Y31520D02*
X-276452D01*
X-276952Y31200D01*
G01X-278952D02*
Y31840D01*
G01X-276869Y33213D02*
X-276619Y33373D01*
X-276494Y33560D01*
X-276452Y33773D01*
X-276535Y34040D01*
X-276744Y34227D01*
X-276994Y34280D01*
X-277244Y34253D01*
X-277452Y34147D01*
X-277869Y33613D01*
X-278160Y33373D01*
X-278577Y33213D01*
X-278952Y33160D01*
Y34280D01*
G01X-273020Y112312D02*
Y171368D01*
X-213964D01*
Y112312D01*
X-273020D01*
G01X-276270Y119285D02*
X-276110Y119035D01*
X-275923Y118910D01*
X-275710Y118868D01*
X-275443Y118951D01*
X-275256Y119160D01*
X-275203Y119410D01*
X-275230Y119660D01*
X-275336Y119868D01*
X-275870Y120285D01*
X-276110Y120576D01*
X-276270Y120993D01*
X-276323Y121368D01*
X-275203D01*
G01X-275443Y127667D02*
Y125167D01*
X-276430Y126959D01*
X-275096D01*
G01X-276270Y132924D02*
X-276083Y132633D01*
X-275923Y132466D01*
X-275710Y132383D01*
X-275523Y132466D01*
X-275390Y132633D01*
X-275283Y132883D01*
X-275256Y133174D01*
X-275283Y133424D01*
X-275390Y133674D01*
X-275550Y133883D01*
X-275736Y133966D01*
X-275950Y133883D01*
X-276136Y133633D01*
X-276243Y133258D01*
X-276270Y132841D01*
X-276216Y132299D01*
X-276136Y132008D01*
X-276003Y131716D01*
X-275816Y131508D01*
X-275630Y131466D01*
X-275443Y131549D01*
X-275310Y131758D01*
G01X-275763Y140265D02*
X-275576Y140223D01*
X-275363Y140098D01*
X-275230Y139890D01*
X-275176Y139598D01*
X-275230Y139307D01*
X-275390Y139057D01*
X-275630Y138932D01*
X-275896D01*
X-276056Y138848D01*
X-276190Y138640D01*
X-276243Y138348D01*
X-276163Y138057D01*
X-275976Y137848D01*
X-275763Y137765D01*
X-275550Y137848D01*
X-275363Y138057D01*
X-275283Y138348D01*
X-275336Y138640D01*
X-275470Y138848D01*
X-275630Y138932D01*
X-275896D01*
X-276136Y139057D01*
X-276296Y139307D01*
X-276350Y139598D01*
X-276296Y139890D01*
X-276163Y140098D01*
X-275950Y140223D01*
X-275763Y140265D01*
G01X-278912Y146564D02*
Y144064D01*
X-279232Y144564D01*
G01Y146564D02*
X-278592D01*
G01X-276712Y144064D02*
X-276925Y144147D01*
X-277085Y144356D01*
X-277192Y144606D01*
X-277272Y144939D01*
X-277299Y145314D01*
X-277272Y145689D01*
X-277192Y146022D01*
X-277085Y146272D01*
X-276925Y146481D01*
X-276712Y146564D01*
X-276499Y146481D01*
X-276339Y146272D01*
X-276232Y146022D01*
X-276152Y145689D01*
X-276125Y145314D01*
X-276152Y144939D01*
X-276232Y144606D01*
X-276339Y144356D01*
X-276499Y144147D01*
X-276712Y144064D01*
G01X-278912Y152864D02*
Y150364D01*
X-279232Y150864D01*
G01Y152864D02*
X-278592D01*
G01X-277219Y150781D02*
X-277059Y150531D01*
X-276872Y150406D01*
X-276659Y150364D01*
X-276392Y150447D01*
X-276205Y150656D01*
X-276152Y150906D01*
X-276179Y151156D01*
X-276285Y151364D01*
X-276819Y151781D01*
X-277059Y152072D01*
X-277219Y152489D01*
X-277272Y152864D01*
X-276152D01*
G01X-278912Y159163D02*
Y156663D01*
X-279232Y157163D01*
G01Y159163D02*
X-278592D01*
G01X-276392D02*
Y156663D01*
X-277379Y158455D01*
X-276045D01*
G01X-278912Y165462D02*
Y162962D01*
X-279232Y163462D01*
G01Y165462D02*
X-278592D01*
G01X-277219Y164420D02*
X-277032Y164129D01*
X-276872Y163962D01*
X-276659Y163879D01*
X-276472Y163962D01*
X-276339Y164129D01*
X-276232Y164379D01*
X-276205Y164670D01*
X-276232Y164920D01*
X-276339Y165170D01*
X-276499Y165379D01*
X-276685Y165462D01*
X-276899Y165379D01*
X-277085Y165129D01*
X-277192Y164754D01*
X-277219Y164337D01*
X-277165Y163795D01*
X-277085Y163504D01*
X-276952Y163212D01*
X-276765Y163004D01*
X-276579Y162962D01*
X-276392Y163045D01*
X-276259Y163254D01*
G01X-272225Y175860D02*
Y174068D01*
X-272332Y173693D01*
X-272545Y173443D01*
X-272812Y173360D01*
X-273079Y173443D01*
X-273292Y173693D01*
X-273399Y174068D01*
Y175860D01*
G01X-275012Y173360D02*
Y175860D01*
X-274692Y175360D01*
G01Y173360D02*
X-275332D01*
G01X-276625Y173860D02*
X-276785Y173568D01*
X-276999Y173402D01*
X-277239Y173360D01*
X-277452Y173402D01*
X-277665Y173610D01*
X-277799Y173860D01*
X-277825Y174110D01*
X-277772Y174402D01*
X-277585Y174610D01*
X-277399Y174693D01*
X-277159D01*
G01X-277399D02*
X-277559Y174818D01*
X-277692Y175027D01*
X-277745Y175277D01*
X-277692Y175527D01*
X-277559Y175735D01*
X-277319Y175860D01*
X-277079Y175818D01*
X-276839Y175652D01*
G01X-266287Y-85892D02*
Y-83392D01*
X-266953D01*
X-267167Y-83517D01*
X-267300Y-83684D01*
X-267353Y-84017D01*
X-267300Y-84350D01*
X-267140Y-84559D01*
X-266953Y-84684D01*
X-266287D01*
G01X-266953D02*
X-267353Y-85892D01*
G01X-269340D02*
Y-83392D01*
X-268353Y-85184D01*
X-269687D01*
G01X-256400Y-57400D02*
Y-75600D01*
X-270600D01*
Y-57400D01*
X-256400D01*
Y-56500D01*
X-248850D01*
Y-61500D01*
X-256400D01*
G01X-270051Y107844D02*
Y109636D01*
X-269944Y110011D01*
X-269731Y110261D01*
X-269464Y110344D01*
X-269197Y110261D01*
X-268984Y110011D01*
X-268877Y109636D01*
Y107844D01*
G01X-266314Y173986D02*
Y176486D01*
G01X-266927Y173986D02*
X-265701D01*
G01X-258739Y-83600D02*
X-258579Y-83475D01*
X-258392Y-83392D01*
X-258179D01*
X-257939Y-83517D01*
X-257752Y-83725D01*
X-257619Y-83975D01*
X-257512Y-84392D01*
X-257485Y-84767D01*
X-257539Y-85142D01*
X-257619Y-85392D01*
X-257779Y-85642D01*
X-257965Y-85809D01*
X-258152Y-85892D01*
X-258339D01*
X-258525Y-85809D01*
X-258685Y-85684D01*
X-258819Y-85517D01*
G01X-259899Y-85600D02*
X-260085Y-85809D01*
X-260299Y-85892D01*
X-260512Y-85809D01*
X-260699Y-85559D01*
X-260832Y-85184D01*
X-260885Y-84809D01*
Y-84350D01*
X-260832Y-83975D01*
X-260699Y-83642D01*
X-260539Y-83475D01*
X-260352Y-83392D01*
X-260139Y-83475D01*
X-259979Y-83642D01*
X-259872Y-83892D01*
X-259819Y-84225D01*
X-259872Y-84517D01*
X-260005Y-84809D01*
X-260165Y-84975D01*
X-260352Y-85017D01*
X-260565Y-84934D01*
X-260725Y-84725D01*
X-260885Y-84350D01*
G01X-257478Y110344D02*
Y107844D01*
X-256252Y110344D01*
Y107844D01*
G01X-263697Y110344D02*
Y107844D01*
X-263031D01*
X-262817Y107969D01*
X-262684Y108136D01*
X-262631Y108469D01*
X-262684Y108802D01*
X-262844Y109011D01*
X-263031Y109136D01*
X-263697D01*
G01X-263031D02*
X-262631Y110344D01*
G01X-260548Y176486D02*
Y173986D01*
X-259908D01*
X-259695Y174111D01*
X-259535Y174403D01*
X-259482Y174736D01*
X-259535Y175069D01*
X-259668Y175319D01*
X-259908Y175444D01*
X-260548D01*
G01X-248109Y-77876D02*
Y-79668D01*
X-248216Y-80043D01*
X-248429Y-80293D01*
X-248696Y-80376D01*
X-248963Y-80293D01*
X-249176Y-80043D01*
X-249283Y-79668D01*
Y-77876D01*
G01X-250896Y-80376D02*
Y-77876D01*
X-250576Y-78376D01*
G01Y-80376D02*
X-251216D01*
G01X-244500Y-50900D02*
Y-46100D01*
X-249500D01*
Y-50900D01*
X-244500D01*
G01Y-42400D02*
Y-37600D01*
X-249500D01*
Y-42400D01*
X-244500D01*
G01X-244957Y-26792D02*
Y-24292D01*
X-245491D01*
X-245704Y-24417D01*
X-245864Y-24584D01*
X-245997Y-24834D01*
X-246104Y-25125D01*
X-246131Y-25542D01*
X-246104Y-25959D01*
X-245997Y-26250D01*
X-245864Y-26500D01*
X-245704Y-26667D01*
X-245491Y-26792D01*
X-244957D01*
G01X-247237Y-24709D02*
X-247397Y-24459D01*
X-247584Y-24334D01*
X-247797Y-24292D01*
X-248064Y-24375D01*
X-248251Y-24584D01*
X-248304Y-24834D01*
X-248277Y-25084D01*
X-248171Y-25292D01*
X-247637Y-25709D01*
X-247397Y-26000D01*
X-247237Y-26417D01*
X-247184Y-26792D01*
X-248304D01*
G01X-252000Y-34500D02*
Y-35000D01*
X-241000D01*
Y-34500D01*
G01Y-28500D02*
Y-28000D01*
X-252000D01*
Y-28500D01*
G01X-245011Y-18412D02*
X-245144Y-18662D01*
X-245304Y-18829D01*
X-245491Y-18912D01*
X-245704Y-18829D01*
X-245864Y-18662D01*
X-246024Y-18412D01*
X-246077Y-18079D01*
Y-16412D01*
G01X-247744Y-18912D02*
Y-16412D01*
X-247424Y-16912D01*
G01Y-18912D02*
X-248064D01*
G01X-248250Y-12325D02*
X-245750D01*
Y-11659D01*
X-245875Y-11445D01*
X-246042Y-11312D01*
X-246375Y-11259D01*
X-246708Y-11312D01*
X-246917Y-11472D01*
X-247042Y-11659D01*
Y-12325D01*
G01Y-11659D02*
X-248250Y-11259D01*
G01Y-9272D02*
X-245750D01*
X-247542Y-10259D01*
Y-8925D01*
G01X-247875Y-7979D02*
X-248083Y-7819D01*
X-248208Y-7632D01*
X-248250Y-7392D01*
X-248167Y-7152D01*
X-248000Y-6965D01*
X-247708Y-6832D01*
X-247375Y-6805D01*
X-247042Y-6859D01*
X-246833Y-6992D01*
X-246667Y-7179D01*
X-246625Y-7365D01*
X-246667Y-7552D01*
X-246833Y-7792D01*
X-245750Y-7712D01*
Y-6992D01*
G01X-251099Y107844D02*
Y110344D01*
X-250033D01*
G01X-248003Y176486D02*
Y173986D01*
G01X-246989D02*
X-248003Y175528D01*
G01X-246829Y176486D02*
X-247549Y174819D01*
G01X-254409Y176486D02*
Y173986D01*
X-253716Y176069D01*
X-253023Y173986D01*
Y176486D01*
G01X-242191Y-53656D02*
X-242031Y-53531D01*
X-241844Y-53448D01*
X-241631D01*
X-241391Y-53573D01*
X-241204Y-53781D01*
X-241071Y-54031D01*
X-240964Y-54448D01*
X-240937Y-54823D01*
X-240991Y-55198D01*
X-241071Y-55448D01*
X-241231Y-55698D01*
X-241417Y-55865D01*
X-241604Y-55948D01*
X-241791D01*
X-241977Y-55865D01*
X-242137Y-55740D01*
X-242271Y-55573D01*
G01X-243217D02*
X-243377Y-55781D01*
X-243564Y-55906D01*
X-243804Y-55948D01*
X-244044Y-55865D01*
X-244231Y-55698D01*
X-244364Y-55406D01*
X-244391Y-55073D01*
X-244337Y-54740D01*
X-244204Y-54531D01*
X-244017Y-54365D01*
X-243831Y-54323D01*
X-243644Y-54365D01*
X-243404Y-54531D01*
X-243484Y-53448D01*
X-244204D01*
G01X-245000Y-31500D02*
X-247500Y-29000D01*
Y-34000D01*
X-245000Y-31500D01*
G01Y-29000D02*
Y-34000D01*
G01X-232300Y-13800D02*
Y-22250D01*
X-242750D01*
Y-13800D01*
X-224250D01*
Y-22250D01*
X-232300D01*
G01X-244800Y109844D02*
X-244667Y110094D01*
X-244507Y110261D01*
X-244320Y110344D01*
X-244107Y110261D01*
X-243947Y110094D01*
X-243787Y109844D01*
X-243734Y109511D01*
Y107844D01*
G01X-241677Y176486D02*
Y173986D01*
G01X-240557D02*
Y176486D01*
G01Y175236D02*
X-241677D01*
G01X-234311Y-48928D02*
X-234151Y-48803D01*
X-233964Y-48720D01*
X-233751D01*
X-233511Y-48845D01*
X-233324Y-49053D01*
X-233191Y-49303D01*
X-233084Y-49720D01*
X-233057Y-50095D01*
X-233111Y-50470D01*
X-233191Y-50720D01*
X-233351Y-50970D01*
X-233537Y-51137D01*
X-233724Y-51220D01*
X-233911D01*
X-234097Y-51137D01*
X-234257Y-51012D01*
X-234391Y-50845D01*
G01X-235417Y-50178D02*
X-235604Y-49887D01*
X-235764Y-49720D01*
X-235977Y-49637D01*
X-236164Y-49720D01*
X-236297Y-49887D01*
X-236404Y-50137D01*
X-236431Y-50428D01*
X-236404Y-50678D01*
X-236297Y-50928D01*
X-236137Y-51137D01*
X-235951Y-51220D01*
X-235737Y-51137D01*
X-235551Y-50887D01*
X-235444Y-50512D01*
X-235417Y-50095D01*
X-235471Y-49553D01*
X-235551Y-49262D01*
X-235684Y-48970D01*
X-235871Y-48762D01*
X-236057Y-48720D01*
X-236244Y-48803D01*
X-236377Y-49012D01*
G01X-234311Y-41048D02*
X-234151Y-40923D01*
X-233964Y-40840D01*
X-233751D01*
X-233511Y-40965D01*
X-233324Y-41173D01*
X-233191Y-41423D01*
X-233084Y-41840D01*
X-233057Y-42215D01*
X-233111Y-42590D01*
X-233191Y-42840D01*
X-233351Y-43090D01*
X-233537Y-43257D01*
X-233724Y-43340D01*
X-233911D01*
X-234097Y-43257D01*
X-234257Y-43132D01*
X-234391Y-42965D01*
G01X-236244Y-43340D02*
Y-40840D01*
X-235257Y-42632D01*
X-236591D01*
G01X-230458Y-11205D02*
X-230333Y-11365D01*
X-230250Y-11552D01*
Y-11765D01*
X-230375Y-12005D01*
X-230583Y-12192D01*
X-230833Y-12325D01*
X-231250Y-12432D01*
X-231625Y-12459D01*
X-232000Y-12405D01*
X-232250Y-12325D01*
X-232500Y-12165D01*
X-232667Y-11979D01*
X-232750Y-11792D01*
Y-11605D01*
X-232667Y-11419D01*
X-232542Y-11259D01*
X-232375Y-11125D01*
G01X-232750Y-9272D02*
X-230250D01*
X-232042Y-10259D01*
Y-8925D01*
G01X-232750Y-7445D02*
X-232208Y-7392D01*
X-231750Y-7312D01*
X-231333Y-7205D01*
X-230875Y-7072D01*
X-230250Y-6859D01*
Y-7925D01*
G01X-231135Y110344D02*
X-232201D01*
Y107844D01*
X-231135D01*
G01X-231561Y109052D02*
X-232201D01*
G01X-237808Y109094D02*
X-237275D01*
Y109844D01*
X-237435Y110094D01*
X-237621Y110261D01*
X-237888Y110344D01*
X-238155Y110261D01*
X-238341Y110094D01*
X-238501Y109844D01*
X-238608Y109552D01*
X-238661Y109219D01*
Y108927D01*
X-238608Y108677D01*
X-238501Y108386D01*
X-238341Y108136D01*
X-238181Y107969D01*
X-237968Y107844D01*
X-237781D01*
X-237568Y107927D01*
X-237408Y108094D01*
G01X-235325Y176486D02*
Y173986D01*
X-234311D01*
G01X-234685Y175194D02*
X-235325D01*
G01X-230515Y223004D02*
Y225504D01*
X-231181D01*
X-231395Y225379D01*
X-231528Y225212D01*
X-231581Y224879D01*
X-231528Y224546D01*
X-231368Y224337D01*
X-231181Y224212D01*
X-230515D01*
G01X-231181D02*
X-231581Y223004D01*
G01X-232635D02*
Y225504D01*
X-233861Y223004D01*
Y225504D01*
G01X-234941Y225087D02*
X-235101Y225337D01*
X-235288Y225462D01*
X-235501Y225504D01*
X-235768Y225421D01*
X-235955Y225212D01*
X-236008Y224962D01*
X-235981Y224712D01*
X-235875Y224504D01*
X-235341Y224087D01*
X-235101Y223796D01*
X-234941Y223379D01*
X-234888Y223004D01*
X-236008D01*
G01X-224652Y69307D02*
X-224527Y69147D01*
X-224444Y68960D01*
Y68747D01*
X-224569Y68507D01*
X-224777Y68320D01*
X-225027Y68187D01*
X-225444Y68080D01*
X-225819Y68053D01*
X-226194Y68107D01*
X-226444Y68187D01*
X-226694Y68347D01*
X-226861Y68533D01*
X-226944Y68720D01*
Y68907D01*
X-226861Y69093D01*
X-226736Y69253D01*
X-226569Y69387D01*
G01X-226944Y71240D02*
X-224444D01*
X-226236Y70253D01*
Y71587D01*
G01X-226652Y72667D02*
X-226861Y72853D01*
X-226944Y73067D01*
X-226861Y73280D01*
X-226611Y73467D01*
X-226236Y73600D01*
X-225861Y73653D01*
X-225402D01*
X-225027Y73600D01*
X-224694Y73467D01*
X-224527Y73307D01*
X-224444Y73120D01*
X-224527Y72907D01*
X-224694Y72747D01*
X-224944Y72640D01*
X-225277Y72587D01*
X-225569Y72640D01*
X-225861Y72773D01*
X-226027Y72933D01*
X-226069Y73120D01*
X-225986Y73333D01*
X-225777Y73493D01*
X-225402Y73653D01*
G01X-224782Y108052D02*
X-224942Y107927D01*
X-225129Y107844D01*
X-225342D01*
X-225582Y107969D01*
X-225769Y108177D01*
X-225902Y108427D01*
X-226009Y108844D01*
X-226036Y109219D01*
X-225982Y109594D01*
X-225902Y109844D01*
X-225742Y110094D01*
X-225556Y110261D01*
X-225369Y110344D01*
X-225182D01*
X-224996Y110261D01*
X-224836Y110136D01*
X-224702Y109969D01*
G01X-222007Y175153D02*
X-221900Y175028D01*
X-221820Y174819D01*
X-221767Y174528D01*
X-221820Y174278D01*
X-221927Y174111D01*
X-222113Y173986D01*
X-222833D01*
Y176486D01*
X-221953D01*
X-221767Y176319D01*
X-221660Y176069D01*
X-221607Y175778D01*
X-221660Y175486D01*
X-221820Y175236D01*
X-222007Y175153D01*
X-222833D01*
G01X-229106Y176486D02*
Y173986D01*
X-228572D01*
X-228359Y174111D01*
X-228199Y174278D01*
X-228066Y174528D01*
X-227959Y174819D01*
X-227932Y175236D01*
X-227959Y175653D01*
X-228066Y175944D01*
X-228199Y176194D01*
X-228359Y176361D01*
X-228572Y176486D01*
X-229106D01*
G01X-221292Y179516D02*
X-223792D01*
G01X-221292Y178903D02*
Y180129D01*
G01X-223792Y181183D02*
X-221292D01*
Y181823D01*
X-221417Y182036D01*
X-221709Y182196D01*
X-222042Y182249D01*
X-222375Y182196D01*
X-222625Y182063D01*
X-222750Y181823D01*
Y181183D01*
G01X-221709Y183409D02*
X-221459Y183569D01*
X-221334Y183756D01*
X-221292Y183969D01*
X-221375Y184236D01*
X-221584Y184423D01*
X-221834Y184476D01*
X-222084Y184449D01*
X-222292Y184343D01*
X-222709Y183809D01*
X-223000Y183569D01*
X-223417Y183409D01*
X-223792Y183356D01*
Y184476D01*
G01Y186436D02*
X-221292D01*
X-223084Y185449D01*
Y186783D01*
G01X-217300Y198700D02*
Y190250D01*
X-227750D01*
Y198700D01*
X-209250D01*
Y190250D01*
X-217300D01*
G01X-215013Y-24428D02*
Y-21928D01*
X-215547D01*
X-215760Y-22053D01*
X-215920Y-22220D01*
X-216053Y-22470D01*
X-216160Y-22761D01*
X-216187Y-23178D01*
X-216160Y-23595D01*
X-216053Y-23886D01*
X-215920Y-24136D01*
X-215760Y-24303D01*
X-215547Y-24428D01*
X-215013D01*
G01X-217800D02*
Y-21928D01*
X-217480Y-22428D01*
G01Y-24428D02*
X-218120D01*
G01X-214458Y-11205D02*
X-214333Y-11365D01*
X-214250Y-11552D01*
Y-11765D01*
X-214375Y-12005D01*
X-214583Y-12192D01*
X-214833Y-12325D01*
X-215250Y-12432D01*
X-215625Y-12459D01*
X-216000Y-12405D01*
X-216250Y-12325D01*
X-216500Y-12165D01*
X-216667Y-11979D01*
X-216750Y-11792D01*
Y-11605D01*
X-216667Y-11419D01*
X-216542Y-11259D01*
X-216375Y-11125D01*
G01X-216750Y-9272D02*
X-214250D01*
X-216042Y-10259D01*
Y-8925D01*
G01X-216750Y-7392D02*
X-216708Y-7205D01*
X-216583Y-6992D01*
X-216375Y-6859D01*
X-216083Y-6805D01*
X-215792Y-6859D01*
X-215542Y-7019D01*
X-215417Y-7259D01*
Y-7525D01*
X-215333Y-7685D01*
X-215125Y-7819D01*
X-214833Y-7872D01*
X-214542Y-7792D01*
X-214333Y-7605D01*
X-214250Y-7392D01*
X-214333Y-7179D01*
X-214542Y-6992D01*
X-214833Y-6912D01*
X-215125Y-6965D01*
X-215333Y-7099D01*
X-215417Y-7259D01*
Y-7525D01*
X-215542Y-7765D01*
X-215792Y-7925D01*
X-216083Y-7979D01*
X-216375Y-7925D01*
X-216583Y-7792D01*
X-216708Y-7579D01*
X-216750Y-7392D01*
G01X-218276Y94191D02*
X-215776D01*
Y94857D01*
X-215901Y95071D01*
X-216068Y95204D01*
X-216401Y95257D01*
X-216734Y95204D01*
X-216943Y95044D01*
X-217068Y94857D01*
Y94191D01*
G01Y94857D02*
X-218276Y95257D01*
G01X-217234Y96417D02*
X-216943Y96604D01*
X-216776Y96764D01*
X-216693Y96977D01*
X-216776Y97164D01*
X-216943Y97297D01*
X-217193Y97404D01*
X-217484Y97431D01*
X-217734Y97404D01*
X-217984Y97297D01*
X-218193Y97137D01*
X-218276Y96951D01*
X-218193Y96737D01*
X-217943Y96551D01*
X-217568Y96444D01*
X-217151Y96417D01*
X-216609Y96471D01*
X-216318Y96551D01*
X-216026Y96684D01*
X-215818Y96871D01*
X-215776Y97057D01*
X-215859Y97244D01*
X-216068Y97377D01*
G01X-217901Y98537D02*
X-218109Y98697D01*
X-218234Y98884D01*
X-218276Y99124D01*
X-218193Y99364D01*
X-218026Y99551D01*
X-217734Y99684D01*
X-217401Y99711D01*
X-217068Y99657D01*
X-216859Y99524D01*
X-216693Y99337D01*
X-216651Y99151D01*
X-216693Y98964D01*
X-216859Y98724D01*
X-215776Y98804D01*
Y99524D01*
G01X-218162Y110344D02*
X-217495Y107844D01*
X-216828Y110344D01*
G01X-217068Y109469D02*
X-217922D01*
G01X-213964Y117234D02*
X-212980D01*
Y111328D01*
X-218886D01*
Y112312D01*
G01X-216564Y179516D02*
X-219064D01*
G01X-216564Y178903D02*
Y180129D01*
G01X-219064Y181183D02*
X-216564D01*
Y181823D01*
X-216689Y182036D01*
X-216981Y182196D01*
X-217314Y182249D01*
X-217647Y182196D01*
X-217897Y182063D01*
X-218022Y181823D01*
Y181183D01*
G01X-218689Y183329D02*
X-218897Y183489D01*
X-219022Y183676D01*
X-219064Y183916D01*
X-218981Y184156D01*
X-218814Y184343D01*
X-218522Y184476D01*
X-218189Y184503D01*
X-217856Y184449D01*
X-217647Y184316D01*
X-217481Y184129D01*
X-217439Y183943D01*
X-217481Y183756D01*
X-217647Y183516D01*
X-216564Y183596D01*
Y184316D01*
G01Y186116D02*
X-216647Y185903D01*
X-216856Y185743D01*
X-217106Y185636D01*
X-217439Y185556D01*
X-217814Y185529D01*
X-218189Y185556D01*
X-218522Y185636D01*
X-218772Y185743D01*
X-218981Y185903D01*
X-219064Y186116D01*
X-218981Y186329D01*
X-218772Y186489D01*
X-218522Y186596D01*
X-218189Y186676D01*
X-217814Y186703D01*
X-217439Y186676D01*
X-217106Y186596D01*
X-216856Y186489D01*
X-216647Y186329D01*
X-216564Y186116D01*
G01X-215543Y200652D02*
X-215676Y200402D01*
X-215836Y200235D01*
X-216023Y200152D01*
X-216236Y200235D01*
X-216396Y200402D01*
X-216556Y200652D01*
X-216609Y200985D01*
Y202652D01*
G01X-218276Y200152D02*
Y202652D01*
X-217956Y202152D01*
G01Y200152D02*
X-218596D01*
G01X-219889Y200652D02*
X-220049Y200360D01*
X-220263Y200194D01*
X-220503Y200152D01*
X-220716Y200194D01*
X-220929Y200402D01*
X-221063Y200652D01*
X-221089Y200902D01*
X-221036Y201194D01*
X-220849Y201402D01*
X-220663Y201485D01*
X-220423D01*
G01X-220663D02*
X-220823Y201610D01*
X-220956Y201819D01*
X-221009Y202069D01*
X-220956Y202319D01*
X-220823Y202527D01*
X-220583Y202652D01*
X-220343Y202610D01*
X-220103Y202444D01*
G01X-219000Y224000D02*
X-218900D01*
Y220450D01*
X-222000D01*
Y220500D01*
G01X-206500Y-76406D02*
X-209000D01*
X-208500Y-76086D01*
G01X-206500D02*
Y-76726D01*
G01X-207542Y-50499D02*
X-207833Y-50686D01*
X-208000Y-50846D01*
X-208083Y-51059D01*
X-208000Y-51246D01*
X-207833Y-51379D01*
X-207583Y-51486D01*
X-207292Y-51513D01*
X-207042Y-51486D01*
X-206792Y-51379D01*
X-206583Y-51219D01*
X-206500Y-51033D01*
X-206583Y-50819D01*
X-206833Y-50633D01*
X-207208Y-50526D01*
X-207625Y-50499D01*
X-208167Y-50553D01*
X-208458Y-50633D01*
X-208750Y-50766D01*
X-208958Y-50953D01*
X-209000Y-51139D01*
X-208917Y-51326D01*
X-208708Y-51459D01*
G01X-205740Y69307D02*
X-205615Y69147D01*
X-205532Y68960D01*
Y68747D01*
X-205657Y68507D01*
X-205865Y68320D01*
X-206115Y68187D01*
X-206532Y68080D01*
X-206907Y68053D01*
X-207282Y68107D01*
X-207532Y68187D01*
X-207782Y68347D01*
X-207949Y68533D01*
X-208032Y68720D01*
Y68907D01*
X-207949Y69093D01*
X-207824Y69253D01*
X-207657Y69387D01*
G01Y70333D02*
X-207865Y70493D01*
X-207990Y70680D01*
X-208032Y70920D01*
X-207949Y71160D01*
X-207782Y71347D01*
X-207490Y71480D01*
X-207157Y71507D01*
X-206824Y71453D01*
X-206615Y71320D01*
X-206449Y71133D01*
X-206407Y70947D01*
X-206449Y70760D01*
X-206615Y70520D01*
X-205532Y70600D01*
Y71320D01*
G01Y73120D02*
X-205615Y72907D01*
X-205824Y72747D01*
X-206074Y72640D01*
X-206407Y72560D01*
X-206782Y72533D01*
X-207157Y72560D01*
X-207490Y72640D01*
X-207740Y72747D01*
X-207949Y72907D01*
X-208032Y73120D01*
X-207949Y73333D01*
X-207740Y73493D01*
X-207490Y73600D01*
X-207157Y73680D01*
X-206782Y73707D01*
X-206407Y73680D01*
X-206074Y73600D01*
X-205824Y73493D01*
X-205615Y73333D01*
X-205532Y73120D01*
G01X-212760Y94191D02*
X-210260D01*
Y94857D01*
X-210385Y95071D01*
X-210552Y95204D01*
X-210885Y95257D01*
X-211218Y95204D01*
X-211427Y95044D01*
X-211552Y94857D01*
Y94191D01*
G01Y94857D02*
X-212760Y95257D01*
G01X-211718Y96417D02*
X-211427Y96604D01*
X-211260Y96764D01*
X-211177Y96977D01*
X-211260Y97164D01*
X-211427Y97297D01*
X-211677Y97404D01*
X-211968Y97431D01*
X-212218Y97404D01*
X-212468Y97297D01*
X-212677Y97137D01*
X-212760Y96951D01*
X-212677Y96737D01*
X-212427Y96551D01*
X-212052Y96444D01*
X-211635Y96417D01*
X-211093Y96471D01*
X-210802Y96551D01*
X-210510Y96684D01*
X-210302Y96871D01*
X-210260Y97057D01*
X-210343Y97244D01*
X-210552Y97377D01*
G01X-212760Y99444D02*
X-210260D01*
X-212052Y98457D01*
Y99791D01*
G01X-211196Y116643D02*
Y114143D01*
X-211516Y114643D01*
G01Y116643D02*
X-210876D01*
G01X-211783Y124017D02*
X-211623Y124309D01*
X-211409Y124475D01*
X-211169Y124517D01*
X-210956Y124475D01*
X-210743Y124267D01*
X-210609Y124017D01*
X-210583Y123767D01*
X-210636Y123475D01*
X-210823Y123267D01*
X-211009Y123184D01*
X-211249D01*
G01X-211009D02*
X-210849Y123059D01*
X-210716Y122850D01*
X-210663Y122600D01*
X-210716Y122350D01*
X-210849Y122142D01*
X-211089Y122017D01*
X-211329Y122059D01*
X-211569Y122225D01*
G01X-211783Y130441D02*
X-211623Y130649D01*
X-211436Y130774D01*
X-211196Y130816D01*
X-210956Y130733D01*
X-210769Y130566D01*
X-210636Y130274D01*
X-210609Y129941D01*
X-210663Y129608D01*
X-210796Y129399D01*
X-210983Y129233D01*
X-211169Y129191D01*
X-211356Y129233D01*
X-211596Y129399D01*
X-211516Y128316D01*
X-210796D01*
G01X-211249Y137116D02*
X-211196Y136574D01*
X-211116Y136116D01*
X-211009Y135699D01*
X-210876Y135241D01*
X-210663Y134616D01*
X-211729D01*
G01X-211196Y149714D02*
Y147214D01*
X-211516Y147714D01*
G01Y149714D02*
X-210876D01*
G01X-208996D02*
Y147214D01*
X-209316Y147714D01*
G01Y149714D02*
X-208676D01*
G01X-211649Y143123D02*
X-211463Y143332D01*
X-211249Y143415D01*
X-211036Y143332D01*
X-210849Y143082D01*
X-210716Y142707D01*
X-210663Y142332D01*
Y141873D01*
X-210716Y141498D01*
X-210849Y141165D01*
X-211009Y140998D01*
X-211196Y140915D01*
X-211409Y140998D01*
X-211569Y141165D01*
X-211676Y141415D01*
X-211729Y141748D01*
X-211676Y142040D01*
X-211543Y142332D01*
X-211383Y142498D01*
X-211196Y142540D01*
X-210983Y142457D01*
X-210823Y142248D01*
X-210663Y141873D01*
G01X-211196Y156013D02*
Y153513D01*
X-211516Y154013D01*
G01Y156013D02*
X-210876D01*
G01X-209583Y155513D02*
X-209423Y155805D01*
X-209209Y155971D01*
X-208969Y156013D01*
X-208756Y155971D01*
X-208543Y155763D01*
X-208409Y155513D01*
X-208383Y155263D01*
X-208436Y154971D01*
X-208623Y154763D01*
X-208809Y154680D01*
X-209049D01*
G01X-208809D02*
X-208649Y154555D01*
X-208516Y154346D01*
X-208463Y154096D01*
X-208516Y153846D01*
X-208649Y153638D01*
X-208889Y153513D01*
X-209129Y153555D01*
X-209369Y153721D01*
G01X-211196Y162312D02*
Y159812D01*
X-211516Y160312D01*
G01Y162312D02*
X-210876D01*
G01X-209583Y161937D02*
X-209423Y162145D01*
X-209236Y162270D01*
X-208996Y162312D01*
X-208756Y162229D01*
X-208569Y162062D01*
X-208436Y161770D01*
X-208409Y161437D01*
X-208463Y161104D01*
X-208596Y160895D01*
X-208783Y160729D01*
X-208969Y160687D01*
X-209156Y160729D01*
X-209396Y160895D01*
X-209316Y159812D01*
X-208596D01*
G01X-211196Y168612D02*
Y166112D01*
X-211516Y166612D01*
G01Y168612D02*
X-210876D01*
G01X-209049D02*
X-208996Y168070D01*
X-208916Y167612D01*
X-208809Y167195D01*
X-208676Y166737D01*
X-208463Y166112D01*
X-209529D01*
G01X-205300Y-46006D02*
X-184100D01*
Y-82006D01*
X-205300D01*
Y-46006D01*
G01X-198576Y-41033D02*
X-196076D01*
Y-40367D01*
X-196201Y-40153D01*
X-196368Y-40020D01*
X-196701Y-39967D01*
X-197034Y-40020D01*
X-197243Y-40180D01*
X-197368Y-40367D01*
Y-41033D01*
G01Y-40367D02*
X-198576Y-39967D01*
G01X-198284Y-38753D02*
X-198493Y-38567D01*
X-198576Y-38353D01*
X-198493Y-38140D01*
X-198243Y-37953D01*
X-197868Y-37820D01*
X-197493Y-37767D01*
X-197034D01*
X-196659Y-37820D01*
X-196326Y-37953D01*
X-196159Y-38113D01*
X-196076Y-38300D01*
X-196159Y-38513D01*
X-196326Y-38673D01*
X-196576Y-38780D01*
X-196909Y-38833D01*
X-197201Y-38780D01*
X-197493Y-38647D01*
X-197659Y-38487D01*
X-197701Y-38300D01*
X-197618Y-38087D01*
X-197409Y-37927D01*
X-197034Y-37767D01*
G01X-195458Y-11205D02*
X-195333Y-11365D01*
X-195250Y-11552D01*
Y-11765D01*
X-195375Y-12005D01*
X-195583Y-12192D01*
X-195833Y-12325D01*
X-196250Y-12432D01*
X-196625Y-12459D01*
X-197000Y-12405D01*
X-197250Y-12325D01*
X-197500Y-12165D01*
X-197667Y-11979D01*
X-197750Y-11792D01*
Y-11605D01*
X-197667Y-11419D01*
X-197542Y-11259D01*
X-197375Y-11125D01*
G01Y-10179D02*
X-197583Y-10019D01*
X-197708Y-9832D01*
X-197750Y-9592D01*
X-197667Y-9352D01*
X-197500Y-9165D01*
X-197208Y-9032D01*
X-196875Y-9005D01*
X-196542Y-9059D01*
X-196333Y-9192D01*
X-196167Y-9379D01*
X-196125Y-9565D01*
X-196167Y-9752D01*
X-196333Y-9992D01*
X-195250Y-9912D01*
Y-9192D01*
G01X-195667Y-7899D02*
X-195417Y-7739D01*
X-195292Y-7552D01*
X-195250Y-7339D01*
X-195333Y-7072D01*
X-195542Y-6885D01*
X-195792Y-6832D01*
X-196042Y-6859D01*
X-196250Y-6965D01*
X-196667Y-7499D01*
X-196958Y-7739D01*
X-197375Y-7899D01*
X-197750Y-7952D01*
Y-6832D01*
G01X-189458Y-11205D02*
X-189333Y-11365D01*
X-189250Y-11552D01*
Y-11765D01*
X-189375Y-12005D01*
X-189583Y-12192D01*
X-189833Y-12325D01*
X-190250Y-12432D01*
X-190625Y-12459D01*
X-191000Y-12405D01*
X-191250Y-12325D01*
X-191500Y-12165D01*
X-191667Y-11979D01*
X-191750Y-11792D01*
Y-11605D01*
X-191667Y-11419D01*
X-191542Y-11259D01*
X-191375Y-11125D01*
G01Y-10179D02*
X-191583Y-10019D01*
X-191708Y-9832D01*
X-191750Y-9592D01*
X-191667Y-9352D01*
X-191500Y-9165D01*
X-191208Y-9032D01*
X-190875Y-9005D01*
X-190542Y-9059D01*
X-190333Y-9192D01*
X-190167Y-9379D01*
X-190125Y-9565D01*
X-190167Y-9752D01*
X-190333Y-9992D01*
X-189250Y-9912D01*
Y-9192D01*
G01X-191250Y-7979D02*
X-191542Y-7819D01*
X-191708Y-7605D01*
X-191750Y-7365D01*
X-191708Y-7152D01*
X-191500Y-6939D01*
X-191250Y-6805D01*
X-191000Y-6779D01*
X-190708Y-6832D01*
X-190500Y-7019D01*
X-190417Y-7205D01*
Y-7445D01*
G01Y-7205D02*
X-190292Y-7045D01*
X-190083Y-6912D01*
X-189833Y-6859D01*
X-189583Y-6912D01*
X-189375Y-7045D01*
X-189250Y-7285D01*
X-189292Y-7525D01*
X-189458Y-7765D01*
G01X-191172Y195424D02*
Y196549D01*
X-190639Y197924D01*
G01X-191705D02*
X-191172Y196549D01*
G01X-192865Y197507D02*
X-193025Y197757D01*
X-193212Y197882D01*
X-193425Y197924D01*
X-193692Y197841D01*
X-193879Y197632D01*
X-193932Y197382D01*
X-193905Y197132D01*
X-193799Y196924D01*
X-193265Y196507D01*
X-193025Y196216D01*
X-192865Y195799D01*
X-192812Y195424D01*
X-193932D01*
G01X-185123Y-43628D02*
X-185256Y-43878D01*
X-185416Y-44045D01*
X-185603Y-44128D01*
X-185816Y-44045D01*
X-185976Y-43878D01*
X-186136Y-43628D01*
X-186189Y-43295D01*
Y-41628D01*
G01X-187269Y-43628D02*
X-187429Y-43920D01*
X-187643Y-44086D01*
X-187883Y-44128D01*
X-188096Y-44086D01*
X-188309Y-43878D01*
X-188443Y-43628D01*
X-188469Y-43378D01*
X-188416Y-43086D01*
X-188229Y-42878D01*
X-188043Y-42795D01*
X-187803D01*
G01X-188043D02*
X-188203Y-42670D01*
X-188336Y-42461D01*
X-188389Y-42211D01*
X-188336Y-41961D01*
X-188203Y-41753D01*
X-187963Y-41628D01*
X-187723Y-41670D01*
X-187483Y-41836D01*
G01X-181200Y75200D02*
X-172750D01*
Y64750D01*
X-181200D01*
Y83250D01*
X-172750D01*
Y75200D01*
G01X-185468Y71339D02*
X-185718Y71472D01*
X-185885Y71632D01*
X-185968Y71819D01*
X-185885Y72032D01*
X-185718Y72192D01*
X-185468Y72352D01*
X-185135Y72405D01*
X-183468D01*
G01X-185968Y74072D02*
X-183468D01*
X-183968Y73752D01*
G01X-185968D02*
Y74392D01*
G01Y76272D02*
X-183468D01*
X-183968Y75952D01*
G01X-185968D02*
Y76592D01*
G01X-184392Y123404D02*
X-183267D01*
X-181892Y122871D01*
G01Y123937D02*
X-183267Y123404D01*
G01X-184392Y125604D02*
X-181892D01*
X-182392Y125284D01*
G01X-184392D02*
Y125924D01*
G01X-170200Y190300D02*
Y198750D01*
X-159750D01*
Y190300D01*
X-178250D01*
Y198750D01*
X-170200D01*
G01X-166999Y201440D02*
X-167132Y201190D01*
X-167292Y201023D01*
X-167479Y200940D01*
X-167692Y201023D01*
X-167852Y201190D01*
X-168012Y201440D01*
X-168065Y201773D01*
Y203440D01*
G01X-170052Y200940D02*
Y203440D01*
X-169065Y201648D01*
X-170399D01*
G01X-161468Y-169718D02*
Y-165718D01*
X-160218D01*
X-159818Y-165918D01*
X-159568Y-166185D01*
X-159468Y-166718D01*
X-159568Y-167251D01*
X-159868Y-167585D01*
X-160218Y-167785D01*
X-161468D01*
G01X-160218D02*
X-159468Y-169718D01*
G01X-156168D02*
X-158168D01*
Y-165718D01*
X-156168D01*
G01X-156968Y-167651D02*
X-158168D01*
G01X-155118Y-165718D02*
X-153868Y-169718D01*
X-152618Y-165718D01*
G01X-150568Y-169851D02*
X-150668Y-169785D01*
Y-169651D01*
X-150568Y-169585D01*
X-150468Y-169651D01*
Y-169785D01*
X-150568Y-169851D01*
G01Y-168051D02*
X-150668Y-167985D01*
Y-167851D01*
X-150568Y-167785D01*
X-150468Y-167851D01*
Y-167985D01*
X-150568Y-168051D01*
G01X-161468Y-169718D02*
Y-165718D01*
X-160218D01*
X-159818Y-165918D01*
X-159568Y-166185D01*
X-159468Y-166718D01*
X-159568Y-167251D01*
X-159868Y-167585D01*
X-160218Y-167785D01*
X-161468D01*
G01X-160218D02*
X-159468Y-169718D01*
G01X-156168D02*
X-158168D01*
Y-165718D01*
X-156168D01*
G01X-156968Y-167651D02*
X-158168D01*
G01X-155118Y-165718D02*
X-153868Y-169718D01*
X-152618Y-165718D01*
G01X-150568Y-169851D02*
X-150668Y-169785D01*
Y-169651D01*
X-150568Y-169585D01*
X-150468Y-169651D01*
Y-169785D01*
X-150568Y-169851D01*
G01Y-168051D02*
X-150668Y-167985D01*
Y-167851D01*
X-150568Y-167785D01*
X-150468Y-167851D01*
Y-167985D01*
X-150568Y-168051D01*
G01X-156134Y-13085D02*
X-156009Y-13245D01*
X-155926Y-13432D01*
Y-13645D01*
X-156051Y-13885D01*
X-156259Y-14072D01*
X-156509Y-14205D01*
X-156926Y-14312D01*
X-157301Y-14339D01*
X-157676Y-14285D01*
X-157926Y-14205D01*
X-158176Y-14045D01*
X-158343Y-13859D01*
X-158426Y-13672D01*
Y-13485D01*
X-158343Y-13299D01*
X-158218Y-13139D01*
X-158051Y-13005D01*
G01X-158426Y-11152D02*
X-155926D01*
X-157718Y-12139D01*
Y-10805D01*
G01X-158051Y-9859D02*
X-158259Y-9699D01*
X-158384Y-9512D01*
X-158426Y-9272D01*
X-158343Y-9032D01*
X-158176Y-8845D01*
X-157884Y-8712D01*
X-157551Y-8685D01*
X-157218Y-8739D01*
X-157009Y-8872D01*
X-156843Y-9059D01*
X-156801Y-9245D01*
X-156843Y-9432D01*
X-157009Y-9672D01*
X-155926Y-9592D01*
Y-8872D01*
G01X-142000Y67000D02*
Y58000D01*
X-162500D01*
Y67000D01*
X-133500D01*
Y58000D01*
X-142000D01*
G01X-149668Y-177968D02*
Y-170468D01*
X-150788Y-171968D01*
G01Y-177968D02*
X-148548D01*
G01X-144035D02*
Y-170468D01*
X-141701D01*
X-140955Y-170843D01*
X-140488Y-171343D01*
X-140301Y-172343D01*
X-140488Y-173343D01*
X-141048Y-173968D01*
X-141701Y-174343D01*
X-144035D01*
G01X-141701D02*
X-140301Y-177968D01*
G01X-134668Y-170468D02*
X-135415Y-170718D01*
X-135975Y-171343D01*
X-136348Y-172093D01*
X-136628Y-173093D01*
X-136721Y-174218D01*
X-136628Y-175343D01*
X-136348Y-176343D01*
X-135975Y-177093D01*
X-135415Y-177718D01*
X-134668Y-177968D01*
X-133921Y-177718D01*
X-133361Y-177093D01*
X-132988Y-176343D01*
X-132708Y-175343D01*
X-132615Y-174218D01*
X-132708Y-173093D01*
X-132988Y-172093D01*
X-133361Y-171343D01*
X-133921Y-170718D01*
X-134668Y-170468D01*
G01X-149668Y-177968D02*
Y-170468D01*
X-150788Y-171968D01*
G01Y-177968D02*
X-148548D01*
G01X-144035D02*
Y-170468D01*
X-141701D01*
X-140955Y-170843D01*
X-140488Y-171343D01*
X-140301Y-172343D01*
X-140488Y-173343D01*
X-141048Y-173968D01*
X-141701Y-174343D01*
X-144035D01*
G01X-141701D02*
X-140301Y-177968D01*
G01X-134668Y-170468D02*
X-135415Y-170718D01*
X-135975Y-171343D01*
X-136348Y-172093D01*
X-136628Y-173093D01*
X-136721Y-174218D01*
X-136628Y-175343D01*
X-136348Y-176343D01*
X-135975Y-177093D01*
X-135415Y-177718D01*
X-134668Y-177968D01*
X-133921Y-177718D01*
X-133361Y-177093D01*
X-132988Y-176343D01*
X-132708Y-175343D01*
X-132615Y-174218D01*
X-132708Y-173093D01*
X-132988Y-172093D01*
X-133361Y-171343D01*
X-133921Y-170718D01*
X-134668Y-170468D01*
G01X-146134Y-13085D02*
X-146009Y-13245D01*
X-145926Y-13432D01*
Y-13645D01*
X-146051Y-13885D01*
X-146259Y-14072D01*
X-146509Y-14205D01*
X-146926Y-14312D01*
X-147301Y-14339D01*
X-147676Y-14285D01*
X-147926Y-14205D01*
X-148176Y-14045D01*
X-148343Y-13859D01*
X-148426Y-13672D01*
Y-13485D01*
X-148343Y-13299D01*
X-148218Y-13139D01*
X-148051Y-13005D01*
G01X-148426Y-11152D02*
X-145926D01*
X-147718Y-12139D01*
Y-10805D01*
G01X-147926Y-9859D02*
X-148218Y-9699D01*
X-148384Y-9485D01*
X-148426Y-9245D01*
X-148384Y-9032D01*
X-148176Y-8819D01*
X-147926Y-8685D01*
X-147676Y-8659D01*
X-147384Y-8712D01*
X-147176Y-8899D01*
X-147093Y-9085D01*
Y-9325D01*
G01Y-9085D02*
X-146968Y-8925D01*
X-146759Y-8792D01*
X-146509Y-8739D01*
X-146259Y-8792D01*
X-146051Y-8925D01*
X-145926Y-9165D01*
X-145968Y-9405D01*
X-146134Y-9645D01*
G01X-147299Y69844D02*
X-147432Y69594D01*
X-147592Y69427D01*
X-147779Y69344D01*
X-147992Y69427D01*
X-148152Y69594D01*
X-148312Y69844D01*
X-148365Y70177D01*
Y71844D01*
G01X-149579Y69636D02*
X-149765Y69427D01*
X-149979Y69344D01*
X-150192Y69427D01*
X-150379Y69677D01*
X-150512Y70052D01*
X-150565Y70427D01*
Y70886D01*
X-150512Y71261D01*
X-150379Y71594D01*
X-150219Y71761D01*
X-150032Y71844D01*
X-149819Y71761D01*
X-149659Y71594D01*
X-149552Y71344D01*
X-149499Y71011D01*
X-149552Y70719D01*
X-149685Y70427D01*
X-149845Y70261D01*
X-150032Y70219D01*
X-150245Y70302D01*
X-150405Y70511D01*
X-150565Y70886D01*
G01X-128000Y180500D02*
Y165500D01*
X-123000D01*
Y163000D01*
X-155000D01*
Y165500D01*
X-150000D01*
Y184500D01*
X-155000D01*
Y187000D01*
X-123000D01*
Y184500D01*
X-122000D01*
Y180500D01*
X-128000D01*
Y184500D01*
X-123000D01*
G01X-136134Y-13085D02*
X-136009Y-13245D01*
X-135926Y-13432D01*
Y-13645D01*
X-136051Y-13885D01*
X-136259Y-14072D01*
X-136509Y-14205D01*
X-136926Y-14312D01*
X-137301Y-14339D01*
X-137676Y-14285D01*
X-137926Y-14205D01*
X-138176Y-14045D01*
X-138343Y-13859D01*
X-138426Y-13672D01*
Y-13485D01*
X-138343Y-13299D01*
X-138218Y-13139D01*
X-138051Y-13005D01*
G01X-138426Y-11152D02*
X-135926D01*
X-137718Y-12139D01*
Y-10805D01*
G01X-138426Y-8952D02*
X-135926D01*
X-137718Y-9939D01*
Y-8605D01*
G01X-135608Y50395D02*
X-135483Y50235D01*
X-135400Y50048D01*
Y49835D01*
X-135525Y49595D01*
X-135733Y49408D01*
X-135983Y49275D01*
X-136400Y49168D01*
X-136775Y49141D01*
X-137150Y49195D01*
X-137400Y49275D01*
X-137650Y49435D01*
X-137817Y49621D01*
X-137900Y49808D01*
Y49995D01*
X-137817Y50181D01*
X-137692Y50341D01*
X-137525Y50475D01*
G01X-137900Y52328D02*
X-135400D01*
X-137192Y51341D01*
Y52675D01*
G01X-137900Y54208D02*
X-135400D01*
X-135900Y53888D01*
G01X-137900D02*
Y54528D01*
G01X-136689Y191620D02*
Y189828D01*
X-136796Y189453D01*
X-137009Y189203D01*
X-137276Y189120D01*
X-137543Y189203D01*
X-137756Y189453D01*
X-137863Y189828D01*
Y191620D01*
G01X-138969Y191203D02*
X-139129Y191453D01*
X-139316Y191578D01*
X-139529Y191620D01*
X-139796Y191537D01*
X-139983Y191328D01*
X-140036Y191078D01*
X-140009Y190828D01*
X-139903Y190620D01*
X-139369Y190203D01*
X-139129Y189912D01*
X-138969Y189495D01*
X-138916Y189120D01*
X-140036D01*
G01X-141169Y190162D02*
X-141356Y190453D01*
X-141516Y190620D01*
X-141729Y190703D01*
X-141916Y190620D01*
X-142049Y190453D01*
X-142156Y190203D01*
X-142183Y189912D01*
X-142156Y189662D01*
X-142049Y189412D01*
X-141889Y189203D01*
X-141703Y189120D01*
X-141489Y189203D01*
X-141303Y189453D01*
X-141196Y189828D01*
X-141169Y190245D01*
X-141223Y190787D01*
X-141303Y191078D01*
X-141436Y191370D01*
X-141623Y191578D01*
X-141809Y191620D01*
X-141996Y191537D01*
X-142129Y191328D01*
G01X-131134Y-13085D02*
X-131009Y-13245D01*
X-130926Y-13432D01*
Y-13645D01*
X-131051Y-13885D01*
X-131259Y-14072D01*
X-131509Y-14205D01*
X-131926Y-14312D01*
X-132301Y-14339D01*
X-132676Y-14285D01*
X-132926Y-14205D01*
X-133176Y-14045D01*
X-133343Y-13859D01*
X-133426Y-13672D01*
Y-13485D01*
X-133343Y-13299D01*
X-133218Y-13139D01*
X-133051Y-13005D01*
G01X-133426Y-11152D02*
X-130926D01*
X-132718Y-12139D01*
Y-10805D01*
G01X-131343Y-9779D02*
X-131093Y-9619D01*
X-130968Y-9432D01*
X-130926Y-9219D01*
X-131009Y-8952D01*
X-131218Y-8765D01*
X-131468Y-8712D01*
X-131718Y-8739D01*
X-131926Y-8845D01*
X-132343Y-9379D01*
X-132634Y-9619D01*
X-133051Y-9779D01*
X-133426Y-9832D01*
Y-8712D01*
G01X-121568Y-169718D02*
Y-165718D01*
X-120568D01*
X-120168Y-165918D01*
X-119868Y-166185D01*
X-119618Y-166585D01*
X-119418Y-167051D01*
X-119368Y-167718D01*
X-119418Y-168385D01*
X-119618Y-168851D01*
X-119868Y-169251D01*
X-120168Y-169518D01*
X-120568Y-169718D01*
X-121568D01*
G01X-118418D02*
X-117168Y-165718D01*
X-115918Y-169718D01*
G01X-116368Y-168318D02*
X-117968D01*
G01X-113868Y-165718D02*
Y-169718D01*
G01X-115018Y-165718D02*
X-112718D01*
G01X-109568Y-169718D02*
X-111568D01*
Y-165718D01*
X-109568D01*
G01X-110368Y-167651D02*
X-111568D01*
G01X-107268Y-169851D02*
X-107368Y-169785D01*
Y-169651D01*
X-107268Y-169585D01*
X-107168Y-169651D01*
Y-169785D01*
X-107268Y-169851D01*
G01Y-168051D02*
X-107368Y-167985D01*
Y-167851D01*
X-107268Y-167785D01*
X-107168Y-167851D01*
Y-167985D01*
X-107268Y-168051D01*
G01X-121568Y-169718D02*
Y-165718D01*
X-120568D01*
X-120168Y-165918D01*
X-119868Y-166185D01*
X-119618Y-166585D01*
X-119418Y-167051D01*
X-119368Y-167718D01*
X-119418Y-168385D01*
X-119618Y-168851D01*
X-119868Y-169251D01*
X-120168Y-169518D01*
X-120568Y-169718D01*
X-121568D01*
G01X-118418D02*
X-117168Y-165718D01*
X-115918Y-169718D01*
G01X-116368Y-168318D02*
X-117968D01*
G01X-113868Y-165718D02*
Y-169718D01*
G01X-115018Y-165718D02*
X-112718D01*
G01X-109568Y-169718D02*
X-111568D01*
Y-165718D01*
X-109568D01*
G01X-110368Y-167651D02*
X-111568D01*
G01X-107268Y-169851D02*
X-107368Y-169785D01*
Y-169651D01*
X-107268Y-169585D01*
X-107168Y-169651D01*
Y-169785D01*
X-107268Y-169851D01*
G01Y-168051D02*
X-107368Y-167985D01*
Y-167851D01*
X-107268Y-167785D01*
X-107168Y-167851D01*
Y-167985D01*
X-107268Y-168051D01*
G01X-120141Y24564D02*
Y22772D01*
X-120248Y22397D01*
X-120461Y22147D01*
X-120728Y22064D01*
X-120995Y22147D01*
X-121208Y22397D01*
X-121315Y22772D01*
Y24564D01*
G01X-122928Y22064D02*
Y24564D01*
X-122608Y24064D01*
G01Y22064D02*
X-123248D01*
G01X-125128D02*
Y24564D01*
X-124808Y24064D01*
G01Y22064D02*
X-125448D01*
G01X-119989Y19836D02*
Y18044D01*
X-120096Y17669D01*
X-120309Y17419D01*
X-120576Y17336D01*
X-120843Y17419D01*
X-121056Y17669D01*
X-121163Y18044D01*
Y19836D01*
G01X-122269Y19419D02*
X-122429Y19669D01*
X-122616Y19794D01*
X-122829Y19836D01*
X-123096Y19753D01*
X-123283Y19544D01*
X-123336Y19294D01*
X-123309Y19044D01*
X-123203Y18836D01*
X-122669Y18419D01*
X-122429Y18128D01*
X-122269Y17711D01*
X-122216Y17336D01*
X-123336D01*
G01X-125296D02*
Y19836D01*
X-124309Y18044D01*
X-125643D01*
G01X-95750Y125000D02*
G03I-5250J0D01*
G01X-99900Y125950D02*
Y123450D01*
G01X-99287Y125950D02*
X-100513D01*
G01X-102100Y123450D02*
Y125950D01*
X-101780Y125450D01*
G01Y123450D02*
X-102420D01*
G01X-85718Y-177218D02*
Y-169718D01*
X-86838Y-171218D01*
G01Y-177218D02*
X-84598D01*
G01X-78218D02*
Y-169718D01*
X-79338Y-171218D01*
G01Y-177218D02*
X-77098D01*
G01X-72398Y-177468D02*
X-69038Y-169718D01*
G01X-63218Y-177218D02*
Y-169718D01*
X-64338Y-171218D01*
G01Y-177218D02*
X-62098D01*
G01X-55718Y-169718D02*
X-56465Y-169968D01*
X-57025Y-170593D01*
X-57398Y-171343D01*
X-57678Y-172343D01*
X-57771Y-173468D01*
X-57678Y-174593D01*
X-57398Y-175593D01*
X-57025Y-176343D01*
X-56465Y-176968D01*
X-55718Y-177218D01*
X-54971Y-176968D01*
X-54411Y-176343D01*
X-54038Y-175593D01*
X-53758Y-174593D01*
X-53665Y-173468D01*
X-53758Y-172343D01*
X-54038Y-171343D01*
X-54411Y-170593D01*
X-54971Y-169968D01*
X-55718Y-169718D01*
G01X-49898Y-177468D02*
X-46538Y-169718D01*
G01X-40718Y-177218D02*
Y-169718D01*
X-41838Y-171218D01*
G01Y-177218D02*
X-39598D01*
G01X-33218Y-169718D02*
X-33965Y-169968D01*
X-34525Y-170593D01*
X-34898Y-171343D01*
X-35178Y-172343D01*
X-35271Y-173468D01*
X-35178Y-174593D01*
X-34898Y-175593D01*
X-34525Y-176343D01*
X-33965Y-176968D01*
X-33218Y-177218D01*
X-32471Y-176968D01*
X-31911Y-176343D01*
X-31538Y-175593D01*
X-31258Y-174593D01*
X-31165Y-173468D01*
X-31258Y-172343D01*
X-31538Y-171343D01*
X-31911Y-170593D01*
X-32471Y-169968D01*
X-33218Y-169718D01*
G01X-85718Y-177218D02*
Y-169718D01*
X-86838Y-171218D01*
G01Y-177218D02*
X-84598D01*
G01X-78218D02*
Y-169718D01*
X-79338Y-171218D01*
G01Y-177218D02*
X-77098D01*
G01X-72398Y-177468D02*
X-69038Y-169718D01*
G01X-63218Y-177218D02*
Y-169718D01*
X-64338Y-171218D01*
G01Y-177218D02*
X-62098D01*
G01X-55718Y-169718D02*
X-56465Y-169968D01*
X-57025Y-170593D01*
X-57398Y-171343D01*
X-57678Y-172343D01*
X-57771Y-173468D01*
X-57678Y-174593D01*
X-57398Y-175593D01*
X-57025Y-176343D01*
X-56465Y-176968D01*
X-55718Y-177218D01*
X-54971Y-176968D01*
X-54411Y-176343D01*
X-54038Y-175593D01*
X-53758Y-174593D01*
X-53665Y-173468D01*
X-53758Y-172343D01*
X-54038Y-171343D01*
X-54411Y-170593D01*
X-54971Y-169968D01*
X-55718Y-169718D01*
G01X-49898Y-177468D02*
X-46538Y-169718D01*
G01X-40718Y-177218D02*
Y-169718D01*
X-41838Y-171218D01*
G01Y-177218D02*
X-39598D01*
G01X-33218Y-169718D02*
X-33965Y-169968D01*
X-34525Y-170593D01*
X-34898Y-171343D01*
X-35178Y-172343D01*
X-35271Y-173468D01*
X-35178Y-174593D01*
X-34898Y-175593D01*
X-34525Y-176343D01*
X-33965Y-176968D01*
X-33218Y-177218D01*
X-32471Y-176968D01*
X-31911Y-176343D01*
X-31538Y-175593D01*
X-31258Y-174593D01*
X-31165Y-173468D01*
X-31258Y-172343D01*
X-31538Y-171343D01*
X-31911Y-170593D01*
X-32471Y-169968D01*
X-33218Y-169718D01*
G01X-80319Y173072D02*
X-80452Y172822D01*
X-80612Y172655D01*
X-80799Y172572D01*
X-81012Y172655D01*
X-81172Y172822D01*
X-81332Y173072D01*
X-81385Y173405D01*
Y175072D01*
G01X-82545Y173614D02*
X-82732Y173905D01*
X-82892Y174072D01*
X-83105Y174155D01*
X-83292Y174072D01*
X-83425Y173905D01*
X-83532Y173655D01*
X-83559Y173364D01*
X-83532Y173114D01*
X-83425Y172864D01*
X-83265Y172655D01*
X-83079Y172572D01*
X-82865Y172655D01*
X-82679Y172905D01*
X-82572Y173280D01*
X-82545Y173697D01*
X-82599Y174239D01*
X-82679Y174530D01*
X-82812Y174822D01*
X-82999Y175030D01*
X-83185Y175072D01*
X-83372Y174989D01*
X-83505Y174780D01*
G01X-37550Y-42600D02*
G03I-8450J0D01*
G01X-38950Y43550D02*
Y41750D01*
X-38750D01*
Y29250D01*
X-38950D01*
Y21450D01*
X-35150D01*
Y24350D01*
X-22250D01*
Y21450D01*
X2700D01*
Y24350D01*
X13300D01*
Y21450D01*
X16650D01*
Y43550D01*
X5800D01*
Y40650D01*
X-4800D01*
Y43550D01*
X-38950D01*
G01X-12550Y-62400D02*
G03I-8450J0D01*
G01X12750Y0D02*
G03I-12750J0D01*
G01X-13027Y46992D02*
X-13160Y46742D01*
X-13320Y46575D01*
X-13507Y46492D01*
X-13720Y46575D01*
X-13880Y46742D01*
X-14040Y46992D01*
X-14093Y47325D01*
Y48992D01*
G01X-15760Y46492D02*
Y48992D01*
X-15440Y48492D01*
G01Y46492D02*
X-16080D01*
G01X-17373Y46867D02*
X-17533Y46659D01*
X-17720Y46534D01*
X-17960Y46492D01*
X-18200Y46575D01*
X-18387Y46742D01*
X-18520Y47034D01*
X-18547Y47367D01*
X-18493Y47700D01*
X-18360Y47909D01*
X-18173Y48075D01*
X-17987Y48117D01*
X-17800Y48075D01*
X-17560Y47909D01*
X-17640Y48992D01*
X-18360D01*
G01X17750Y182500D02*
G03I-12750J0D01*
G01X5500Y124400D02*
X19500D01*
Y120400D01*
X22000D01*
Y121900D01*
X23000D01*
Y111900D01*
X22000D01*
Y113400D01*
X19500D01*
Y109400D01*
X5500D01*
Y124400D01*
G01X15368Y134293D02*
X15155Y134085D01*
X14915Y133960D01*
X14701D01*
X14488Y134085D01*
X14328Y134293D01*
X14248Y134585D01*
X14301Y134877D01*
X14435Y135127D01*
X14675Y135293D01*
X14995Y135377D01*
X15181Y135543D01*
X15261Y135835D01*
X15208Y136127D01*
X15075Y136335D01*
X14888Y136460D01*
X14701D01*
X14515Y136377D01*
X14355Y136168D01*
G01X13408Y136460D02*
X13035Y133960D01*
X12608Y136460D01*
X12181Y133960D01*
X11808Y136460D01*
G01X10408Y133960D02*
Y136460D01*
X10728Y135960D01*
G01Y133960D02*
X10088D01*
G01X16650Y41600D02*
X36250D01*
Y23400D01*
X16650D01*
G54D12*
G01X-403000Y-33000D02*
Y-25000D01*
G01X-402500Y-33000D02*
X-403000D01*
G01Y-25000D02*
X-402500D01*
G01X-394200Y-22200D02*
Y-36800D01*
G01X-396000Y-33000D02*
Y-25000D01*
G01X-396500Y-33000D02*
X-396000D01*
G01X-389600Y-22200D02*
X-394200D01*
G01X-396000Y-25000D02*
X-396500D01*
G01X-375500Y-80000D02*
X-377000D01*
G01D02*
Y-59000D01*
G01D02*
X-375700D01*
G01X-366600Y-80000D02*
X-365000D01*
G01Y-59000D02*
X-366600D01*
G01X-367800Y-36800D02*
Y-22200D01*
G01X-365500Y-32500D02*
Y-24500D01*
G01X-365000Y-32500D02*
X-365500D01*
G01X-367800Y-22200D02*
X-372400D01*
G01X-365500Y-24500D02*
X-365000D01*
G01Y-80000D02*
Y-59000D01*
G01X-358500Y-32500D02*
Y-24500D01*
G01X-359000Y-32500D02*
X-358500D01*
G01Y-24500D02*
X-359000D01*
G01X-303750Y-79500D02*
Y-67500D01*
G01X-303500Y-79500D02*
X-303750D01*
G01Y-67500D02*
X-303500D01*
G01X-291250Y-79500D02*
Y-67500D01*
G01X-291500Y-79500D02*
X-291250D01*
G01Y-67500D02*
X-291500D01*
G01X-262000Y-53500D02*
X-283000D01*
G01D02*
Y-52200D01*
G01X-262000Y-41500D02*
X-283000D01*
G01D02*
Y-43100D01*
G01X-262000Y-52000D02*
Y-53500D01*
G01Y-43100D02*
Y-41500D01*
G01X-214500Y-38000D02*
X-235500D01*
G01D02*
Y-36700D01*
G01Y-26000D02*
Y-27600D01*
G01X-214500Y-26000D02*
X-235500D01*
G01X-214500Y-36500D02*
Y-38000D01*
G01Y-27600D02*
Y-26000D01*
G01X-88300Y166400D02*
Y106600D01*
G01D02*
X-88900D01*
G01D02*
Y102250D01*
G01D02*
X-74100D01*
G01Y170750D02*
X-88900D01*
G01D02*
Y166400D01*
G01D02*
X-88300D01*
G01X-74100Y102250D02*
Y103650D01*
G01D02*
X-71700D01*
G01D02*
Y103250D01*
G01D02*
X-71600D01*
G01D02*
Y104600D01*
G01D02*
X-74100D01*
G01D02*
Y105400D01*
G01D02*
X-76800D01*
G01D02*
Y167600D01*
G01X-71650D02*
Y169750D01*
G01D02*
X-71750D01*
G01D02*
Y169300D01*
G01D02*
X-74100D01*
G01D02*
Y170750D01*
G01X-76800Y167600D02*
X-69800D01*
G01D02*
Y165900D01*
G54D13*
G01X-415488Y-56043D02*
X-426512D01*
Y-48957D01*
X-415488D01*
Y-56043D01*
G01X-424750Y-56760D02*
X-423000Y-58510D01*
G01D02*
X-426500D01*
G01D02*
X-424750Y-56760D01*
G01X-429424Y-3092D02*
X-430924D01*
G01D02*
Y16908D01*
G01D02*
X-429424D01*
G01X-425924Y24408D02*
X-423424Y26908D01*
G01D02*
X-428424D01*
G01D02*
X-425924Y24408D01*
G01X-400500Y-41000D02*
X-398500D01*
G01X-332424Y-3092D02*
X-330924D01*
G01Y16908D02*
X-332424D01*
G01X-330924Y-3092D02*
Y16908D01*
G01X-306500Y-76000D02*
X-308500D01*
G01X-282000Y-73500D02*
X-280000D01*
G01X-287000Y-76000D02*
Y-74000D01*
G01X-280000Y-65500D02*
X-282000D01*
G01X-276000Y-79500D02*
Y-81500D01*
G01X-275500Y-37500D02*
Y-39500D01*
G01X-271500Y-2500D02*
X-273500D01*
G01X-268000Y-79500D02*
Y-81500D01*
G01X-259000Y-79500D02*
Y-81500D01*
G01X-249500Y-53500D02*
Y-55500D01*
G01X-246000Y-2500D02*
X-248000D01*
G01X-230500D02*
X-232500D01*
G01X-226500Y62500D02*
X-224500D01*
G01X-214500Y-2500D02*
X-216500D01*
G01X-215500Y104500D02*
X-217500D01*
G01X-207500Y62500D02*
X-205500D01*
G01X-207000Y145500D02*
Y98500D01*
G01D02*
X-202000D01*
G01X-210500Y104500D02*
X-212500D01*
G01X-202000Y100500D02*
G02X-206500Y108500I5180J8179D01*
G01D02*
Y135000D01*
G02X-202000Y143500I8678J847D01*
G01Y145500D02*
X-207000D01*
G01X-205500Y166500D02*
Y164000D01*
G01D02*
X-202800Y165200D01*
G01D02*
X-205500Y166500D01*
G01X-201000Y-39000D02*
X-203000D01*
G01X-195500Y-2500D02*
X-197500D01*
G01X-184500Y161500D02*
X-199500D01*
G01D02*
Y159200D01*
G01D02*
X-184500D01*
G01X-199500Y183500D02*
Y168500D01*
G01Y193700D02*
Y190500D01*
G01X-184500Y193700D02*
X-199500D01*
G01X-189500Y-2500D02*
X-191500D01*
G01X-192000Y98500D02*
X-187000D01*
G01X-187500Y135500D02*
Y108500D01*
G02X-192000Y100000I-10030J-131D01*
G01Y143500D02*
G02X-187500Y135500I-4130J-7589D01*
G01X-187000Y145500D02*
X-192000D01*
G01X-182725Y-77881D02*
X-179753Y-75125D01*
G01Y-80637D02*
X-182725Y-77881D01*
G01X-187000Y98500D02*
Y145500D01*
G01X-184500Y159200D02*
Y161500D01*
G01Y183500D02*
Y168500D01*
G01Y190500D02*
Y193700D01*
G01X-179753Y-75125D02*
Y-80637D01*
G01X-169812Y36608D02*
Y10208D01*
G01D02*
X-129812D01*
G01X-130812Y21408D02*
Y19408D01*
X-168812D01*
Y27408D01*
X-130812D01*
Y25408D01*
G01X-129812Y36608D02*
X-169812D01*
G01X-158312Y-3592D02*
X-156312D01*
G01X-148312D02*
X-146312D01*
G01X-138312D02*
X-136312D01*
G01X-133312D02*
X-131312D01*
G01X-132252Y13408D02*
G02I-2060J0D01*
G01X-129812Y20908D02*
X-130812D01*
G02Y25908I560J2500D01*
G01Y25408D02*
G03Y21408I0J-2000D01*
G01Y25908D02*
X-129812D01*
G01X-131500Y51500D02*
X-133500D01*
G01X-126812Y5408D02*
Y408D01*
G01D02*
X-129312Y2908D01*
G01D02*
X-126812Y5408D01*
G01X-129812Y10208D02*
Y20908D01*
G01X-126812Y13908D02*
Y8908D01*
G01D02*
X-129312Y11408D01*
G01D02*
X-126812Y13908D01*
G01X-129812Y25908D02*
Y36608D01*
G54D14*
G01X-355185Y-68843D02*
Y-39315D01*
X-325657D01*
X-331563Y-45220D01*
X-321720Y-55063D01*
X-315815Y-49157D01*
Y-70811D01*
X-323689Y-78685D01*
X-345343D01*
X-339437Y-72780D01*
X-349280Y-62937D01*
X-355185Y-68843D01*
M02*
