G04 ================== begin FILE IDENTIFICATION RECORD ==================*
G04 Layout Name:  F:/JZM/Track Systems/main pcb/du_main_proto.brd*
G04 Film Name:    L2_GND*
G04 File Format:  Gerber RS274X*
G04 File Origin:  Cadence Allegro 16.3-p003*
G04 Origin Date:  Thu Nov 11 20:12:00 2010*
G04 *
G04 Layer:  BOARD GEOMETRY/FILM_FORMAT*
G04 Layer:  BOARD GEOMETRY/OUTLINE*
G04 Layer:  ETCH/L2_GND*
G04 Layer:  PIN/L2_GND*
G04 Layer:  VIA CLASS/L2_GND*
G04 *
G04 Offset:    (0.00 0.00)*
G04 Mirror:    No*
G04 Mode:      Positive*
G04 Rotation:  0*
G04 FullContactRelief:  No*
G04 UndefLineWidth:     0.00*
G04 ================== end FILE IDENTIFICATION RECORD ====================*
%FSLAX55Y55*MOIN*%
%IR0*IPPOS*OFA0.00000B0.00000*MIA0B0*SFA1.00000B1.00000*%
%ADD21C,.04*%
%ADD11O,.106X.067*%
%ADD20C,.024*%
%ADD22C,.061*%
%ADD15C,.018*%
%ADD16C,.056*%
%ADD24C,.075*%
%ADD23C,.085*%
%ADD14O,.065X.043*%
%ADD19C,.135*%
%ADD13O,.075X.047*%
%ADD10C,.236*%
%ADD17O,.067X.047*%
%ADD18O,.047X.067*%
%ADD12O,.095X.047*%
%ADD25C,.015*%
%ADD26C,.001*%
%ADD27C,.005*%
%ADD36O,.12202X.08302*%
%ADD28C,.03204*%
%ADD34C,.07204*%
%ADD33C,.07304*%
%ADD30C,.09204*%
%ADD32C,.07804*%
%ADD41O,.11268X.06468*%
%ADD31C,.10204*%
%ADD29C,.25304*%
%ADD35C,.16926*%
%ADD38O,.09266X.06466*%
%ADD37O,.06466X.08466*%
%ADD40O,.08468X.06468*%
%ADD39O,.06468X.08468*%
G75*
%LPD*%
G75*
G36*
G01X11775Y4629D02*
G03X11137Y-6004I-11775J-4629D01*
G02X11888Y-6217I352J-190D01*
G01X11032Y-20488D01*
X2364D01*
Y-82740D01*
X-1576Y-85892D01*
X-448372D01*
X-457040Y-78012D01*
X-457846Y-68880D01*
G02X-457253Y-68496I398J35D01*
G03X-455232Y-69020I2019J3628D01*
G01X-451332D01*
G03Y-60718I0J4151D01*
G01X-455233D01*
G03X-457856Y-61652I0J-4151D01*
G02X-458508Y-61378I-253J310D01*
G01X-461768Y-24428D01*
X-462849Y-7846D01*
G02X-462130Y-7580I399J26D01*
G03X-463029Y6200I10130J7580D01*
G02X-463777Y6370I-349J196D01*
G01X-466496Y48068D01*
X-469648Y121352D01*
X-470436Y194636D01*
X-465708Y200940D01*
X-411336Y217488D01*
X-368784Y226944D01*
X-336943Y232380D01*
G02X-336476Y231986I67J-394D01*
G01Y224580D01*
X-295500D01*
Y237976D01*
X-263980Y240340D01*
X-225368Y241128D01*
X-191484Y240340D01*
X-156812Y237976D01*
Y225368D01*
X-115048D01*
Y231972D01*
G02X-114570Y232364I400J0D01*
G01X-44128Y218276D01*
X8668Y202516D01*
X18912Y193060D01*
X17336Y112684D01*
X15760Y58312D01*
X12546Y4751D01*
G02X11775Y4629I-399J25D01*
G37*
%LPC*%
G75*
G36*
G01X-389846Y-80389D02*
G02X-392154I-1154J-1111D01*
G03Y-80111I-144J139D01*
G02Y-77889I1154J1111D01*
G03Y-77611I-144J139D01*
G02Y-75389I1154J1111D01*
G03Y-75111I-144J139D01*
G02X-389846I1154J1111D01*
G03Y-75389I144J-139D01*
G02X-389828Y-75408I-1154J-1111D01*
G03X-389137Y-75171I293J273D01*
G02X-388789Y-77088I3637J-330D01*
G03X-389519Y-77110I-360J-174D01*
G02X-389846Y-77611I-1481J610D01*
G03Y-77889I144J-139D01*
G02Y-80111I-1154J-1111D01*
G03Y-80389I144J-139D01*
G37*
G36*
G01X-185983Y-5154D02*
G02X-187069Y-3986I-1561J-362D01*
G03X-186561Y-3514I118J382D01*
G02X-184864Y-1556I1561J362D01*
G03X-184648Y-1381I17J199D01*
G02X-182986Y24I1590J-195D01*
G03X-182575Y497I18J400D01*
G02X-180867Y2384I1575J291D01*
G03X-180443Y2699I33J399D01*
G02X-180155Y3329I1567J-335D01*
G03X-180174Y3591I-160J120D01*
G02X-177766Y3763I1129J1137D01*
G03X-177747Y3501I160J-120D01*
G02X-179009Y768I-1129J-1137D01*
G03X-179433Y453I-33J-399D01*
G02X-181072Y-812I-1567J335D01*
G03X-181483Y-1285I-18J-400D01*
G02X-183194Y-3172I-1575J-291D01*
G03X-183410Y-3347I-17J-199D01*
G02X-185475Y-4682I-1590J195D01*
G03X-185983Y-5154I-118J-382D01*
G37*
G36*
G01X-114117Y29309D02*
G02X-115682Y30092I-1383J-809D01*
G03X-115383Y30691I-46J397D01*
G02X-113818Y29908I1383J809D01*
G03X-114117Y29309I46J-397D01*
G37*
G36*
G01X-214622Y56007D02*
G02X-214659Y57700I-1378J817D01*
G03X-213980Y57715I335J219D01*
G02X-213943Y56022I1378J-817D01*
G03X-214622Y56007I-335J-219D01*
G37*
G36*
G01X-213572Y82000D02*
G02X-215028Y80880I72J-1600D01*
G03X-215428Y81400I-382J120D01*
G02X-213972Y82520I-72J1600D01*
G03X-213572Y82000I382J-120D01*
G37*
G36*
G01X-188451Y139380D02*
G02X-190664Y140126I-1457J-666D01*
G03X-190577Y140386I-95J176D01*
G02X-189713Y142540I1457J666D01*
G03X-189556Y143170I-148J371D01*
G02X-188156Y145796I1224J1034D01*
G03X-187714Y146155I44J398D01*
G02X-186296Y144408I1594J-155D01*
G03X-186738Y144049I-44J-398D01*
G02X-187739Y142716I-1594J155D01*
G03X-187896Y142086I148J-371D01*
G02X-188364Y139640I-1224J-1034D01*
G03X-188451Y139380I95J-176D01*
G37*
G36*
G01X-214287Y143441D02*
G02X-215648Y142759I-49J-1601D01*
G03X-215963Y143389I-327J230D01*
G02X-216784Y146335I49J1601D01*
G03X-216729Y146965I-217J336D01*
G02X-216685Y149352I1090J1174D01*
G03X-216715Y149982I-261J303D01*
G02X-214743Y150076I926J1307D01*
G03X-214713Y149446I261J-303D01*
G02X-214769Y146794I-926J-1307D01*
G03X-214824Y146164I217J-336D01*
G02X-214602Y144071I-1090J-1174D01*
G03X-214287Y143441I327J-230D01*
G37*
G36*
G01X-262719Y142428D02*
G02X-264968Y144677I-1261J988D01*
G03Y145307I-247J315D01*
G02X-262719Y147556I988J1261D01*
G03X-262089I315J247D01*
G02X-259478Y147431I1261J-988D01*
G03X-258813Y147417I337J215D01*
G02X-258850Y145637I1313J-918D01*
G03X-259515Y145651I-337J-215D01*
G02X-259840Y145307I-1314J916D01*
G03Y144677I247J-315D01*
G02X-262089Y142428I-988J-1261D01*
G03X-262719I-315J-247D01*
G37*
G36*
G01X-64342Y169797D02*
G02X-67105Y171339I-1505J550D01*
G03X-67135Y171870I-313J249D01*
G02X-64742Y172008I1135J1130D01*
G03X-64712Y171477I313J-249D01*
G02X-64670Y171434I-1125J-1141D01*
G03X-64327Y171534I146J136D01*
G02X-62117Y172722I1577J-284D01*
G03X-61568Y173171I158J367D01*
G02X-58617Y172691I1568J329D01*
G03X-58318Y172092I345J-202D01*
G02X-59883Y171309I-182J-1592D01*
G03X-60182Y171908I-345J202D01*
G02X-60633Y172028I182J1592D01*
G03X-61182Y171579I-158J-367D01*
G02X-63724Y169978I-1568J-329D01*
G03X-64342Y169797I-242J-318D01*
G37*
G36*
G01X-274230Y181560D02*
G02X-277369Y181562I-1570J-320D01*
G03X-277842Y182035I-392J81D01*
G02X-276595Y183282I-322J1569D01*
G03X-276122Y182809I392J-81D01*
G01X-276109Y182812D01*
G03X-275794Y183284I-77J392D01*
G02X-272655Y183282I1570J320D01*
G03X-272182Y182809I392J-81D01*
G01X-272169Y182812D01*
G03X-271854Y183284I-77J392D01*
G02X-269975Y182032I1570J320D01*
G03X-270290Y181560I77J-392D01*
G02X-273429Y181562I-1570J-320D01*
G03X-273902Y182035I-392J81D01*
G01X-273915Y182032D01*
G03X-274230Y181560I77J-392D01*
G37*
G36*
G01X-227739Y182350D02*
G02X-229626Y183598I-1569J-322D01*
G03X-229313Y184070I-79J392D01*
G02X-229344Y184316I1569J323D01*
G03X-229694Y184439I-200J-9D01*
G02X-232022Y186637I-1200J1061D01*
G03X-232020Y187203I-282J284D01*
G02X-232122Y187315I1132J1133D01*
G03X-232473Y187228I-155J-127D01*
G02X-233005Y188764I-1570J316D01*
G03X-232374Y188921I259J305D01*
G02X-229756Y187195I1490J-589D01*
G03X-229758Y186629I282J-284D01*
G02X-229340Y185891I-1135J-1130D01*
G03X-228711Y185669I388J97D01*
G02X-227426Y182822I967J-1277D01*
G03X-227739Y182350I79J-392D01*
G37*
G36*
G01X-62300Y204439D02*
G02X-64406Y206821I-1200J1061D01*
G03X-64506Y207530I-227J330D01*
G02X-63094Y207729I506J1520D01*
G03X-62994Y207020I227J-330D01*
G02X-62300Y206561I-506J-1520D01*
G03X-61700I300J265D01*
G02Y204439I1200J-1061D01*
G03X-62300I-300J-265D01*
G37*
G36*
G01X-225232Y231567D02*
G02X-226548Y230333I248J-1583D01*
G03X-227000Y230815I-390J87D01*
G02X-228578Y231505I-248J1583D01*
G03X-229078Y231646I-333J-222D01*
G02X-228420Y233993I-672J1454D01*
G03X-227920Y233852I333J222D01*
G02X-225684Y232049I672J-1454D01*
G03X-225232Y231567I390J-87D01*
G37*
G36*
G01X-199935Y-73543D02*
G03Y-74148I261J-303D01*
G02X-203665I-1865J-2158D01*
G03Y-73543I-261J302D01*
G02X-203631Y-69198I1865J2158D01*
G03X-203627Y-68588I-257J307D01*
G02X-203626Y-64339I1827J2124D01*
G03X-203630Y-63729I-261J303D01*
G02X-203665Y-59384I1830J2187D01*
G03Y-58779I-261J302D01*
G02Y-54463I1865J2158D01*
G03Y-53858I-261J303D01*
G02X-199935I1865J2158D01*
G03Y-54463I261J-302D01*
G02Y-58779I-1865J-2158D01*
G03Y-59384I261J-303D01*
G02X-199970Y-63729I-1865J-2158D01*
G03X-199974Y-64339I257J-307D01*
G02X-199973Y-68588I-1826J-2125D01*
G03X-199969Y-69198I261J-303D01*
G02X-199935Y-73543I-1831J-2187D01*
G37*
G36*
G01X-245656Y-69029D02*
G03Y-69659I247J-315D01*
G02X-247632I-988J-1261D01*
G03Y-69029I-247J315D01*
G02X-245656I988J1261D01*
G37*
G36*
G01X-431217Y-59800D02*
X-433417D01*
G02X-436418Y-56797I0J3001D01*
G03X-436970Y-56427I-400J0D01*
G02X-438107Y-56650I-1135J2778D01*
G01X-440307D01*
G02X-441441Y-50870I0J3001D01*
G03Y-50129I-151J371D01*
G02X-440307Y-44348I1134J2779D01*
G01X-438107D01*
G02X-436926Y-44591I-2J-3002D01*
G03X-436368Y-44220I158J368D01*
G02X-433417Y-41248I2951J21D01*
G01X-431217D01*
G02X-430145Y-46950I0J-2952D01*
G03X-430143Y-47696I145J-373D01*
G02X-430083Y-53278I-1074J-2803D01*
G03Y-54019I151J-370D01*
G02X-431217Y-59800I-1134J-2779D01*
G37*
G36*
G01X-356439Y-55700D02*
G03Y-56300I265J-300D01*
G02X-359065Y-57841I-1061J-1200D01*
G03X-359565Y-57542I-391J-86D01*
G02X-361061Y-54800I-435J1542D01*
G03Y-54200I-265J300D01*
G02Y-51800I1061J1200D01*
G03Y-51200I-265J300D01*
G02X-359565Y-48458I1061J1200D01*
G03X-359065Y-48159I109J385D01*
G02X-356439Y-49700I1565J-341D01*
G03Y-50300I265J-300D01*
G02Y-52700I-1061J-1200D01*
G03Y-53300I265J-300D01*
G02Y-55700I-1061J-1200D01*
G37*
G36*
G01X-228846Y-49611D02*
G03Y-49889I144J-139D01*
G02X-231154I-1154J-1111D01*
G03Y-49611I-144J139D01*
G02Y-47389I1154J1111D01*
G03Y-47111I-144J139D01*
G02Y-44889I1154J1111D01*
G03Y-44611I-144J139D01*
G02Y-42389I1154J1111D01*
G03Y-42111I-144J139D01*
G02Y-39889I1154J1111D01*
G03Y-39611I-144J139D01*
G02X-228846I1154J1111D01*
G03Y-39889I144J-139D01*
G02Y-42111I-1154J-1111D01*
G03Y-42389I144J-139D01*
G02Y-44611I-1154J-1111D01*
G03Y-44889I144J-139D01*
G02Y-47111I-1154J-1111D01*
G03Y-47389I144J-139D01*
G02Y-49611I-1154J-1111D01*
G37*
G36*
G01X-402439Y-37700D02*
G03Y-38300I265J-300D01*
G02X-405081Y-39756I-1061J-1200D01*
G03X-405303Y-39590I-197J-33D01*
G02X-406561Y-36800I-197J1590D01*
G03Y-36200I-265J300D01*
G02Y-33800I1061J1200D01*
G03Y-33200I-265J300D01*
G02X-403919Y-31744I1061J1200D01*
G03X-403697Y-31910I197J33D01*
G02X-402439Y-34700I197J-1590D01*
G03Y-35300I265J-300D01*
G02Y-37700I-1061J-1200D01*
G37*
G36*
G01X-245358Y11436D02*
G03X-245987I-314J-247D01*
G02X-248566Y11513I-1261J988D01*
G03X-249195Y11550I-329J-227D01*
G02X-251658Y11619I-1203J1058D01*
G03X-252287I-314J-247D01*
G02X-254807I-1260J989D01*
G03X-255437I-315J-247D01*
G02X-257957I-1260J989D01*
G03X-258586I-314J-247D01*
G02X-261106I-1260J989D01*
G03X-261736I-315J-247D01*
G02X-264256I-1260J989D01*
G03X-264886I-315J-247D01*
G02X-267406I-1260J989D01*
G03X-268035I-314J-247D01*
G02Y13597I-1260J989D01*
G03X-267406I314J247D01*
G02X-264886I1260J-989D01*
G03X-264256I315J247D01*
G02X-261736I1260J-989D01*
G03X-261106I315J247D01*
G02X-258586I1260J-989D01*
G03X-257957I314J247D01*
G02X-255437I1260J-989D01*
G03X-254807I315J247D01*
G02X-252287I1260J-989D01*
G03X-251658I314J247D01*
G02X-249080Y13519I1260J-989D01*
G03X-248451Y13482I329J227D01*
G02X-245988Y13414I1203J-1058D01*
G03X-245359I314J247D01*
G02X-242839Y13417I1261J-988D01*
G03X-242210I314J247D01*
G02X-239689Y13419I1261J-988D01*
G03X-239060I314J247D01*
G02X-239059Y11441I1261J-988D01*
G03X-239688I-315J-247D01*
G02X-242208Y11438I-1261J988D01*
G03X-242837I-314J-247D01*
G02X-245358Y11436I-1261J988D01*
G37*
G36*
G01X-277099Y17448D02*
G03X-276749Y17038I400J-13D01*
G02X-278550Y15501I-200J-1589D01*
G03X-278900Y15911I-400J13D01*
G02X-280251Y17902I200J1589D01*
G03X-280610Y18402I-387J101D01*
G02X-282102Y19998I110J1598D01*
G03X-282502Y20398I-400J0D01*
G02X-284102Y21998I2J1602D01*
G03X-284502Y22398I-400J0D01*
G02X-286049Y24410I2J1602D01*
G03X-286388Y24909I-387J102D01*
G02X-284651Y26090I188J1591D01*
G03X-284312Y25591I387J-102D01*
G02X-282898Y24002I-188J-1591D01*
G03X-282498Y23602I400J0D01*
G02X-280898Y22002I-2J-1602D01*
G03X-280498Y21602I400J0D01*
G02X-278949Y19598I-2J-1602D01*
G03X-278590Y19098I387J-101D01*
G02X-277099Y17448I-110J-1598D01*
G37*
G36*
G01X-117056Y26072D02*
G03X-116746Y25573I385J-106D01*
G02X-118594Y24428I-304J-1573D01*
G03X-118904Y24927I-385J106D01*
G02X-117056Y26072I304J1573D01*
G37*
G36*
G01X-273049Y29899D02*
G03X-273449Y29399I-12J-400D01*
G02X-274951Y30601I-1551J-399D01*
G03X-274551Y31101I12J400D01*
G02X-273049Y29899I1551J399D01*
G37*
G36*
G01X-235399Y35451D02*
G03X-234899Y35051I400J-12D01*
G02X-236101Y33549I399J-1551D01*
G03X-236601Y33949I-400J12D01*
G02X-235399Y35451I-399J1551D01*
G37*
G36*
G01X-200987Y37502D02*
G03X-201176Y36902I141J-374D01*
G02X-203067Y37498I-1324J-902D01*
G03X-202878Y38098I-141J374D01*
G02X-200987Y37502I1324J902D01*
G37*
G36*
G01X-202888Y45074D02*
G03X-203197Y44544I67J-394D01*
G02X-204970Y45580I-1507J-544D01*
G03X-204661Y46110I-67J394D01*
G02X-202888Y45074I1507J544D01*
G37*
G36*
G01X-267406Y44511D02*
G03X-268035I-314J-247D01*
G02Y46489I-1260J989D01*
G03X-267406I314J247D01*
G02X-264886I1260J-989D01*
G03X-264256I315J247D01*
G02X-261736I1260J-989D01*
G03X-261106I315J247D01*
G02X-258586I1260J-989D01*
G03X-257957I314J247D01*
G02X-255437I1260J-989D01*
G03X-254807I315J247D01*
G02X-252287I1260J-989D01*
G03X-251658I314J247D01*
G02X-249138I1260J-989D01*
G03X-248508I315J247D01*
G02Y44511I1260J-989D01*
G03X-249138I-315J-247D01*
G02X-251658I-1260J989D01*
G03X-252287I-314J-247D01*
G02X-254807I-1260J989D01*
G03X-255437I-315J-247D01*
G02X-257957I-1260J989D01*
G03X-258586I-314J-247D01*
G02X-261106I-1260J989D01*
G03X-261736I-315J-247D01*
G02X-264256I-1260J989D01*
G03X-264886I-315J-247D01*
G02X-267406I-1260J989D01*
G37*
G36*
G01X-220147Y45090D02*
G03X-220776Y45081I-311J-252D01*
G02X-220806Y47059I-1275J970D01*
G03X-220177Y47068I311J252D01*
G02X-220147Y45090I1275J-970D01*
G37*
G36*
G01X-198085Y55565D02*
G03X-198714Y55546I-307J-256D01*
G02X-198773Y57521I-1290J950D01*
G03X-198144Y57540I307J256D01*
G02X-198085Y55565I1290J-950D01*
G37*
G36*
G01X-267406Y58511D02*
G03X-268035I-314J-247D01*
G02Y60489I-1260J989D01*
G03X-267406I314J247D01*
G02X-264868Y60467I1261J-989D01*
G03X-264231I318J241D01*
G02X-261710Y60510I1277J-967D01*
G03X-261089I310J253D01*
G02X-258586Y60489I1243J-1010D01*
G03X-257957I314J247D01*
G02X-255437I1260J-989D01*
G03X-254807I315J247D01*
G02X-252287I1260J-989D01*
G03X-251658I314J247D01*
G02X-249138I1260J-989D01*
G03X-248508I315J247D01*
G02X-245988I1260J-989D01*
G03X-245358I315J247D01*
G02X-242838I1260J-989D01*
G03X-242209I314J247D01*
G02Y58511I1260J-989D01*
G03X-242838I-314J-247D01*
G02X-245358I-1260J989D01*
G03X-245988I-315J-247D01*
G02X-248508I-1260J989D01*
G03X-249138I-315J-247D01*
G02X-251658I-1260J989D01*
G03X-252287I-314J-247D01*
G02X-254807I-1260J989D01*
G03X-255437I-315J-247D01*
G02X-257957I-1260J989D01*
G03X-258586I-314J-247D01*
G02X-261089Y58490I-1260J989D01*
G03X-261710I-311J-253D01*
G02X-264231Y58533I-1244J1010D01*
G03X-264868I-318J-241D01*
G02X-267406Y58511I-1277J967D01*
G37*
G36*
G01X-36303Y68090D02*
G03X-36081Y68256I25J199D01*
G02X-34697Y66410I1581J-256D01*
G03X-34919Y66244I-25J-199D01*
G02X-36303Y68090I-1581J256D01*
G37*
G36*
G01X-286549Y72899D02*
G03X-286949Y72399I-12J-400D01*
G02X-288451Y73601I-1551J-399D01*
G03X-288051Y74101I12J400D01*
G02X-286549Y72899I1551J399D01*
G37*
G36*
G01X-292507Y90698D02*
G03X-292906Y90338I-1J-400D01*
G02X-294493Y92102I-1594J162D01*
G03X-294094Y92462I1J400D01*
G02X-292507Y90698I1594J-162D01*
G37*
G36*
G01X-54700Y95439D02*
G03X-55300I-300J-265D01*
G02Y97561I-1200J1061D01*
G03X-54700I300J265D01*
G02X-52300I1200J-1061D01*
G03X-51700I300J265D01*
G02X-49300I1200J-1061D01*
G03X-48700I300J265D01*
G02Y95439I1200J-1061D01*
G03X-49300I-300J-265D01*
G02X-51700I-1200J1061D01*
G03X-52300I-300J-265D01*
G02X-54700I-1200J1061D01*
G37*
G36*
G01X-313398Y101988D02*
G03X-312947Y101589I400J-2D01*
G02X-314342Y100012I207J-1589D01*
G03X-314793Y100411I-400J2D01*
G02X-313398Y101988I-207J1589D01*
G37*
G36*
G01X-225746Y106981D02*
G03X-226376Y106911I-288J-278D01*
G02X-226592Y108857I-1368J833D01*
G03X-225962Y108927I288J278D01*
G02X-225746Y106981I1368J-833D01*
G37*
G36*
G01X-179128Y109828D02*
G03X-178529Y109728I342J206D01*
G02X-178872Y107672I1029J-1228D01*
G03X-179471Y107772I-342J-206D01*
G02X-179128Y109828I-1029J1228D01*
G37*
G36*
G01X-244753Y107756D02*
G03X-245383I-315J-247D01*
G02Y109732I-1261J988D01*
G03X-244753I315J247D01*
G02X-242231I1261J-988D01*
G03X-241601I315J247D01*
G02Y107756I1261J-988D01*
G03X-242231I-315J-247D01*
G02X-244753I-1261J988D01*
G37*
G36*
G01X-241602Y111696D02*
G03X-242231I-314J-247D01*
G02X-244753I-1261J988D01*
G03X-245382I-314J-247D01*
G02X-245381Y113674I-1260J990D01*
G03X-244752I314J247D01*
G02X-242232I1260J-990D01*
G03X-241603I314J247D01*
G02X-241602Y111696I1261J-988D01*
G37*
G36*
G01X-94540Y114905D02*
G03X-94186Y114472I398J-36D01*
G02X-95960Y113023I-178J-1592D01*
G03X-96314Y113456I-398J36D01*
G02X-94540Y114905I178J1592D01*
G37*
G36*
G01X-67568Y115363D02*
G03Y114733I247J-315D01*
G02X-69544I-988J-1261D01*
G03Y115363I-247J315D01*
G02X-67568I988J1261D01*
G37*
G36*
G01X-200872Y117637D02*
G03X-200342Y117608I281J284D01*
G02X-200478Y115213I992J-1258D01*
G03X-201008Y115242I-281J-284D01*
G02X-200872Y117637I-992J1258D01*
G37*
G36*
G01X-234624Y120091D02*
G03Y119461I247J-315D01*
G02X-236600I-988J-1261D01*
G03Y120091I-247J315D01*
G02X-236873Y120364I988J1261D01*
G03X-237503I-315J-247D01*
G02X-239752Y122613I-1261J988D01*
G03Y123243I-247J315D01*
G02X-237503Y125492I988J1261D01*
G03X-236873I315J247D01*
G02X-234351I1261J-988D01*
G03X-233721I315J247D01*
G02X-231199I1261J-988D01*
G03X-230569I315J247D01*
G02X-228320Y123243I1261J-988D01*
G03Y122613I247J-315D01*
G02X-230569Y120364I-988J-1261D01*
G03X-231199I-315J-247D01*
G02X-233721I-1261J988D01*
G03X-234351I-315J-247D01*
G02X-234624Y120091I-1261J988D01*
G37*
G36*
G01X-262089Y120364D02*
G03X-262719I-315J-247D01*
G02X-264968Y122613I-1261J988D01*
G03Y123243I-247J315D01*
G02X-265241Y123516I988J1261D01*
G03X-265871I-315J-247D01*
G02Y125492I-1261J988D01*
G03X-265241I315J247D01*
G02X-264968Y125765I1261J-988D01*
G03Y126395I-247J315D01*
G02Y128917I988J1261D01*
G03Y129547I-247J315D01*
G02Y132069I988J1261D01*
G03Y132699I-247J315D01*
G02Y135221I988J1261D01*
G03Y135851I-247J315D01*
G02X-262719Y138100I988J1261D01*
G03X-262089I315J247D01*
G02X-259840Y135851I1261J-988D01*
G03Y135221I247J-315D01*
G02X-259839Y132700I-988J-1261D01*
G03Y132070I247J-315D01*
G02X-259841Y129548I-989J-1260D01*
G03Y128918I246J-315D01*
G02X-259840Y126395I-987J-1262D01*
G03Y125765I247J-315D01*
G02X-259565Y125489I-989J-1260D01*
G03X-258934I316J246D01*
G02X-256411Y125493I1263J-985D01*
G03X-255782I314J247D01*
G02X-253262I1260J-989D01*
G03X-252632I315J247D01*
G02X-250111Y125492I1260J-989D01*
G03X-249481I315J247D01*
G02X-246959I1261J-988D01*
G03X-246329I315J247D01*
G02X-244080Y123243I1261J-988D01*
G03Y122613I247J-315D01*
G02X-246329Y120364I-988J-1261D01*
G03X-246959I-315J-247D01*
G02X-249481I-1261J988D01*
G03X-250111I-315J-247D01*
G02X-252633I-1261J988D01*
G03X-253262I-314J-247D01*
G02X-255782Y120365I-1260J990D01*
G03X-256411I-314J-247D01*
G02X-258934Y120368I-1260J989D01*
G03X-259564Y120367I-315J-247D01*
G02X-262089Y120364I-1264J985D01*
G37*
G36*
G01X-127200Y124939D02*
G03X-127800I-300J-265D01*
G02Y127061I-1200J1061D01*
G03X-127200I300J265D01*
G02Y124939I1200J-1061D01*
G37*
G36*
G01X-224265Y129820D02*
G03X-224895I-315J-247D01*
G02X-227144Y132069I-1261J988D01*
G03Y132699I-247J315D01*
G02Y135221I988J1261D01*
G03Y135851I-247J315D01*
G02Y138373I988J1261D01*
G03Y139003I-247J315D01*
G02X-224895Y141252I988J1261D01*
G03X-224265I315J247D01*
G02X-223992Y141525I1261J-988D01*
G03Y142155I-247J315D01*
G02Y144677I988J1261D01*
G03Y145307I-247J315D01*
G02X-224265Y145580I988J1261D01*
G03X-224895I-315J-247D01*
G02Y147556I-1261J988D01*
G03X-224265I315J247D01*
G02X-223992Y147829I1261J-988D01*
G03Y148459I-247J315D01*
G02Y150981I988J1261D01*
G03Y151611I-247J315D01*
G02X-224265Y151884I988J1261D01*
G03X-224895I-315J-247D01*
G02X-227144Y154133I-1261J988D01*
G03Y154763I-247J315D01*
G02Y157285I988J1261D01*
G03Y157915I-247J315D01*
G02X-227417Y158188I988J1261D01*
G03X-228047I-315J-247D01*
G02X-230569I-1261J988D01*
G03X-231199I-315J-247D01*
G02X-233721I-1261J988D01*
G03X-234351I-315J-247D01*
G02X-236873I-1261J988D01*
G03X-237503I-315J-247D01*
G02X-239752Y160437I-1261J988D01*
G03Y161067I-247J315D01*
G02X-240025Y161340I988J1261D01*
G03X-240655I-315J-247D01*
G02Y163316I-1261J988D01*
G03X-240025I315J247D01*
G02X-237503I1261J-988D01*
G03X-236873I315J247D01*
G02X-234351I1261J-988D01*
G03X-233721I315J247D01*
G02X-231199I1261J-988D01*
G03X-230569I315J247D01*
G02X-228047I1261J-988D01*
G03X-227417I315J247D01*
G02X-227144Y163589I1261J-988D01*
G03Y164219I-247J315D01*
G02X-225168I988J1261D01*
G03Y163589I247J-315D01*
G02X-224895Y163316I-988J-1261D01*
G03X-224265I315J247D01*
G02X-222016Y161067I1261J-988D01*
G03Y160437I247J-315D01*
G02Y157915I-988J-1261D01*
G03Y157285I247J-315D01*
G02Y154763I-988J-1261D01*
G03Y154133I247J-315D01*
G02Y151611I-988J-1261D01*
G03Y150981I247J-315D01*
G02Y148459I-988J-1261D01*
G03Y147829I247J-315D01*
G02Y145307I-988J-1261D01*
G03Y144677I247J-315D01*
G02X-221743Y144404I-988J-1261D01*
G03X-221113I315J247D01*
G02Y142428I1261J-988D01*
G03X-221743I-315J-247D01*
G02X-222016Y142155I-1261J988D01*
G03Y141525I247J-315D01*
G02Y139003I-988J-1261D01*
G03Y138373I247J-315D01*
G02X-224265Y136124I-988J-1261D01*
G03X-224895I-315J-247D01*
G02X-225168Y135851I-1261J988D01*
G03Y135221I247J-315D01*
G02Y132699I-988J-1261D01*
G03Y132069I247J-315D01*
G02X-224895Y131796I-988J-1261D01*
G03X-224265I315J247D01*
G02Y129820I1261J-988D01*
G37*
G36*
G01X-240025Y136124D02*
G03X-240655I-315J-247D01*
G02Y138100I-1261J988D01*
G03X-240025I315J247D01*
G02Y136124I1261J-988D01*
G37*
G36*
G01X-110922Y140278D02*
G03X-110523Y139948I394J70D01*
G02X-112078Y138068I23J-1602D01*
G03X-112477Y138398I-394J-70D01*
G02X-110922Y140278I-23J1602D01*
G37*
G36*
G01X-298231Y140789D02*
G03Y140527I151J-131D01*
G02X-300649I-1209J-1051D01*
G03Y140789I-151J131D01*
G02Y142891I1209J1051D01*
G03Y143153I-151J131D01*
G02Y145255I1209J1051D01*
G03Y145517I-151J131D01*
G02X-298231I1209J1051D01*
G03Y145255I151J-131D01*
G02Y143153I-1209J-1051D01*
G03Y142891I151J-131D01*
G02Y140789I-1209J-1051D01*
G37*
G36*
G01X-232245Y142619D02*
G03X-231657Y142608I299J265D01*
G02X-231699Y140437I1157J-1108D01*
G03X-232287Y140448I-299J-265D01*
G02X-232245Y142619I-1157J1108D01*
G37*
G36*
G01X-122280Y143469D02*
G03X-122050Y143578I49J194D01*
G02X-120992Y141350I1453J-675D01*
G03X-121222Y141241I-49J-194D01*
G02X-122280Y143469I-1453J675D01*
G37*
G36*
G01X-246329Y142428D02*
G03X-246959I-315J-247D01*
G02X-249208Y144677I-1261J988D01*
G03Y145307I-247J315D01*
G02X-248293Y148168I988J1261D01*
G03X-248102Y148369I-9J200D01*
G02X-245345Y149482I1602J3D01*
G03X-244745Y149507I289J277D01*
G02X-241903Y148373I1245J-1008D01*
G03X-241727Y148159I199J-15D01*
G02X-240928Y145307I-189J-1591D01*
G03Y144677I247J-315D01*
G02X-243177Y142428I-988J-1261D01*
G03X-243807I-315J-247D01*
G02X-246329I-1261J988D01*
G37*
G36*
G01X-114351Y148905D02*
G03X-114532Y148724I18J-199D01*
G02X-116276Y150468I-1595J149D01*
G03X-116095Y150649I-18J199D01*
G02X-114351Y148905I1595J-149D01*
G37*
G36*
G01X-102929Y154038D02*
G03X-102721Y153546I379J-130D01*
G02X-104919Y152614I-682J-1449D01*
G03X-105127Y153106I-379J130D01*
G02X-102929Y154038I682J1449D01*
G37*
G36*
G01X-279431Y153664D02*
G03X-279746Y153192I77J-392D01*
G02X-281625Y154444I-1570J-320D01*
G03X-281310Y154916I-77J392D01*
G02X-279431Y153664I1570J320D01*
G37*
G36*
G01X-262089Y151884D02*
G03X-262719I-315J-247D01*
G02X-264968Y154133I-1261J988D01*
G03Y154763I-247J315D01*
G02Y157285I988J1261D01*
G03Y157915I-247J315D01*
G02Y160437I988J1261D01*
G03Y161067I-247J315D01*
G02X-265241Y161340I988J1261D01*
G03X-265871I-315J-247D01*
G02Y163316I-1261J988D01*
G03X-265241I315J247D01*
G02X-262719I1261J-988D01*
G03X-262089I315J247D01*
G02X-259567I1261J-988D01*
G03X-258937I315J247D01*
G02X-256415I1261J-988D01*
G03X-255785I315J247D01*
G02X-253263I1261J-988D01*
G03X-252633I315J247D01*
G02X-250111I1261J-988D01*
G03X-249481I315J247D01*
G02X-247232Y161067I1261J-988D01*
G03Y160437I247J-315D01*
G02X-246959Y160164I-988J-1261D01*
G03X-246329I315J247D01*
G02Y158188I1261J-988D01*
G03X-246959I-315J-247D01*
G02X-249481I-1261J988D01*
G03X-250111I-315J-247D01*
G02X-252633I-1261J988D01*
G03X-253263I-315J-247D01*
G02X-255785I-1261J988D01*
G03X-256415I-315J-247D01*
G02X-258937I-1261J988D01*
G03X-259567I-315J-247D01*
G02X-259840Y157915I-1261J988D01*
G03Y157285I247J-315D01*
G02Y154763I-988J-1261D01*
G03Y154133I247J-315D01*
G02X-262089Y151884I-988J-1261D01*
G37*
G36*
G01X-103668Y161110D02*
G03X-103468Y160511I333J-222D01*
G02X-105332Y159890I-532J-1511D01*
G03X-105532Y160489I-333J222D01*
G02X-103668Y161110I532J1511D01*
G37*
G36*
G01X-154200Y158439D02*
G03X-154800I-300J-265D01*
G02Y160561I-1200J1061D01*
G03X-154200I300J265D01*
G02X-151800I1200J-1061D01*
G03X-151200I300J265D01*
G02X-148800I1200J-1061D01*
G03X-148200I300J265D01*
G02X-145800I1200J-1061D01*
G03X-145200I300J265D01*
G02Y158439I1200J-1061D01*
G03X-145800I-300J-265D01*
G02X-148200I-1200J1061D01*
G03X-148800I-300J-265D01*
G02X-151200I-1200J1061D01*
G03X-151800I-300J-265D01*
G02X-154200I-1200J1061D01*
G37*
G36*
G01X-120559Y161201D02*
G03X-120060Y161001I360J175D01*
G02X-120941Y158799I560J-1501D01*
G03X-121440Y158999I-360J-175D01*
G02X-120559Y161201I-560J1501D01*
G37*
G36*
G01X-99956Y166072D02*
G03X-99646Y165573I385J-106D01*
G02X-101494Y164428I-304J-1573D01*
G03X-101804Y164927I-385J106D01*
G02X-99956Y166072I304J1573D01*
G37*
G36*
G01X-312527Y172576D02*
G03X-312842Y172104I77J-392D01*
G02Y171464I-1570J-320D01*
G03X-312527Y170992I392J-80D01*
G02X-314097Y168432I-309J-1572D01*
G03X-314727I-315J-247D01*
G02X-317558Y169740I-1261J988D01*
G03X-317873Y170212I-392J80D01*
G02X-318565Y170533I309J1572D01*
G03X-319158Y170426I-250J-313D01*
G02X-318827Y173454I-3134J1875D01*
G03X-318271Y173222I379J127D01*
G02X-317873Y173356I706J-1438D01*
G03X-317558Y173828I-77J392D01*
G02Y174468I1570J320D01*
G03X-317873Y174940I-392J80D01*
G02X-316303Y177500I309J1572D01*
G03X-315673I315J247D01*
G02X-312842Y176192I1261J-988D01*
G03X-312527Y175720I392J-80D01*
G02Y172576I-309J-1572D01*
G37*
G36*
G01X-184128Y172828D02*
G03X-183529Y172728I342J206D01*
G02X-183872Y170672I1029J-1228D01*
G03X-184471Y170772I-342J-206D01*
G02X-184128Y172828I-1029J1228D01*
G37*
G36*
G01X-247011Y174673D02*
G03Y174411I151J-131D01*
G02X-249429I-1209J-1051D01*
G03Y174673I-151J131D01*
G02Y176775I1209J1051D01*
G03Y177037I-151J131D01*
G02X-247169Y179297I1209J1051D01*
G03X-246907I131J151D01*
G02X-245534Y179657I1051J-1209D01*
G03X-245061Y180130I81J392D01*
G02X-242441Y181661I1569J322D01*
G03X-242179I131J151D01*
G02X-241450Y178883I1051J-1209D01*
G03X-241923Y178410I-81J-392D01*
G02X-244543Y176879I-1569J-322D01*
G03X-244805I-131J-151D01*
G02X-246178Y176519I-1051J1209D01*
G03X-246651Y176046I-81J-392D01*
G02X-247011Y174673I-1569J-322D01*
G37*
G36*
G01X-54805Y174469D02*
G03X-55034Y174355I-46J-195D01*
G02X-56137Y176560I-1466J645D01*
G03X-55908Y176674I46J195D01*
G02X-54445Y177631I1466J-645D01*
G03X-54057Y178125I-1J400D01*
G02X-52497Y176898I1557J375D01*
G03X-52885Y176404I1J-400D01*
G02X-54805Y174469I-1557J-375D01*
G37*
G36*
G01X-93084Y190386D02*
G03X-93699I-307J-255D01*
G02X-96378Y193065I-1464J1215D01*
G03Y193680I-255J307D01*
G02Y196608I1215J1464D01*
G03Y197223I-255J307D01*
G02X-93699Y199902I1215J1464D01*
G03X-93084I308J255D01*
G02X-90156I1464J-1215D01*
G03X-89541I307J255D01*
G02X-86862Y197223I1464J-1215D01*
G03Y196608I255J-308D01*
G02Y193680I-1215J-1464D01*
G03Y193065I255J-308D01*
G02X-89541Y190386I-1215J-1464D01*
G03X-90156I-307J-255D01*
G02X-93084I-1464J1215D01*
G37*
G36*
G01X-56949Y217101D02*
G03X-56549Y216601I388J-100D01*
G02X-58051Y215399I49J-1601D01*
G03X-58451Y215899I-388J100D01*
G02X-59611Y216346I-49J1601D01*
G03X-59889I-139J-144D01*
G02Y218654I-1111J1154D01*
G03X-59611I139J144D01*
G02X-56949Y217101I1111J-1154D01*
G37*
G36*
G01X-226946Y216798D02*
G03X-226722Y216637I196J37D01*
G02X-228074Y214752I222J-1587D01*
G03X-228298Y214913I-196J-37D01*
G02X-226946Y216798I-222J1587D01*
G37*
G36*
G01X-22496Y170010D02*
X-22498Y170000D01*
Y102000D01*
G02X-26000Y97498I-5143J388D01*
G01X-28500D01*
G02X-32502Y101500I250J4252D01*
G01Y171000D01*
G02X-28500Y174502I4298J-874D01*
G01X-25500D01*
G02X-22496Y170010I-1178J-4038D01*
G37*
G54D36*
X-453282Y-36129D03*
G54D28*
X1300Y102300D03*
X-12000Y108500D03*
Y95000D03*
X-17336Y48969D03*
X-20500Y18000D03*
X-38150Y163150D03*
X-41000Y160000D03*
X-42500Y106000D03*
X-38350Y50650D03*
X-37000Y37000D03*
X-36500Y26500D03*
X-50000Y209450D03*
X-46500Y207500D03*
X-48000Y201500D03*
X-50500Y175000D03*
X-49350Y158000D03*
X-52500Y122000D03*
X-45350Y102350D03*
X-49500Y27650D03*
X-53500Y211000D03*
X-56849Y203350D03*
X-58350Y70850D03*
X-54500Y41350D03*
Y37500D03*
X-66000Y220050D03*
X-69000Y212550D03*
X-62497Y213548D03*
X-64000Y200500D03*
X-63450Y196000D03*
X-68844Y192344D03*
X-68170Y163670D03*
X-64500Y126000D03*
Y122000D03*
X-65000Y103500D03*
X-75500Y200500D03*
X-77350Y195500D03*
X-73620Y188880D03*
X-77500Y140000D03*
X-78252Y115288D03*
X-76000Y72000D03*
X-83500Y206500D03*
X-79000Y159000D03*
X-81977Y147130D03*
X-80000Y150500D03*
X-81500Y139000D03*
X-82000Y91500D03*
X-93000Y209000D03*
X-93860Y138860D03*
X-94220Y131780D03*
X-88000Y60500D03*
X-96494Y181994D03*
X-99850Y174150D03*
X-111000Y223500D03*
X-109695Y204500D03*
X-109000Y191500D03*
X-107500Y171000D03*
X-109100Y152050D03*
X-110650Y145500D03*
X-107550Y141550D03*
X-108000Y81000D03*
X-120000Y204550D03*
X-112684Y208032D03*
X-112872Y199128D03*
X-114500Y182350D03*
X-118000Y175500D03*
X-115500Y172500D03*
X-124965Y190000D03*
X-128000Y162000D03*
X-123550Y156950D03*
X-128500Y150000D03*
X-128650Y120500D03*
Y111000D03*
X-125500Y90500D03*
X-128450Y49650D03*
X-131000Y202000D03*
X-136500Y159050D03*
X-137700Y119200D03*
X-148745Y202450D03*
X-157500Y192500D03*
X-159000Y182450D03*
X-157710Y172500D03*
X-155000Y134500D03*
X-156000Y106000D03*
X-159964Y93772D03*
X-161750Y-63000D03*
X-170000Y179500D03*
X-166700Y111200D03*
X-163904Y93772D03*
X-167868Y19700D03*
X-165500Y-72500D03*
Y-78000D03*
X-174700Y119200D03*
X-174500Y-41000D03*
X-173850Y-49154D03*
X-182750Y151500D03*
X-184392Y136324D03*
X-181000Y102500D03*
X-186994Y4728D03*
X-181500Y-50960D03*
X-189903Y175903D03*
X-187500Y161000D03*
X-191900Y73305D03*
X-190555Y56595D03*
X-193705Y46295D03*
Y25000D03*
X-190555Y2555D03*
X-198409Y232409D03*
X-202346Y232346D03*
X-196000Y161000D03*
X-203000Y155638D03*
Y142500D03*
X-199400Y127930D03*
X-196500Y42000D03*
X-200004Y27000D03*
X-203500Y20000D03*
X-196854Y2500D03*
X-205450Y194450D03*
Y162000D03*
X-211972Y120564D03*
X-211500Y112500D03*
X-209000Y102650D03*
X-206303Y56736D03*
X-209453Y46547D03*
X-207500Y40000D03*
X-211000Y32050D03*
X-205500Y30500D03*
X-212500Y24000D03*
X-209500Y22000D03*
X-206303Y2697D03*
X-216452Y216503D03*
X-213562Y160738D03*
X-213500Y133960D03*
X-219852Y127656D03*
X-216700Y124504D03*
X-220500Y42000D03*
X-217302Y36000D03*
X-218902Y17402D03*
X-215000Y15500D03*
X-215752Y2752D03*
X-223000Y219500D03*
X-223004Y118200D03*
X-221500Y112000D03*
X-223500Y99000D03*
X-222000Y83000D03*
X-228350Y80000D03*
X-225500Y57656D03*
X-228350Y46150D03*
X-228500Y26500D03*
X-222051Y15449D03*
X-225201Y2701D03*
X-234000Y220500D03*
X-235612Y192272D03*
X-237384Y141616D03*
X-234036Y108744D03*
Y112684D03*
X-237799Y57347D03*
X-231500Y57352D03*
X-234650Y46150D03*
X-233000Y37000D03*
X-231500Y2500D03*
X-242500Y210500D03*
X-238000Y188500D03*
X-245698Y75198D03*
X-241500Y67000D03*
X-243500Y72000D03*
X-240949Y43500D03*
X-238500Y40000D03*
X-245856Y-29944D03*
X-253527Y229973D03*
X-249500Y233100D03*
X-248220Y137112D03*
Y129232D03*
X-247432Y2364D03*
X-250500Y-4350D03*
X-248000Y-59000D03*
X-257640Y170500D03*
X-255097Y72500D03*
X-270500Y85000D03*
X-268000Y81500D03*
X-271000Y-38500D03*
X-272200Y70000D03*
X-272445Y56500D03*
X-272500Y2500D03*
X-284000Y81000D03*
X-288000Y44000D03*
X-293500Y102500D03*
X-288500Y87500D03*
X-290250Y76500D03*
X-296288Y11000D03*
X-305000Y-500D03*
X-309684Y138688D03*
X-306806Y135536D03*
Y141566D03*
X-311040Y94000D03*
X-305940Y95700D03*
X-309340Y97400D03*
X-307242Y30758D03*
X-307000Y-3500D03*
X-320716Y126868D03*
X-316492Y38992D03*
X-317564Y28368D03*
X-324000Y151000D03*
X-324192Y130808D03*
X-324284Y123716D03*
X-330172Y111896D03*
X-324442Y31942D03*
X-329384Y23384D03*
X-327971Y-19529D03*
X-331000Y153000D03*
X-338000Y150500D03*
X-334214Y130786D03*
X-334093Y124093D03*
X-334000Y104703D03*
X-333000Y94500D03*
X-330883Y-16617D03*
X-341500Y147000D03*
X-355000Y122000D03*
X-347500Y76500D03*
X-354874Y79126D03*
X-347500Y63000D03*
X-354874Y60640D03*
X-347383Y55117D03*
X-354874Y52760D03*
X-355924Y25424D03*
X-375924D03*
X-386000Y27000D03*
X-388000Y30500D03*
X-380850Y17150D03*
X-395924Y25424D03*
X-391150Y17150D03*
X-390350Y-55350D03*
X-414000Y114000D03*
X-405924Y25424D03*
X-411326Y17326D03*
X-417500Y149000D03*
X-419500Y112500D03*
X-415924Y25424D03*
X-422321Y-43179D03*
X-416500Y-58500D03*
X-416000Y-68500D03*
X-427500Y129500D03*
X-425924Y25424D03*
Y-10924D03*
X-425233Y-40267D03*
X-431250Y107400D03*
Y100650D03*
Y71922D03*
G54D34*
X-223500Y194500D03*
X-238500Y-18000D03*
X-322292Y182300D03*
X-385500Y-65500D03*
G54D33*
X-138000Y62500D03*
X-148000D03*
X-158000D03*
X-164000Y194500D03*
X-174000D03*
X-177000Y79000D03*
Y69000D03*
X-213500Y194500D03*
X-228500Y-18000D03*
G54D30*
X3600Y32500D03*
X-24000D03*
G54D32*
X-101000Y125000D03*
G54D41*
X-456670Y36298D03*
G54D31*
X-21000Y-62400D03*
X-46000Y-42600D03*
G54D29*
X5000Y182500D03*
X-457000D03*
G54D35*
X-183409Y212040D03*
X-268527D03*
G54D38*
X-457654Y143699D03*
G54D37*
X-350961Y136613D03*
G54D40*
X-349583Y100392D03*
Y70274D03*
G54D39*
X-342300Y42912D03*
%LPD*%
G75*
G54D10*
X-457000Y182500D03*
X-452000Y0D03*
X0D03*
X5000Y182500D03*
G54D20*
X-265500Y-74000D03*
X-263500Y-70500D03*
X-267500D03*
X-265500Y-67500D03*
X-263500Y-64500D03*
X-267500D03*
X-265500Y-61000D03*
X-267000Y-57500D03*
X-263500D03*
X-261500Y-74000D03*
X-260000Y-70500D03*
X-261500Y-67500D03*
X-260000Y-64500D03*
X-261500Y-61000D03*
X-260000Y-57500D03*
X-95163Y191601D03*
Y195144D03*
Y198687D03*
X-88000Y72000D03*
Y68457D03*
X-91543Y72000D03*
Y68457D03*
X-91500Y75500D03*
X-88000Y75543D03*
X-91620Y191601D03*
X-88077D03*
X-91620Y195144D03*
X-88077D03*
Y198687D03*
X-91620D03*
X-84457Y68457D03*
Y72000D03*
Y75543D03*
X-55043Y51457D03*
Y58543D03*
Y55000D03*
X-47957Y51457D03*
X-51500D03*
Y58543D03*
Y55000D03*
X-48000D03*
Y58500D03*
G54D11*
X-453282Y-64869D03*
Y-36129D03*
G54D12*
X-456670Y36298D03*
G54D21*
X-201800Y-76306D03*
Y-71385D03*
Y-61542D03*
Y-66464D03*
Y-51700D03*
Y-56621D03*
G54D13*
X-457654Y143699D03*
G54D22*
X-101000Y125000D03*
G54D14*
X-439207Y-53649D03*
Y-47350D03*
X-432317Y-56798D03*
Y-50499D03*
Y-44200D03*
G54D23*
X-46000Y-42600D03*
X-21000Y-62400D03*
G54D24*
X-24000Y32500D03*
X3600D03*
G54D15*
X-431250Y71922D03*
Y100650D03*
Y107400D03*
X-427500Y-52500D03*
X-425233Y-40267D03*
X-425924Y-10924D03*
Y25424D03*
X-430200Y87200D03*
X-424000Y119500D03*
X-427250Y120250D03*
X-427500Y129500D03*
X-416000Y-68500D03*
X-414500Y-52500D03*
X-416500Y-58500D03*
X-422321Y-43179D03*
X-415924Y-10924D03*
Y25424D03*
X-422350Y87850D03*
X-419500Y112500D03*
X-417500Y149000D03*
X-410500Y-36500D03*
X-405924Y-10924D03*
X-411326Y17326D03*
X-405924Y25424D03*
X-414000Y114000D03*
X-399650Y-73350D03*
X-404000Y-68500D03*
X-399650Y-63650D03*
X-403000Y-62000D03*
X-403500Y-39500D03*
X-405500Y-38000D03*
X-403500Y-36500D03*
X-405500Y-35000D03*
X-403500Y-33500D03*
X-405500Y-32000D03*
X-391000Y-81500D03*
Y-79000D03*
Y-76500D03*
Y-74000D03*
X-390350Y-55350D03*
X-395924Y-10924D03*
X-391150Y17150D03*
X-394000Y30500D03*
X-395924Y25424D03*
X-394000Y43500D03*
X-381000Y-26000D03*
X-386000D03*
X-383500Y-28000D03*
X-386000Y-30000D03*
X-381000D03*
X-383500Y-32000D03*
X-381000Y-33500D03*
X-385924Y-10924D03*
X-380850Y17150D03*
X-388000Y30500D03*
X-386000Y27000D03*
X-376000Y-26000D03*
X-378500Y-28000D03*
X-376000Y-30000D03*
X-378500Y-32000D03*
X-375924Y-10924D03*
Y25424D03*
X-365924Y-10924D03*
X-360000Y-56000D03*
Y-53000D03*
X-357500Y-51500D03*
Y-54500D03*
Y-57500D03*
X-360000Y-50000D03*
X-357500Y-48500D03*
X-355924Y-10924D03*
Y25424D03*
X-354874Y52760D03*
X-347383Y55117D03*
X-354874Y60640D03*
X-347500Y63000D03*
X-354874Y79126D03*
X-347500Y76500D03*
X-347954Y114546D03*
X-355000Y122000D03*
X-347294Y142794D03*
X-345924Y-10924D03*
X-342500Y80500D03*
Y99500D03*
Y119500D03*
X-341500Y147000D03*
X-335924Y-10924D03*
X-330883Y-16617D03*
X-333518Y85018D03*
X-333000Y94500D03*
X-334000Y104703D03*
X-334093Y124093D03*
X-334214Y130786D03*
X-338000Y150500D03*
X-331000Y153000D03*
X-333324Y162328D03*
X-327971Y-19529D03*
X-329384Y23384D03*
X-324442Y31942D03*
X-330172Y111896D03*
X-324284Y123716D03*
X-324192Y130808D03*
X-329644Y157860D03*
X-327808Y156024D03*
X-324000Y151000D03*
X-329644Y166796D03*
X-316992Y22852D03*
X-317564Y28368D03*
X-320992Y38508D03*
X-316492Y38992D03*
X-315000Y102000D03*
X-320716Y126868D03*
X-315200Y144992D03*
X-315988Y169420D03*
X-314412Y171784D03*
X-317564D03*
X-315988Y174148D03*
X-314412Y176512D03*
X-317564D03*
X-307000Y-3500D03*
X-310058Y9942D03*
X-307242Y30758D03*
X-312492Y38492D03*
X-309340Y97400D03*
X-305940Y95700D03*
X-312740Y100000D03*
X-311040Y94000D03*
X-306806Y141566D03*
Y135536D03*
X-309684Y138688D03*
X-311520Y149460D03*
X-312836Y174148D03*
Y169420D03*
X-305000Y-500D03*
X-299742Y30758D03*
X-299440Y141840D03*
Y139476D03*
Y146568D03*
Y144204D03*
X-297864Y182816D03*
Y187544D03*
Y192272D03*
X-296288Y11000D03*
X-288500Y72000D03*
X-290250Y76500D03*
X-288500Y87500D03*
X-294500Y90500D03*
X-292500Y92300D03*
X-293500Y102500D03*
X-294712Y149288D03*
Y166288D03*
X-293320Y169680D03*
X-294712Y182816D03*
X-296288Y185180D03*
X-294712Y187544D03*
Y192272D03*
X-296288Y189908D03*
X-282500Y22000D03*
X-284500Y24000D03*
X-280500Y20000D03*
X-286200Y26500D03*
X-288000Y44000D03*
X-286500Y74500D03*
X-284000Y81000D03*
X-281316Y152872D03*
X-272500Y2500D03*
X-272445Y12445D03*
X-276949Y15449D03*
X-278700Y17500D03*
X-275000Y29000D03*
X-273000Y31500D03*
X-275000Y51488D03*
X-272445Y56500D03*
X-272500Y67000D03*
X-272200Y70000D03*
X-274000Y137000D03*
X-275800Y155340D03*
X-279740Y155236D03*
X-271860Y181240D03*
X-274224Y183604D03*
X-275800Y181240D03*
X-278164Y183604D03*
X-271000Y-38500D03*
X-269500Y-4350D03*
X-269295Y12608D03*
X-266146D03*
Y45500D03*
X-269295D03*
Y59500D03*
X-266146D03*
X-268000Y81500D03*
X-270500Y85000D03*
X-267132Y124504D03*
X-263980D03*
Y121352D03*
Y130808D03*
Y127656D03*
Y133960D03*
Y137112D03*
Y146568D03*
Y143416D03*
Y156024D03*
Y152872D03*
Y162328D03*
Y159176D03*
X-267132Y162328D03*
X-270500Y169000D03*
X-270284Y183604D03*
X-262996Y12608D03*
X-256697D03*
X-259846D03*
X-256697Y45500D03*
X-259846D03*
X-262996D03*
X-262953Y59500D03*
X-256697D03*
X-259846D03*
X-255097Y72500D03*
X-257671Y121354D03*
Y124504D03*
X-260828Y121352D03*
Y124504D03*
Y130810D03*
Y127656D03*
X-256500Y134500D03*
X-260828Y133960D03*
Y137112D03*
Y143416D03*
X-257500Y146500D03*
X-260828Y146568D03*
Y156024D03*
Y152872D03*
X-257676Y159176D03*
X-260828Y162328D03*
X-257676D03*
X-260828Y159176D03*
X-257640Y170500D03*
X-246644Y-70920D03*
Y-67768D03*
X-248000Y-59000D03*
X-250500Y-4350D03*
X-247432Y2364D03*
X-247248Y12424D03*
X-250398Y12608D03*
X-253547D03*
X-250398Y45500D03*
X-253547D03*
X-247248D03*
Y59500D03*
X-250398D03*
X-253547D03*
X-246644Y108744D03*
X-246642Y112686D03*
X-254522Y124504D03*
Y121354D03*
X-248220Y124504D03*
X-251372Y121352D03*
X-248220D03*
X-251372Y124504D03*
X-248220Y129232D03*
Y137112D03*
Y143416D03*
X-246500Y148372D03*
X-248220Y146568D03*
X-253144Y154356D03*
X-254524Y162328D03*
Y159176D03*
X-251372D03*
X-248220Y162328D03*
Y159176D03*
X-251372Y162328D03*
X-248220Y173360D03*
Y175724D03*
Y178088D03*
X-249500Y233100D03*
X-253527Y229973D03*
X-245856Y-29944D03*
X-240949Y12429D03*
X-244098Y12426D03*
X-238500Y40000D03*
X-240949Y43500D03*
Y59500D03*
X-244098D03*
X-243500Y72000D03*
X-241500Y67000D03*
X-245698Y75198D03*
X-240340Y108744D03*
X-243492Y112684D03*
X-240342Y112686D03*
X-243492Y108744D03*
X-245068Y124504D03*
X-238764Y121352D03*
X-245068D03*
X-238764Y124504D03*
X-245500Y128000D03*
X-241500D03*
X-238500D03*
X-238764Y137112D03*
X-241916D03*
Y146568D03*
X-245068Y143416D03*
X-241916D03*
X-243500Y148499D03*
X-245068Y146568D03*
X-244244Y154722D03*
X-238764Y162328D03*
X-245068Y159176D03*
X-241916Y162328D03*
X-238764Y159176D03*
X-245856Y178088D03*
X-243492D03*
Y180452D03*
X-241128D03*
X-238000Y188500D03*
X-242500Y210500D03*
X-241716Y229716D03*
X-230000Y-51000D03*
Y-48500D03*
Y-46000D03*
Y-43500D03*
Y-41000D03*
Y-38500D03*
X-234500Y-4350D03*
X-231500Y2500D03*
Y12500D03*
X-237799Y12431D03*
X-234500Y33500D03*
X-237000Y35500D03*
X-233000Y37000D03*
X-231500Y46492D03*
X-234650Y46150D03*
X-231500Y57352D03*
X-237799Y57347D03*
X-231500Y67500D03*
X-230350Y92150D03*
X-231500Y98500D03*
X-237193Y114193D03*
X-230894Y114106D03*
X-234036Y112684D03*
Y108744D03*
X-235612Y121352D03*
X-232460D03*
Y124504D03*
X-235612D03*
Y118200D03*
X-231500Y133000D03*
X-237384Y141616D03*
X-233444Y141556D03*
X-230500Y141500D03*
X-233444Y151444D03*
X-237384Y151384D03*
X-235612Y162328D03*
X-232460D03*
Y159176D03*
X-235612D03*
X-230894Y185500D03*
X-234043Y187544D03*
X-235612Y192272D03*
X-230884Y188332D03*
X-234000Y220500D03*
X-229750Y233100D03*
X-228000Y-4350D03*
X-225201Y2701D03*
Y12799D03*
X-222051Y15449D03*
X-228500Y26500D03*
X-225201Y46659D03*
X-222051Y46051D03*
X-228350Y46150D03*
X-225500Y57656D03*
Y67500D03*
X-228350Y80000D03*
X-222000Y83000D03*
X-223500Y99000D03*
X-227744Y107744D03*
X-224594Y108094D03*
X-221500Y112000D03*
X-226156Y121354D03*
X-229308Y124504D03*
X-223004Y118200D03*
X-229308Y121352D03*
X-223004Y130808D03*
X-226156D03*
X-223004Y133960D03*
Y140264D03*
X-226156D03*
Y137112D03*
X-223004D03*
X-226156Y133960D03*
Y149720D03*
X-223004D03*
Y146568D03*
Y143416D03*
X-226156Y146568D03*
Y156024D03*
X-223004D03*
Y152872D03*
X-226156D03*
X-223004Y162328D03*
X-226156Y159176D03*
X-223004D03*
X-226156Y165480D03*
X-229308Y159176D03*
X-226156Y162328D03*
X-229308D03*
Y182028D03*
X-227744Y184392D03*
X-228520Y216500D03*
X-226500Y215050D03*
X-223000Y219500D03*
X-224984Y229984D03*
X-227248Y232398D03*
X-218500Y-4350D03*
X-215752Y2752D03*
Y12752D03*
X-215000Y15500D03*
X-218902Y17402D03*
X-217302Y36000D03*
X-215752Y46652D03*
X-220500Y42000D03*
X-218902Y46098D03*
X-216000Y56824D03*
Y67500D03*
X-213500Y80400D03*
X-215500Y83000D03*
X-216700Y124504D03*
X-215919Y132391D03*
X-219852Y127656D03*
X-215914Y138690D03*
X-213500Y133960D03*
X-214336Y141840D03*
X-215914Y144990D03*
X-219852Y143416D03*
X-215639Y148139D03*
X-215789Y151289D03*
X-213562Y160738D03*
X-216452Y216503D03*
X-214157Y229657D03*
X-218094Y229594D03*
X-209500Y-4350D03*
X-206303Y2697D03*
Y12803D03*
X-209500Y22000D03*
X-212500Y24000D03*
X-205500Y30500D03*
X-211000Y32050D03*
X-207500Y40000D03*
X-206303Y46645D03*
X-209453Y46547D03*
X-204704Y44000D03*
X-206303Y56736D03*
X-212602Y56898D03*
X-206500Y67500D03*
X-205150Y105650D03*
X-209000Y102650D03*
X-211500Y112500D03*
X-211972Y120564D03*
X-205450Y162000D03*
Y194450D03*
X-210220Y229720D03*
X-199500Y-4350D03*
X-196854Y2500D03*
Y12354D03*
X-203500Y20000D03*
X-200004Y27000D03*
X-201554Y39000D03*
X-202500Y36000D03*
X-196854Y46638D03*
X-203154Y46654D03*
X-196500Y42000D03*
X-196854Y56590D03*
X-200004Y56496D03*
X-197500Y67500D03*
X-199350Y116350D03*
X-202000Y116500D03*
Y120500D03*
X-203000Y130000D03*
X-199400Y127930D03*
X-203000Y134500D03*
Y146500D03*
Y142500D03*
Y155638D03*
X-200350Y161150D03*
X-196000Y161000D03*
X-202346Y232346D03*
X-198409Y232409D03*
X-193500Y-4350D03*
X-187544Y-5516D03*
X-190555Y2555D03*
Y12445D03*
X-193705Y25000D03*
X-190555Y46555D03*
X-193705Y46295D03*
X-190555Y56595D03*
X-190500Y67500D03*
X-191900Y73305D03*
X-193730Y124230D03*
X-189120Y141052D03*
X-189908Y138714D03*
X-188332Y144204D03*
X-187500Y161000D03*
X-189903Y175903D03*
X-181500Y-50960D03*
X-185000Y-3152D03*
X-183058Y-1576D03*
X-186994Y4728D03*
X-181000Y788D03*
Y102500D03*
X-180500Y109000D03*
X-184392Y136324D03*
X-186120Y146000D03*
X-182750Y151500D03*
X-182500Y161000D03*
X-185500Y172000D03*
X-182500Y171500D03*
X-173850Y-49154D03*
X-174500Y-41000D03*
X-178876Y2364D03*
X-179045Y4728D03*
X-177500Y108500D03*
X-174700Y119200D03*
X-171150Y131350D03*
X-175500Y146500D03*
X-165500Y-78000D03*
Y-72500D03*
X-167868Y19700D03*
X-167000Y99000D03*
X-168800Y94700D03*
X-163904Y93772D03*
X-166700Y111200D03*
X-170000Y179500D03*
X-154250Y-69750D03*
X-161750Y-63000D03*
X-160678Y-5442D03*
X-159964Y93772D03*
X-156000Y106000D03*
X-155300Y110800D03*
X-159750Y126750D03*
X-159250Y135250D03*
X-155000Y134500D03*
X-156000Y149500D03*
Y159500D03*
X-157710Y172500D03*
X-159000Y182450D03*
X-157500Y192500D03*
X-148332Y-67332D03*
X-153800Y94800D03*
X-147000Y159500D03*
X-150000D03*
X-153000D03*
X-147500Y172500D03*
Y182500D03*
X-148304Y197696D03*
X-148745Y202450D03*
X-140190Y-5442D03*
X-137312Y26992D03*
X-137700Y119200D03*
X-142650Y126650D03*
X-139500Y141000D03*
X-144000Y159500D03*
X-142500Y167500D03*
X-137500Y172500D03*
X-142500Y177500D03*
X-137500Y182500D03*
X-132500Y56620D03*
X-131500Y123500D03*
X-129000Y126000D03*
X-137000Y147000D03*
X-132650Y148650D03*
X-136500Y159050D03*
X-132500Y167500D03*
Y177500D03*
X-131000Y202000D03*
X-128450Y49650D03*
X-125500Y90500D03*
X-128650Y111000D03*
Y120500D03*
X-126000Y126000D03*
X-124000Y135500D03*
X-122675Y141916D03*
X-120597Y142903D03*
X-128500Y150000D03*
X-123550Y156950D03*
X-122000Y160500D03*
X-128000Y162000D03*
X-124965Y190000D03*
X-117050Y24000D03*
X-115500Y28500D03*
X-114000Y31500D03*
X-118600Y26500D03*
X-112500Y140000D03*
X-116127Y148873D03*
X-114500Y150500D03*
X-119500Y159500D03*
X-115500Y172500D03*
X-118000Y175500D03*
X-114500Y178450D03*
Y182350D03*
X-112872Y199128D03*
X-112684Y208032D03*
X-120000Y204550D03*
X-104150Y72650D03*
X-108000Y72500D03*
Y81000D03*
X-111380Y116120D03*
X-107550Y141550D03*
X-110500Y138346D03*
X-110650Y145500D03*
X-104445Y154555D03*
X-109100Y152050D03*
X-104000Y159000D03*
X-105000Y162000D03*
X-107500Y171000D03*
X-109000Y191500D03*
X-109695Y204500D03*
X-111000Y223500D03*
X-96136Y115048D03*
X-103403Y152097D03*
X-99950Y164000D03*
X-101500Y166500D03*
X-99850Y174150D03*
X-96494Y181994D03*
X-97500Y184500D03*
X-91000Y60500D03*
X-88000D03*
X-94364Y112880D03*
X-93584Y117600D03*
X-94220Y131780D03*
X-93592Y134140D03*
X-93860Y138860D03*
X-93598Y143590D03*
X-93608Y155400D03*
X-95000Y153040D03*
X-93620Y162480D03*
X-89620Y175120D03*
X-93000Y206500D03*
Y209000D03*
X-89620Y215380D03*
X-86000Y91500D03*
X-82000D03*
X-81500Y139000D03*
X-80000Y150500D03*
X-81977Y147130D03*
X-79000Y159000D03*
X-79620Y185620D03*
X-86000Y184500D03*
X-83746Y201754D03*
X-83500Y206500D03*
X-85620Y215380D03*
X-71500Y53000D03*
X-76500Y69000D03*
X-76000Y72000D03*
X-77028Y111700D03*
X-78252Y115288D03*
X-77012Y132960D03*
X-77500Y140000D03*
X-76996Y154220D03*
X-76986Y166030D03*
X-73620Y180120D03*
X-77944Y183944D03*
X-73620Y188880D03*
X-70000Y198000D03*
X-77350Y195500D03*
X-75500Y200500D03*
X-70000Y203000D03*
X-69000Y64500D03*
X-65000Y71000D03*
Y103500D03*
X-68556Y116624D03*
Y113472D03*
X-64500Y122000D03*
X-68766Y125870D03*
X-64500Y126000D03*
X-69560Y135320D03*
X-69566Y144770D03*
X-69578Y151850D03*
X-61650Y160500D03*
X-68170Y163670D03*
X-65847Y170347D03*
X-62750Y171250D03*
X-66000Y173000D03*
X-69556Y183944D03*
X-68844Y192344D03*
X-63450Y196000D03*
X-64000Y200500D03*
Y209050D03*
X-63500Y205500D03*
X-62497Y213548D03*
X-69000Y212550D03*
X-66000Y220050D03*
X-57000Y34500D03*
X-61000D03*
X-54500Y37500D03*
Y41350D03*
X-54650Y70350D03*
X-58350Y70850D03*
X-60500Y77000D03*
X-53500Y96500D03*
X-56500D03*
X-57332Y116668D03*
X-57364Y110364D03*
X-58500Y170500D03*
X-60000Y173500D03*
X-56500Y175000D03*
X-54442Y176029D03*
X-56849Y203350D03*
X-60500Y205500D03*
X-58500Y217500D03*
X-61000D03*
X-56500Y215000D03*
X-53500Y211000D03*
X-49500Y27650D03*
X-52000Y34500D03*
X-48000Y43500D03*
X-47500Y96500D03*
X-50500D03*
Y103500D03*
X-45350Y102350D03*
X-52500Y122000D03*
X-49350Y158000D03*
X-50500Y175000D03*
X-52500Y178500D03*
X-48000Y201500D03*
X-46500Y207500D03*
X-50000Y209450D03*
X-36500Y26500D03*
X-37000Y37000D03*
X-39500Y55500D03*
X-38350Y50650D03*
X-36500Y66500D03*
X-39000Y84000D03*
X-42000D03*
X-40500Y86000D03*
X-39000Y88500D03*
X-42000D03*
X-38500Y105500D03*
X-42500Y106000D03*
X-42000Y122000D03*
Y126000D03*
X-38150Y166850D03*
X-41000Y160000D03*
X-38150Y163150D03*
X-33500Y47000D03*
X-31500Y53000D03*
Y59000D03*
X-34500Y68000D03*
X-20500Y18000D03*
Y47000D03*
X-12000Y43500D03*
X-17336Y48969D03*
X-12000Y95000D03*
Y108500D03*
X900Y17900D03*
X1300Y102300D03*
X2500Y128500D03*
X8000Y26000D03*
G54D25*
G01X-459584Y-36129D02*
X-453282D01*
G01Y-69221D02*
Y-64869D01*
G01D02*
Y-60517D01*
G01Y-64869D02*
X-446980D01*
G01X-453282Y-40481D02*
Y-36129D01*
G01D02*
Y-31777D01*
G01Y-36129D02*
X-446980D01*
G01X-432317Y-44200D02*
Y-41048D01*
G01X-436569Y-44200D02*
X-432317D01*
G01D02*
X-428065D01*
G01X-385500Y-69302D02*
Y-65500D01*
G01D02*
Y-61698D01*
G01X-389302Y-65500D02*
X-385500D01*
G01D02*
X-381698D01*
G01X-326094Y182300D02*
X-322292D01*
G01Y178498D02*
Y182300D01*
G01D02*
Y186102D01*
G01Y182300D02*
X-318490D01*
G01X-242302Y-18000D02*
X-238500D01*
G01Y-21802D02*
Y-18000D01*
G01D02*
Y-14198D01*
G01Y-18000D02*
X-234698D01*
G01X-223500Y190698D02*
Y194500D01*
G01D02*
Y198302D01*
G01X-227302Y194500D02*
X-223500D01*
G01D02*
X-219698D01*
G01X-204802Y-66464D02*
X-201800D01*
G01D02*
X-198798D01*
G54D16*
X-385500Y-75500D03*
Y-65500D03*
X-322292Y172300D03*
Y182300D03*
X-238500Y-18000D03*
X-228500D03*
X-223500Y194500D03*
X-213500D03*
X-177000Y69000D03*
Y79000D03*
X-174000Y194500D03*
X-164000D03*
X-158000Y62500D03*
X-148000D03*
X-138000D03*
G54D26*
G01X-448519Y-89000D02*
G02X-460955Y-77766I0J12500D01*
G02X-473689Y192383I2474700J252024D01*
G02X-465245Y204116I12499J-91D01*
G02X-439500Y212421I239253J-697613D01*
G02X-412500Y220029I213486J-705925D01*
G02X-333500Y236123I186501J-713531D01*
G01Y227928D01*
X-298500D01*
Y240428D01*
G02X-153500I72500J-733927D01*
G01Y227928D01*
X-118500D01*
Y236123D01*
G02X-39500Y220029I-107501J-729623D01*
G01X-12500Y212421D01*
G02X13245Y204116I-213508J-705918D01*
G02X21689Y192383I-4055J-11824D01*
G02X13842Y-24000I-2487434J-18128D01*
G01X7842D01*
G03X4842Y-27000I0J-3000D01*
G01Y-76000D01*
G03X7842Y-79000I3000J0D01*
G01X8767D01*
G02X-3481Y-89000I-12248J2501D01*
G01X-448519D01*
G01D02*
G02X-460955Y-77766I0J12500D01*
G02X-473689Y192383I2474692J252024D01*
G02X-465245Y204116I12499J-91D01*
G02X-439500Y212421I239246J-697593D01*
G02X-412500Y220029I213482J-705911D01*
G02X-333500Y236123I186501J-713533D01*
G01Y227928D01*
X-298500D01*
Y240428D01*
G02X-153500I72500J-733926D01*
G01Y227928D01*
X-118500D01*
Y236123D01*
G02X-39500Y220029I-107501J-729627D01*
G01X-12500Y212421D01*
G02X13245Y204116I-213501J-705898D01*
G02X21689Y192383I-4055J-11824D01*
G02X13842Y-24000I-2487393J-18130D01*
G01X7842D01*
G03X4842Y-27000I0J-3000D01*
G01Y-76000D01*
G03X7842Y-79000I3000J0D01*
G01X8767D01*
G02X-3481Y-89000I-12248J2501D01*
G01X-448519D01*
G01X-336968Y-119718D02*
Y-179718D01*
X-11968D01*
Y-119718D01*
X-336968D01*
G01D02*
Y-179718D01*
X-11968D01*
Y-119718D01*
X-336968D01*
G01Y-164718D02*
X-11968D01*
G01X-336968D02*
X-11968D01*
G01X-336968Y-149718D02*
X-11968D01*
G01X-336968D02*
X-11968D01*
G01X-336968Y-134718D02*
X-11968D01*
G01X-336968D02*
X-11968D01*
G01X-164468Y-179718D02*
Y-164718D01*
G01Y-179718D02*
Y-164718D01*
G01X-124468Y-179718D02*
Y-164718D01*
G01Y-179718D02*
Y-164718D01*
G54D17*
X-349583Y70274D03*
Y100392D03*
G54D27*
G01X-333968Y-169718D02*
Y-165718D01*
X-332768D01*
X-332368Y-165918D01*
X-332068Y-166385D01*
X-331968Y-166918D01*
X-332068Y-167451D01*
X-332318Y-167851D01*
X-332768Y-168051D01*
X-333968D01*
G01X-330568Y-169851D02*
X-328768Y-165718D01*
G01X-327518Y-169718D02*
Y-165718D01*
X-325218Y-169718D01*
Y-165718D01*
G01X-323068Y-169851D02*
X-323168Y-169785D01*
Y-169651D01*
X-323068Y-169585D01*
X-322968Y-169651D01*
Y-169785D01*
X-323068Y-169851D01*
G01Y-168051D02*
X-323168Y-167985D01*
Y-167851D01*
X-323068Y-167785D01*
X-322968Y-167851D01*
Y-167985D01*
X-323068Y-168051D01*
G01X-333968Y-169718D02*
Y-165718D01*
X-332768D01*
X-332368Y-165918D01*
X-332068Y-166385D01*
X-331968Y-166918D01*
X-332068Y-167451D01*
X-332318Y-167851D01*
X-332768Y-168051D01*
X-333968D01*
G01X-330568Y-169851D02*
X-328768Y-165718D01*
G01X-327518Y-169718D02*
Y-165718D01*
X-325218Y-169718D01*
Y-165718D01*
G01X-323068Y-169851D02*
X-323168Y-169785D01*
Y-169651D01*
X-323068Y-169585D01*
X-322968Y-169651D01*
Y-169785D01*
X-323068Y-169851D01*
G01Y-168051D02*
X-323168Y-167985D01*
Y-167851D01*
X-323068Y-167785D01*
X-322968Y-167851D01*
Y-167985D01*
X-323068Y-168051D01*
G01X-333968Y-150718D02*
Y-154718D01*
X-331968D01*
G01X-330918D02*
X-329668Y-150718D01*
X-328418Y-154718D01*
G01X-328868Y-153318D02*
X-330468D01*
G01X-326368Y-154718D02*
Y-152918D01*
X-327368Y-150718D01*
G01X-325368D02*
X-326368Y-152918D01*
G01X-322068Y-154718D02*
X-324068D01*
Y-150718D01*
X-322068D01*
G01X-322868Y-152651D02*
X-324068D01*
G01X-320768Y-154718D02*
Y-150718D01*
X-319518D01*
X-319118Y-150918D01*
X-318868Y-151185D01*
X-318768Y-151718D01*
X-318868Y-152251D01*
X-319168Y-152585D01*
X-319518Y-152785D01*
X-320768D01*
G01X-319518D02*
X-318768Y-154718D01*
G01X-316468Y-154851D02*
X-316568Y-154785D01*
Y-154651D01*
X-316468Y-154585D01*
X-316368Y-154651D01*
Y-154785D01*
X-316468Y-154851D01*
G01Y-153051D02*
X-316568Y-152985D01*
Y-152851D01*
X-316468Y-152785D01*
X-316368Y-152851D01*
Y-152985D01*
X-316468Y-153051D01*
G01X-333968Y-150718D02*
Y-154718D01*
X-331968D01*
G01X-330918D02*
X-329668Y-150718D01*
X-328418Y-154718D01*
G01X-328868Y-153318D02*
X-330468D01*
G01X-326368Y-154718D02*
Y-152918D01*
X-327368Y-150718D01*
G01X-325368D02*
X-326368Y-152918D01*
G01X-322068Y-154718D02*
X-324068D01*
Y-150718D01*
X-322068D01*
G01X-322868Y-152651D02*
X-324068D01*
G01X-320768Y-154718D02*
Y-150718D01*
X-319518D01*
X-319118Y-150918D01*
X-318868Y-151185D01*
X-318768Y-151718D01*
X-318868Y-152251D01*
X-319168Y-152585D01*
X-319518Y-152785D01*
X-320768D01*
G01X-319518D02*
X-318768Y-154718D01*
G01X-316468Y-154851D02*
X-316568Y-154785D01*
Y-154651D01*
X-316468Y-154585D01*
X-316368Y-154651D01*
Y-154785D01*
X-316468Y-154851D01*
G01Y-153051D02*
X-316568Y-152985D01*
Y-152851D01*
X-316468Y-152785D01*
X-316368Y-152851D01*
Y-152985D01*
X-316468Y-153051D01*
G01X-334068Y-139718D02*
Y-135718D01*
X-333068D01*
X-332668Y-135918D01*
X-332368Y-136185D01*
X-332118Y-136585D01*
X-331918Y-137051D01*
X-331868Y-137718D01*
X-331918Y-138385D01*
X-332118Y-138851D01*
X-332368Y-139251D01*
X-332668Y-139518D01*
X-333068Y-139718D01*
X-334068D01*
G01X-330668D02*
Y-135718D01*
X-329418D01*
X-329018Y-135918D01*
X-328768Y-136185D01*
X-328668Y-136718D01*
X-328768Y-137251D01*
X-329068Y-137585D01*
X-329418Y-137785D01*
X-330668D01*
G01X-329418D02*
X-328668Y-139718D01*
G01X-327618D02*
X-326368Y-135718D01*
X-325118Y-139718D01*
G01X-325568Y-138318D02*
X-327168D01*
G01X-324568Y-135718D02*
X-323868Y-139718D01*
X-323068Y-135718D01*
X-322268Y-139718D01*
X-321568Y-135718D01*
G01X-320918Y-139718D02*
Y-135718D01*
X-318618Y-139718D01*
Y-135718D01*
G01X-312768Y-137585D02*
X-312568Y-137385D01*
X-312418Y-137051D01*
X-312318Y-136585D01*
X-312418Y-136185D01*
X-312618Y-135918D01*
X-312968Y-135718D01*
X-314318D01*
Y-139718D01*
X-312668D01*
X-312318Y-139451D01*
X-312118Y-139051D01*
X-312018Y-138585D01*
X-312118Y-138118D01*
X-312418Y-137718D01*
X-312768Y-137585D01*
X-314318D01*
G01X-309868Y-139718D02*
Y-137918D01*
X-310868Y-135718D01*
G01X-308868D02*
X-309868Y-137918D01*
G01X-306568Y-139851D02*
X-306668Y-139785D01*
Y-139651D01*
X-306568Y-139585D01*
X-306468Y-139651D01*
Y-139785D01*
X-306568Y-139851D01*
G01Y-138051D02*
X-306668Y-137985D01*
Y-137851D01*
X-306568Y-137785D01*
X-306468Y-137851D01*
Y-137985D01*
X-306568Y-138051D01*
G01X-334068Y-139718D02*
Y-135718D01*
X-333068D01*
X-332668Y-135918D01*
X-332368Y-136185D01*
X-332118Y-136585D01*
X-331918Y-137051D01*
X-331868Y-137718D01*
X-331918Y-138385D01*
X-332118Y-138851D01*
X-332368Y-139251D01*
X-332668Y-139518D01*
X-333068Y-139718D01*
X-334068D01*
G01X-330668D02*
Y-135718D01*
X-329418D01*
X-329018Y-135918D01*
X-328768Y-136185D01*
X-328668Y-136718D01*
X-328768Y-137251D01*
X-329068Y-137585D01*
X-329418Y-137785D01*
X-330668D01*
G01X-329418D02*
X-328668Y-139718D01*
G01X-327618D02*
X-326368Y-135718D01*
X-325118Y-139718D01*
G01X-325568Y-138318D02*
X-327168D01*
G01X-324568Y-135718D02*
X-323868Y-139718D01*
X-323068Y-135718D01*
X-322268Y-139718D01*
X-321568Y-135718D01*
G01X-320918Y-139718D02*
Y-135718D01*
X-318618Y-139718D01*
Y-135718D01*
G01X-312768Y-137585D02*
X-312568Y-137385D01*
X-312418Y-137051D01*
X-312318Y-136585D01*
X-312418Y-136185D01*
X-312618Y-135918D01*
X-312968Y-135718D01*
X-314318D01*
Y-139718D01*
X-312668D01*
X-312318Y-139451D01*
X-312118Y-139051D01*
X-312018Y-138585D01*
X-312118Y-138118D01*
X-312418Y-137718D01*
X-312768Y-137585D01*
X-314318D01*
G01X-309868Y-139718D02*
Y-137918D01*
X-310868Y-135718D01*
G01X-308868D02*
X-309868Y-137918D01*
G01X-306568Y-139851D02*
X-306668Y-139785D01*
Y-139651D01*
X-306568Y-139585D01*
X-306468Y-139651D01*
Y-139785D01*
X-306568Y-139851D01*
G01Y-138051D02*
X-306668Y-137985D01*
Y-137851D01*
X-306568Y-137785D01*
X-306468Y-137851D01*
Y-137985D01*
X-306568Y-138051D01*
G01X-333968Y-124718D02*
Y-120718D01*
X-332768D01*
X-332368Y-120918D01*
X-332068Y-121385D01*
X-331968Y-121918D01*
X-332068Y-122451D01*
X-332318Y-122851D01*
X-332768Y-123051D01*
X-333968D01*
G01X-330668Y-124718D02*
Y-120718D01*
X-329418D01*
X-329018Y-120918D01*
X-328768Y-121185D01*
X-328668Y-121718D01*
X-328768Y-122251D01*
X-329068Y-122585D01*
X-329418Y-122785D01*
X-330668D01*
G01X-329418D02*
X-328668Y-124718D01*
G01X-326368D02*
X-326768Y-124651D01*
X-327118Y-124385D01*
X-327418Y-123985D01*
X-327618Y-123518D01*
X-327718Y-122985D01*
Y-122451D01*
X-327618Y-121918D01*
X-327418Y-121451D01*
X-327118Y-121051D01*
X-326768Y-120785D01*
X-326368Y-120718D01*
X-325968Y-120785D01*
X-325618Y-121051D01*
X-325318Y-121451D01*
X-325118Y-121918D01*
X-325018Y-122451D01*
Y-122985D01*
X-325118Y-123518D01*
X-325318Y-123985D01*
X-325618Y-124385D01*
X-325968Y-124651D01*
X-326368Y-124718D01*
G01X-324068Y-123918D02*
X-323818Y-124318D01*
X-323518Y-124585D01*
X-323168Y-124718D01*
X-322768Y-124585D01*
X-322468Y-124318D01*
X-322168Y-123918D01*
X-322068Y-123385D01*
Y-120718D01*
G01X-318768Y-124718D02*
X-320768D01*
Y-120718D01*
X-318768D01*
G01X-319568Y-122651D02*
X-320768D01*
G01X-315368Y-121051D02*
X-315668Y-120851D01*
X-316018Y-120718D01*
X-316418D01*
X-316868Y-120918D01*
X-317218Y-121251D01*
X-317468Y-121651D01*
X-317668Y-122318D01*
X-317718Y-122918D01*
X-317618Y-123518D01*
X-317468Y-123918D01*
X-317168Y-124318D01*
X-316818Y-124585D01*
X-316468Y-124718D01*
X-316118D01*
X-315768Y-124585D01*
X-315468Y-124385D01*
X-315218Y-124118D01*
G01X-313168Y-120718D02*
Y-124718D01*
G01X-314318Y-120718D02*
X-312018D01*
G01X-309868Y-124851D02*
X-309968Y-124785D01*
Y-124651D01*
X-309868Y-124585D01*
X-309768Y-124651D01*
Y-124785D01*
X-309868Y-124851D01*
G01Y-123051D02*
X-309968Y-122985D01*
Y-122851D01*
X-309868Y-122785D01*
X-309768Y-122851D01*
Y-122985D01*
X-309868Y-123051D01*
G01X-333968Y-124718D02*
Y-120718D01*
X-332768D01*
X-332368Y-120918D01*
X-332068Y-121385D01*
X-331968Y-121918D01*
X-332068Y-122451D01*
X-332318Y-122851D01*
X-332768Y-123051D01*
X-333968D01*
G01X-330668Y-124718D02*
Y-120718D01*
X-329418D01*
X-329018Y-120918D01*
X-328768Y-121185D01*
X-328668Y-121718D01*
X-328768Y-122251D01*
X-329068Y-122585D01*
X-329418Y-122785D01*
X-330668D01*
G01X-329418D02*
X-328668Y-124718D01*
G01X-326368D02*
X-326768Y-124651D01*
X-327118Y-124385D01*
X-327418Y-123985D01*
X-327618Y-123518D01*
X-327718Y-122985D01*
Y-122451D01*
X-327618Y-121918D01*
X-327418Y-121451D01*
X-327118Y-121051D01*
X-326768Y-120785D01*
X-326368Y-120718D01*
X-325968Y-120785D01*
X-325618Y-121051D01*
X-325318Y-121451D01*
X-325118Y-121918D01*
X-325018Y-122451D01*
Y-122985D01*
X-325118Y-123518D01*
X-325318Y-123985D01*
X-325618Y-124385D01*
X-325968Y-124651D01*
X-326368Y-124718D01*
G01X-324068Y-123918D02*
X-323818Y-124318D01*
X-323518Y-124585D01*
X-323168Y-124718D01*
X-322768Y-124585D01*
X-322468Y-124318D01*
X-322168Y-123918D01*
X-322068Y-123385D01*
Y-120718D01*
G01X-318768Y-124718D02*
X-320768D01*
Y-120718D01*
X-318768D01*
G01X-319568Y-122651D02*
X-320768D01*
G01X-315368Y-121051D02*
X-315668Y-120851D01*
X-316018Y-120718D01*
X-316418D01*
X-316868Y-120918D01*
X-317218Y-121251D01*
X-317468Y-121651D01*
X-317668Y-122318D01*
X-317718Y-122918D01*
X-317618Y-123518D01*
X-317468Y-123918D01*
X-317168Y-124318D01*
X-316818Y-124585D01*
X-316468Y-124718D01*
X-316118D01*
X-315768Y-124585D01*
X-315468Y-124385D01*
X-315218Y-124118D01*
G01X-313168Y-120718D02*
Y-124718D01*
G01X-314318Y-120718D02*
X-312018D01*
G01X-309868Y-124851D02*
X-309968Y-124785D01*
Y-124651D01*
X-309868Y-124585D01*
X-309768Y-124651D01*
Y-124785D01*
X-309868Y-124851D01*
G01Y-123051D02*
X-309968Y-122985D01*
Y-122851D01*
X-309868Y-122785D01*
X-309768Y-122851D01*
Y-122985D01*
X-309868Y-123051D01*
G01X-323628Y-177218D02*
X-319708Y-169718D01*
G01X-323628D02*
X-319708Y-177218D01*
G01X-316128D02*
X-312208Y-169718D01*
G01X-316128D02*
X-312208Y-177218D01*
G01X-307881Y-174718D02*
X-305455D01*
G01X-301128Y-177218D02*
X-297208Y-169718D01*
G01X-301128D02*
X-297208Y-177218D01*
G01X-293628D02*
X-289708Y-169718D01*
G01X-293628D02*
X-289708Y-177218D01*
G01X-286128D02*
X-282208Y-169718D01*
G01X-286128D02*
X-282208Y-177218D01*
G01X-278628D02*
X-274708Y-169718D01*
G01X-278628D02*
X-274708Y-177218D01*
G01X-323628D02*
X-319708Y-169718D01*
G01X-323628D02*
X-319708Y-177218D01*
G01X-316128D02*
X-312208Y-169718D01*
G01X-316128D02*
X-312208Y-177218D01*
G01X-307881Y-174718D02*
X-305455D01*
G01X-301128Y-177218D02*
X-297208Y-169718D01*
G01X-301128D02*
X-297208Y-177218D01*
G01X-293628D02*
X-289708Y-169718D01*
G01X-293628D02*
X-289708Y-177218D01*
G01X-286128D02*
X-282208Y-169718D01*
G01X-286128D02*
X-282208Y-177218D01*
G01X-278628D02*
X-274708Y-169718D01*
G01X-278628D02*
X-274708Y-177218D01*
G01X-301820Y-153500D02*
X-299580D01*
G01X-300700D02*
Y-161000D01*
G01X-301820D02*
X-299580D01*
G01X-295347D02*
Y-153500D01*
X-291053Y-161000D01*
Y-153500D01*
G01X-287847Y-161000D02*
Y-153500D01*
X-283553Y-161000D01*
Y-153500D01*
G01X-276333Y-161000D02*
X-280067D01*
Y-153500D01*
X-276333D01*
G01X-277827Y-157125D02*
X-280067D01*
G01X-272567Y-161000D02*
Y-153500D01*
X-270233D01*
X-269487Y-153875D01*
X-269020Y-154375D01*
X-268833Y-155375D01*
X-269020Y-156375D01*
X-269580Y-157000D01*
X-270233Y-157375D01*
X-272567D01*
G01X-270233D02*
X-268833Y-161000D01*
G01X-257567Y-153500D02*
Y-161000D01*
X-253833D01*
G01X-250533D02*
X-248200Y-153500D01*
X-245867Y-161000D01*
G01X-246707Y-158375D02*
X-249693D01*
G01X-240700Y-161000D02*
Y-157625D01*
X-242567Y-153500D01*
G01X-238833D02*
X-240700Y-157625D01*
G01X-231333Y-161000D02*
X-235067D01*
Y-153500D01*
X-231333D01*
G01X-232827Y-157125D02*
X-235067D01*
G01X-227567Y-161000D02*
Y-153500D01*
X-225233D01*
X-224487Y-153875D01*
X-224020Y-154375D01*
X-223833Y-155375D01*
X-224020Y-156375D01*
X-224580Y-157000D01*
X-225233Y-157375D01*
X-227567D01*
G01X-225233D02*
X-223833Y-161000D01*
G01X-212473Y-154750D02*
X-211913Y-154000D01*
X-211260Y-153625D01*
X-210513Y-153500D01*
X-209580Y-153750D01*
X-208927Y-154375D01*
X-208740Y-155125D01*
X-208833Y-155875D01*
X-209207Y-156500D01*
X-211073Y-157750D01*
X-211913Y-158625D01*
X-212473Y-159875D01*
X-212660Y-161000D01*
X-208740D01*
G01X-204413Y-158500D02*
X-201987D01*
G01X-196913D02*
X-194487D01*
G01X-189413D02*
X-186987D01*
G01X-181913D02*
X-179487D01*
G01X-174413D02*
X-171987D01*
G01X-166913D02*
X-164487D01*
G01X-160067Y-153500D02*
Y-161000D01*
X-156333D01*
G01X-152473Y-154750D02*
X-151913Y-154000D01*
X-151260Y-153625D01*
X-150513Y-153500D01*
X-149580Y-153750D01*
X-148927Y-154375D01*
X-148740Y-155125D01*
X-148833Y-155875D01*
X-149207Y-156500D01*
X-151073Y-157750D01*
X-151913Y-158625D01*
X-152473Y-159875D01*
X-152660Y-161000D01*
X-148740D01*
G01X-146000Y-163500D02*
X-140400D01*
G01X-135140Y-157250D02*
X-133273D01*
Y-159500D01*
X-133833Y-160250D01*
X-134487Y-160750D01*
X-135420Y-161000D01*
X-136353Y-160750D01*
X-137007Y-160250D01*
X-137567Y-159500D01*
X-137940Y-158625D01*
X-138127Y-157625D01*
Y-156750D01*
X-137940Y-156000D01*
X-137567Y-155125D01*
X-137007Y-154375D01*
X-136447Y-153875D01*
X-135700Y-153500D01*
X-135047D01*
X-134300Y-153750D01*
X-133740Y-154250D01*
G01X-130347Y-161000D02*
Y-153500D01*
X-126053Y-161000D01*
Y-153500D01*
G01X-122753Y-161000D02*
Y-153500D01*
X-120887D01*
X-120140Y-153875D01*
X-119580Y-154375D01*
X-119113Y-155125D01*
X-118740Y-156000D01*
X-118647Y-157250D01*
X-118740Y-158500D01*
X-119113Y-159375D01*
X-119580Y-160125D01*
X-120140Y-160625D01*
X-120887Y-161000D01*
X-122753D01*
G01X-113200Y-161250D02*
X-113387Y-161125D01*
Y-160875D01*
X-113200Y-160750D01*
X-113013Y-160875D01*
Y-161125D01*
X-113200Y-161250D01*
G01X-108033Y-161000D02*
X-105700Y-153500D01*
X-103367Y-161000D01*
G01X-104207Y-158375D02*
X-107193D01*
G01X-100067Y-161000D02*
Y-153500D01*
X-97733D01*
X-96987Y-153875D01*
X-96520Y-154375D01*
X-96333Y-155375D01*
X-96520Y-156375D01*
X-97080Y-157000D01*
X-97733Y-157375D01*
X-100067D01*
G01X-97733D02*
X-96333Y-161000D01*
G01X-90700Y-153500D02*
Y-161000D01*
G01X-92847Y-153500D02*
X-88553D01*
G01X-303535Y-145718D02*
X-303068Y-146468D01*
X-302508Y-146968D01*
X-301855Y-147218D01*
X-301108Y-146968D01*
X-300548Y-146468D01*
X-299988Y-145718D01*
X-299801Y-144718D01*
Y-139718D01*
G01X-295941D02*
X-292395D01*
X-295941Y-147218D01*
X-292395D01*
G01X-289095D02*
Y-139718D01*
X-286668Y-145968D01*
X-284241Y-139718D01*
Y-147218D01*
G01X-269615Y-140343D02*
X-270175Y-139968D01*
X-270828Y-139718D01*
X-271575D01*
X-272415Y-140093D01*
X-273068Y-140718D01*
X-273535Y-141468D01*
X-273908Y-142718D01*
X-274001Y-143843D01*
X-273815Y-144968D01*
X-273535Y-145718D01*
X-272975Y-146468D01*
X-272321Y-146968D01*
X-271668Y-147218D01*
X-271015D01*
X-270361Y-146968D01*
X-269801Y-146593D01*
X-269335Y-146093D01*
G01X-264168Y-147218D02*
X-264915Y-147093D01*
X-265568Y-146593D01*
X-266128Y-145843D01*
X-266501Y-144968D01*
X-266688Y-143968D01*
Y-142968D01*
X-266501Y-141968D01*
X-266128Y-141093D01*
X-265568Y-140343D01*
X-264915Y-139843D01*
X-264168Y-139718D01*
X-263421Y-139843D01*
X-262768Y-140343D01*
X-262208Y-141093D01*
X-261835Y-141968D01*
X-261648Y-142968D01*
Y-143968D01*
X-261835Y-144968D01*
X-262208Y-145843D01*
X-262768Y-146593D01*
X-263421Y-147093D01*
X-264168Y-147218D01*
G01X-258815D02*
Y-139718D01*
X-254521Y-147218D01*
Y-139718D01*
G01X-251128Y-146218D02*
X-250381Y-146843D01*
X-249541Y-147218D01*
X-248795D01*
X-248048Y-146843D01*
X-247488Y-146218D01*
X-247208Y-145343D01*
X-247395Y-144468D01*
X-247861Y-143718D01*
X-248701Y-143218D01*
X-249821Y-142968D01*
X-250475Y-142468D01*
X-250755Y-141593D01*
X-250568Y-140718D01*
X-250101Y-140093D01*
X-249448Y-139718D01*
X-248795D01*
X-248141Y-139968D01*
X-247581Y-140593D01*
G01X-243721Y-139718D02*
Y-145093D01*
X-243348Y-146218D01*
X-242601Y-146968D01*
X-241668Y-147218D01*
X-240735Y-146968D01*
X-239988Y-146218D01*
X-239615Y-145093D01*
Y-139718D01*
G01X-236035D02*
Y-147218D01*
X-232301D01*
G01X-226668Y-139718D02*
Y-147218D01*
G01X-228815Y-139718D02*
X-224521D01*
G01X-220288D02*
X-218048D01*
G01X-219168D02*
Y-147218D01*
G01X-220288D02*
X-218048D01*
G01X-213815D02*
Y-139718D01*
X-209521Y-147218D01*
Y-139718D01*
G01X-203608Y-143468D02*
X-201741D01*
Y-145718D01*
X-202301Y-146468D01*
X-202955Y-146968D01*
X-203888Y-147218D01*
X-204821Y-146968D01*
X-205475Y-146468D01*
X-206035Y-145718D01*
X-206408Y-144843D01*
X-206595Y-143843D01*
Y-142968D01*
X-206408Y-142218D01*
X-206035Y-141343D01*
X-205475Y-140593D01*
X-204915Y-140093D01*
X-204168Y-139718D01*
X-203515D01*
X-202768Y-139968D01*
X-202208Y-140468D01*
G01X-198348Y-147468D02*
X-194988Y-139718D01*
G01X-191501Y-147218D02*
X-189168Y-139718D01*
X-186835Y-147218D01*
G01X-187675Y-144593D02*
X-190661D01*
G01X-181668Y-147218D02*
Y-139718D01*
G01X-174168Y-147218D02*
Y-139718D01*
G01X-168068Y-143843D02*
X-165081D01*
X-165361Y-142968D01*
X-165828Y-142468D01*
X-166481Y-142218D01*
X-167135Y-142343D01*
X-167695Y-142718D01*
X-168068Y-143593D01*
X-168255Y-144343D01*
Y-145093D01*
X-168068Y-145843D01*
X-167601Y-146593D01*
X-167041Y-147093D01*
X-166388Y-147218D01*
X-165735Y-146968D01*
X-165081Y-146218D01*
G01X-160755Y-147218D02*
Y-142218D01*
G01Y-143468D02*
X-160381Y-142843D01*
X-159821Y-142343D01*
X-159075Y-142218D01*
X-158421Y-142343D01*
X-157861Y-142843D01*
X-157581Y-143718D01*
Y-147218D01*
G01X-146221D02*
Y-139718D01*
G01X-142675D02*
X-146221Y-144343D01*
G01X-142115Y-147218D02*
X-144635Y-142218D01*
G01X-138068Y-143843D02*
X-135081D01*
X-135361Y-142968D01*
X-135828Y-142468D01*
X-136481Y-142218D01*
X-137135Y-142343D01*
X-137695Y-142718D01*
X-138068Y-143593D01*
X-138255Y-144343D01*
Y-145093D01*
X-138068Y-145843D01*
X-137601Y-146593D01*
X-137041Y-147093D01*
X-136388Y-147218D01*
X-135735Y-146968D01*
X-135081Y-146218D01*
G01X-130475Y-147218D02*
Y-142218D01*
G01Y-143218D02*
X-130008Y-142718D01*
X-129541Y-142343D01*
X-128888Y-142218D01*
X-128421Y-142343D01*
X-127861Y-142718D01*
G01X-123068Y-146343D02*
X-122601Y-146843D01*
X-121948Y-147218D01*
X-121388D01*
X-120828Y-146968D01*
X-120455Y-146593D01*
X-120268Y-146093D01*
X-120361Y-145343D01*
X-120735Y-144968D01*
X-122415Y-144218D01*
X-122788Y-143343D01*
X-122601Y-142718D01*
X-122228Y-142343D01*
X-121668Y-142218D01*
X-121108Y-142343D01*
X-120548Y-142718D01*
G01X-115568Y-143843D02*
X-112581D01*
X-112861Y-142968D01*
X-113328Y-142468D01*
X-113981Y-142218D01*
X-114635Y-142343D01*
X-115195Y-142718D01*
X-115568Y-143593D01*
X-115755Y-144343D01*
Y-145093D01*
X-115568Y-145843D01*
X-115101Y-146593D01*
X-114541Y-147093D01*
X-113888Y-147218D01*
X-113235Y-146968D01*
X-112581Y-146218D01*
G01X-108628Y-149468D02*
X-108068Y-149718D01*
X-107321Y-149468D01*
X-106855Y-148968D01*
X-106481Y-148343D01*
X-105921Y-146343D01*
X-104708Y-142218D01*
G01X-107695D02*
X-105921Y-146343D01*
G01X-303535Y-145718D02*
X-303068Y-146468D01*
X-302508Y-146968D01*
X-301855Y-147218D01*
X-301108Y-146968D01*
X-300548Y-146468D01*
X-299988Y-145718D01*
X-299801Y-144718D01*
Y-139718D01*
G01X-295941D02*
X-292395D01*
X-295941Y-147218D01*
X-292395D01*
G01X-289095D02*
Y-139718D01*
X-286668Y-145968D01*
X-284241Y-139718D01*
Y-147218D01*
G01X-269615Y-140343D02*
X-270175Y-139968D01*
X-270828Y-139718D01*
X-271575D01*
X-272415Y-140093D01*
X-273068Y-140718D01*
X-273535Y-141468D01*
X-273908Y-142718D01*
X-274001Y-143843D01*
X-273815Y-144968D01*
X-273535Y-145718D01*
X-272975Y-146468D01*
X-272321Y-146968D01*
X-271668Y-147218D01*
X-271015D01*
X-270361Y-146968D01*
X-269801Y-146593D01*
X-269335Y-146093D01*
G01X-264168Y-147218D02*
X-264915Y-147093D01*
X-265568Y-146593D01*
X-266128Y-145843D01*
X-266501Y-144968D01*
X-266688Y-143968D01*
Y-142968D01*
X-266501Y-141968D01*
X-266128Y-141093D01*
X-265568Y-140343D01*
X-264915Y-139843D01*
X-264168Y-139718D01*
X-263421Y-139843D01*
X-262768Y-140343D01*
X-262208Y-141093D01*
X-261835Y-141968D01*
X-261648Y-142968D01*
Y-143968D01*
X-261835Y-144968D01*
X-262208Y-145843D01*
X-262768Y-146593D01*
X-263421Y-147093D01*
X-264168Y-147218D01*
G01X-258815D02*
Y-139718D01*
X-254521Y-147218D01*
Y-139718D01*
G01X-251128Y-146218D02*
X-250381Y-146843D01*
X-249541Y-147218D01*
X-248795D01*
X-248048Y-146843D01*
X-247488Y-146218D01*
X-247208Y-145343D01*
X-247395Y-144468D01*
X-247861Y-143718D01*
X-248701Y-143218D01*
X-249821Y-142968D01*
X-250475Y-142468D01*
X-250755Y-141593D01*
X-250568Y-140718D01*
X-250101Y-140093D01*
X-249448Y-139718D01*
X-248795D01*
X-248141Y-139968D01*
X-247581Y-140593D01*
G01X-243721Y-139718D02*
Y-145093D01*
X-243348Y-146218D01*
X-242601Y-146968D01*
X-241668Y-147218D01*
X-240735Y-146968D01*
X-239988Y-146218D01*
X-239615Y-145093D01*
Y-139718D01*
G01X-236035D02*
Y-147218D01*
X-232301D01*
G01X-226668Y-139718D02*
Y-147218D01*
G01X-228815Y-139718D02*
X-224521D01*
G01X-220288D02*
X-218048D01*
G01X-219168D02*
Y-147218D01*
G01X-220288D02*
X-218048D01*
G01X-213815D02*
Y-139718D01*
X-209521Y-147218D01*
Y-139718D01*
G01X-203608Y-143468D02*
X-201741D01*
Y-145718D01*
X-202301Y-146468D01*
X-202955Y-146968D01*
X-203888Y-147218D01*
X-204821Y-146968D01*
X-205475Y-146468D01*
X-206035Y-145718D01*
X-206408Y-144843D01*
X-206595Y-143843D01*
Y-142968D01*
X-206408Y-142218D01*
X-206035Y-141343D01*
X-205475Y-140593D01*
X-204915Y-140093D01*
X-204168Y-139718D01*
X-203515D01*
X-202768Y-139968D01*
X-202208Y-140468D01*
G01X-198348Y-147468D02*
X-194988Y-139718D01*
G01X-191501Y-147218D02*
X-189168Y-139718D01*
X-186835Y-147218D01*
G01X-187675Y-144593D02*
X-190661D01*
G01X-181668Y-147218D02*
Y-139718D01*
G01X-174168Y-147218D02*
Y-139718D01*
G01X-168068Y-143843D02*
X-165081D01*
X-165361Y-142968D01*
X-165828Y-142468D01*
X-166481Y-142218D01*
X-167135Y-142343D01*
X-167695Y-142718D01*
X-168068Y-143593D01*
X-168255Y-144343D01*
Y-145093D01*
X-168068Y-145843D01*
X-167601Y-146593D01*
X-167041Y-147093D01*
X-166388Y-147218D01*
X-165735Y-146968D01*
X-165081Y-146218D01*
G01X-160755Y-147218D02*
Y-142218D01*
G01Y-143468D02*
X-160381Y-142843D01*
X-159821Y-142343D01*
X-159075Y-142218D01*
X-158421Y-142343D01*
X-157861Y-142843D01*
X-157581Y-143718D01*
Y-147218D01*
G01X-146221D02*
Y-139718D01*
G01X-142675D02*
X-146221Y-144343D01*
G01X-142115Y-147218D02*
X-144635Y-142218D01*
G01X-138068Y-143843D02*
X-135081D01*
X-135361Y-142968D01*
X-135828Y-142468D01*
X-136481Y-142218D01*
X-137135Y-142343D01*
X-137695Y-142718D01*
X-138068Y-143593D01*
X-138255Y-144343D01*
Y-145093D01*
X-138068Y-145843D01*
X-137601Y-146593D01*
X-137041Y-147093D01*
X-136388Y-147218D01*
X-135735Y-146968D01*
X-135081Y-146218D01*
G01X-130475Y-147218D02*
Y-142218D01*
G01Y-143218D02*
X-130008Y-142718D01*
X-129541Y-142343D01*
X-128888Y-142218D01*
X-128421Y-142343D01*
X-127861Y-142718D01*
G01X-123068Y-146343D02*
X-122601Y-146843D01*
X-121948Y-147218D01*
X-121388D01*
X-120828Y-146968D01*
X-120455Y-146593D01*
X-120268Y-146093D01*
X-120361Y-145343D01*
X-120735Y-144968D01*
X-122415Y-144218D01*
X-122788Y-143343D01*
X-122601Y-142718D01*
X-122228Y-142343D01*
X-121668Y-142218D01*
X-121108Y-142343D01*
X-120548Y-142718D01*
G01X-115568Y-143843D02*
X-112581D01*
X-112861Y-142968D01*
X-113328Y-142468D01*
X-113981Y-142218D01*
X-114635Y-142343D01*
X-115195Y-142718D01*
X-115568Y-143593D01*
X-115755Y-144343D01*
Y-145093D01*
X-115568Y-145843D01*
X-115101Y-146593D01*
X-114541Y-147093D01*
X-113888Y-147218D01*
X-113235Y-146968D01*
X-112581Y-146218D01*
G01X-108628Y-149468D02*
X-108068Y-149718D01*
X-107321Y-149468D01*
X-106855Y-148968D01*
X-106481Y-148343D01*
X-105921Y-146343D01*
X-104708Y-142218D01*
G01X-107695D02*
X-105921Y-146343D01*
G01X-301668Y-124718D02*
Y-132218D01*
G01X-303815Y-124718D02*
X-299521D01*
G01X-296035Y-132218D02*
Y-124718D01*
X-293701D01*
X-292955Y-125093D01*
X-292488Y-125593D01*
X-292301Y-126593D01*
X-292488Y-127593D01*
X-293048Y-128218D01*
X-293701Y-128593D01*
X-296035D01*
G01X-293701D02*
X-292301Y-132218D01*
G01X-289001D02*
X-286668Y-124718D01*
X-284335Y-132218D01*
G01X-285175Y-129593D02*
X-288161D01*
G01X-277115Y-125343D02*
X-277675Y-124968D01*
X-278328Y-124718D01*
X-279075D01*
X-279915Y-125093D01*
X-280568Y-125718D01*
X-281035Y-126468D01*
X-281408Y-127718D01*
X-281501Y-128843D01*
X-281315Y-129968D01*
X-281035Y-130718D01*
X-280475Y-131468D01*
X-279821Y-131968D01*
X-279168Y-132218D01*
X-278515D01*
X-277861Y-131968D01*
X-277301Y-131593D01*
X-276835Y-131093D01*
G01X-273721Y-132218D02*
Y-124718D01*
G01X-270175D02*
X-273721Y-129343D01*
G01X-269615Y-132218D02*
X-272135Y-127218D01*
G01X-258628Y-131218D02*
X-257881Y-131843D01*
X-257041Y-132218D01*
X-256295D01*
X-255548Y-131843D01*
X-254988Y-131218D01*
X-254708Y-130343D01*
X-254895Y-129468D01*
X-255361Y-128718D01*
X-256201Y-128218D01*
X-257321Y-127968D01*
X-257975Y-127468D01*
X-258255Y-126593D01*
X-258068Y-125718D01*
X-257601Y-125093D01*
X-256948Y-124718D01*
X-256295D01*
X-255641Y-124968D01*
X-255081Y-125593D01*
G01X-249168Y-132218D02*
Y-128843D01*
X-251035Y-124718D01*
G01X-247301D02*
X-249168Y-128843D01*
G01X-243628Y-131218D02*
X-242881Y-131843D01*
X-242041Y-132218D01*
X-241295D01*
X-240548Y-131843D01*
X-239988Y-131218D01*
X-239708Y-130343D01*
X-239895Y-129468D01*
X-240361Y-128718D01*
X-241201Y-128218D01*
X-242321Y-127968D01*
X-242975Y-127468D01*
X-243255Y-126593D01*
X-243068Y-125718D01*
X-242601Y-125093D01*
X-241948Y-124718D01*
X-241295D01*
X-240641Y-124968D01*
X-240081Y-125593D01*
G01X-234168Y-124718D02*
Y-132218D01*
G01X-236315Y-124718D02*
X-232021D01*
G01X-224801Y-132218D02*
X-228535D01*
Y-124718D01*
X-224801D01*
G01X-226295Y-128343D02*
X-228535D01*
G01X-221595Y-132218D02*
Y-124718D01*
X-219168Y-130968D01*
X-216741Y-124718D01*
Y-132218D01*
G01X-213628Y-131218D02*
X-212881Y-131843D01*
X-212041Y-132218D01*
X-211295D01*
X-210548Y-131843D01*
X-209988Y-131218D01*
X-209708Y-130343D01*
X-209895Y-129468D01*
X-210361Y-128718D01*
X-211201Y-128218D01*
X-212321Y-127968D01*
X-212975Y-127468D01*
X-213255Y-126593D01*
X-213068Y-125718D01*
X-212601Y-125093D01*
X-211948Y-124718D01*
X-211295D01*
X-210641Y-124968D01*
X-210081Y-125593D01*
G01X-198721Y-132218D02*
Y-124718D01*
X-196855D01*
X-196108Y-125093D01*
X-195548Y-125593D01*
X-195081Y-126343D01*
X-194708Y-127218D01*
X-194615Y-128468D01*
X-194708Y-129718D01*
X-195081Y-130593D01*
X-195548Y-131343D01*
X-196108Y-131843D01*
X-196855Y-132218D01*
X-198721D01*
G01X-191221Y-124718D02*
Y-130093D01*
X-190848Y-131218D01*
X-190101Y-131968D01*
X-189168Y-132218D01*
X-188235Y-131968D01*
X-187488Y-131218D01*
X-187115Y-130093D01*
Y-124718D01*
G01X-182788D02*
X-180548D01*
G01X-181668D02*
Y-132218D01*
G01X-182788D02*
X-180548D01*
G01X-175288Y-124718D02*
X-173048D01*
G01X-174168D02*
Y-132218D01*
G01X-175288D02*
X-173048D01*
G01X-158421Y-128218D02*
X-158048Y-127843D01*
X-157768Y-127218D01*
X-157581Y-126343D01*
X-157768Y-125593D01*
X-158141Y-125093D01*
X-158795Y-124718D01*
X-161315D01*
Y-132218D01*
X-158235D01*
X-157581Y-131718D01*
X-157208Y-130968D01*
X-157021Y-130093D01*
X-157208Y-129218D01*
X-157768Y-128468D01*
X-158421Y-128218D01*
X-161315D01*
G01X-151668Y-132218D02*
X-152415Y-132093D01*
X-153068Y-131593D01*
X-153628Y-130843D01*
X-154001Y-129968D01*
X-154188Y-128968D01*
Y-127968D01*
X-154001Y-126968D01*
X-153628Y-126093D01*
X-153068Y-125343D01*
X-152415Y-124843D01*
X-151668Y-124718D01*
X-150921Y-124843D01*
X-150268Y-125343D01*
X-149708Y-126093D01*
X-149335Y-126968D01*
X-149148Y-127968D01*
Y-128968D01*
X-149335Y-129968D01*
X-149708Y-130843D01*
X-150268Y-131593D01*
X-150921Y-132093D01*
X-151668Y-132218D01*
G01X-146501D02*
X-144168Y-124718D01*
X-141835Y-132218D01*
G01X-142675Y-129593D02*
X-145661D01*
G01X-138535Y-132218D02*
Y-124718D01*
X-136201D01*
X-135455Y-125093D01*
X-134988Y-125593D01*
X-134801Y-126593D01*
X-134988Y-127593D01*
X-135548Y-128218D01*
X-136201Y-128593D01*
X-138535D01*
G01X-136201D02*
X-134801Y-132218D01*
G01X-131221D02*
Y-124718D01*
X-129355D01*
X-128608Y-125093D01*
X-128048Y-125593D01*
X-127581Y-126343D01*
X-127208Y-127218D01*
X-127115Y-128468D01*
X-127208Y-129718D01*
X-127581Y-130593D01*
X-128048Y-131343D01*
X-128608Y-131843D01*
X-129355Y-132218D01*
X-131221D01*
G01X-301668Y-124718D02*
Y-132218D01*
G01X-303815Y-124718D02*
X-299521D01*
G01X-296035Y-132218D02*
Y-124718D01*
X-293701D01*
X-292955Y-125093D01*
X-292488Y-125593D01*
X-292301Y-126593D01*
X-292488Y-127593D01*
X-293048Y-128218D01*
X-293701Y-128593D01*
X-296035D01*
G01X-293701D02*
X-292301Y-132218D01*
G01X-289001D02*
X-286668Y-124718D01*
X-284335Y-132218D01*
G01X-285175Y-129593D02*
X-288161D01*
G01X-277115Y-125343D02*
X-277675Y-124968D01*
X-278328Y-124718D01*
X-279075D01*
X-279915Y-125093D01*
X-280568Y-125718D01*
X-281035Y-126468D01*
X-281408Y-127718D01*
X-281501Y-128843D01*
X-281315Y-129968D01*
X-281035Y-130718D01*
X-280475Y-131468D01*
X-279821Y-131968D01*
X-279168Y-132218D01*
X-278515D01*
X-277861Y-131968D01*
X-277301Y-131593D01*
X-276835Y-131093D01*
G01X-273721Y-132218D02*
Y-124718D01*
G01X-270175D02*
X-273721Y-129343D01*
G01X-269615Y-132218D02*
X-272135Y-127218D01*
G01X-258628Y-131218D02*
X-257881Y-131843D01*
X-257041Y-132218D01*
X-256295D01*
X-255548Y-131843D01*
X-254988Y-131218D01*
X-254708Y-130343D01*
X-254895Y-129468D01*
X-255361Y-128718D01*
X-256201Y-128218D01*
X-257321Y-127968D01*
X-257975Y-127468D01*
X-258255Y-126593D01*
X-258068Y-125718D01*
X-257601Y-125093D01*
X-256948Y-124718D01*
X-256295D01*
X-255641Y-124968D01*
X-255081Y-125593D01*
G01X-249168Y-132218D02*
Y-128843D01*
X-251035Y-124718D01*
G01X-247301D02*
X-249168Y-128843D01*
G01X-243628Y-131218D02*
X-242881Y-131843D01*
X-242041Y-132218D01*
X-241295D01*
X-240548Y-131843D01*
X-239988Y-131218D01*
X-239708Y-130343D01*
X-239895Y-129468D01*
X-240361Y-128718D01*
X-241201Y-128218D01*
X-242321Y-127968D01*
X-242975Y-127468D01*
X-243255Y-126593D01*
X-243068Y-125718D01*
X-242601Y-125093D01*
X-241948Y-124718D01*
X-241295D01*
X-240641Y-124968D01*
X-240081Y-125593D01*
G01X-234168Y-124718D02*
Y-132218D01*
G01X-236315Y-124718D02*
X-232021D01*
G01X-224801Y-132218D02*
X-228535D01*
Y-124718D01*
X-224801D01*
G01X-226295Y-128343D02*
X-228535D01*
G01X-221595Y-132218D02*
Y-124718D01*
X-219168Y-130968D01*
X-216741Y-124718D01*
Y-132218D01*
G01X-213628Y-131218D02*
X-212881Y-131843D01*
X-212041Y-132218D01*
X-211295D01*
X-210548Y-131843D01*
X-209988Y-131218D01*
X-209708Y-130343D01*
X-209895Y-129468D01*
X-210361Y-128718D01*
X-211201Y-128218D01*
X-212321Y-127968D01*
X-212975Y-127468D01*
X-213255Y-126593D01*
X-213068Y-125718D01*
X-212601Y-125093D01*
X-211948Y-124718D01*
X-211295D01*
X-210641Y-124968D01*
X-210081Y-125593D01*
G01X-198721Y-132218D02*
Y-124718D01*
X-196855D01*
X-196108Y-125093D01*
X-195548Y-125593D01*
X-195081Y-126343D01*
X-194708Y-127218D01*
X-194615Y-128468D01*
X-194708Y-129718D01*
X-195081Y-130593D01*
X-195548Y-131343D01*
X-196108Y-131843D01*
X-196855Y-132218D01*
X-198721D01*
G01X-191221Y-124718D02*
Y-130093D01*
X-190848Y-131218D01*
X-190101Y-131968D01*
X-189168Y-132218D01*
X-188235Y-131968D01*
X-187488Y-131218D01*
X-187115Y-130093D01*
Y-124718D01*
G01X-182788D02*
X-180548D01*
G01X-181668D02*
Y-132218D01*
G01X-182788D02*
X-180548D01*
G01X-175288Y-124718D02*
X-173048D01*
G01X-174168D02*
Y-132218D01*
G01X-175288D02*
X-173048D01*
G01X-158421Y-128218D02*
X-158048Y-127843D01*
X-157768Y-127218D01*
X-157581Y-126343D01*
X-157768Y-125593D01*
X-158141Y-125093D01*
X-158795Y-124718D01*
X-161315D01*
Y-132218D01*
X-158235D01*
X-157581Y-131718D01*
X-157208Y-130968D01*
X-157021Y-130093D01*
X-157208Y-129218D01*
X-157768Y-128468D01*
X-158421Y-128218D01*
X-161315D01*
G01X-151668Y-132218D02*
X-152415Y-132093D01*
X-153068Y-131593D01*
X-153628Y-130843D01*
X-154001Y-129968D01*
X-154188Y-128968D01*
Y-127968D01*
X-154001Y-126968D01*
X-153628Y-126093D01*
X-153068Y-125343D01*
X-152415Y-124843D01*
X-151668Y-124718D01*
X-150921Y-124843D01*
X-150268Y-125343D01*
X-149708Y-126093D01*
X-149335Y-126968D01*
X-149148Y-127968D01*
Y-128968D01*
X-149335Y-129968D01*
X-149708Y-130843D01*
X-150268Y-131593D01*
X-150921Y-132093D01*
X-151668Y-132218D01*
G01X-146501D02*
X-144168Y-124718D01*
X-141835Y-132218D01*
G01X-142675Y-129593D02*
X-145661D01*
G01X-138535Y-132218D02*
Y-124718D01*
X-136201D01*
X-135455Y-125093D01*
X-134988Y-125593D01*
X-134801Y-126593D01*
X-134988Y-127593D01*
X-135548Y-128218D01*
X-136201Y-128593D01*
X-138535D01*
G01X-136201D02*
X-134801Y-132218D01*
G01X-131221D02*
Y-124718D01*
X-129355D01*
X-128608Y-125093D01*
X-128048Y-125593D01*
X-127581Y-126343D01*
X-127208Y-127218D01*
X-127115Y-128468D01*
X-127208Y-129718D01*
X-127581Y-130593D01*
X-128048Y-131343D01*
X-128608Y-131843D01*
X-129355Y-132218D01*
X-131221D01*
G01X-161468Y-169718D02*
Y-165718D01*
X-160218D01*
X-159818Y-165918D01*
X-159568Y-166185D01*
X-159468Y-166718D01*
X-159568Y-167251D01*
X-159868Y-167585D01*
X-160218Y-167785D01*
X-161468D01*
G01X-160218D02*
X-159468Y-169718D01*
G01X-156168D02*
X-158168D01*
Y-165718D01*
X-156168D01*
G01X-156968Y-167651D02*
X-158168D01*
G01X-155118Y-165718D02*
X-153868Y-169718D01*
X-152618Y-165718D01*
G01X-150568Y-169851D02*
X-150668Y-169785D01*
Y-169651D01*
X-150568Y-169585D01*
X-150468Y-169651D01*
Y-169785D01*
X-150568Y-169851D01*
G01Y-168051D02*
X-150668Y-167985D01*
Y-167851D01*
X-150568Y-167785D01*
X-150468Y-167851D01*
Y-167985D01*
X-150568Y-168051D01*
G01X-161468Y-169718D02*
Y-165718D01*
X-160218D01*
X-159818Y-165918D01*
X-159568Y-166185D01*
X-159468Y-166718D01*
X-159568Y-167251D01*
X-159868Y-167585D01*
X-160218Y-167785D01*
X-161468D01*
G01X-160218D02*
X-159468Y-169718D01*
G01X-156168D02*
X-158168D01*
Y-165718D01*
X-156168D01*
G01X-156968Y-167651D02*
X-158168D01*
G01X-155118Y-165718D02*
X-153868Y-169718D01*
X-152618Y-165718D01*
G01X-150568Y-169851D02*
X-150668Y-169785D01*
Y-169651D01*
X-150568Y-169585D01*
X-150468Y-169651D01*
Y-169785D01*
X-150568Y-169851D01*
G01Y-168051D02*
X-150668Y-167985D01*
Y-167851D01*
X-150568Y-167785D01*
X-150468Y-167851D01*
Y-167985D01*
X-150568Y-168051D01*
G01X-149668Y-177968D02*
Y-170468D01*
X-150788Y-171968D01*
G01Y-177968D02*
X-148548D01*
G01X-144035D02*
Y-170468D01*
X-141701D01*
X-140955Y-170843D01*
X-140488Y-171343D01*
X-140301Y-172343D01*
X-140488Y-173343D01*
X-141048Y-173968D01*
X-141701Y-174343D01*
X-144035D01*
G01X-141701D02*
X-140301Y-177968D01*
G01X-134668Y-170468D02*
X-135415Y-170718D01*
X-135975Y-171343D01*
X-136348Y-172093D01*
X-136628Y-173093D01*
X-136721Y-174218D01*
X-136628Y-175343D01*
X-136348Y-176343D01*
X-135975Y-177093D01*
X-135415Y-177718D01*
X-134668Y-177968D01*
X-133921Y-177718D01*
X-133361Y-177093D01*
X-132988Y-176343D01*
X-132708Y-175343D01*
X-132615Y-174218D01*
X-132708Y-173093D01*
X-132988Y-172093D01*
X-133361Y-171343D01*
X-133921Y-170718D01*
X-134668Y-170468D01*
G01X-149668Y-177968D02*
Y-170468D01*
X-150788Y-171968D01*
G01Y-177968D02*
X-148548D01*
G01X-144035D02*
Y-170468D01*
X-141701D01*
X-140955Y-170843D01*
X-140488Y-171343D01*
X-140301Y-172343D01*
X-140488Y-173343D01*
X-141048Y-173968D01*
X-141701Y-174343D01*
X-144035D01*
G01X-141701D02*
X-140301Y-177968D01*
G01X-134668Y-170468D02*
X-135415Y-170718D01*
X-135975Y-171343D01*
X-136348Y-172093D01*
X-136628Y-173093D01*
X-136721Y-174218D01*
X-136628Y-175343D01*
X-136348Y-176343D01*
X-135975Y-177093D01*
X-135415Y-177718D01*
X-134668Y-177968D01*
X-133921Y-177718D01*
X-133361Y-177093D01*
X-132988Y-176343D01*
X-132708Y-175343D01*
X-132615Y-174218D01*
X-132708Y-173093D01*
X-132988Y-172093D01*
X-133361Y-171343D01*
X-133921Y-170718D01*
X-134668Y-170468D01*
G01X-121568Y-169718D02*
Y-165718D01*
X-120568D01*
X-120168Y-165918D01*
X-119868Y-166185D01*
X-119618Y-166585D01*
X-119418Y-167051D01*
X-119368Y-167718D01*
X-119418Y-168385D01*
X-119618Y-168851D01*
X-119868Y-169251D01*
X-120168Y-169518D01*
X-120568Y-169718D01*
X-121568D01*
G01X-118418D02*
X-117168Y-165718D01*
X-115918Y-169718D01*
G01X-116368Y-168318D02*
X-117968D01*
G01X-113868Y-165718D02*
Y-169718D01*
G01X-115018Y-165718D02*
X-112718D01*
G01X-109568Y-169718D02*
X-111568D01*
Y-165718D01*
X-109568D01*
G01X-110368Y-167651D02*
X-111568D01*
G01X-107268Y-169851D02*
X-107368Y-169785D01*
Y-169651D01*
X-107268Y-169585D01*
X-107168Y-169651D01*
Y-169785D01*
X-107268Y-169851D01*
G01Y-168051D02*
X-107368Y-167985D01*
Y-167851D01*
X-107268Y-167785D01*
X-107168Y-167851D01*
Y-167985D01*
X-107268Y-168051D01*
G01X-121568Y-169718D02*
Y-165718D01*
X-120568D01*
X-120168Y-165918D01*
X-119868Y-166185D01*
X-119618Y-166585D01*
X-119418Y-167051D01*
X-119368Y-167718D01*
X-119418Y-168385D01*
X-119618Y-168851D01*
X-119868Y-169251D01*
X-120168Y-169518D01*
X-120568Y-169718D01*
X-121568D01*
G01X-118418D02*
X-117168Y-165718D01*
X-115918Y-169718D01*
G01X-116368Y-168318D02*
X-117968D01*
G01X-113868Y-165718D02*
Y-169718D01*
G01X-115018Y-165718D02*
X-112718D01*
G01X-109568Y-169718D02*
X-111568D01*
Y-165718D01*
X-109568D01*
G01X-110368Y-167651D02*
X-111568D01*
G01X-107268Y-169851D02*
X-107368Y-169785D01*
Y-169651D01*
X-107268Y-169585D01*
X-107168Y-169651D01*
Y-169785D01*
X-107268Y-169851D01*
G01Y-168051D02*
X-107368Y-167985D01*
Y-167851D01*
X-107268Y-167785D01*
X-107168Y-167851D01*
Y-167985D01*
X-107268Y-168051D01*
G01X-85718Y-177218D02*
Y-169718D01*
X-86838Y-171218D01*
G01Y-177218D02*
X-84598D01*
G01X-78218D02*
Y-169718D01*
X-79338Y-171218D01*
G01Y-177218D02*
X-77098D01*
G01X-72398Y-177468D02*
X-69038Y-169718D01*
G01X-63218Y-177218D02*
Y-169718D01*
X-64338Y-171218D01*
G01Y-177218D02*
X-62098D01*
G01X-55718Y-169718D02*
X-56465Y-169968D01*
X-57025Y-170593D01*
X-57398Y-171343D01*
X-57678Y-172343D01*
X-57771Y-173468D01*
X-57678Y-174593D01*
X-57398Y-175593D01*
X-57025Y-176343D01*
X-56465Y-176968D01*
X-55718Y-177218D01*
X-54971Y-176968D01*
X-54411Y-176343D01*
X-54038Y-175593D01*
X-53758Y-174593D01*
X-53665Y-173468D01*
X-53758Y-172343D01*
X-54038Y-171343D01*
X-54411Y-170593D01*
X-54971Y-169968D01*
X-55718Y-169718D01*
G01X-49898Y-177468D02*
X-46538Y-169718D01*
G01X-40718Y-177218D02*
Y-169718D01*
X-41838Y-171218D01*
G01Y-177218D02*
X-39598D01*
G01X-33218Y-169718D02*
X-33965Y-169968D01*
X-34525Y-170593D01*
X-34898Y-171343D01*
X-35178Y-172343D01*
X-35271Y-173468D01*
X-35178Y-174593D01*
X-34898Y-175593D01*
X-34525Y-176343D01*
X-33965Y-176968D01*
X-33218Y-177218D01*
X-32471Y-176968D01*
X-31911Y-176343D01*
X-31538Y-175593D01*
X-31258Y-174593D01*
X-31165Y-173468D01*
X-31258Y-172343D01*
X-31538Y-171343D01*
X-31911Y-170593D01*
X-32471Y-169968D01*
X-33218Y-169718D01*
G01X-85718Y-177218D02*
Y-169718D01*
X-86838Y-171218D01*
G01Y-177218D02*
X-84598D01*
G01X-78218D02*
Y-169718D01*
X-79338Y-171218D01*
G01Y-177218D02*
X-77098D01*
G01X-72398Y-177468D02*
X-69038Y-169718D01*
G01X-63218Y-177218D02*
Y-169718D01*
X-64338Y-171218D01*
G01Y-177218D02*
X-62098D01*
G01X-55718Y-169718D02*
X-56465Y-169968D01*
X-57025Y-170593D01*
X-57398Y-171343D01*
X-57678Y-172343D01*
X-57771Y-173468D01*
X-57678Y-174593D01*
X-57398Y-175593D01*
X-57025Y-176343D01*
X-56465Y-176968D01*
X-55718Y-177218D01*
X-54971Y-176968D01*
X-54411Y-176343D01*
X-54038Y-175593D01*
X-53758Y-174593D01*
X-53665Y-173468D01*
X-53758Y-172343D01*
X-54038Y-171343D01*
X-54411Y-170593D01*
X-54971Y-169968D01*
X-55718Y-169718D01*
G01X-49898Y-177468D02*
X-46538Y-169718D01*
G01X-40718Y-177218D02*
Y-169718D01*
X-41838Y-171218D01*
G01Y-177218D02*
X-39598D01*
G01X-33218Y-169718D02*
X-33965Y-169968D01*
X-34525Y-170593D01*
X-34898Y-171343D01*
X-35178Y-172343D01*
X-35271Y-173468D01*
X-35178Y-174593D01*
X-34898Y-175593D01*
X-34525Y-176343D01*
X-33965Y-176968D01*
X-33218Y-177218D01*
X-32471Y-176968D01*
X-31911Y-176343D01*
X-31538Y-175593D01*
X-31258Y-174593D01*
X-31165Y-173468D01*
X-31258Y-172343D01*
X-31538Y-171343D01*
X-31911Y-170593D01*
X-32471Y-169968D01*
X-33218Y-169718D01*
G54D18*
X-350961Y136613D03*
X-342300Y42912D03*
G54D19*
X-268527Y212040D03*
X-183409D03*
M02*
