G04 ================== begin FILE IDENTIFICATION RECORD ==================*
G04 Layout Name:  F:/JZM/Track Systems/main pcb/du_main_proto.brd*
G04 Film Name:    TOPPASTE*
G04 File Format:  Gerber RS274X*
G04 File Origin:  Cadence Allegro 16.3-p003*
G04 Origin Date:  Thu Nov 11 20:12:00 2010*
G04 *
G04 Layer:  BOARD GEOMETRY/FILM_FORMAT*
G04 Layer:  BOARD GEOMETRY/SOLDERMASK_TOP*
G04 Layer:  BOARD GEOMETRY/OUTLINE*
G04 Layer:  PACKAGE GEOMETRY/PASTEMASK_TOP*
G04 Layer:  PIN/PASTEMASK_TOP*
G04 *
G04 Offset:    (0.00 0.00)*
G04 Mirror:    No*
G04 Mode:      Positive*
G04 Rotation:  0*
G04 FullContactRelief:  No*
G04 UndefLineWidth:     0.00*
G04 ================== end FILE IDENTIFICATION RECORD ====================*
%FSLAX55Y55*MOIN*%
%IR0*IPPOS*OFA0.00000B0.00000*MIA0B0*SFA1.00000B1.00000*%
%ADD19R,.07X.14*%
%ADD24C,.018*%
%ADD26R,.079X.079*%
%AMMACRO39*
4,1,21,.01673,.00551,
-.01122,.00551,
-.012177,.005426,
-.013105,.005178,
-.013975,.004772,
-.014762,.004221,
-.015441,.003542,
-.015992,.002755,
-.016398,.001885,
-.016646,.000957,
-.01673,0.0,
-.016646,-.000957,
-.016398,-.001885,
-.015992,-.002755,
-.015441,-.003542,
-.014762,-.004221,
-.013975,-.004772,
-.013105,-.005178,
-.012177,-.005426,
-.01122,-.00551,
.01673,-.00551,
.01673,.00551,
0.0*
%
%ADD39MACRO39*%
%AMMACRO37*
4,1,21,.00551,-.01673,
.00551,.01122,
.005426,.012177,
.005178,.013105,
.004772,.013975,
.004221,.014762,
.003542,.015441,
.002755,.015992,
.001885,.016398,
.000957,.016646,
0.0,.01673,
-.000957,.016646,
-.001885,.016398,
-.002755,.015992,
-.003542,.015441,
-.004221,.014762,
-.004772,.013975,
-.005178,.013105,
-.005426,.012177,
-.00551,.01122,
-.00551,-.01673,
.00551,-.01673,
0.0*
%
%ADD37MACRO37*%
%ADD35R,.02X.012*%
%ADD11R,.04X.03*%
%ADD20R,.03X.04*%
%ADD18R,.04X.05*%
%ADD14R,.02X.025*%
%ADD10R,.042X.03*%
%ADD27R,.034X.012*%
%ADD23O,.012X.063*%
%ADD22R,.05X.04*%
%ADD13R,.025X.02*%
%ADD40R,.01X.027*%
%ADD34R,.02X.018*%
%ADD17R,.012X.034*%
%ADD12R,.035X.03*%
%ADD21R,.055X.011*%
%ADD31R,.04X.027*%
%ADD16R,.027X.04*%
%ADD25R,.022X.055*%
%ADD33R,.05X.028*%
%ADD29R,.05X.055*%
%ADD30R,.045X.035*%
%ADD28R,.06X.047*%
%ADD15R,.047X.06*%
%ADD32R,.047X.026*%
%ADD41R,.053X.067*%
%AMMACRO38*
4,1,21,-.00551,.01673,
-.00551,-.01122,
-.005426,-.012177,
-.005178,-.013105,
-.004772,-.013975,
-.004221,-.014762,
-.003542,-.015441,
-.002755,-.015992,
-.001885,-.016398,
-.000957,-.016646,
0.0,-.01673,
.000957,-.016646,
.001885,-.016398,
.002755,-.015992,
.003542,-.015441,
.004221,-.014762,
.004772,-.013975,
.005178,-.013105,
.005426,-.012177,
.00551,-.01122,
.00551,.01673,
-.00551,.01673,
0.0*
%
%ADD38MACRO38*%
%AMMACRO36*
4,1,21,-.01673,-.00551,
.01122,-.00551,
.012177,-.005426,
.013105,-.005178,
.013975,-.004772,
.014762,-.004221,
.015441,-.003542,
.015992,-.002755,
.016398,-.001885,
.016646,-.000957,
.01673,0.0,
.016646,.000957,
.016398,.001885,
.015992,.002755,
.015441,.003542,
.014762,.004221,
.013975,.004772,
.013105,.005178,
.012177,.005426,
.01122,.00551,
-.01673,.00551,
-.01673,-.00551,
0.0*
%
%ADD36MACRO36*%
%ADD42C,.001*%
%ADD43C,.005*%
G75*
%LPD*%
G75*
G36*
G01X-96935Y189829D02*
Y194553D01*
X-92211D01*
Y189829D01*
X-96935D01*
G37*
G36*
G01Y195735D02*
Y200459D01*
X-92211D01*
Y195735D01*
X-96935D01*
G37*
G36*
G01X-93315Y71409D02*
X-88591D01*
Y66685D01*
X-93315D01*
Y71409D01*
G37*
G36*
G01Y77315D02*
X-88591D01*
Y72591D01*
X-93315D01*
Y77315D01*
G37*
G36*
G01X-91029Y189829D02*
Y194553D01*
X-86305D01*
Y189829D01*
X-91029D01*
G37*
G36*
G01Y195735D02*
Y200459D01*
X-86305D01*
Y195735D01*
X-91029D01*
G37*
G36*
G01X-87409Y77315D02*
X-82685D01*
Y72591D01*
X-87409D01*
Y77315D01*
G37*
G36*
G01Y71409D02*
X-82685D01*
Y66685D01*
X-87409D01*
Y71409D01*
G37*
G36*
G01X-56815Y49685D02*
Y54409D01*
X-52091D01*
Y49685D01*
X-56815D01*
G37*
G36*
G01Y55591D02*
Y60315D01*
X-52091D01*
Y55591D01*
X-56815D01*
G37*
G36*
G01X-50909Y49685D02*
Y54409D01*
X-46185D01*
Y49685D01*
X-50909D01*
G37*
G36*
G01Y55591D02*
Y60315D01*
X-46185D01*
Y55591D01*
X-50909D01*
G37*
G54D10*
X-457218Y78547D03*
Y91547D03*
Y84453D03*
Y97453D03*
Y116453D03*
Y110547D03*
Y123547D03*
Y129453D03*
X-446982Y78547D03*
Y91547D03*
Y84453D03*
Y97453D03*
Y110547D03*
Y116453D03*
Y123547D03*
Y129453D03*
G54D20*
X-307242Y27092D03*
X-303492Y18492D03*
X-299742Y27092D03*
X-171832Y-66512D03*
X-175582Y-57912D03*
X-168082D03*
X-154250Y-66300D03*
X-161750D03*
X-158000Y-57700D03*
X-155500Y130200D03*
X-159250Y138800D03*
X-151750D03*
G54D11*
X-439300Y116500D03*
X-438800Y86500D03*
X-430700Y112750D03*
Y120250D03*
X-430200Y82750D03*
Y90250D03*
X-146300Y109750D03*
Y117250D03*
X-137700Y113500D03*
X-7300Y101750D03*
Y109250D03*
X1300Y105500D03*
G54D30*
X-167000Y138800D03*
Y152200D03*
G54D21*
X-303092Y190266D03*
Y188296D03*
Y186326D03*
Y184356D03*
Y192226D03*
X-286292Y184356D03*
Y186326D03*
Y188296D03*
Y190266D03*
Y192226D03*
G54D12*
X-437750Y75500D03*
X-431250D03*
X-437750Y97500D03*
X-431250D03*
X-437750Y104500D03*
X-431250D03*
X-437750Y129500D03*
X-431250D03*
X-166250Y123500D03*
X-159750D03*
X-61250Y103500D03*
X-54750D03*
G54D31*
X-160000Y149500D03*
Y145760D03*
Y153240D03*
X-151000Y145760D03*
Y153240D03*
X-137500Y128760D03*
Y136240D03*
X-128500Y132500D03*
Y128760D03*
Y136240D03*
X-55000Y163760D03*
Y171240D03*
X-46000Y163760D03*
Y167500D03*
Y171240D03*
G54D40*
X-42325Y80638D03*
X-40356D03*
X-38387D03*
Y91858D03*
X-40356D03*
X-42325D03*
G54D13*
X-422850Y-54500D03*
Y-58500D03*
X-419150Y-54500D03*
Y-58500D03*
X-410350Y-62000D03*
X-406650D03*
X-354874Y55160D03*
X-351174D03*
X-354874Y63040D03*
X-351174D03*
X-354874Y76436D03*
X-351174D03*
X-331234Y123716D03*
Y130808D03*
X-327534Y123716D03*
Y130808D03*
X-324930Y156024D03*
X-321230D03*
X-306806Y138688D03*
X-303106D03*
X-290258Y155236D03*
Y180452D03*
X-286558Y155236D03*
Y180452D03*
X-270350Y137000D03*
X-266650D03*
X-270558Y152872D03*
X-266858D03*
X-255350Y137000D03*
X-253350Y132500D03*
X-249650D03*
X-251650Y137000D03*
X-205150Y112500D03*
X-208850D03*
X-205150Y116500D03*
X-208850D03*
Y108500D03*
X-205150D03*
Y120500D03*
X-208850D03*
X-205650Y130000D03*
X-209350D03*
Y138500D03*
X-205650D03*
Y134500D03*
X-209350D03*
X-205650Y142500D03*
X-209350D03*
Y146500D03*
X-205650D03*
X-209350Y150500D03*
X-205650D03*
X-209350Y154500D03*
X-205650D03*
X-196650Y165000D03*
X-200350D03*
X-179850Y105000D03*
X-187350Y165000D03*
X-183650D03*
X-173850Y-53000D03*
X-176150Y105000D03*
X-171350D03*
X-174850Y123500D03*
X-171150D03*
X-174850Y128000D03*
X-171150D03*
X-170150Y-53000D03*
X-163350Y105000D03*
X-167650D03*
X-163350Y109000D03*
X-167350Y183500D03*
X-163650D03*
X-167350Y179500D03*
X-163650D03*
X-159650Y105000D03*
Y109000D03*
X-154350Y123500D03*
X-150066Y-26852D03*
X-146366D03*
X-150066Y-18852D03*
X-146366D03*
X-150066Y-22852D03*
X-146366D03*
X-150066Y-14352D03*
X-146366D03*
X-146350Y123500D03*
X-150650D03*
X-146350Y129000D03*
Y133000D03*
Y137000D03*
Y141000D03*
X-138350Y123500D03*
X-142650D03*
Y129000D03*
Y133000D03*
Y137000D03*
Y141000D03*
X-143350Y147000D03*
X-139650D03*
X-132650Y104500D03*
X-136350D03*
X-132350Y113500D03*
X-134650Y123500D03*
X-132350Y117500D03*
X-128650Y113500D03*
Y117500D03*
X-115610Y207696D03*
X-119310D03*
X-72350Y71000D03*
X-70150Y87000D03*
X-73850D03*
X-70150Y83000D03*
X-73850D03*
X-77350Y198000D03*
X-73650D03*
X-77350Y203000D03*
X-73650D03*
X-68350Y57000D03*
X-64650D03*
X-68350Y53000D03*
X-64650D03*
X-68650Y71000D03*
X-65350Y163500D03*
X-61650D03*
X-54650Y68000D03*
X-58350D03*
X-55650Y122000D03*
X-59350D03*
X-55650Y126000D03*
X-59350D03*
X-47150Y68000D03*
X-50850D03*
X-49350Y122000D03*
X-45650D03*
Y126000D03*
X-49350D03*
X-38350Y53000D03*
Y59000D03*
X-34650Y53000D03*
Y59000D03*
X-15150Y43500D03*
X-18850D03*
G54D22*
X-288408Y161280D03*
Y169680D03*
X-266000Y185300D03*
Y193700D03*
X-253144Y142412D03*
Y150812D03*
X-231500Y129300D03*
Y137700D03*
X-108000Y68800D03*
Y77200D03*
X-73620Y183944D03*
Y192344D03*
X-54500Y83300D03*
Y91700D03*
G54D41*
X-40356Y86248D03*
G54D32*
X-153960Y167196D03*
Y172196D03*
Y182196D03*
Y177196D03*
X-152495Y197696D03*
Y192696D03*
Y207696D03*
Y202696D03*
X-122960Y167196D03*
Y172196D03*
Y177196D03*
Y182196D03*
X-124425Y192696D03*
Y197696D03*
Y202696D03*
Y207696D03*
G54D23*
X-272445Y7512D03*
Y51488D03*
X-266146Y7512D03*
X-269295D03*
Y51488D03*
X-266146D03*
X-256697Y7512D03*
X-259846D03*
X-262996D03*
Y51488D03*
X-259846D03*
X-256697D03*
X-247248Y7512D03*
X-250398D03*
X-253547D03*
Y51488D03*
X-250398D03*
X-247248D03*
X-240949Y7512D03*
X-244098D03*
Y51488D03*
X-240949D03*
X-231500Y7512D03*
X-234650D03*
X-237799D03*
Y51488D03*
X-234650D03*
X-231500D03*
X-222051Y7512D03*
X-225201D03*
X-228350D03*
Y51488D03*
X-225201D03*
X-222051D03*
X-215752Y7512D03*
X-218902D03*
Y51488D03*
X-215752D03*
X-206303Y7512D03*
X-209453D03*
X-212602D03*
Y51488D03*
X-209453D03*
X-206303D03*
X-196854Y7512D03*
X-200004D03*
X-203154D03*
Y51488D03*
X-200004D03*
X-196854D03*
X-190555Y7512D03*
X-193705D03*
X-190555Y51488D03*
X-193705D03*
G54D14*
X-425000Y87850D03*
Y84150D03*
X-424000Y116350D03*
Y112650D03*
X-415692Y17326D03*
Y21026D03*
X-410500Y-43350D03*
Y-39650D03*
X-406000Y17150D03*
Y20850D03*
X-397500Y-55350D03*
Y-51650D03*
X-393500Y-55350D03*
Y-51650D03*
X-396000Y17150D03*
Y20850D03*
X-376000Y17150D03*
Y20850D03*
X-336476Y87982D03*
Y91682D03*
X-320992Y13642D03*
Y9942D03*
X-316992D03*
Y13642D03*
X-320992Y31942D03*
X-316492D03*
X-320992Y35642D03*
X-316492D03*
X-312992Y13642D03*
Y9942D03*
X-312492Y31942D03*
Y35642D03*
X-309500Y189350D03*
Y185650D03*
X-294712Y151810D03*
Y155510D03*
Y163390D03*
Y159690D03*
X-272500Y64350D03*
Y60650D03*
X-276000Y189850D03*
Y186150D03*
X-280192Y185946D03*
Y189646D03*
X-272000Y186150D03*
Y189850D03*
X-280000Y197850D03*
Y194150D03*
X-247000Y-4350D03*
Y-650D03*
X-246644Y154722D03*
Y151022D03*
X-245500Y130650D03*
X-241500D03*
X-245500Y134350D03*
X-241500D03*
X-241916Y154722D03*
Y151022D03*
X-231500Y64350D03*
Y60650D03*
Y104850D03*
Y101150D03*
X-237500Y130650D03*
Y134350D03*
X-233444Y148462D03*
Y144762D03*
X-237384Y148462D03*
Y144762D03*
X-235612Y180966D03*
Y184666D03*
X-225000Y-4350D03*
Y-650D03*
X-227500Y95850D03*
Y92150D03*
X-223500D03*
Y95850D03*
Y101650D03*
Y105350D03*
X-227500Y104850D03*
Y101150D03*
X-229504Y148462D03*
Y144762D03*
X-216000Y64350D03*
Y60650D03*
X-206500Y-4350D03*
Y-650D03*
X-197500Y64350D03*
Y60650D03*
X-197000Y116350D03*
Y124230D03*
Y120050D03*
Y127930D03*
X-190500Y64350D03*
Y60650D03*
X-181500Y-57850D03*
Y-54150D03*
X-148332Y-63562D03*
Y-59862D03*
X-124000Y128650D03*
Y132350D03*
X-117500Y182350D03*
Y178650D03*
X-107500Y174150D03*
Y177850D03*
Y182150D03*
Y185850D03*
X-101000Y72650D03*
Y76350D03*
X-103000Y174150D03*
Y177850D03*
Y182150D03*
Y185850D03*
X-93620Y178294D03*
Y181994D03*
X-89620Y178294D03*
Y181994D03*
Y208294D03*
Y211994D03*
X-86000Y84650D03*
Y88350D03*
X-82000D03*
Y84650D03*
X-79620Y188794D03*
Y192494D03*
X-85620Y208294D03*
Y211994D03*
X-61000Y19650D03*
Y23350D03*
X-57000Y19650D03*
Y23350D03*
Y27650D03*
Y31350D03*
X-61000D03*
Y27650D03*
Y37650D03*
X-57000D03*
X-61000Y41350D03*
X-57000D03*
X-52000Y19650D03*
Y23350D03*
Y27650D03*
Y31350D03*
Y37650D03*
Y41350D03*
X-48000Y80650D03*
Y88150D03*
Y84350D03*
Y91850D03*
X-38500Y98650D03*
X-42500D03*
X-38500Y102350D03*
X-42500D03*
X-41000Y163150D03*
Y166850D03*
X-34500Y29150D03*
Y37150D03*
Y40850D03*
Y32850D03*
X-12000Y101650D03*
Y105350D03*
G54D42*
G01X-448519Y-89000D02*
G02X-460955Y-77766I0J12500D01*
G02X-473689Y192383I2474700J252024D01*
G02X-465245Y204116I12499J-91D01*
G02X-439500Y212421I239253J-697613D01*
G02X-412500Y220029I213486J-705925D01*
G02X-333500Y236123I186501J-713531D01*
G01Y227928D01*
X-298500D01*
Y240428D01*
G02X-153500I72500J-733927D01*
G01Y227928D01*
X-118500D01*
Y236123D01*
G02X-39500Y220029I-107501J-729623D01*
G01X-12500Y212421D01*
G02X13245Y204116I-213508J-705918D01*
G02X21689Y192383I-4055J-11824D01*
G02X13842Y-24000I-2487434J-18128D01*
G01X7842D01*
G03X4842Y-27000I0J-3000D01*
G01Y-76000D01*
G03X7842Y-79000I3000J0D01*
G01X8767D01*
G02X-3481Y-89000I-12248J2501D01*
G01X-448519D01*
G01D02*
G02X-460955Y-77766I0J12500D01*
G02X-473689Y192383I2474692J252024D01*
G02X-465245Y204116I12499J-91D01*
G02X-439500Y212421I239246J-697593D01*
G02X-412500Y220029I213482J-705911D01*
G02X-333500Y236123I186501J-713533D01*
G01Y227928D01*
X-298500D01*
Y240428D01*
G02X-153500I72500J-733926D01*
G01Y227928D01*
X-118500D01*
Y236123D01*
G02X-39500Y220029I-107501J-729627D01*
G01X-12500Y212421D01*
G02X13245Y204116I-213501J-705898D01*
G02X21689Y192383I-4055J-11824D01*
G02X13842Y-24000I-2487393J-18130D01*
G01X7842D01*
G03X4842Y-27000I0J-3000D01*
G01Y-76000D01*
G03X7842Y-79000I3000J0D01*
G01X8767D01*
G02X-3481Y-89000I-12248J2501D01*
G01X-448519D01*
G01X-336968Y-119718D02*
Y-179718D01*
X-11968D01*
Y-119718D01*
X-336968D01*
G01D02*
Y-179718D01*
X-11968D01*
Y-119718D01*
X-336968D01*
G01Y-164718D02*
X-11968D01*
G01X-336968D02*
X-11968D01*
G01X-336968Y-149718D02*
X-11968D01*
G01X-336968D02*
X-11968D01*
G01X-336968Y-134718D02*
X-11968D01*
G01X-336968D02*
X-11968D01*
G01X-164468Y-179718D02*
Y-164718D01*
G01Y-179718D02*
Y-164718D01*
G01X-124468Y-179718D02*
Y-164718D01*
G01Y-179718D02*
Y-164718D01*
G54D15*
X-411350Y-68500D03*
X-399650D03*
X-144350Y153500D03*
X-132650D03*
G54D33*
X-111380Y112728D03*
Y119032D03*
X-101380Y112728D03*
Y119032D03*
X-62524Y116668D03*
Y110364D03*
X-52524Y116668D03*
Y110364D03*
G54D24*
X-267132Y124504D03*
X-263980Y159176D03*
X-267132Y162328D03*
X-260828Y127656D03*
Y152872D03*
Y156024D03*
Y159176D03*
X-257640Y170500D03*
X-248220Y129232D03*
Y146568D03*
Y173360D03*
Y178088D03*
Y175724D03*
X-240340Y112684D03*
X-246644Y108744D03*
Y112684D03*
X-243492Y108744D03*
Y112684D03*
X-240340Y108744D03*
X-238764Y124504D03*
X-245068Y121352D03*
Y146568D03*
X-241916D03*
X-245068Y159176D03*
X-241128Y180452D03*
X-243492Y178088D03*
Y180452D03*
X-245856Y178088D03*
X-234036Y112684D03*
Y108744D03*
X-235612Y121352D03*
Y124504D03*
X-232460D03*
Y121352D03*
X-229308D03*
X-223004Y156024D03*
X-229308Y162328D03*
X-226156Y165480D03*
Y159176D03*
X-223004D03*
X-216700Y124504D03*
X-213548Y160752D03*
X-38500Y95500D03*
G54D43*
G01X-333968Y-169718D02*
Y-165718D01*
X-332768D01*
X-332368Y-165918D01*
X-332068Y-166385D01*
X-331968Y-166918D01*
X-332068Y-167451D01*
X-332318Y-167851D01*
X-332768Y-168051D01*
X-333968D01*
G01X-330568Y-169851D02*
X-328768Y-165718D01*
G01X-327518Y-169718D02*
Y-165718D01*
X-325218Y-169718D01*
Y-165718D01*
G01X-323068Y-169851D02*
X-323168Y-169785D01*
Y-169651D01*
X-323068Y-169585D01*
X-322968Y-169651D01*
Y-169785D01*
X-323068Y-169851D01*
G01Y-168051D02*
X-323168Y-167985D01*
Y-167851D01*
X-323068Y-167785D01*
X-322968Y-167851D01*
Y-167985D01*
X-323068Y-168051D01*
G01X-333968Y-169718D02*
Y-165718D01*
X-332768D01*
X-332368Y-165918D01*
X-332068Y-166385D01*
X-331968Y-166918D01*
X-332068Y-167451D01*
X-332318Y-167851D01*
X-332768Y-168051D01*
X-333968D01*
G01X-330568Y-169851D02*
X-328768Y-165718D01*
G01X-327518Y-169718D02*
Y-165718D01*
X-325218Y-169718D01*
Y-165718D01*
G01X-323068Y-169851D02*
X-323168Y-169785D01*
Y-169651D01*
X-323068Y-169585D01*
X-322968Y-169651D01*
Y-169785D01*
X-323068Y-169851D01*
G01Y-168051D02*
X-323168Y-167985D01*
Y-167851D01*
X-323068Y-167785D01*
X-322968Y-167851D01*
Y-167985D01*
X-323068Y-168051D01*
G01X-333968Y-150718D02*
Y-154718D01*
X-331968D01*
G01X-330918D02*
X-329668Y-150718D01*
X-328418Y-154718D01*
G01X-328868Y-153318D02*
X-330468D01*
G01X-326368Y-154718D02*
Y-152918D01*
X-327368Y-150718D01*
G01X-325368D02*
X-326368Y-152918D01*
G01X-322068Y-154718D02*
X-324068D01*
Y-150718D01*
X-322068D01*
G01X-322868Y-152651D02*
X-324068D01*
G01X-320768Y-154718D02*
Y-150718D01*
X-319518D01*
X-319118Y-150918D01*
X-318868Y-151185D01*
X-318768Y-151718D01*
X-318868Y-152251D01*
X-319168Y-152585D01*
X-319518Y-152785D01*
X-320768D01*
G01X-319518D02*
X-318768Y-154718D01*
G01X-316468Y-154851D02*
X-316568Y-154785D01*
Y-154651D01*
X-316468Y-154585D01*
X-316368Y-154651D01*
Y-154785D01*
X-316468Y-154851D01*
G01Y-153051D02*
X-316568Y-152985D01*
Y-152851D01*
X-316468Y-152785D01*
X-316368Y-152851D01*
Y-152985D01*
X-316468Y-153051D01*
G01X-333968Y-150718D02*
Y-154718D01*
X-331968D01*
G01X-330918D02*
X-329668Y-150718D01*
X-328418Y-154718D01*
G01X-328868Y-153318D02*
X-330468D01*
G01X-326368Y-154718D02*
Y-152918D01*
X-327368Y-150718D01*
G01X-325368D02*
X-326368Y-152918D01*
G01X-322068Y-154718D02*
X-324068D01*
Y-150718D01*
X-322068D01*
G01X-322868Y-152651D02*
X-324068D01*
G01X-320768Y-154718D02*
Y-150718D01*
X-319518D01*
X-319118Y-150918D01*
X-318868Y-151185D01*
X-318768Y-151718D01*
X-318868Y-152251D01*
X-319168Y-152585D01*
X-319518Y-152785D01*
X-320768D01*
G01X-319518D02*
X-318768Y-154718D01*
G01X-316468Y-154851D02*
X-316568Y-154785D01*
Y-154651D01*
X-316468Y-154585D01*
X-316368Y-154651D01*
Y-154785D01*
X-316468Y-154851D01*
G01Y-153051D02*
X-316568Y-152985D01*
Y-152851D01*
X-316468Y-152785D01*
X-316368Y-152851D01*
Y-152985D01*
X-316468Y-153051D01*
G01X-334068Y-139718D02*
Y-135718D01*
X-333068D01*
X-332668Y-135918D01*
X-332368Y-136185D01*
X-332118Y-136585D01*
X-331918Y-137051D01*
X-331868Y-137718D01*
X-331918Y-138385D01*
X-332118Y-138851D01*
X-332368Y-139251D01*
X-332668Y-139518D01*
X-333068Y-139718D01*
X-334068D01*
G01X-330668D02*
Y-135718D01*
X-329418D01*
X-329018Y-135918D01*
X-328768Y-136185D01*
X-328668Y-136718D01*
X-328768Y-137251D01*
X-329068Y-137585D01*
X-329418Y-137785D01*
X-330668D01*
G01X-329418D02*
X-328668Y-139718D01*
G01X-327618D02*
X-326368Y-135718D01*
X-325118Y-139718D01*
G01X-325568Y-138318D02*
X-327168D01*
G01X-324568Y-135718D02*
X-323868Y-139718D01*
X-323068Y-135718D01*
X-322268Y-139718D01*
X-321568Y-135718D01*
G01X-320918Y-139718D02*
Y-135718D01*
X-318618Y-139718D01*
Y-135718D01*
G01X-312768Y-137585D02*
X-312568Y-137385D01*
X-312418Y-137051D01*
X-312318Y-136585D01*
X-312418Y-136185D01*
X-312618Y-135918D01*
X-312968Y-135718D01*
X-314318D01*
Y-139718D01*
X-312668D01*
X-312318Y-139451D01*
X-312118Y-139051D01*
X-312018Y-138585D01*
X-312118Y-138118D01*
X-312418Y-137718D01*
X-312768Y-137585D01*
X-314318D01*
G01X-309868Y-139718D02*
Y-137918D01*
X-310868Y-135718D01*
G01X-308868D02*
X-309868Y-137918D01*
G01X-306568Y-139851D02*
X-306668Y-139785D01*
Y-139651D01*
X-306568Y-139585D01*
X-306468Y-139651D01*
Y-139785D01*
X-306568Y-139851D01*
G01Y-138051D02*
X-306668Y-137985D01*
Y-137851D01*
X-306568Y-137785D01*
X-306468Y-137851D01*
Y-137985D01*
X-306568Y-138051D01*
G01X-334068Y-139718D02*
Y-135718D01*
X-333068D01*
X-332668Y-135918D01*
X-332368Y-136185D01*
X-332118Y-136585D01*
X-331918Y-137051D01*
X-331868Y-137718D01*
X-331918Y-138385D01*
X-332118Y-138851D01*
X-332368Y-139251D01*
X-332668Y-139518D01*
X-333068Y-139718D01*
X-334068D01*
G01X-330668D02*
Y-135718D01*
X-329418D01*
X-329018Y-135918D01*
X-328768Y-136185D01*
X-328668Y-136718D01*
X-328768Y-137251D01*
X-329068Y-137585D01*
X-329418Y-137785D01*
X-330668D01*
G01X-329418D02*
X-328668Y-139718D01*
G01X-327618D02*
X-326368Y-135718D01*
X-325118Y-139718D01*
G01X-325568Y-138318D02*
X-327168D01*
G01X-324568Y-135718D02*
X-323868Y-139718D01*
X-323068Y-135718D01*
X-322268Y-139718D01*
X-321568Y-135718D01*
G01X-320918Y-139718D02*
Y-135718D01*
X-318618Y-139718D01*
Y-135718D01*
G01X-312768Y-137585D02*
X-312568Y-137385D01*
X-312418Y-137051D01*
X-312318Y-136585D01*
X-312418Y-136185D01*
X-312618Y-135918D01*
X-312968Y-135718D01*
X-314318D01*
Y-139718D01*
X-312668D01*
X-312318Y-139451D01*
X-312118Y-139051D01*
X-312018Y-138585D01*
X-312118Y-138118D01*
X-312418Y-137718D01*
X-312768Y-137585D01*
X-314318D01*
G01X-309868Y-139718D02*
Y-137918D01*
X-310868Y-135718D01*
G01X-308868D02*
X-309868Y-137918D01*
G01X-306568Y-139851D02*
X-306668Y-139785D01*
Y-139651D01*
X-306568Y-139585D01*
X-306468Y-139651D01*
Y-139785D01*
X-306568Y-139851D01*
G01Y-138051D02*
X-306668Y-137985D01*
Y-137851D01*
X-306568Y-137785D01*
X-306468Y-137851D01*
Y-137985D01*
X-306568Y-138051D01*
G01X-333968Y-124718D02*
Y-120718D01*
X-332768D01*
X-332368Y-120918D01*
X-332068Y-121385D01*
X-331968Y-121918D01*
X-332068Y-122451D01*
X-332318Y-122851D01*
X-332768Y-123051D01*
X-333968D01*
G01X-330668Y-124718D02*
Y-120718D01*
X-329418D01*
X-329018Y-120918D01*
X-328768Y-121185D01*
X-328668Y-121718D01*
X-328768Y-122251D01*
X-329068Y-122585D01*
X-329418Y-122785D01*
X-330668D01*
G01X-329418D02*
X-328668Y-124718D01*
G01X-326368D02*
X-326768Y-124651D01*
X-327118Y-124385D01*
X-327418Y-123985D01*
X-327618Y-123518D01*
X-327718Y-122985D01*
Y-122451D01*
X-327618Y-121918D01*
X-327418Y-121451D01*
X-327118Y-121051D01*
X-326768Y-120785D01*
X-326368Y-120718D01*
X-325968Y-120785D01*
X-325618Y-121051D01*
X-325318Y-121451D01*
X-325118Y-121918D01*
X-325018Y-122451D01*
Y-122985D01*
X-325118Y-123518D01*
X-325318Y-123985D01*
X-325618Y-124385D01*
X-325968Y-124651D01*
X-326368Y-124718D01*
G01X-324068Y-123918D02*
X-323818Y-124318D01*
X-323518Y-124585D01*
X-323168Y-124718D01*
X-322768Y-124585D01*
X-322468Y-124318D01*
X-322168Y-123918D01*
X-322068Y-123385D01*
Y-120718D01*
G01X-318768Y-124718D02*
X-320768D01*
Y-120718D01*
X-318768D01*
G01X-319568Y-122651D02*
X-320768D01*
G01X-315368Y-121051D02*
X-315668Y-120851D01*
X-316018Y-120718D01*
X-316418D01*
X-316868Y-120918D01*
X-317218Y-121251D01*
X-317468Y-121651D01*
X-317668Y-122318D01*
X-317718Y-122918D01*
X-317618Y-123518D01*
X-317468Y-123918D01*
X-317168Y-124318D01*
X-316818Y-124585D01*
X-316468Y-124718D01*
X-316118D01*
X-315768Y-124585D01*
X-315468Y-124385D01*
X-315218Y-124118D01*
G01X-313168Y-120718D02*
Y-124718D01*
G01X-314318Y-120718D02*
X-312018D01*
G01X-309868Y-124851D02*
X-309968Y-124785D01*
Y-124651D01*
X-309868Y-124585D01*
X-309768Y-124651D01*
Y-124785D01*
X-309868Y-124851D01*
G01Y-123051D02*
X-309968Y-122985D01*
Y-122851D01*
X-309868Y-122785D01*
X-309768Y-122851D01*
Y-122985D01*
X-309868Y-123051D01*
G01X-333968Y-124718D02*
Y-120718D01*
X-332768D01*
X-332368Y-120918D01*
X-332068Y-121385D01*
X-331968Y-121918D01*
X-332068Y-122451D01*
X-332318Y-122851D01*
X-332768Y-123051D01*
X-333968D01*
G01X-330668Y-124718D02*
Y-120718D01*
X-329418D01*
X-329018Y-120918D01*
X-328768Y-121185D01*
X-328668Y-121718D01*
X-328768Y-122251D01*
X-329068Y-122585D01*
X-329418Y-122785D01*
X-330668D01*
G01X-329418D02*
X-328668Y-124718D01*
G01X-326368D02*
X-326768Y-124651D01*
X-327118Y-124385D01*
X-327418Y-123985D01*
X-327618Y-123518D01*
X-327718Y-122985D01*
Y-122451D01*
X-327618Y-121918D01*
X-327418Y-121451D01*
X-327118Y-121051D01*
X-326768Y-120785D01*
X-326368Y-120718D01*
X-325968Y-120785D01*
X-325618Y-121051D01*
X-325318Y-121451D01*
X-325118Y-121918D01*
X-325018Y-122451D01*
Y-122985D01*
X-325118Y-123518D01*
X-325318Y-123985D01*
X-325618Y-124385D01*
X-325968Y-124651D01*
X-326368Y-124718D01*
G01X-324068Y-123918D02*
X-323818Y-124318D01*
X-323518Y-124585D01*
X-323168Y-124718D01*
X-322768Y-124585D01*
X-322468Y-124318D01*
X-322168Y-123918D01*
X-322068Y-123385D01*
Y-120718D01*
G01X-318768Y-124718D02*
X-320768D01*
Y-120718D01*
X-318768D01*
G01X-319568Y-122651D02*
X-320768D01*
G01X-315368Y-121051D02*
X-315668Y-120851D01*
X-316018Y-120718D01*
X-316418D01*
X-316868Y-120918D01*
X-317218Y-121251D01*
X-317468Y-121651D01*
X-317668Y-122318D01*
X-317718Y-122918D01*
X-317618Y-123518D01*
X-317468Y-123918D01*
X-317168Y-124318D01*
X-316818Y-124585D01*
X-316468Y-124718D01*
X-316118D01*
X-315768Y-124585D01*
X-315468Y-124385D01*
X-315218Y-124118D01*
G01X-313168Y-120718D02*
Y-124718D01*
G01X-314318Y-120718D02*
X-312018D01*
G01X-309868Y-124851D02*
X-309968Y-124785D01*
Y-124651D01*
X-309868Y-124585D01*
X-309768Y-124651D01*
Y-124785D01*
X-309868Y-124851D01*
G01Y-123051D02*
X-309968Y-122985D01*
Y-122851D01*
X-309868Y-122785D01*
X-309768Y-122851D01*
Y-122985D01*
X-309868Y-123051D01*
G01X-323628Y-177218D02*
X-319708Y-169718D01*
G01X-323628D02*
X-319708Y-177218D01*
G01X-316128D02*
X-312208Y-169718D01*
G01X-316128D02*
X-312208Y-177218D01*
G01X-307881Y-174718D02*
X-305455D01*
G01X-301128Y-177218D02*
X-297208Y-169718D01*
G01X-301128D02*
X-297208Y-177218D01*
G01X-293628D02*
X-289708Y-169718D01*
G01X-293628D02*
X-289708Y-177218D01*
G01X-286128D02*
X-282208Y-169718D01*
G01X-286128D02*
X-282208Y-177218D01*
G01X-278628D02*
X-274708Y-169718D01*
G01X-278628D02*
X-274708Y-177218D01*
G01X-323628D02*
X-319708Y-169718D01*
G01X-323628D02*
X-319708Y-177218D01*
G01X-316128D02*
X-312208Y-169718D01*
G01X-316128D02*
X-312208Y-177218D01*
G01X-307881Y-174718D02*
X-305455D01*
G01X-301128Y-177218D02*
X-297208Y-169718D01*
G01X-301128D02*
X-297208Y-177218D01*
G01X-293628D02*
X-289708Y-169718D01*
G01X-293628D02*
X-289708Y-177218D01*
G01X-286128D02*
X-282208Y-169718D01*
G01X-286128D02*
X-282208Y-177218D01*
G01X-278628D02*
X-274708Y-169718D01*
G01X-278628D02*
X-274708Y-177218D01*
G01X-302168Y-153468D02*
Y-160968D01*
G01X-304315Y-153468D02*
X-300021D01*
G01X-294668Y-160968D02*
X-295415Y-160843D01*
X-296068Y-160343D01*
X-296628Y-159593D01*
X-297001Y-158718D01*
X-297188Y-157718D01*
Y-156718D01*
X-297001Y-155718D01*
X-296628Y-154843D01*
X-296068Y-154093D01*
X-295415Y-153593D01*
X-294668Y-153468D01*
X-293921Y-153593D01*
X-293268Y-154093D01*
X-292708Y-154843D01*
X-292335Y-155718D01*
X-292148Y-156718D01*
Y-157718D01*
X-292335Y-158718D01*
X-292708Y-159593D01*
X-293268Y-160343D01*
X-293921Y-160843D01*
X-294668Y-160968D01*
G01X-289035D02*
Y-153468D01*
X-286795D01*
X-286048Y-153843D01*
X-285488Y-154718D01*
X-285301Y-155718D01*
X-285488Y-156718D01*
X-285955Y-157468D01*
X-286795Y-157843D01*
X-289035D01*
G01X-274035Y-160968D02*
Y-153468D01*
X-271795D01*
X-271048Y-153843D01*
X-270488Y-154718D01*
X-270301Y-155718D01*
X-270488Y-156718D01*
X-270955Y-157468D01*
X-271795Y-157843D01*
X-274035D01*
G01X-267001Y-160968D02*
X-264668Y-153468D01*
X-262335Y-160968D01*
G01X-263175Y-158343D02*
X-266161D01*
G01X-259128Y-159968D02*
X-258381Y-160593D01*
X-257541Y-160968D01*
X-256795D01*
X-256048Y-160593D01*
X-255488Y-159968D01*
X-255208Y-159093D01*
X-255395Y-158218D01*
X-255861Y-157468D01*
X-256701Y-156968D01*
X-257821Y-156718D01*
X-258475Y-156218D01*
X-258755Y-155343D01*
X-258568Y-154468D01*
X-258101Y-153843D01*
X-257448Y-153468D01*
X-256795D01*
X-256141Y-153718D01*
X-255581Y-154343D01*
G01X-249668Y-153468D02*
Y-160968D01*
G01X-251815Y-153468D02*
X-247521D01*
G01X-240301Y-160968D02*
X-244035D01*
Y-153468D01*
X-240301D01*
G01X-241795Y-157093D02*
X-244035D01*
G01X-237095Y-160968D02*
Y-153468D01*
X-234668Y-159718D01*
X-232241Y-153468D01*
Y-160968D01*
G01X-229501D02*
X-227168Y-153468D01*
X-224835Y-160968D01*
G01X-225675Y-158343D02*
X-228661D01*
G01X-221628Y-159968D02*
X-220881Y-160593D01*
X-220041Y-160968D01*
X-219295D01*
X-218548Y-160593D01*
X-217988Y-159968D01*
X-217708Y-159093D01*
X-217895Y-158218D01*
X-218361Y-157468D01*
X-219201Y-156968D01*
X-220321Y-156718D01*
X-220975Y-156218D01*
X-221255Y-155343D01*
X-221068Y-154468D01*
X-220601Y-153843D01*
X-219948Y-153468D01*
X-219295D01*
X-218641Y-153718D01*
X-218081Y-154343D01*
G01X-214221Y-160968D02*
Y-153468D01*
G01X-210675D02*
X-214221Y-158093D01*
G01X-210115Y-160968D02*
X-212635Y-155968D01*
G01X-205881Y-158468D02*
X-203455D01*
G01X-198381D02*
X-195955D01*
G01X-190881D02*
X-188455D01*
G01X-183381D02*
X-180955D01*
G01X-175881D02*
X-173455D01*
G01X-168381D02*
X-165955D01*
G01X-160881D02*
X-158455D01*
G01X-153381D02*
X-150955D01*
G01X-144668Y-153468D02*
Y-160968D01*
G01X-146815Y-153468D02*
X-142521D01*
G01X-137168Y-160968D02*
X-137915Y-160843D01*
X-138568Y-160343D01*
X-139128Y-159593D01*
X-139501Y-158718D01*
X-139688Y-157718D01*
Y-156718D01*
X-139501Y-155718D01*
X-139128Y-154843D01*
X-138568Y-154093D01*
X-137915Y-153593D01*
X-137168Y-153468D01*
X-136421Y-153593D01*
X-135768Y-154093D01*
X-135208Y-154843D01*
X-134835Y-155718D01*
X-134648Y-156718D01*
Y-157718D01*
X-134835Y-158718D01*
X-135208Y-159593D01*
X-135768Y-160343D01*
X-136421Y-160843D01*
X-137168Y-160968D01*
G01X-131535D02*
Y-153468D01*
X-129295D01*
X-128548Y-153843D01*
X-127988Y-154718D01*
X-127801Y-155718D01*
X-127988Y-156718D01*
X-128455Y-157468D01*
X-129295Y-157843D01*
X-131535D01*
G01X-124035Y-160968D02*
Y-153468D01*
X-121795D01*
X-121048Y-153843D01*
X-120488Y-154718D01*
X-120301Y-155718D01*
X-120488Y-156718D01*
X-120955Y-157468D01*
X-121795Y-157843D01*
X-124035D01*
G01X-117001Y-160968D02*
X-114668Y-153468D01*
X-112335Y-160968D01*
G01X-113175Y-158343D02*
X-116161D01*
G01X-109128Y-159968D02*
X-108381Y-160593D01*
X-107541Y-160968D01*
X-106795D01*
X-106048Y-160593D01*
X-105488Y-159968D01*
X-105208Y-159093D01*
X-105395Y-158218D01*
X-105861Y-157468D01*
X-106701Y-156968D01*
X-107821Y-156718D01*
X-108475Y-156218D01*
X-108755Y-155343D01*
X-108568Y-154468D01*
X-108101Y-153843D01*
X-107448Y-153468D01*
X-106795D01*
X-106141Y-153718D01*
X-105581Y-154343D01*
G01X-99668Y-153468D02*
Y-160968D01*
G01X-101815Y-153468D02*
X-97521D01*
G01X-90301Y-160968D02*
X-94035D01*
Y-153468D01*
X-90301D01*
G01X-91795Y-157093D02*
X-94035D01*
G01X-84668Y-161218D02*
X-84855Y-161093D01*
Y-160843D01*
X-84668Y-160718D01*
X-84481Y-160843D01*
Y-161093D01*
X-84668Y-161218D01*
G01X-79501Y-160968D02*
X-77168Y-153468D01*
X-74835Y-160968D01*
G01X-75675Y-158343D02*
X-78661D01*
G01X-71535Y-160968D02*
Y-153468D01*
X-69201D01*
X-68455Y-153843D01*
X-67988Y-154343D01*
X-67801Y-155343D01*
X-67988Y-156343D01*
X-68548Y-156968D01*
X-69201Y-157343D01*
X-71535D01*
G01X-69201D02*
X-67801Y-160968D01*
G01X-62168Y-153468D02*
Y-160968D01*
G01X-64315Y-153468D02*
X-60021D01*
G01X-303535Y-145718D02*
X-303068Y-146468D01*
X-302508Y-146968D01*
X-301855Y-147218D01*
X-301108Y-146968D01*
X-300548Y-146468D01*
X-299988Y-145718D01*
X-299801Y-144718D01*
Y-139718D01*
G01X-295941D02*
X-292395D01*
X-295941Y-147218D01*
X-292395D01*
G01X-289095D02*
Y-139718D01*
X-286668Y-145968D01*
X-284241Y-139718D01*
Y-147218D01*
G01X-269615Y-140343D02*
X-270175Y-139968D01*
X-270828Y-139718D01*
X-271575D01*
X-272415Y-140093D01*
X-273068Y-140718D01*
X-273535Y-141468D01*
X-273908Y-142718D01*
X-274001Y-143843D01*
X-273815Y-144968D01*
X-273535Y-145718D01*
X-272975Y-146468D01*
X-272321Y-146968D01*
X-271668Y-147218D01*
X-271015D01*
X-270361Y-146968D01*
X-269801Y-146593D01*
X-269335Y-146093D01*
G01X-264168Y-147218D02*
X-264915Y-147093D01*
X-265568Y-146593D01*
X-266128Y-145843D01*
X-266501Y-144968D01*
X-266688Y-143968D01*
Y-142968D01*
X-266501Y-141968D01*
X-266128Y-141093D01*
X-265568Y-140343D01*
X-264915Y-139843D01*
X-264168Y-139718D01*
X-263421Y-139843D01*
X-262768Y-140343D01*
X-262208Y-141093D01*
X-261835Y-141968D01*
X-261648Y-142968D01*
Y-143968D01*
X-261835Y-144968D01*
X-262208Y-145843D01*
X-262768Y-146593D01*
X-263421Y-147093D01*
X-264168Y-147218D01*
G01X-258815D02*
Y-139718D01*
X-254521Y-147218D01*
Y-139718D01*
G01X-251128Y-146218D02*
X-250381Y-146843D01*
X-249541Y-147218D01*
X-248795D01*
X-248048Y-146843D01*
X-247488Y-146218D01*
X-247208Y-145343D01*
X-247395Y-144468D01*
X-247861Y-143718D01*
X-248701Y-143218D01*
X-249821Y-142968D01*
X-250475Y-142468D01*
X-250755Y-141593D01*
X-250568Y-140718D01*
X-250101Y-140093D01*
X-249448Y-139718D01*
X-248795D01*
X-248141Y-139968D01*
X-247581Y-140593D01*
G01X-243721Y-139718D02*
Y-145093D01*
X-243348Y-146218D01*
X-242601Y-146968D01*
X-241668Y-147218D01*
X-240735Y-146968D01*
X-239988Y-146218D01*
X-239615Y-145093D01*
Y-139718D01*
G01X-236035D02*
Y-147218D01*
X-232301D01*
G01X-226668Y-139718D02*
Y-147218D01*
G01X-228815Y-139718D02*
X-224521D01*
G01X-220288D02*
X-218048D01*
G01X-219168D02*
Y-147218D01*
G01X-220288D02*
X-218048D01*
G01X-213815D02*
Y-139718D01*
X-209521Y-147218D01*
Y-139718D01*
G01X-203608Y-143468D02*
X-201741D01*
Y-145718D01*
X-202301Y-146468D01*
X-202955Y-146968D01*
X-203888Y-147218D01*
X-204821Y-146968D01*
X-205475Y-146468D01*
X-206035Y-145718D01*
X-206408Y-144843D01*
X-206595Y-143843D01*
Y-142968D01*
X-206408Y-142218D01*
X-206035Y-141343D01*
X-205475Y-140593D01*
X-204915Y-140093D01*
X-204168Y-139718D01*
X-203515D01*
X-202768Y-139968D01*
X-202208Y-140468D01*
G01X-198348Y-147468D02*
X-194988Y-139718D01*
G01X-191501Y-147218D02*
X-189168Y-139718D01*
X-186835Y-147218D01*
G01X-187675Y-144593D02*
X-190661D01*
G01X-181668Y-147218D02*
Y-139718D01*
G01X-174168Y-147218D02*
Y-139718D01*
G01X-168068Y-143843D02*
X-165081D01*
X-165361Y-142968D01*
X-165828Y-142468D01*
X-166481Y-142218D01*
X-167135Y-142343D01*
X-167695Y-142718D01*
X-168068Y-143593D01*
X-168255Y-144343D01*
Y-145093D01*
X-168068Y-145843D01*
X-167601Y-146593D01*
X-167041Y-147093D01*
X-166388Y-147218D01*
X-165735Y-146968D01*
X-165081Y-146218D01*
G01X-160755Y-147218D02*
Y-142218D01*
G01Y-143468D02*
X-160381Y-142843D01*
X-159821Y-142343D01*
X-159075Y-142218D01*
X-158421Y-142343D01*
X-157861Y-142843D01*
X-157581Y-143718D01*
Y-147218D01*
G01X-146221D02*
Y-139718D01*
G01X-142675D02*
X-146221Y-144343D01*
G01X-142115Y-147218D02*
X-144635Y-142218D01*
G01X-138068Y-143843D02*
X-135081D01*
X-135361Y-142968D01*
X-135828Y-142468D01*
X-136481Y-142218D01*
X-137135Y-142343D01*
X-137695Y-142718D01*
X-138068Y-143593D01*
X-138255Y-144343D01*
Y-145093D01*
X-138068Y-145843D01*
X-137601Y-146593D01*
X-137041Y-147093D01*
X-136388Y-147218D01*
X-135735Y-146968D01*
X-135081Y-146218D01*
G01X-130475Y-147218D02*
Y-142218D01*
G01Y-143218D02*
X-130008Y-142718D01*
X-129541Y-142343D01*
X-128888Y-142218D01*
X-128421Y-142343D01*
X-127861Y-142718D01*
G01X-123068Y-146343D02*
X-122601Y-146843D01*
X-121948Y-147218D01*
X-121388D01*
X-120828Y-146968D01*
X-120455Y-146593D01*
X-120268Y-146093D01*
X-120361Y-145343D01*
X-120735Y-144968D01*
X-122415Y-144218D01*
X-122788Y-143343D01*
X-122601Y-142718D01*
X-122228Y-142343D01*
X-121668Y-142218D01*
X-121108Y-142343D01*
X-120548Y-142718D01*
G01X-115568Y-143843D02*
X-112581D01*
X-112861Y-142968D01*
X-113328Y-142468D01*
X-113981Y-142218D01*
X-114635Y-142343D01*
X-115195Y-142718D01*
X-115568Y-143593D01*
X-115755Y-144343D01*
Y-145093D01*
X-115568Y-145843D01*
X-115101Y-146593D01*
X-114541Y-147093D01*
X-113888Y-147218D01*
X-113235Y-146968D01*
X-112581Y-146218D01*
G01X-108628Y-149468D02*
X-108068Y-149718D01*
X-107321Y-149468D01*
X-106855Y-148968D01*
X-106481Y-148343D01*
X-105921Y-146343D01*
X-104708Y-142218D01*
G01X-107695D02*
X-105921Y-146343D01*
G01X-303535Y-145718D02*
X-303068Y-146468D01*
X-302508Y-146968D01*
X-301855Y-147218D01*
X-301108Y-146968D01*
X-300548Y-146468D01*
X-299988Y-145718D01*
X-299801Y-144718D01*
Y-139718D01*
G01X-295941D02*
X-292395D01*
X-295941Y-147218D01*
X-292395D01*
G01X-289095D02*
Y-139718D01*
X-286668Y-145968D01*
X-284241Y-139718D01*
Y-147218D01*
G01X-269615Y-140343D02*
X-270175Y-139968D01*
X-270828Y-139718D01*
X-271575D01*
X-272415Y-140093D01*
X-273068Y-140718D01*
X-273535Y-141468D01*
X-273908Y-142718D01*
X-274001Y-143843D01*
X-273815Y-144968D01*
X-273535Y-145718D01*
X-272975Y-146468D01*
X-272321Y-146968D01*
X-271668Y-147218D01*
X-271015D01*
X-270361Y-146968D01*
X-269801Y-146593D01*
X-269335Y-146093D01*
G01X-264168Y-147218D02*
X-264915Y-147093D01*
X-265568Y-146593D01*
X-266128Y-145843D01*
X-266501Y-144968D01*
X-266688Y-143968D01*
Y-142968D01*
X-266501Y-141968D01*
X-266128Y-141093D01*
X-265568Y-140343D01*
X-264915Y-139843D01*
X-264168Y-139718D01*
X-263421Y-139843D01*
X-262768Y-140343D01*
X-262208Y-141093D01*
X-261835Y-141968D01*
X-261648Y-142968D01*
Y-143968D01*
X-261835Y-144968D01*
X-262208Y-145843D01*
X-262768Y-146593D01*
X-263421Y-147093D01*
X-264168Y-147218D01*
G01X-258815D02*
Y-139718D01*
X-254521Y-147218D01*
Y-139718D01*
G01X-251128Y-146218D02*
X-250381Y-146843D01*
X-249541Y-147218D01*
X-248795D01*
X-248048Y-146843D01*
X-247488Y-146218D01*
X-247208Y-145343D01*
X-247395Y-144468D01*
X-247861Y-143718D01*
X-248701Y-143218D01*
X-249821Y-142968D01*
X-250475Y-142468D01*
X-250755Y-141593D01*
X-250568Y-140718D01*
X-250101Y-140093D01*
X-249448Y-139718D01*
X-248795D01*
X-248141Y-139968D01*
X-247581Y-140593D01*
G01X-243721Y-139718D02*
Y-145093D01*
X-243348Y-146218D01*
X-242601Y-146968D01*
X-241668Y-147218D01*
X-240735Y-146968D01*
X-239988Y-146218D01*
X-239615Y-145093D01*
Y-139718D01*
G01X-236035D02*
Y-147218D01*
X-232301D01*
G01X-226668Y-139718D02*
Y-147218D01*
G01X-228815Y-139718D02*
X-224521D01*
G01X-220288D02*
X-218048D01*
G01X-219168D02*
Y-147218D01*
G01X-220288D02*
X-218048D01*
G01X-213815D02*
Y-139718D01*
X-209521Y-147218D01*
Y-139718D01*
G01X-203608Y-143468D02*
X-201741D01*
Y-145718D01*
X-202301Y-146468D01*
X-202955Y-146968D01*
X-203888Y-147218D01*
X-204821Y-146968D01*
X-205475Y-146468D01*
X-206035Y-145718D01*
X-206408Y-144843D01*
X-206595Y-143843D01*
Y-142968D01*
X-206408Y-142218D01*
X-206035Y-141343D01*
X-205475Y-140593D01*
X-204915Y-140093D01*
X-204168Y-139718D01*
X-203515D01*
X-202768Y-139968D01*
X-202208Y-140468D01*
G01X-198348Y-147468D02*
X-194988Y-139718D01*
G01X-191501Y-147218D02*
X-189168Y-139718D01*
X-186835Y-147218D01*
G01X-187675Y-144593D02*
X-190661D01*
G01X-181668Y-147218D02*
Y-139718D01*
G01X-174168Y-147218D02*
Y-139718D01*
G01X-168068Y-143843D02*
X-165081D01*
X-165361Y-142968D01*
X-165828Y-142468D01*
X-166481Y-142218D01*
X-167135Y-142343D01*
X-167695Y-142718D01*
X-168068Y-143593D01*
X-168255Y-144343D01*
Y-145093D01*
X-168068Y-145843D01*
X-167601Y-146593D01*
X-167041Y-147093D01*
X-166388Y-147218D01*
X-165735Y-146968D01*
X-165081Y-146218D01*
G01X-160755Y-147218D02*
Y-142218D01*
G01Y-143468D02*
X-160381Y-142843D01*
X-159821Y-142343D01*
X-159075Y-142218D01*
X-158421Y-142343D01*
X-157861Y-142843D01*
X-157581Y-143718D01*
Y-147218D01*
G01X-146221D02*
Y-139718D01*
G01X-142675D02*
X-146221Y-144343D01*
G01X-142115Y-147218D02*
X-144635Y-142218D01*
G01X-138068Y-143843D02*
X-135081D01*
X-135361Y-142968D01*
X-135828Y-142468D01*
X-136481Y-142218D01*
X-137135Y-142343D01*
X-137695Y-142718D01*
X-138068Y-143593D01*
X-138255Y-144343D01*
Y-145093D01*
X-138068Y-145843D01*
X-137601Y-146593D01*
X-137041Y-147093D01*
X-136388Y-147218D01*
X-135735Y-146968D01*
X-135081Y-146218D01*
G01X-130475Y-147218D02*
Y-142218D01*
G01Y-143218D02*
X-130008Y-142718D01*
X-129541Y-142343D01*
X-128888Y-142218D01*
X-128421Y-142343D01*
X-127861Y-142718D01*
G01X-123068Y-146343D02*
X-122601Y-146843D01*
X-121948Y-147218D01*
X-121388D01*
X-120828Y-146968D01*
X-120455Y-146593D01*
X-120268Y-146093D01*
X-120361Y-145343D01*
X-120735Y-144968D01*
X-122415Y-144218D01*
X-122788Y-143343D01*
X-122601Y-142718D01*
X-122228Y-142343D01*
X-121668Y-142218D01*
X-121108Y-142343D01*
X-120548Y-142718D01*
G01X-115568Y-143843D02*
X-112581D01*
X-112861Y-142968D01*
X-113328Y-142468D01*
X-113981Y-142218D01*
X-114635Y-142343D01*
X-115195Y-142718D01*
X-115568Y-143593D01*
X-115755Y-144343D01*
Y-145093D01*
X-115568Y-145843D01*
X-115101Y-146593D01*
X-114541Y-147093D01*
X-113888Y-147218D01*
X-113235Y-146968D01*
X-112581Y-146218D01*
G01X-108628Y-149468D02*
X-108068Y-149718D01*
X-107321Y-149468D01*
X-106855Y-148968D01*
X-106481Y-148343D01*
X-105921Y-146343D01*
X-104708Y-142218D01*
G01X-107695D02*
X-105921Y-146343D01*
G01X-301668Y-124718D02*
Y-132218D01*
G01X-303815Y-124718D02*
X-299521D01*
G01X-296035Y-132218D02*
Y-124718D01*
X-293701D01*
X-292955Y-125093D01*
X-292488Y-125593D01*
X-292301Y-126593D01*
X-292488Y-127593D01*
X-293048Y-128218D01*
X-293701Y-128593D01*
X-296035D01*
G01X-293701D02*
X-292301Y-132218D01*
G01X-289001D02*
X-286668Y-124718D01*
X-284335Y-132218D01*
G01X-285175Y-129593D02*
X-288161D01*
G01X-277115Y-125343D02*
X-277675Y-124968D01*
X-278328Y-124718D01*
X-279075D01*
X-279915Y-125093D01*
X-280568Y-125718D01*
X-281035Y-126468D01*
X-281408Y-127718D01*
X-281501Y-128843D01*
X-281315Y-129968D01*
X-281035Y-130718D01*
X-280475Y-131468D01*
X-279821Y-131968D01*
X-279168Y-132218D01*
X-278515D01*
X-277861Y-131968D01*
X-277301Y-131593D01*
X-276835Y-131093D01*
G01X-273721Y-132218D02*
Y-124718D01*
G01X-270175D02*
X-273721Y-129343D01*
G01X-269615Y-132218D02*
X-272135Y-127218D01*
G01X-258628Y-131218D02*
X-257881Y-131843D01*
X-257041Y-132218D01*
X-256295D01*
X-255548Y-131843D01*
X-254988Y-131218D01*
X-254708Y-130343D01*
X-254895Y-129468D01*
X-255361Y-128718D01*
X-256201Y-128218D01*
X-257321Y-127968D01*
X-257975Y-127468D01*
X-258255Y-126593D01*
X-258068Y-125718D01*
X-257601Y-125093D01*
X-256948Y-124718D01*
X-256295D01*
X-255641Y-124968D01*
X-255081Y-125593D01*
G01X-249168Y-132218D02*
Y-128843D01*
X-251035Y-124718D01*
G01X-247301D02*
X-249168Y-128843D01*
G01X-243628Y-131218D02*
X-242881Y-131843D01*
X-242041Y-132218D01*
X-241295D01*
X-240548Y-131843D01*
X-239988Y-131218D01*
X-239708Y-130343D01*
X-239895Y-129468D01*
X-240361Y-128718D01*
X-241201Y-128218D01*
X-242321Y-127968D01*
X-242975Y-127468D01*
X-243255Y-126593D01*
X-243068Y-125718D01*
X-242601Y-125093D01*
X-241948Y-124718D01*
X-241295D01*
X-240641Y-124968D01*
X-240081Y-125593D01*
G01X-234168Y-124718D02*
Y-132218D01*
G01X-236315Y-124718D02*
X-232021D01*
G01X-224801Y-132218D02*
X-228535D01*
Y-124718D01*
X-224801D01*
G01X-226295Y-128343D02*
X-228535D01*
G01X-221595Y-132218D02*
Y-124718D01*
X-219168Y-130968D01*
X-216741Y-124718D01*
Y-132218D01*
G01X-213628Y-131218D02*
X-212881Y-131843D01*
X-212041Y-132218D01*
X-211295D01*
X-210548Y-131843D01*
X-209988Y-131218D01*
X-209708Y-130343D01*
X-209895Y-129468D01*
X-210361Y-128718D01*
X-211201Y-128218D01*
X-212321Y-127968D01*
X-212975Y-127468D01*
X-213255Y-126593D01*
X-213068Y-125718D01*
X-212601Y-125093D01*
X-211948Y-124718D01*
X-211295D01*
X-210641Y-124968D01*
X-210081Y-125593D01*
G01X-198721Y-132218D02*
Y-124718D01*
X-196855D01*
X-196108Y-125093D01*
X-195548Y-125593D01*
X-195081Y-126343D01*
X-194708Y-127218D01*
X-194615Y-128468D01*
X-194708Y-129718D01*
X-195081Y-130593D01*
X-195548Y-131343D01*
X-196108Y-131843D01*
X-196855Y-132218D01*
X-198721D01*
G01X-191221Y-124718D02*
Y-130093D01*
X-190848Y-131218D01*
X-190101Y-131968D01*
X-189168Y-132218D01*
X-188235Y-131968D01*
X-187488Y-131218D01*
X-187115Y-130093D01*
Y-124718D01*
G01X-182788D02*
X-180548D01*
G01X-181668D02*
Y-132218D01*
G01X-182788D02*
X-180548D01*
G01X-175288Y-124718D02*
X-173048D01*
G01X-174168D02*
Y-132218D01*
G01X-175288D02*
X-173048D01*
G01X-158421Y-128218D02*
X-158048Y-127843D01*
X-157768Y-127218D01*
X-157581Y-126343D01*
X-157768Y-125593D01*
X-158141Y-125093D01*
X-158795Y-124718D01*
X-161315D01*
Y-132218D01*
X-158235D01*
X-157581Y-131718D01*
X-157208Y-130968D01*
X-157021Y-130093D01*
X-157208Y-129218D01*
X-157768Y-128468D01*
X-158421Y-128218D01*
X-161315D01*
G01X-151668Y-132218D02*
X-152415Y-132093D01*
X-153068Y-131593D01*
X-153628Y-130843D01*
X-154001Y-129968D01*
X-154188Y-128968D01*
Y-127968D01*
X-154001Y-126968D01*
X-153628Y-126093D01*
X-153068Y-125343D01*
X-152415Y-124843D01*
X-151668Y-124718D01*
X-150921Y-124843D01*
X-150268Y-125343D01*
X-149708Y-126093D01*
X-149335Y-126968D01*
X-149148Y-127968D01*
Y-128968D01*
X-149335Y-129968D01*
X-149708Y-130843D01*
X-150268Y-131593D01*
X-150921Y-132093D01*
X-151668Y-132218D01*
G01X-146501D02*
X-144168Y-124718D01*
X-141835Y-132218D01*
G01X-142675Y-129593D02*
X-145661D01*
G01X-138535Y-132218D02*
Y-124718D01*
X-136201D01*
X-135455Y-125093D01*
X-134988Y-125593D01*
X-134801Y-126593D01*
X-134988Y-127593D01*
X-135548Y-128218D01*
X-136201Y-128593D01*
X-138535D01*
G01X-136201D02*
X-134801Y-132218D01*
G01X-131221D02*
Y-124718D01*
X-129355D01*
X-128608Y-125093D01*
X-128048Y-125593D01*
X-127581Y-126343D01*
X-127208Y-127218D01*
X-127115Y-128468D01*
X-127208Y-129718D01*
X-127581Y-130593D01*
X-128048Y-131343D01*
X-128608Y-131843D01*
X-129355Y-132218D01*
X-131221D01*
G01X-301668Y-124718D02*
Y-132218D01*
G01X-303815Y-124718D02*
X-299521D01*
G01X-296035Y-132218D02*
Y-124718D01*
X-293701D01*
X-292955Y-125093D01*
X-292488Y-125593D01*
X-292301Y-126593D01*
X-292488Y-127593D01*
X-293048Y-128218D01*
X-293701Y-128593D01*
X-296035D01*
G01X-293701D02*
X-292301Y-132218D01*
G01X-289001D02*
X-286668Y-124718D01*
X-284335Y-132218D01*
G01X-285175Y-129593D02*
X-288161D01*
G01X-277115Y-125343D02*
X-277675Y-124968D01*
X-278328Y-124718D01*
X-279075D01*
X-279915Y-125093D01*
X-280568Y-125718D01*
X-281035Y-126468D01*
X-281408Y-127718D01*
X-281501Y-128843D01*
X-281315Y-129968D01*
X-281035Y-130718D01*
X-280475Y-131468D01*
X-279821Y-131968D01*
X-279168Y-132218D01*
X-278515D01*
X-277861Y-131968D01*
X-277301Y-131593D01*
X-276835Y-131093D01*
G01X-273721Y-132218D02*
Y-124718D01*
G01X-270175D02*
X-273721Y-129343D01*
G01X-269615Y-132218D02*
X-272135Y-127218D01*
G01X-258628Y-131218D02*
X-257881Y-131843D01*
X-257041Y-132218D01*
X-256295D01*
X-255548Y-131843D01*
X-254988Y-131218D01*
X-254708Y-130343D01*
X-254895Y-129468D01*
X-255361Y-128718D01*
X-256201Y-128218D01*
X-257321Y-127968D01*
X-257975Y-127468D01*
X-258255Y-126593D01*
X-258068Y-125718D01*
X-257601Y-125093D01*
X-256948Y-124718D01*
X-256295D01*
X-255641Y-124968D01*
X-255081Y-125593D01*
G01X-249168Y-132218D02*
Y-128843D01*
X-251035Y-124718D01*
G01X-247301D02*
X-249168Y-128843D01*
G01X-243628Y-131218D02*
X-242881Y-131843D01*
X-242041Y-132218D01*
X-241295D01*
X-240548Y-131843D01*
X-239988Y-131218D01*
X-239708Y-130343D01*
X-239895Y-129468D01*
X-240361Y-128718D01*
X-241201Y-128218D01*
X-242321Y-127968D01*
X-242975Y-127468D01*
X-243255Y-126593D01*
X-243068Y-125718D01*
X-242601Y-125093D01*
X-241948Y-124718D01*
X-241295D01*
X-240641Y-124968D01*
X-240081Y-125593D01*
G01X-234168Y-124718D02*
Y-132218D01*
G01X-236315Y-124718D02*
X-232021D01*
G01X-224801Y-132218D02*
X-228535D01*
Y-124718D01*
X-224801D01*
G01X-226295Y-128343D02*
X-228535D01*
G01X-221595Y-132218D02*
Y-124718D01*
X-219168Y-130968D01*
X-216741Y-124718D01*
Y-132218D01*
G01X-213628Y-131218D02*
X-212881Y-131843D01*
X-212041Y-132218D01*
X-211295D01*
X-210548Y-131843D01*
X-209988Y-131218D01*
X-209708Y-130343D01*
X-209895Y-129468D01*
X-210361Y-128718D01*
X-211201Y-128218D01*
X-212321Y-127968D01*
X-212975Y-127468D01*
X-213255Y-126593D01*
X-213068Y-125718D01*
X-212601Y-125093D01*
X-211948Y-124718D01*
X-211295D01*
X-210641Y-124968D01*
X-210081Y-125593D01*
G01X-198721Y-132218D02*
Y-124718D01*
X-196855D01*
X-196108Y-125093D01*
X-195548Y-125593D01*
X-195081Y-126343D01*
X-194708Y-127218D01*
X-194615Y-128468D01*
X-194708Y-129718D01*
X-195081Y-130593D01*
X-195548Y-131343D01*
X-196108Y-131843D01*
X-196855Y-132218D01*
X-198721D01*
G01X-191221Y-124718D02*
Y-130093D01*
X-190848Y-131218D01*
X-190101Y-131968D01*
X-189168Y-132218D01*
X-188235Y-131968D01*
X-187488Y-131218D01*
X-187115Y-130093D01*
Y-124718D01*
G01X-182788D02*
X-180548D01*
G01X-181668D02*
Y-132218D01*
G01X-182788D02*
X-180548D01*
G01X-175288Y-124718D02*
X-173048D01*
G01X-174168D02*
Y-132218D01*
G01X-175288D02*
X-173048D01*
G01X-158421Y-128218D02*
X-158048Y-127843D01*
X-157768Y-127218D01*
X-157581Y-126343D01*
X-157768Y-125593D01*
X-158141Y-125093D01*
X-158795Y-124718D01*
X-161315D01*
Y-132218D01*
X-158235D01*
X-157581Y-131718D01*
X-157208Y-130968D01*
X-157021Y-130093D01*
X-157208Y-129218D01*
X-157768Y-128468D01*
X-158421Y-128218D01*
X-161315D01*
G01X-151668Y-132218D02*
X-152415Y-132093D01*
X-153068Y-131593D01*
X-153628Y-130843D01*
X-154001Y-129968D01*
X-154188Y-128968D01*
Y-127968D01*
X-154001Y-126968D01*
X-153628Y-126093D01*
X-153068Y-125343D01*
X-152415Y-124843D01*
X-151668Y-124718D01*
X-150921Y-124843D01*
X-150268Y-125343D01*
X-149708Y-126093D01*
X-149335Y-126968D01*
X-149148Y-127968D01*
Y-128968D01*
X-149335Y-129968D01*
X-149708Y-130843D01*
X-150268Y-131593D01*
X-150921Y-132093D01*
X-151668Y-132218D01*
G01X-146501D02*
X-144168Y-124718D01*
X-141835Y-132218D01*
G01X-142675Y-129593D02*
X-145661D01*
G01X-138535Y-132218D02*
Y-124718D01*
X-136201D01*
X-135455Y-125093D01*
X-134988Y-125593D01*
X-134801Y-126593D01*
X-134988Y-127593D01*
X-135548Y-128218D01*
X-136201Y-128593D01*
X-138535D01*
G01X-136201D02*
X-134801Y-132218D01*
G01X-131221D02*
Y-124718D01*
X-129355D01*
X-128608Y-125093D01*
X-128048Y-125593D01*
X-127581Y-126343D01*
X-127208Y-127218D01*
X-127115Y-128468D01*
X-127208Y-129718D01*
X-127581Y-130593D01*
X-128048Y-131343D01*
X-128608Y-131843D01*
X-129355Y-132218D01*
X-131221D01*
G01X-161468Y-169718D02*
Y-165718D01*
X-160218D01*
X-159818Y-165918D01*
X-159568Y-166185D01*
X-159468Y-166718D01*
X-159568Y-167251D01*
X-159868Y-167585D01*
X-160218Y-167785D01*
X-161468D01*
G01X-160218D02*
X-159468Y-169718D01*
G01X-156168D02*
X-158168D01*
Y-165718D01*
X-156168D01*
G01X-156968Y-167651D02*
X-158168D01*
G01X-155118Y-165718D02*
X-153868Y-169718D01*
X-152618Y-165718D01*
G01X-150568Y-169851D02*
X-150668Y-169785D01*
Y-169651D01*
X-150568Y-169585D01*
X-150468Y-169651D01*
Y-169785D01*
X-150568Y-169851D01*
G01Y-168051D02*
X-150668Y-167985D01*
Y-167851D01*
X-150568Y-167785D01*
X-150468Y-167851D01*
Y-167985D01*
X-150568Y-168051D01*
G01X-161468Y-169718D02*
Y-165718D01*
X-160218D01*
X-159818Y-165918D01*
X-159568Y-166185D01*
X-159468Y-166718D01*
X-159568Y-167251D01*
X-159868Y-167585D01*
X-160218Y-167785D01*
X-161468D01*
G01X-160218D02*
X-159468Y-169718D01*
G01X-156168D02*
X-158168D01*
Y-165718D01*
X-156168D01*
G01X-156968Y-167651D02*
X-158168D01*
G01X-155118Y-165718D02*
X-153868Y-169718D01*
X-152618Y-165718D01*
G01X-150568Y-169851D02*
X-150668Y-169785D01*
Y-169651D01*
X-150568Y-169585D01*
X-150468Y-169651D01*
Y-169785D01*
X-150568Y-169851D01*
G01Y-168051D02*
X-150668Y-167985D01*
Y-167851D01*
X-150568Y-167785D01*
X-150468Y-167851D01*
Y-167985D01*
X-150568Y-168051D01*
G01X-149668Y-177968D02*
Y-170468D01*
X-150788Y-171968D01*
G01Y-177968D02*
X-148548D01*
G01X-144035D02*
Y-170468D01*
X-141701D01*
X-140955Y-170843D01*
X-140488Y-171343D01*
X-140301Y-172343D01*
X-140488Y-173343D01*
X-141048Y-173968D01*
X-141701Y-174343D01*
X-144035D01*
G01X-141701D02*
X-140301Y-177968D01*
G01X-134668Y-170468D02*
X-135415Y-170718D01*
X-135975Y-171343D01*
X-136348Y-172093D01*
X-136628Y-173093D01*
X-136721Y-174218D01*
X-136628Y-175343D01*
X-136348Y-176343D01*
X-135975Y-177093D01*
X-135415Y-177718D01*
X-134668Y-177968D01*
X-133921Y-177718D01*
X-133361Y-177093D01*
X-132988Y-176343D01*
X-132708Y-175343D01*
X-132615Y-174218D01*
X-132708Y-173093D01*
X-132988Y-172093D01*
X-133361Y-171343D01*
X-133921Y-170718D01*
X-134668Y-170468D01*
G01X-149668Y-177968D02*
Y-170468D01*
X-150788Y-171968D01*
G01Y-177968D02*
X-148548D01*
G01X-144035D02*
Y-170468D01*
X-141701D01*
X-140955Y-170843D01*
X-140488Y-171343D01*
X-140301Y-172343D01*
X-140488Y-173343D01*
X-141048Y-173968D01*
X-141701Y-174343D01*
X-144035D01*
G01X-141701D02*
X-140301Y-177968D01*
G01X-134668Y-170468D02*
X-135415Y-170718D01*
X-135975Y-171343D01*
X-136348Y-172093D01*
X-136628Y-173093D01*
X-136721Y-174218D01*
X-136628Y-175343D01*
X-136348Y-176343D01*
X-135975Y-177093D01*
X-135415Y-177718D01*
X-134668Y-177968D01*
X-133921Y-177718D01*
X-133361Y-177093D01*
X-132988Y-176343D01*
X-132708Y-175343D01*
X-132615Y-174218D01*
X-132708Y-173093D01*
X-132988Y-172093D01*
X-133361Y-171343D01*
X-133921Y-170718D01*
X-134668Y-170468D01*
G01X-121568Y-169718D02*
Y-165718D01*
X-120568D01*
X-120168Y-165918D01*
X-119868Y-166185D01*
X-119618Y-166585D01*
X-119418Y-167051D01*
X-119368Y-167718D01*
X-119418Y-168385D01*
X-119618Y-168851D01*
X-119868Y-169251D01*
X-120168Y-169518D01*
X-120568Y-169718D01*
X-121568D01*
G01X-118418D02*
X-117168Y-165718D01*
X-115918Y-169718D01*
G01X-116368Y-168318D02*
X-117968D01*
G01X-113868Y-165718D02*
Y-169718D01*
G01X-115018Y-165718D02*
X-112718D01*
G01X-109568Y-169718D02*
X-111568D01*
Y-165718D01*
X-109568D01*
G01X-110368Y-167651D02*
X-111568D01*
G01X-107268Y-169851D02*
X-107368Y-169785D01*
Y-169651D01*
X-107268Y-169585D01*
X-107168Y-169651D01*
Y-169785D01*
X-107268Y-169851D01*
G01Y-168051D02*
X-107368Y-167985D01*
Y-167851D01*
X-107268Y-167785D01*
X-107168Y-167851D01*
Y-167985D01*
X-107268Y-168051D01*
G01X-121568Y-169718D02*
Y-165718D01*
X-120568D01*
X-120168Y-165918D01*
X-119868Y-166185D01*
X-119618Y-166585D01*
X-119418Y-167051D01*
X-119368Y-167718D01*
X-119418Y-168385D01*
X-119618Y-168851D01*
X-119868Y-169251D01*
X-120168Y-169518D01*
X-120568Y-169718D01*
X-121568D01*
G01X-118418D02*
X-117168Y-165718D01*
X-115918Y-169718D01*
G01X-116368Y-168318D02*
X-117968D01*
G01X-113868Y-165718D02*
Y-169718D01*
G01X-115018Y-165718D02*
X-112718D01*
G01X-109568Y-169718D02*
X-111568D01*
Y-165718D01*
X-109568D01*
G01X-110368Y-167651D02*
X-111568D01*
G01X-107268Y-169851D02*
X-107368Y-169785D01*
Y-169651D01*
X-107268Y-169585D01*
X-107168Y-169651D01*
Y-169785D01*
X-107268Y-169851D01*
G01Y-168051D02*
X-107368Y-167985D01*
Y-167851D01*
X-107268Y-167785D01*
X-107168Y-167851D01*
Y-167985D01*
X-107268Y-168051D01*
G01X-85718Y-177218D02*
Y-169718D01*
X-86838Y-171218D01*
G01Y-177218D02*
X-84598D01*
G01X-78218D02*
Y-169718D01*
X-79338Y-171218D01*
G01Y-177218D02*
X-77098D01*
G01X-72398Y-177468D02*
X-69038Y-169718D01*
G01X-63218Y-177218D02*
Y-169718D01*
X-64338Y-171218D01*
G01Y-177218D02*
X-62098D01*
G01X-55718Y-169718D02*
X-56465Y-169968D01*
X-57025Y-170593D01*
X-57398Y-171343D01*
X-57678Y-172343D01*
X-57771Y-173468D01*
X-57678Y-174593D01*
X-57398Y-175593D01*
X-57025Y-176343D01*
X-56465Y-176968D01*
X-55718Y-177218D01*
X-54971Y-176968D01*
X-54411Y-176343D01*
X-54038Y-175593D01*
X-53758Y-174593D01*
X-53665Y-173468D01*
X-53758Y-172343D01*
X-54038Y-171343D01*
X-54411Y-170593D01*
X-54971Y-169968D01*
X-55718Y-169718D01*
G01X-49898Y-177468D02*
X-46538Y-169718D01*
G01X-40718Y-177218D02*
Y-169718D01*
X-41838Y-171218D01*
G01Y-177218D02*
X-39598D01*
G01X-33218Y-169718D02*
X-33965Y-169968D01*
X-34525Y-170593D01*
X-34898Y-171343D01*
X-35178Y-172343D01*
X-35271Y-173468D01*
X-35178Y-174593D01*
X-34898Y-175593D01*
X-34525Y-176343D01*
X-33965Y-176968D01*
X-33218Y-177218D01*
X-32471Y-176968D01*
X-31911Y-176343D01*
X-31538Y-175593D01*
X-31258Y-174593D01*
X-31165Y-173468D01*
X-31258Y-172343D01*
X-31538Y-171343D01*
X-31911Y-170593D01*
X-32471Y-169968D01*
X-33218Y-169718D01*
G01X-85718Y-177218D02*
Y-169718D01*
X-86838Y-171218D01*
G01Y-177218D02*
X-84598D01*
G01X-78218D02*
Y-169718D01*
X-79338Y-171218D01*
G01Y-177218D02*
X-77098D01*
G01X-72398Y-177468D02*
X-69038Y-169718D01*
G01X-63218Y-177218D02*
Y-169718D01*
X-64338Y-171218D01*
G01Y-177218D02*
X-62098D01*
G01X-55718Y-169718D02*
X-56465Y-169968D01*
X-57025Y-170593D01*
X-57398Y-171343D01*
X-57678Y-172343D01*
X-57771Y-173468D01*
X-57678Y-174593D01*
X-57398Y-175593D01*
X-57025Y-176343D01*
X-56465Y-176968D01*
X-55718Y-177218D01*
X-54971Y-176968D01*
X-54411Y-176343D01*
X-54038Y-175593D01*
X-53758Y-174593D01*
X-53665Y-173468D01*
X-53758Y-172343D01*
X-54038Y-171343D01*
X-54411Y-170593D01*
X-54971Y-169968D01*
X-55718Y-169718D01*
G01X-49898Y-177468D02*
X-46538Y-169718D01*
G01X-40718Y-177218D02*
Y-169718D01*
X-41838Y-171218D01*
G01Y-177218D02*
X-39598D01*
G01X-33218Y-169718D02*
X-33965Y-169968D01*
X-34525Y-170593D01*
X-34898Y-171343D01*
X-35178Y-172343D01*
X-35271Y-173468D01*
X-35178Y-174593D01*
X-34898Y-175593D01*
X-34525Y-176343D01*
X-33965Y-176968D01*
X-33218Y-177218D01*
X-32471Y-176968D01*
X-31911Y-176343D01*
X-31538Y-175593D01*
X-31258Y-174593D01*
X-31165Y-173468D01*
X-31258Y-172343D01*
X-31538Y-171343D01*
X-31911Y-170593D01*
X-32471Y-169968D01*
X-33218Y-169718D01*
G54D25*
X-253527Y225142D03*
X-249590D03*
X-245653D03*
X-241716D03*
X-237779D03*
X-233842D03*
X-229905D03*
X-225968D03*
X-222031D03*
X-218094D03*
X-214157D03*
X-210220D03*
X-206283D03*
X-202346D03*
X-198409D03*
G54D16*
X-406500Y-57000D03*
X-410240D03*
Y-48000D03*
X-402760Y-57000D03*
Y-48000D03*
X-316992Y18292D03*
X-320732D03*
Y27292D03*
X-313252Y18292D03*
Y27292D03*
G54D34*
X-106545Y194896D03*
X-109695D03*
X-106545Y201392D03*
X-109695D03*
X-80377Y111056D03*
X-83527D03*
X-80377Y117552D03*
X-83527D03*
G54D17*
X-395969Y39854D03*
Y34146D03*
X-394000D03*
X-392031D03*
Y39854D03*
X-394000D03*
X-340531Y86146D03*
Y91854D03*
X-342500D03*
X-344469D03*
Y86146D03*
X-342500D03*
X-344469Y124146D03*
X-342500D03*
X-340531D03*
X-344469Y129854D03*
X-340531D03*
X-342500D03*
G54D35*
X-106545Y197160D03*
X-109695D03*
X-106545Y199128D03*
X-109695D03*
X-80377Y113320D03*
X-83527D03*
X-80377Y115288D03*
X-83527D03*
G54D26*
X-187800Y-75500D03*
X-172200D03*
G54D36*
X-95874Y73969D03*
Y70031D03*
Y72000D03*
Y68063D03*
Y75937D03*
X-99494Y191207D03*
Y199081D03*
Y193175D03*
Y195144D03*
Y197113D03*
X-59374Y51063D03*
Y53031D03*
Y55000D03*
Y56969D03*
Y58937D03*
G54D27*
X-176354Y97031D03*
X-170646D03*
Y99000D03*
Y100969D03*
X-176354D03*
X-29854Y45031D03*
Y47000D03*
Y48969D03*
X-24146Y45031D03*
Y47000D03*
Y48969D03*
G54D18*
X-329644Y162328D03*
X-321244D03*
X-311520Y144992D03*
X-304892Y177796D03*
X-303120Y144992D03*
X-296492Y177796D03*
X-280788Y177300D03*
X-272388D03*
X-177200Y90500D03*
X-168800D03*
X-162200Y99000D03*
X-153800D03*
X-84200Y47500D03*
Y56000D03*
X-75800Y47500D03*
Y56000D03*
X-74200Y64500D03*
X-72200Y77000D03*
X-65800Y64500D03*
X-63800Y77000D03*
G54D28*
X-175500Y139150D03*
Y150850D03*
G54D37*
X-91937Y64126D03*
X-89969D03*
X-88000D03*
X-95557Y187270D03*
X-93589D03*
X-89651D03*
X-91620D03*
X-87683D03*
X-86031Y64126D03*
X-84063D03*
X-55437Y47126D03*
X-53469D03*
X-49531D03*
X-51500D03*
X-47563D03*
G54D19*
X-313608Y159176D03*
X-302608D03*
X-175500Y167500D03*
X-164500D03*
G54D38*
X-91937Y79874D03*
X-89969D03*
X-88000D03*
X-87683Y203018D03*
X-89651D03*
X-91620D03*
X-93589D03*
X-95557D03*
X-84063Y79874D03*
X-86031D03*
X-55437Y62874D03*
X-47563D03*
X-49531D03*
X-51500D03*
X-53469D03*
G54D29*
X-166700Y115500D03*
X-155300D03*
G54D39*
X-80126Y68063D03*
Y70031D03*
Y72000D03*
Y73969D03*
Y75937D03*
X-83746Y191207D03*
Y193175D03*
Y195144D03*
Y197113D03*
Y199081D03*
X-43626Y51063D03*
Y53031D03*
Y55000D03*
Y56969D03*
Y58937D03*
M02*
